G04 #@! TF.GenerationSoftware,KiCad,Pcbnew,(5.1.9)-1*
G04 #@! TF.CreationDate,2021-10-01T15:11:33-04:00*
G04 #@! TF.ProjectId,GBZ2,47425a32-2e6b-4696-9361-645f70636258,rev?*
G04 #@! TF.SameCoordinates,Original*
G04 #@! TF.FileFunction,Copper,L1,Top*
G04 #@! TF.FilePolarity,Positive*
%FSLAX46Y46*%
G04 Gerber Fmt 4.6, Leading zero omitted, Abs format (unit mm)*
G04 Created by KiCad (PCBNEW (5.1.9)-1) date 2021-10-01 15:11:33*
%MOMM*%
%LPD*%
G01*
G04 APERTURE LIST*
G04 #@! TA.AperFunction,ComponentPad*
%ADD10C,2.000000*%
G04 #@! TD*
G04 #@! TA.AperFunction,SMDPad,CuDef*
%ADD11R,2.500000X1.800000*%
G04 #@! TD*
G04 #@! TA.AperFunction,Conductor*
%ADD12C,0.250000*%
G04 #@! TD*
G04 #@! TA.AperFunction,Conductor*
%ADD13C,0.254000*%
G04 #@! TD*
G04 #@! TA.AperFunction,Conductor*
%ADD14C,0.100000*%
G04 #@! TD*
G04 APERTURE END LIST*
D10*
X108025000Y-150999891D03*
X108025000Y-146569891D03*
X116225000Y-150999891D03*
X116225000Y-146569891D03*
X70275165Y-150999891D03*
X70275165Y-146569891D03*
X78475165Y-150999891D03*
X78475165Y-146569891D03*
X73630000Y-133300000D03*
X69200000Y-133300000D03*
X73630000Y-125100000D03*
X69200000Y-125100000D03*
G04 #@! TA.AperFunction,ComponentPad*
G36*
G01*
X85950000Y-128050000D02*
X85950000Y-129350000D01*
G75*
G02*
X85200000Y-130100000I-750000J0D01*
G01*
X85200000Y-130100000D01*
G75*
G02*
X84450000Y-129350000I0J750000D01*
G01*
X84450000Y-128050000D01*
G75*
G02*
X85200000Y-127300000I750000J0D01*
G01*
X85200000Y-127300000D01*
G75*
G02*
X85950000Y-128050000I0J-750000D01*
G01*
G37*
G04 #@! TD.AperFunction*
G04 #@! TA.AperFunction,ComponentPad*
G36*
G01*
X100550000Y-129350000D02*
X100550000Y-128050000D01*
G75*
G02*
X101300000Y-127300000I750000J0D01*
G01*
X101300000Y-127300000D01*
G75*
G02*
X102050000Y-128050000I0J-750000D01*
G01*
X102050000Y-129350000D01*
G75*
G02*
X101300000Y-130100000I-750000J0D01*
G01*
X101300000Y-130100000D01*
G75*
G02*
X100550000Y-129350000I0J750000D01*
G01*
G37*
G04 #@! TD.AperFunction*
G04 #@! TA.AperFunction,SMDPad,CuDef*
G36*
G01*
X105350001Y-134450000D02*
X104449999Y-134450000D01*
G75*
G02*
X104200000Y-134200001I0J249999D01*
G01*
X104200000Y-133549999D01*
G75*
G02*
X104449999Y-133300000I249999J0D01*
G01*
X105350001Y-133300000D01*
G75*
G02*
X105600000Y-133549999I0J-249999D01*
G01*
X105600000Y-134200001D01*
G75*
G02*
X105350001Y-134450000I-249999J0D01*
G01*
G37*
G04 #@! TD.AperFunction*
G04 #@! TA.AperFunction,SMDPad,CuDef*
G36*
G01*
X105350001Y-136500000D02*
X104449999Y-136500000D01*
G75*
G02*
X104200000Y-136250001I0J249999D01*
G01*
X104200000Y-135599999D01*
G75*
G02*
X104449999Y-135350000I249999J0D01*
G01*
X105350001Y-135350000D01*
G75*
G02*
X105600000Y-135599999I0J-249999D01*
G01*
X105600000Y-136250001D01*
G75*
G02*
X105350001Y-136500000I-249999J0D01*
G01*
G37*
G04 #@! TD.AperFunction*
G04 #@! TA.AperFunction,SMDPad,CuDef*
G36*
G01*
X92650001Y-134550000D02*
X91749999Y-134550000D01*
G75*
G02*
X91500000Y-134300001I0J249999D01*
G01*
X91500000Y-133649999D01*
G75*
G02*
X91749999Y-133400000I249999J0D01*
G01*
X92650001Y-133400000D01*
G75*
G02*
X92900000Y-133649999I0J-249999D01*
G01*
X92900000Y-134300001D01*
G75*
G02*
X92650001Y-134550000I-249999J0D01*
G01*
G37*
G04 #@! TD.AperFunction*
G04 #@! TA.AperFunction,SMDPad,CuDef*
G36*
G01*
X92650001Y-136600000D02*
X91749999Y-136600000D01*
G75*
G02*
X91500000Y-136350001I0J249999D01*
G01*
X91500000Y-135699999D01*
G75*
G02*
X91749999Y-135450000I249999J0D01*
G01*
X92650001Y-135450000D01*
G75*
G02*
X92900000Y-135699999I0J-249999D01*
G01*
X92900000Y-136350001D01*
G75*
G02*
X92650001Y-136600000I-249999J0D01*
G01*
G37*
G04 #@! TD.AperFunction*
G04 #@! TA.AperFunction,ComponentPad*
G36*
G01*
X96520000Y-129350000D02*
X96520000Y-128050000D01*
G75*
G02*
X97270000Y-127300000I750000J0D01*
G01*
X97270000Y-127300000D01*
G75*
G02*
X98020000Y-128050000I0J-750000D01*
G01*
X98020000Y-129350000D01*
G75*
G02*
X97270000Y-130100000I-750000J0D01*
G01*
X97270000Y-130100000D01*
G75*
G02*
X96520000Y-129350000I0J750000D01*
G01*
G37*
G04 #@! TD.AperFunction*
G04 #@! TA.AperFunction,ComponentPad*
G36*
G01*
X84450000Y-123950000D02*
X84450000Y-122650000D01*
G75*
G02*
X85200000Y-121900000I750000J0D01*
G01*
X85200000Y-121900000D01*
G75*
G02*
X85950000Y-122650000I0J-750000D01*
G01*
X85950000Y-123950000D01*
G75*
G02*
X85200000Y-124700000I-750000J0D01*
G01*
X85200000Y-124700000D01*
G75*
G02*
X84450000Y-123950000I0J750000D01*
G01*
G37*
G04 #@! TD.AperFunction*
G04 #@! TA.AperFunction,ComponentPad*
G36*
G01*
X87750000Y-123950000D02*
X87750000Y-122650000D01*
G75*
G02*
X88500000Y-121900000I750000J0D01*
G01*
X88500000Y-121900000D01*
G75*
G02*
X89250000Y-122650000I0J-750000D01*
G01*
X89250000Y-123950000D01*
G75*
G02*
X88500000Y-124700000I-750000J0D01*
G01*
X88500000Y-124700000D01*
G75*
G02*
X87750000Y-123950000I0J750000D01*
G01*
G37*
G04 #@! TD.AperFunction*
G04 #@! TA.AperFunction,ComponentPad*
G36*
G01*
X97330000Y-123950000D02*
X97330000Y-122650000D01*
G75*
G02*
X98080000Y-121900000I750000J0D01*
G01*
X98080000Y-121900000D01*
G75*
G02*
X98830000Y-122650000I0J-750000D01*
G01*
X98830000Y-123950000D01*
G75*
G02*
X98080000Y-124700000I-750000J0D01*
G01*
X98080000Y-124700000D01*
G75*
G02*
X97330000Y-123950000I0J750000D01*
G01*
G37*
G04 #@! TD.AperFunction*
G04 #@! TA.AperFunction,ComponentPad*
G36*
G01*
X100550000Y-123950000D02*
X100550000Y-122650000D01*
G75*
G02*
X101300000Y-121900000I750000J0D01*
G01*
X101300000Y-121900000D01*
G75*
G02*
X102050000Y-122650000I0J-750000D01*
G01*
X102050000Y-123950000D01*
G75*
G02*
X101300000Y-124700000I-750000J0D01*
G01*
X101300000Y-124700000D01*
G75*
G02*
X100550000Y-123950000I0J750000D01*
G01*
G37*
G04 #@! TD.AperFunction*
G04 #@! TA.AperFunction,ComponentPad*
G36*
G01*
X94110000Y-123950000D02*
X94110000Y-122650000D01*
G75*
G02*
X94860000Y-121900000I750000J0D01*
G01*
X94860000Y-121900000D01*
G75*
G02*
X95610000Y-122650000I0J-750000D01*
G01*
X95610000Y-123950000D01*
G75*
G02*
X94860000Y-124700000I-750000J0D01*
G01*
X94860000Y-124700000D01*
G75*
G02*
X94110000Y-123950000I0J750000D01*
G01*
G37*
G04 #@! TD.AperFunction*
G04 #@! TA.AperFunction,ComponentPad*
G36*
G01*
X90890000Y-123950000D02*
X90890000Y-122650000D01*
G75*
G02*
X91640000Y-121900000I750000J0D01*
G01*
X91640000Y-121900000D01*
G75*
G02*
X92390000Y-122650000I0J-750000D01*
G01*
X92390000Y-123950000D01*
G75*
G02*
X91640000Y-124700000I-750000J0D01*
G01*
X91640000Y-124700000D01*
G75*
G02*
X90890000Y-123950000I0J750000D01*
G01*
G37*
G04 #@! TD.AperFunction*
G04 #@! TA.AperFunction,ComponentPad*
G36*
G01*
X92490000Y-129350000D02*
X92490000Y-128050000D01*
G75*
G02*
X93240000Y-127300000I750000J0D01*
G01*
X93240000Y-127300000D01*
G75*
G02*
X93990000Y-128050000I0J-750000D01*
G01*
X93990000Y-129350000D01*
G75*
G02*
X93240000Y-130100000I-750000J0D01*
G01*
X93240000Y-130100000D01*
G75*
G02*
X92490000Y-129350000I0J750000D01*
G01*
G37*
G04 #@! TD.AperFunction*
G04 #@! TA.AperFunction,ComponentPad*
G36*
G01*
X88460000Y-129350000D02*
X88460000Y-128050000D01*
G75*
G02*
X89210000Y-127300000I750000J0D01*
G01*
X89210000Y-127300000D01*
G75*
G02*
X89960000Y-128050000I0J-750000D01*
G01*
X89960000Y-129350000D01*
G75*
G02*
X89210000Y-130100000I-750000J0D01*
G01*
X89210000Y-130100000D01*
G75*
G02*
X88460000Y-129350000I0J750000D01*
G01*
G37*
G04 #@! TD.AperFunction*
D11*
X91200000Y-140800000D03*
X95200000Y-140800000D03*
X82800000Y-136600000D03*
X86800000Y-136600000D03*
X100200000Y-136600000D03*
X96200000Y-136600000D03*
D10*
X117314800Y-133299938D03*
X112884800Y-133299938D03*
X117314800Y-125099938D03*
X112884800Y-125099938D03*
D12*
X97270000Y-128700000D02*
X97270000Y-130470000D01*
X100200000Y-133400000D02*
X100200000Y-136600000D01*
X97270000Y-130470000D02*
X100200000Y-133400000D01*
X89210000Y-134190000D02*
X86800000Y-136600000D01*
X89210000Y-128700000D02*
X89210000Y-134190000D01*
X89210000Y-134190000D02*
X89210000Y-135010000D01*
X90225000Y-136025000D02*
X92200000Y-136025000D01*
X89210000Y-135010000D02*
X90225000Y-136025000D01*
X95625000Y-136025000D02*
X96200000Y-136600000D01*
X92200000Y-136025000D02*
X95625000Y-136025000D01*
X87000000Y-140800000D02*
X91200000Y-140800000D01*
X82800000Y-136600000D02*
X87000000Y-140800000D01*
X82800000Y-131100000D02*
X85200000Y-128700000D01*
X82800000Y-136600000D02*
X82800000Y-131100000D01*
X95200000Y-140800000D02*
X97600000Y-140800000D01*
X97600000Y-140800000D02*
X98900000Y-139500000D01*
X98900000Y-139500000D02*
X103800000Y-139500000D01*
X104900000Y-138400000D02*
X104900000Y-135925000D01*
X103800000Y-139500000D02*
X104900000Y-138400000D01*
X101300000Y-128700000D02*
X101300000Y-133800000D01*
X103425000Y-135925000D02*
X104900000Y-135925000D01*
X101300000Y-133800000D02*
X103425000Y-135925000D01*
X103299938Y-125099938D02*
X101300000Y-123100000D01*
X112884800Y-125099938D02*
X103299938Y-125099938D01*
X112884800Y-125099938D02*
X112884800Y-133299938D01*
X108025000Y-146569891D02*
X108025000Y-127325000D01*
X108025000Y-127325000D02*
X106500000Y-125800000D01*
X100780000Y-125800000D02*
X98080000Y-123100000D01*
X106500000Y-125800000D02*
X100780000Y-125800000D01*
X108025000Y-146569891D02*
X116225000Y-146569891D01*
X73614965Y-133299938D02*
X73614965Y-125099938D01*
X73614965Y-125099938D02*
X73999938Y-125099938D01*
X73999938Y-125099938D02*
X74300000Y-125400000D01*
X82900000Y-125400000D02*
X85200000Y-123100000D01*
X74300000Y-125400000D02*
X82900000Y-125400000D01*
X70275165Y-146569891D02*
X78475165Y-146569891D01*
X78475165Y-146569891D02*
X78475165Y-128024835D01*
X78475165Y-128024835D02*
X80300000Y-126200000D01*
X80300000Y-126200000D02*
X87300000Y-126200000D01*
X88500000Y-125000000D02*
X88500000Y-123100000D01*
X87300000Y-126200000D02*
X88500000Y-125000000D01*
D13*
X68394038Y-120152319D02*
X68152373Y-120393984D01*
X67962499Y-120678151D01*
X67831711Y-120993901D01*
X67765036Y-121329099D01*
X67765036Y-121670865D01*
X67831711Y-122006063D01*
X67962499Y-122321813D01*
X68152373Y-122605980D01*
X68394038Y-122847645D01*
X68678205Y-123037519D01*
X68993955Y-123168307D01*
X69329153Y-123234982D01*
X69670919Y-123234982D01*
X70006117Y-123168307D01*
X70321867Y-123037519D01*
X70606034Y-122847645D01*
X70847699Y-122605980D01*
X71037573Y-122321813D01*
X71168361Y-122006063D01*
X71235036Y-121670865D01*
X71235036Y-121329099D01*
X71168361Y-120993901D01*
X71037573Y-120678151D01*
X70847699Y-120393984D01*
X70606034Y-120152319D01*
X70568141Y-120127000D01*
X115931895Y-120127000D01*
X115894002Y-120152319D01*
X115652337Y-120393984D01*
X115462463Y-120678151D01*
X115331675Y-120993901D01*
X115265000Y-121329099D01*
X115265000Y-121670865D01*
X115331675Y-122006063D01*
X115462463Y-122321813D01*
X115652337Y-122605980D01*
X115894002Y-122847645D01*
X116178169Y-123037519D01*
X116493919Y-123168307D01*
X116829117Y-123234982D01*
X117170883Y-123234982D01*
X117506081Y-123168307D01*
X117821831Y-123037519D01*
X118105998Y-122847645D01*
X118347663Y-122605980D01*
X118537537Y-122321813D01*
X118668325Y-122006063D01*
X118735000Y-121670865D01*
X118735000Y-121329099D01*
X118668325Y-120993901D01*
X118537537Y-120678151D01*
X118347663Y-120393984D01*
X118105998Y-120152319D01*
X118068105Y-120127000D01*
X119315000Y-120127000D01*
X119315001Y-154689989D01*
X104985000Y-154689989D01*
X104985000Y-152135304D01*
X107069192Y-152135304D01*
X107164956Y-152399705D01*
X107454571Y-152540595D01*
X107766108Y-152622275D01*
X108087595Y-152641609D01*
X108406675Y-152597852D01*
X108711088Y-152492686D01*
X108885044Y-152399705D01*
X108980808Y-152135304D01*
X115269192Y-152135304D01*
X115364956Y-152399705D01*
X115654571Y-152540595D01*
X115966108Y-152622275D01*
X116287595Y-152641609D01*
X116606675Y-152597852D01*
X116911088Y-152492686D01*
X117085044Y-152399705D01*
X117180808Y-152135304D01*
X116225000Y-151179496D01*
X115269192Y-152135304D01*
X108980808Y-152135304D01*
X108025000Y-151179496D01*
X107069192Y-152135304D01*
X104985000Y-152135304D01*
X104985000Y-151062486D01*
X106383282Y-151062486D01*
X106427039Y-151381566D01*
X106532205Y-151685979D01*
X106625186Y-151859935D01*
X106889587Y-151955699D01*
X107845395Y-150999891D01*
X108204605Y-150999891D01*
X109160413Y-151955699D01*
X109424814Y-151859935D01*
X109565704Y-151570320D01*
X109647384Y-151258783D01*
X109659189Y-151062486D01*
X114583282Y-151062486D01*
X114627039Y-151381566D01*
X114732205Y-151685979D01*
X114825186Y-151859935D01*
X115089587Y-151955699D01*
X116045395Y-150999891D01*
X116404605Y-150999891D01*
X117360413Y-151955699D01*
X117624814Y-151859935D01*
X117765704Y-151570320D01*
X117847384Y-151258783D01*
X117866718Y-150937296D01*
X117822961Y-150618216D01*
X117717795Y-150313803D01*
X117624814Y-150139847D01*
X117360413Y-150044083D01*
X116404605Y-150999891D01*
X116045395Y-150999891D01*
X115089587Y-150044083D01*
X114825186Y-150139847D01*
X114684296Y-150429462D01*
X114602616Y-150740999D01*
X114583282Y-151062486D01*
X109659189Y-151062486D01*
X109666718Y-150937296D01*
X109622961Y-150618216D01*
X109517795Y-150313803D01*
X109424814Y-150139847D01*
X109160413Y-150044083D01*
X108204605Y-150999891D01*
X107845395Y-150999891D01*
X106889587Y-150044083D01*
X106625186Y-150139847D01*
X106484296Y-150429462D01*
X106402616Y-150740999D01*
X106383282Y-151062486D01*
X104985000Y-151062486D01*
X104985000Y-149864478D01*
X107069192Y-149864478D01*
X108025000Y-150820286D01*
X108980808Y-149864478D01*
X115269192Y-149864478D01*
X116225000Y-150820286D01*
X117180808Y-149864478D01*
X117085044Y-149600077D01*
X116795429Y-149459187D01*
X116483892Y-149377507D01*
X116162405Y-149358173D01*
X115843325Y-149401930D01*
X115538912Y-149507096D01*
X115364956Y-149600077D01*
X115269192Y-149864478D01*
X108980808Y-149864478D01*
X108885044Y-149600077D01*
X108595429Y-149459187D01*
X108283892Y-149377507D01*
X107962405Y-149358173D01*
X107643325Y-149401930D01*
X107338912Y-149507096D01*
X107164956Y-149600077D01*
X107069192Y-149864478D01*
X104985000Y-149864478D01*
X104985000Y-148712612D01*
X104988314Y-148678965D01*
X104975088Y-148544682D01*
X104935919Y-148415559D01*
X104872312Y-148296558D01*
X104786711Y-148192254D01*
X104682407Y-148106653D01*
X104563406Y-148043046D01*
X104434283Y-148003877D01*
X104333647Y-147993965D01*
X104300000Y-147990651D01*
X104266353Y-147993965D01*
X82233647Y-147993965D01*
X82200000Y-147990651D01*
X82166353Y-147993965D01*
X82065717Y-148003877D01*
X81936594Y-148043046D01*
X81817593Y-148106653D01*
X81713289Y-148192254D01*
X81627688Y-148296558D01*
X81564081Y-148415559D01*
X81524912Y-148544682D01*
X81511686Y-148678965D01*
X81515000Y-148712612D01*
X81515001Y-154689989D01*
X67185036Y-154689989D01*
X67185036Y-152135304D01*
X69319357Y-152135304D01*
X69415121Y-152399705D01*
X69704736Y-152540595D01*
X70016273Y-152622275D01*
X70337760Y-152641609D01*
X70656840Y-152597852D01*
X70961253Y-152492686D01*
X71135209Y-152399705D01*
X71230973Y-152135304D01*
X77519357Y-152135304D01*
X77615121Y-152399705D01*
X77904736Y-152540595D01*
X78216273Y-152622275D01*
X78537760Y-152641609D01*
X78856840Y-152597852D01*
X79161253Y-152492686D01*
X79335209Y-152399705D01*
X79430973Y-152135304D01*
X78475165Y-151179496D01*
X77519357Y-152135304D01*
X71230973Y-152135304D01*
X70275165Y-151179496D01*
X69319357Y-152135304D01*
X67185036Y-152135304D01*
X67185036Y-151062486D01*
X68633447Y-151062486D01*
X68677204Y-151381566D01*
X68782370Y-151685979D01*
X68875351Y-151859935D01*
X69139752Y-151955699D01*
X70095560Y-150999891D01*
X70454770Y-150999891D01*
X71410578Y-151955699D01*
X71674979Y-151859935D01*
X71815869Y-151570320D01*
X71897549Y-151258783D01*
X71909354Y-151062486D01*
X76833447Y-151062486D01*
X76877204Y-151381566D01*
X76982370Y-151685979D01*
X77075351Y-151859935D01*
X77339752Y-151955699D01*
X78295560Y-150999891D01*
X78654770Y-150999891D01*
X79610578Y-151955699D01*
X79874979Y-151859935D01*
X80015869Y-151570320D01*
X80097549Y-151258783D01*
X80116883Y-150937296D01*
X80073126Y-150618216D01*
X79967960Y-150313803D01*
X79874979Y-150139847D01*
X79610578Y-150044083D01*
X78654770Y-150999891D01*
X78295560Y-150999891D01*
X77339752Y-150044083D01*
X77075351Y-150139847D01*
X76934461Y-150429462D01*
X76852781Y-150740999D01*
X76833447Y-151062486D01*
X71909354Y-151062486D01*
X71916883Y-150937296D01*
X71873126Y-150618216D01*
X71767960Y-150313803D01*
X71674979Y-150139847D01*
X71410578Y-150044083D01*
X70454770Y-150999891D01*
X70095560Y-150999891D01*
X69139752Y-150044083D01*
X68875351Y-150139847D01*
X68734461Y-150429462D01*
X68652781Y-150740999D01*
X68633447Y-151062486D01*
X67185036Y-151062486D01*
X67185036Y-149864478D01*
X69319357Y-149864478D01*
X70275165Y-150820286D01*
X71230973Y-149864478D01*
X77519357Y-149864478D01*
X78475165Y-150820286D01*
X79430973Y-149864478D01*
X79335209Y-149600077D01*
X79045594Y-149459187D01*
X78734057Y-149377507D01*
X78412570Y-149358173D01*
X78093490Y-149401930D01*
X77789077Y-149507096D01*
X77615121Y-149600077D01*
X77519357Y-149864478D01*
X71230973Y-149864478D01*
X71135209Y-149600077D01*
X70845594Y-149459187D01*
X70534057Y-149377507D01*
X70212570Y-149358173D01*
X69893490Y-149401930D01*
X69589077Y-149507096D01*
X69415121Y-149600077D01*
X69319357Y-149864478D01*
X67185036Y-149864478D01*
X67185036Y-146408858D01*
X68640165Y-146408858D01*
X68640165Y-146730924D01*
X68702997Y-147046803D01*
X68826247Y-147344354D01*
X69005178Y-147612143D01*
X69232913Y-147839878D01*
X69500702Y-148018809D01*
X69798253Y-148142059D01*
X70114132Y-148204891D01*
X70436198Y-148204891D01*
X70752077Y-148142059D01*
X71049628Y-148018809D01*
X71317417Y-147839878D01*
X71545152Y-147612143D01*
X71724083Y-147344354D01*
X71730074Y-147329891D01*
X77020256Y-147329891D01*
X77026247Y-147344354D01*
X77205178Y-147612143D01*
X77432913Y-147839878D01*
X77700702Y-148018809D01*
X77998253Y-148142059D01*
X78314132Y-148204891D01*
X78636198Y-148204891D01*
X78952077Y-148142059D01*
X79249628Y-148018809D01*
X79517417Y-147839878D01*
X79745152Y-147612143D01*
X79924083Y-147344354D01*
X80047333Y-147046803D01*
X80110165Y-146730924D01*
X80110165Y-146408858D01*
X80047333Y-146092979D01*
X79924083Y-145795428D01*
X79745152Y-145527639D01*
X79517417Y-145299904D01*
X79249628Y-145120973D01*
X79235165Y-145114982D01*
X79235165Y-142504362D01*
X83540151Y-142504362D01*
X83540151Y-142846128D01*
X83606826Y-143181326D01*
X83737614Y-143497076D01*
X83927488Y-143781243D01*
X84169153Y-144022908D01*
X84453320Y-144212782D01*
X84769070Y-144343570D01*
X85104268Y-144410245D01*
X85446034Y-144410245D01*
X85781232Y-144343570D01*
X86096982Y-144212782D01*
X86381149Y-144022908D01*
X86622814Y-143781243D01*
X86812688Y-143497076D01*
X86943476Y-143181326D01*
X87010151Y-142846128D01*
X87010151Y-142504362D01*
X99490151Y-142504362D01*
X99490151Y-142846128D01*
X99556826Y-143181326D01*
X99687614Y-143497076D01*
X99877488Y-143781243D01*
X100119153Y-144022908D01*
X100403320Y-144212782D01*
X100719070Y-144343570D01*
X101054268Y-144410245D01*
X101396034Y-144410245D01*
X101731232Y-144343570D01*
X102046982Y-144212782D01*
X102331149Y-144022908D01*
X102572814Y-143781243D01*
X102762688Y-143497076D01*
X102893476Y-143181326D01*
X102960151Y-142846128D01*
X102960151Y-142504362D01*
X102893476Y-142169164D01*
X102762688Y-141853414D01*
X102572814Y-141569247D01*
X102331149Y-141327582D01*
X102046982Y-141137708D01*
X101731232Y-141006920D01*
X101396034Y-140940245D01*
X101054268Y-140940245D01*
X100719070Y-141006920D01*
X100403320Y-141137708D01*
X100119153Y-141327582D01*
X99877488Y-141569247D01*
X99687614Y-141853414D01*
X99556826Y-142169164D01*
X99490151Y-142504362D01*
X87010151Y-142504362D01*
X86943476Y-142169164D01*
X86812688Y-141853414D01*
X86622814Y-141569247D01*
X86381149Y-141327582D01*
X86096982Y-141137708D01*
X85781232Y-141006920D01*
X85446034Y-140940245D01*
X85104268Y-140940245D01*
X84769070Y-141006920D01*
X84453320Y-141137708D01*
X84169153Y-141327582D01*
X83927488Y-141569247D01*
X83737614Y-141853414D01*
X83606826Y-142169164D01*
X83540151Y-142504362D01*
X79235165Y-142504362D01*
X79235165Y-128339636D01*
X80614803Y-126960000D01*
X84350673Y-126960000D01*
X84218484Y-127068485D01*
X84045859Y-127278829D01*
X83917588Y-127518808D01*
X83838598Y-127779201D01*
X83811927Y-128050000D01*
X83811927Y-129013271D01*
X82288998Y-130536201D01*
X82260000Y-130559999D01*
X82236202Y-130588997D01*
X82236201Y-130588998D01*
X82165026Y-130675724D01*
X82094454Y-130807754D01*
X82050998Y-130951015D01*
X82036324Y-131100000D01*
X82040001Y-131137332D01*
X82040000Y-135061928D01*
X81550000Y-135061928D01*
X81425518Y-135074188D01*
X81305820Y-135110498D01*
X81195506Y-135169463D01*
X81098815Y-135248815D01*
X81019463Y-135345506D01*
X80960498Y-135455820D01*
X80924188Y-135575518D01*
X80911928Y-135700000D01*
X80911928Y-137500000D01*
X80924188Y-137624482D01*
X80960498Y-137744180D01*
X81019463Y-137854494D01*
X81098815Y-137951185D01*
X81195506Y-138030537D01*
X81305820Y-138089502D01*
X81425518Y-138125812D01*
X81550000Y-138138072D01*
X83263271Y-138138072D01*
X86436201Y-141311003D01*
X86459999Y-141340001D01*
X86488997Y-141363799D01*
X86575723Y-141434974D01*
X86707753Y-141505546D01*
X86851014Y-141549003D01*
X86962667Y-141560000D01*
X86962677Y-141560000D01*
X87000000Y-141563676D01*
X87037323Y-141560000D01*
X89311928Y-141560000D01*
X89311928Y-141700000D01*
X89324188Y-141824482D01*
X89360498Y-141944180D01*
X89419463Y-142054494D01*
X89498815Y-142151185D01*
X89595506Y-142230537D01*
X89705820Y-142289502D01*
X89825518Y-142325812D01*
X89950000Y-142338072D01*
X92450000Y-142338072D01*
X92574482Y-142325812D01*
X92694180Y-142289502D01*
X92804494Y-142230537D01*
X92901185Y-142151185D01*
X92980537Y-142054494D01*
X93039502Y-141944180D01*
X93075812Y-141824482D01*
X93088072Y-141700000D01*
X93088072Y-139900000D01*
X93311928Y-139900000D01*
X93311928Y-141700000D01*
X93324188Y-141824482D01*
X93360498Y-141944180D01*
X93419463Y-142054494D01*
X93498815Y-142151185D01*
X93595506Y-142230537D01*
X93705820Y-142289502D01*
X93825518Y-142325812D01*
X93950000Y-142338072D01*
X96450000Y-142338072D01*
X96574482Y-142325812D01*
X96694180Y-142289502D01*
X96804494Y-142230537D01*
X96901185Y-142151185D01*
X96980537Y-142054494D01*
X97039502Y-141944180D01*
X97075812Y-141824482D01*
X97088072Y-141700000D01*
X97088072Y-141560000D01*
X97562678Y-141560000D01*
X97600000Y-141563676D01*
X97637322Y-141560000D01*
X97637333Y-141560000D01*
X97748986Y-141549003D01*
X97892247Y-141505546D01*
X98024276Y-141434974D01*
X98140001Y-141340001D01*
X98163804Y-141310997D01*
X99214802Y-140260000D01*
X103762678Y-140260000D01*
X103800000Y-140263676D01*
X103837322Y-140260000D01*
X103837333Y-140260000D01*
X103948986Y-140249003D01*
X104092247Y-140205546D01*
X104224276Y-140134974D01*
X104340001Y-140040001D01*
X104363804Y-140010998D01*
X105411004Y-138963798D01*
X105440001Y-138940001D01*
X105466332Y-138907917D01*
X105534974Y-138824277D01*
X105605546Y-138692247D01*
X105605546Y-138692246D01*
X105649003Y-138548986D01*
X105660000Y-138437333D01*
X105660000Y-138437323D01*
X105663676Y-138400000D01*
X105660000Y-138362677D01*
X105660000Y-137079527D01*
X105689851Y-137070472D01*
X105843387Y-136988405D01*
X105977962Y-136877962D01*
X106088405Y-136743387D01*
X106170472Y-136589851D01*
X106221008Y-136423255D01*
X106238072Y-136250001D01*
X106238072Y-135599999D01*
X106221008Y-135426745D01*
X106170472Y-135260149D01*
X106088405Y-135106613D01*
X105977962Y-134972038D01*
X105971406Y-134966658D01*
X106051185Y-134901185D01*
X106130537Y-134804494D01*
X106189502Y-134694180D01*
X106225812Y-134574482D01*
X106238072Y-134450000D01*
X106235000Y-134160750D01*
X106076250Y-134002000D01*
X105027000Y-134002000D01*
X105027000Y-134022000D01*
X104773000Y-134022000D01*
X104773000Y-134002000D01*
X103723750Y-134002000D01*
X103565000Y-134160750D01*
X103561928Y-134450000D01*
X103574188Y-134574482D01*
X103610498Y-134694180D01*
X103669463Y-134804494D01*
X103748815Y-134901185D01*
X103828594Y-134966658D01*
X103822038Y-134972038D01*
X103711595Y-135106613D01*
X103701082Y-135126281D01*
X102060000Y-133485199D01*
X102060000Y-133300000D01*
X103561928Y-133300000D01*
X103565000Y-133589250D01*
X103723750Y-133748000D01*
X104773000Y-133748000D01*
X104773000Y-132823750D01*
X105027000Y-132823750D01*
X105027000Y-133748000D01*
X106076250Y-133748000D01*
X106235000Y-133589250D01*
X106238072Y-133300000D01*
X106225812Y-133175518D01*
X106189502Y-133055820D01*
X106130537Y-132945506D01*
X106051185Y-132848815D01*
X105954494Y-132769463D01*
X105844180Y-132710498D01*
X105724482Y-132674188D01*
X105600000Y-132661928D01*
X105185750Y-132665000D01*
X105027000Y-132823750D01*
X104773000Y-132823750D01*
X104614250Y-132665000D01*
X104200000Y-132661928D01*
X104075518Y-132674188D01*
X103955820Y-132710498D01*
X103845506Y-132769463D01*
X103748815Y-132848815D01*
X103669463Y-132945506D01*
X103610498Y-133055820D01*
X103574188Y-133175518D01*
X103561928Y-133300000D01*
X102060000Y-133300000D01*
X102060000Y-130510112D01*
X102071172Y-130504140D01*
X102281516Y-130331515D01*
X102454141Y-130121171D01*
X102582412Y-129881192D01*
X102661402Y-129620799D01*
X102688073Y-129350000D01*
X102688073Y-128050000D01*
X102661402Y-127779201D01*
X102582412Y-127518808D01*
X102454141Y-127278829D01*
X102281516Y-127068485D01*
X102071172Y-126895860D01*
X101831193Y-126767589D01*
X101570800Y-126688599D01*
X101300001Y-126661928D01*
X101299999Y-126661928D01*
X101029200Y-126688599D01*
X100768807Y-126767589D01*
X100528828Y-126895860D01*
X100318484Y-127068485D01*
X100145859Y-127278829D01*
X100017588Y-127518808D01*
X99938598Y-127779201D01*
X99911927Y-128050000D01*
X99911927Y-129350000D01*
X99938598Y-129620799D01*
X100017588Y-129881192D01*
X100145859Y-130121171D01*
X100318484Y-130331515D01*
X100528828Y-130504140D01*
X100540000Y-130510112D01*
X100540001Y-132665199D01*
X98226690Y-130351889D01*
X98251516Y-130331515D01*
X98424141Y-130121171D01*
X98552412Y-129881192D01*
X98631402Y-129620799D01*
X98658073Y-129350000D01*
X98658073Y-128050000D01*
X98631402Y-127779201D01*
X98552412Y-127518808D01*
X98424141Y-127278829D01*
X98251516Y-127068485D01*
X98041172Y-126895860D01*
X97801193Y-126767589D01*
X97540800Y-126688599D01*
X97270001Y-126661928D01*
X97269999Y-126661928D01*
X96999200Y-126688599D01*
X96738807Y-126767589D01*
X96498828Y-126895860D01*
X96288484Y-127068485D01*
X96115859Y-127278829D01*
X95987588Y-127518808D01*
X95908598Y-127779201D01*
X95881927Y-128050000D01*
X95881927Y-129350000D01*
X95908598Y-129620799D01*
X95987588Y-129881192D01*
X96115859Y-130121171D01*
X96288484Y-130331515D01*
X96498828Y-130504140D01*
X96510290Y-130510267D01*
X96520998Y-130618986D01*
X96534180Y-130662442D01*
X96564454Y-130762246D01*
X96635026Y-130894276D01*
X96681591Y-130951015D01*
X96730000Y-131010001D01*
X96758998Y-131033799D01*
X99440000Y-133714802D01*
X99440001Y-135061928D01*
X98950000Y-135061928D01*
X98825518Y-135074188D01*
X98705820Y-135110498D01*
X98595506Y-135169463D01*
X98498815Y-135248815D01*
X98419463Y-135345506D01*
X98360498Y-135455820D01*
X98324188Y-135575518D01*
X98311928Y-135700000D01*
X98311928Y-137500000D01*
X98324188Y-137624482D01*
X98360498Y-137744180D01*
X98419463Y-137854494D01*
X98498815Y-137951185D01*
X98595506Y-138030537D01*
X98705820Y-138089502D01*
X98825518Y-138125812D01*
X98950000Y-138138072D01*
X101450000Y-138138072D01*
X101574482Y-138125812D01*
X101694180Y-138089502D01*
X101804494Y-138030537D01*
X101901185Y-137951185D01*
X101980537Y-137854494D01*
X102039502Y-137744180D01*
X102075812Y-137624482D01*
X102088072Y-137500000D01*
X102088072Y-135700000D01*
X102084016Y-135658818D01*
X102861201Y-136436003D01*
X102884999Y-136465001D01*
X103000724Y-136559974D01*
X103132753Y-136630546D01*
X103276014Y-136674003D01*
X103387667Y-136685000D01*
X103387677Y-136685000D01*
X103425000Y-136688676D01*
X103462323Y-136685000D01*
X103680386Y-136685000D01*
X103711595Y-136743387D01*
X103822038Y-136877962D01*
X103956613Y-136988405D01*
X104110149Y-137070472D01*
X104140001Y-137079527D01*
X104140000Y-138085198D01*
X103485199Y-138740000D01*
X98937325Y-138740000D01*
X98900000Y-138736324D01*
X98862675Y-138740000D01*
X98862667Y-138740000D01*
X98751014Y-138750997D01*
X98607753Y-138794454D01*
X98475724Y-138865026D01*
X98359999Y-138959999D01*
X98336201Y-138988997D01*
X97285199Y-140040000D01*
X97088072Y-140040000D01*
X97088072Y-139900000D01*
X97075812Y-139775518D01*
X97039502Y-139655820D01*
X96980537Y-139545506D01*
X96901185Y-139448815D01*
X96804494Y-139369463D01*
X96694180Y-139310498D01*
X96574482Y-139274188D01*
X96450000Y-139261928D01*
X93950000Y-139261928D01*
X93825518Y-139274188D01*
X93705820Y-139310498D01*
X93595506Y-139369463D01*
X93498815Y-139448815D01*
X93419463Y-139545506D01*
X93360498Y-139655820D01*
X93324188Y-139775518D01*
X93311928Y-139900000D01*
X93088072Y-139900000D01*
X93075812Y-139775518D01*
X93039502Y-139655820D01*
X92980537Y-139545506D01*
X92901185Y-139448815D01*
X92804494Y-139369463D01*
X92694180Y-139310498D01*
X92574482Y-139274188D01*
X92450000Y-139261928D01*
X89950000Y-139261928D01*
X89825518Y-139274188D01*
X89705820Y-139310498D01*
X89595506Y-139369463D01*
X89498815Y-139448815D01*
X89419463Y-139545506D01*
X89360498Y-139655820D01*
X89324188Y-139775518D01*
X89311928Y-139900000D01*
X89311928Y-140040000D01*
X87314802Y-140040000D01*
X85389769Y-138114968D01*
X85425518Y-138125812D01*
X85550000Y-138138072D01*
X88050000Y-138138072D01*
X88174482Y-138125812D01*
X88294180Y-138089502D01*
X88404494Y-138030537D01*
X88501185Y-137951185D01*
X88580537Y-137854494D01*
X88639502Y-137744180D01*
X88675812Y-137624482D01*
X88688072Y-137500000D01*
X88688072Y-135786730D01*
X88800000Y-135674801D01*
X89661200Y-136536002D01*
X89684999Y-136565001D01*
X89800724Y-136659974D01*
X89932753Y-136730546D01*
X90076014Y-136774003D01*
X90187667Y-136785000D01*
X90187675Y-136785000D01*
X90225000Y-136788676D01*
X90262325Y-136785000D01*
X90980386Y-136785000D01*
X91011595Y-136843387D01*
X91122038Y-136977962D01*
X91256613Y-137088405D01*
X91410149Y-137170472D01*
X91576745Y-137221008D01*
X91749999Y-137238072D01*
X92650001Y-137238072D01*
X92823255Y-137221008D01*
X92989851Y-137170472D01*
X93143387Y-137088405D01*
X93277962Y-136977962D01*
X93388405Y-136843387D01*
X93419614Y-136785000D01*
X94311928Y-136785000D01*
X94311928Y-137500000D01*
X94324188Y-137624482D01*
X94360498Y-137744180D01*
X94419463Y-137854494D01*
X94498815Y-137951185D01*
X94595506Y-138030537D01*
X94705820Y-138089502D01*
X94825518Y-138125812D01*
X94950000Y-138138072D01*
X97450000Y-138138072D01*
X97574482Y-138125812D01*
X97694180Y-138089502D01*
X97804494Y-138030537D01*
X97901185Y-137951185D01*
X97980537Y-137854494D01*
X98039502Y-137744180D01*
X98075812Y-137624482D01*
X98088072Y-137500000D01*
X98088072Y-135700000D01*
X98075812Y-135575518D01*
X98039502Y-135455820D01*
X97980537Y-135345506D01*
X97901185Y-135248815D01*
X97804494Y-135169463D01*
X97694180Y-135110498D01*
X97574482Y-135074188D01*
X97450000Y-135061928D01*
X94950000Y-135061928D01*
X94825518Y-135074188D01*
X94705820Y-135110498D01*
X94595506Y-135169463D01*
X94498815Y-135248815D01*
X94485532Y-135265000D01*
X93419614Y-135265000D01*
X93388405Y-135206613D01*
X93277962Y-135072038D01*
X93271406Y-135066658D01*
X93351185Y-135001185D01*
X93430537Y-134904494D01*
X93489502Y-134794180D01*
X93525812Y-134674482D01*
X93538072Y-134550000D01*
X93535000Y-134260750D01*
X93376250Y-134102000D01*
X92327000Y-134102000D01*
X92327000Y-134122000D01*
X92073000Y-134122000D01*
X92073000Y-134102000D01*
X91023750Y-134102000D01*
X90865000Y-134260750D01*
X90861928Y-134550000D01*
X90874188Y-134674482D01*
X90910498Y-134794180D01*
X90969463Y-134904494D01*
X91048815Y-135001185D01*
X91128594Y-135066658D01*
X91122038Y-135072038D01*
X91011595Y-135206613D01*
X90980386Y-135265000D01*
X90539802Y-135265000D01*
X89970000Y-134695199D01*
X89970000Y-134227325D01*
X89973676Y-134190000D01*
X89970000Y-134152675D01*
X89970000Y-133400000D01*
X90861928Y-133400000D01*
X90865000Y-133689250D01*
X91023750Y-133848000D01*
X92073000Y-133848000D01*
X92073000Y-132923750D01*
X92327000Y-132923750D01*
X92327000Y-133848000D01*
X93376250Y-133848000D01*
X93535000Y-133689250D01*
X93538072Y-133400000D01*
X93525812Y-133275518D01*
X93489502Y-133155820D01*
X93430537Y-133045506D01*
X93351185Y-132948815D01*
X93254494Y-132869463D01*
X93144180Y-132810498D01*
X93024482Y-132774188D01*
X92900000Y-132761928D01*
X92485750Y-132765000D01*
X92327000Y-132923750D01*
X92073000Y-132923750D01*
X91914250Y-132765000D01*
X91500000Y-132761928D01*
X91375518Y-132774188D01*
X91255820Y-132810498D01*
X91145506Y-132869463D01*
X91048815Y-132948815D01*
X90969463Y-133045506D01*
X90910498Y-133155820D01*
X90874188Y-133275518D01*
X90861928Y-133400000D01*
X89970000Y-133400000D01*
X89970000Y-130510112D01*
X89981172Y-130504140D01*
X90191516Y-130331515D01*
X90364141Y-130121171D01*
X90375457Y-130100000D01*
X91851928Y-130100000D01*
X91864188Y-130224482D01*
X91900498Y-130344180D01*
X91959463Y-130454494D01*
X92038815Y-130551185D01*
X92135506Y-130630537D01*
X92245820Y-130689502D01*
X92365518Y-130725812D01*
X92490000Y-130738072D01*
X92954250Y-130735000D01*
X93113000Y-130576250D01*
X93113000Y-128827000D01*
X93367000Y-128827000D01*
X93367000Y-130576250D01*
X93525750Y-130735000D01*
X93990000Y-130738072D01*
X94114482Y-130725812D01*
X94234180Y-130689502D01*
X94344494Y-130630537D01*
X94441185Y-130551185D01*
X94520537Y-130454494D01*
X94579502Y-130344180D01*
X94615812Y-130224482D01*
X94628072Y-130100000D01*
X94625000Y-128985750D01*
X94466250Y-128827000D01*
X93367000Y-128827000D01*
X93113000Y-128827000D01*
X92013750Y-128827000D01*
X91855000Y-128985750D01*
X91851928Y-130100000D01*
X90375457Y-130100000D01*
X90492412Y-129881192D01*
X90571402Y-129620799D01*
X90598073Y-129350000D01*
X90598073Y-128050000D01*
X90571402Y-127779201D01*
X90492412Y-127518808D01*
X90375458Y-127300000D01*
X91851928Y-127300000D01*
X91855000Y-128414250D01*
X92013750Y-128573000D01*
X93113000Y-128573000D01*
X93113000Y-126823750D01*
X93367000Y-126823750D01*
X93367000Y-128573000D01*
X94466250Y-128573000D01*
X94625000Y-128414250D01*
X94628072Y-127300000D01*
X94615812Y-127175518D01*
X94579502Y-127055820D01*
X94520537Y-126945506D01*
X94441185Y-126848815D01*
X94344494Y-126769463D01*
X94234180Y-126710498D01*
X94114482Y-126674188D01*
X93990000Y-126661928D01*
X93525750Y-126665000D01*
X93367000Y-126823750D01*
X93113000Y-126823750D01*
X92954250Y-126665000D01*
X92490000Y-126661928D01*
X92365518Y-126674188D01*
X92245820Y-126710498D01*
X92135506Y-126769463D01*
X92038815Y-126848815D01*
X91959463Y-126945506D01*
X91900498Y-127055820D01*
X91864188Y-127175518D01*
X91851928Y-127300000D01*
X90375458Y-127300000D01*
X90364141Y-127278829D01*
X90191516Y-127068485D01*
X89981172Y-126895860D01*
X89741193Y-126767589D01*
X89480800Y-126688599D01*
X89210001Y-126661928D01*
X89209999Y-126661928D01*
X88939200Y-126688599D01*
X88678807Y-126767589D01*
X88438828Y-126895860D01*
X88228484Y-127068485D01*
X88055859Y-127278829D01*
X87927588Y-127518808D01*
X87848598Y-127779201D01*
X87821927Y-128050000D01*
X87821927Y-129350000D01*
X87848598Y-129620799D01*
X87927588Y-129881192D01*
X88055859Y-130121171D01*
X88228484Y-130331515D01*
X88438828Y-130504140D01*
X88450000Y-130510112D01*
X88450001Y-133875197D01*
X87263271Y-135061928D01*
X85550000Y-135061928D01*
X85425518Y-135074188D01*
X85305820Y-135110498D01*
X85195506Y-135169463D01*
X85098815Y-135248815D01*
X85019463Y-135345506D01*
X84960498Y-135455820D01*
X84924188Y-135575518D01*
X84911928Y-135700000D01*
X84911928Y-137500000D01*
X84924188Y-137624482D01*
X84935032Y-137660231D01*
X84688072Y-137413271D01*
X84688072Y-135700000D01*
X84675812Y-135575518D01*
X84639502Y-135455820D01*
X84580537Y-135345506D01*
X84501185Y-135248815D01*
X84404494Y-135169463D01*
X84294180Y-135110498D01*
X84174482Y-135074188D01*
X84050000Y-135061928D01*
X83560000Y-135061928D01*
X83560000Y-131414801D01*
X84456090Y-130518712D01*
X84668807Y-130632411D01*
X84929200Y-130711401D01*
X85199999Y-130738072D01*
X85200001Y-130738072D01*
X85470800Y-130711401D01*
X85731193Y-130632411D01*
X85971172Y-130504140D01*
X86181516Y-130331515D01*
X86354141Y-130121171D01*
X86482412Y-129881192D01*
X86561402Y-129620799D01*
X86588073Y-129350000D01*
X86588073Y-128050000D01*
X86561402Y-127779201D01*
X86482412Y-127518808D01*
X86354141Y-127278829D01*
X86181516Y-127068485D01*
X86049327Y-126960000D01*
X87262678Y-126960000D01*
X87300000Y-126963676D01*
X87337322Y-126960000D01*
X87337333Y-126960000D01*
X87448986Y-126949003D01*
X87592247Y-126905546D01*
X87724276Y-126834974D01*
X87840001Y-126740001D01*
X87863804Y-126710997D01*
X89011004Y-125563798D01*
X89040001Y-125540001D01*
X89134974Y-125424276D01*
X89205546Y-125292247D01*
X89249003Y-125148986D01*
X89252434Y-125114156D01*
X89271172Y-125104140D01*
X89481516Y-124931515D01*
X89654141Y-124721171D01*
X89665457Y-124700000D01*
X90251928Y-124700000D01*
X90264188Y-124824482D01*
X90300498Y-124944180D01*
X90359463Y-125054494D01*
X90438815Y-125151185D01*
X90535506Y-125230537D01*
X90645820Y-125289502D01*
X90765518Y-125325812D01*
X90890000Y-125338072D01*
X91354250Y-125335000D01*
X91513000Y-125176250D01*
X91513000Y-123427000D01*
X91767000Y-123427000D01*
X91767000Y-125176250D01*
X91925750Y-125335000D01*
X92390000Y-125338072D01*
X92514482Y-125325812D01*
X92634180Y-125289502D01*
X92744494Y-125230537D01*
X92841185Y-125151185D01*
X92920537Y-125054494D01*
X92979502Y-124944180D01*
X93015812Y-124824482D01*
X93028072Y-124700000D01*
X93471928Y-124700000D01*
X93484188Y-124824482D01*
X93520498Y-124944180D01*
X93579463Y-125054494D01*
X93658815Y-125151185D01*
X93755506Y-125230537D01*
X93865820Y-125289502D01*
X93985518Y-125325812D01*
X94110000Y-125338072D01*
X94574250Y-125335000D01*
X94733000Y-125176250D01*
X94733000Y-123427000D01*
X94987000Y-123427000D01*
X94987000Y-125176250D01*
X95145750Y-125335000D01*
X95610000Y-125338072D01*
X95734482Y-125325812D01*
X95854180Y-125289502D01*
X95964494Y-125230537D01*
X96061185Y-125151185D01*
X96140537Y-125054494D01*
X96199502Y-124944180D01*
X96235812Y-124824482D01*
X96248072Y-124700000D01*
X96245000Y-123585750D01*
X96086250Y-123427000D01*
X94987000Y-123427000D01*
X94733000Y-123427000D01*
X93633750Y-123427000D01*
X93475000Y-123585750D01*
X93471928Y-124700000D01*
X93028072Y-124700000D01*
X93025000Y-123585750D01*
X92866250Y-123427000D01*
X91767000Y-123427000D01*
X91513000Y-123427000D01*
X90413750Y-123427000D01*
X90255000Y-123585750D01*
X90251928Y-124700000D01*
X89665457Y-124700000D01*
X89782412Y-124481192D01*
X89861402Y-124220799D01*
X89888073Y-123950000D01*
X89888073Y-122650000D01*
X89861402Y-122379201D01*
X89782412Y-122118808D01*
X89665458Y-121900000D01*
X90251928Y-121900000D01*
X90255000Y-123014250D01*
X90413750Y-123173000D01*
X91513000Y-123173000D01*
X91513000Y-121423750D01*
X91767000Y-121423750D01*
X91767000Y-123173000D01*
X92866250Y-123173000D01*
X93025000Y-123014250D01*
X93028072Y-121900000D01*
X93471928Y-121900000D01*
X93475000Y-123014250D01*
X93633750Y-123173000D01*
X94733000Y-123173000D01*
X94733000Y-121423750D01*
X94987000Y-121423750D01*
X94987000Y-123173000D01*
X96086250Y-123173000D01*
X96245000Y-123014250D01*
X96246004Y-122650000D01*
X96691927Y-122650000D01*
X96691927Y-123950000D01*
X96718598Y-124220799D01*
X96797588Y-124481192D01*
X96925859Y-124721171D01*
X97098484Y-124931515D01*
X97308828Y-125104140D01*
X97548807Y-125232411D01*
X97809200Y-125311401D01*
X98079999Y-125338072D01*
X98080001Y-125338072D01*
X98350800Y-125311401D01*
X98611193Y-125232411D01*
X98851172Y-125104140D01*
X98938044Y-125032846D01*
X100216200Y-126311002D01*
X100239999Y-126340001D01*
X100268997Y-126363799D01*
X100355724Y-126434974D01*
X100487753Y-126505546D01*
X100631014Y-126549003D01*
X100780000Y-126563677D01*
X100817333Y-126560000D01*
X106185199Y-126560000D01*
X107265001Y-127639803D01*
X107265000Y-145114982D01*
X107250537Y-145120973D01*
X106982748Y-145299904D01*
X106755013Y-145527639D01*
X106576082Y-145795428D01*
X106452832Y-146092979D01*
X106390000Y-146408858D01*
X106390000Y-146730924D01*
X106452832Y-147046803D01*
X106576082Y-147344354D01*
X106755013Y-147612143D01*
X106982748Y-147839878D01*
X107250537Y-148018809D01*
X107548088Y-148142059D01*
X107863967Y-148204891D01*
X108186033Y-148204891D01*
X108501912Y-148142059D01*
X108799463Y-148018809D01*
X109067252Y-147839878D01*
X109294987Y-147612143D01*
X109473918Y-147344354D01*
X109479909Y-147329891D01*
X114770091Y-147329891D01*
X114776082Y-147344354D01*
X114955013Y-147612143D01*
X115182748Y-147839878D01*
X115450537Y-148018809D01*
X115748088Y-148142059D01*
X116063967Y-148204891D01*
X116386033Y-148204891D01*
X116701912Y-148142059D01*
X116999463Y-148018809D01*
X117267252Y-147839878D01*
X117494987Y-147612143D01*
X117673918Y-147344354D01*
X117797168Y-147046803D01*
X117860000Y-146730924D01*
X117860000Y-146408858D01*
X117797168Y-146092979D01*
X117673918Y-145795428D01*
X117494987Y-145527639D01*
X117267252Y-145299904D01*
X116999463Y-145120973D01*
X116701912Y-144997723D01*
X116386033Y-144934891D01*
X116063967Y-144934891D01*
X115748088Y-144997723D01*
X115450537Y-145120973D01*
X115182748Y-145299904D01*
X114955013Y-145527639D01*
X114776082Y-145795428D01*
X114770091Y-145809891D01*
X109479909Y-145809891D01*
X109473918Y-145795428D01*
X109294987Y-145527639D01*
X109067252Y-145299904D01*
X108799463Y-145120973D01*
X108785000Y-145114982D01*
X108785000Y-127362325D01*
X108788676Y-127325000D01*
X108785000Y-127287675D01*
X108785000Y-127287667D01*
X108774003Y-127176014D01*
X108730546Y-127032753D01*
X108659974Y-126900724D01*
X108565001Y-126784999D01*
X108536003Y-126761201D01*
X107634739Y-125859938D01*
X111429891Y-125859938D01*
X111435882Y-125874401D01*
X111614813Y-126142190D01*
X111842548Y-126369925D01*
X112110337Y-126548856D01*
X112124800Y-126554847D01*
X112124801Y-131845029D01*
X112110337Y-131851020D01*
X111842548Y-132029951D01*
X111614813Y-132257686D01*
X111435882Y-132525475D01*
X111312632Y-132823026D01*
X111249800Y-133138905D01*
X111249800Y-133460971D01*
X111312632Y-133776850D01*
X111435882Y-134074401D01*
X111614813Y-134342190D01*
X111842548Y-134569925D01*
X112110337Y-134748856D01*
X112407888Y-134872106D01*
X112723767Y-134934938D01*
X113045833Y-134934938D01*
X113361712Y-134872106D01*
X113659263Y-134748856D01*
X113927052Y-134569925D01*
X114061626Y-134435351D01*
X116358992Y-134435351D01*
X116454756Y-134699752D01*
X116744371Y-134840642D01*
X117055908Y-134922322D01*
X117377395Y-134941656D01*
X117696475Y-134897899D01*
X118000888Y-134792733D01*
X118174844Y-134699752D01*
X118270608Y-134435351D01*
X117314800Y-133479543D01*
X116358992Y-134435351D01*
X114061626Y-134435351D01*
X114154787Y-134342190D01*
X114333718Y-134074401D01*
X114456968Y-133776850D01*
X114519800Y-133460971D01*
X114519800Y-133362533D01*
X115673082Y-133362533D01*
X115716839Y-133681613D01*
X115822005Y-133986026D01*
X115914986Y-134159982D01*
X116179387Y-134255746D01*
X117135195Y-133299938D01*
X117494405Y-133299938D01*
X118450213Y-134255746D01*
X118714614Y-134159982D01*
X118855504Y-133870367D01*
X118937184Y-133558830D01*
X118956518Y-133237343D01*
X118912761Y-132918263D01*
X118807595Y-132613850D01*
X118714614Y-132439894D01*
X118450213Y-132344130D01*
X117494405Y-133299938D01*
X117135195Y-133299938D01*
X116179387Y-132344130D01*
X115914986Y-132439894D01*
X115774096Y-132729509D01*
X115692416Y-133041046D01*
X115673082Y-133362533D01*
X114519800Y-133362533D01*
X114519800Y-133138905D01*
X114456968Y-132823026D01*
X114333718Y-132525475D01*
X114154787Y-132257686D01*
X114061626Y-132164525D01*
X116358992Y-132164525D01*
X117314800Y-133120333D01*
X118270608Y-132164525D01*
X118174844Y-131900124D01*
X117885229Y-131759234D01*
X117573692Y-131677554D01*
X117252205Y-131658220D01*
X116933125Y-131701977D01*
X116628712Y-131807143D01*
X116454756Y-131900124D01*
X116358992Y-132164525D01*
X114061626Y-132164525D01*
X113927052Y-132029951D01*
X113659263Y-131851020D01*
X113644800Y-131845029D01*
X113644800Y-126554847D01*
X113659263Y-126548856D01*
X113927052Y-126369925D01*
X114061626Y-126235351D01*
X116358992Y-126235351D01*
X116454756Y-126499752D01*
X116744371Y-126640642D01*
X117055908Y-126722322D01*
X117377395Y-126741656D01*
X117696475Y-126697899D01*
X118000888Y-126592733D01*
X118174844Y-126499752D01*
X118270608Y-126235351D01*
X117314800Y-125279543D01*
X116358992Y-126235351D01*
X114061626Y-126235351D01*
X114154787Y-126142190D01*
X114333718Y-125874401D01*
X114456968Y-125576850D01*
X114519800Y-125260971D01*
X114519800Y-125162533D01*
X115673082Y-125162533D01*
X115716839Y-125481613D01*
X115822005Y-125786026D01*
X115914986Y-125959982D01*
X116179387Y-126055746D01*
X117135195Y-125099938D01*
X117494405Y-125099938D01*
X118450213Y-126055746D01*
X118714614Y-125959982D01*
X118855504Y-125670367D01*
X118937184Y-125358830D01*
X118956518Y-125037343D01*
X118912761Y-124718263D01*
X118807595Y-124413850D01*
X118714614Y-124239894D01*
X118450213Y-124144130D01*
X117494405Y-125099938D01*
X117135195Y-125099938D01*
X116179387Y-124144130D01*
X115914986Y-124239894D01*
X115774096Y-124529509D01*
X115692416Y-124841046D01*
X115673082Y-125162533D01*
X114519800Y-125162533D01*
X114519800Y-124938905D01*
X114456968Y-124623026D01*
X114333718Y-124325475D01*
X114154787Y-124057686D01*
X114061626Y-123964525D01*
X116358992Y-123964525D01*
X117314800Y-124920333D01*
X118270608Y-123964525D01*
X118174844Y-123700124D01*
X117885229Y-123559234D01*
X117573692Y-123477554D01*
X117252205Y-123458220D01*
X116933125Y-123501977D01*
X116628712Y-123607143D01*
X116454756Y-123700124D01*
X116358992Y-123964525D01*
X114061626Y-123964525D01*
X113927052Y-123829951D01*
X113659263Y-123651020D01*
X113361712Y-123527770D01*
X113045833Y-123464938D01*
X112723767Y-123464938D01*
X112407888Y-123527770D01*
X112110337Y-123651020D01*
X111842548Y-123829951D01*
X111614813Y-124057686D01*
X111435882Y-124325475D01*
X111429891Y-124339938D01*
X103614741Y-124339938D01*
X102688073Y-123413271D01*
X102688073Y-122650000D01*
X102661402Y-122379201D01*
X102582412Y-122118808D01*
X102454141Y-121878829D01*
X102281516Y-121668485D01*
X102071172Y-121495860D01*
X101831193Y-121367589D01*
X101570800Y-121288599D01*
X101300001Y-121261928D01*
X101299999Y-121261928D01*
X101029200Y-121288599D01*
X100768807Y-121367589D01*
X100528828Y-121495860D01*
X100318484Y-121668485D01*
X100145859Y-121878829D01*
X100017588Y-122118808D01*
X99938598Y-122379201D01*
X99911927Y-122650000D01*
X99911927Y-123857126D01*
X99468073Y-123413272D01*
X99468073Y-122650000D01*
X99441402Y-122379201D01*
X99362412Y-122118808D01*
X99234141Y-121878829D01*
X99061516Y-121668485D01*
X98851172Y-121495860D01*
X98611193Y-121367589D01*
X98350800Y-121288599D01*
X98080001Y-121261928D01*
X98079999Y-121261928D01*
X97809200Y-121288599D01*
X97548807Y-121367589D01*
X97308828Y-121495860D01*
X97098484Y-121668485D01*
X96925859Y-121878829D01*
X96797588Y-122118808D01*
X96718598Y-122379201D01*
X96691927Y-122650000D01*
X96246004Y-122650000D01*
X96248072Y-121900000D01*
X96235812Y-121775518D01*
X96199502Y-121655820D01*
X96140537Y-121545506D01*
X96061185Y-121448815D01*
X95964494Y-121369463D01*
X95854180Y-121310498D01*
X95734482Y-121274188D01*
X95610000Y-121261928D01*
X95145750Y-121265000D01*
X94987000Y-121423750D01*
X94733000Y-121423750D01*
X94574250Y-121265000D01*
X94110000Y-121261928D01*
X93985518Y-121274188D01*
X93865820Y-121310498D01*
X93755506Y-121369463D01*
X93658815Y-121448815D01*
X93579463Y-121545506D01*
X93520498Y-121655820D01*
X93484188Y-121775518D01*
X93471928Y-121900000D01*
X93028072Y-121900000D01*
X93015812Y-121775518D01*
X92979502Y-121655820D01*
X92920537Y-121545506D01*
X92841185Y-121448815D01*
X92744494Y-121369463D01*
X92634180Y-121310498D01*
X92514482Y-121274188D01*
X92390000Y-121261928D01*
X91925750Y-121265000D01*
X91767000Y-121423750D01*
X91513000Y-121423750D01*
X91354250Y-121265000D01*
X90890000Y-121261928D01*
X90765518Y-121274188D01*
X90645820Y-121310498D01*
X90535506Y-121369463D01*
X90438815Y-121448815D01*
X90359463Y-121545506D01*
X90300498Y-121655820D01*
X90264188Y-121775518D01*
X90251928Y-121900000D01*
X89665458Y-121900000D01*
X89654141Y-121878829D01*
X89481516Y-121668485D01*
X89271172Y-121495860D01*
X89031193Y-121367589D01*
X88770800Y-121288599D01*
X88500001Y-121261928D01*
X88499999Y-121261928D01*
X88229200Y-121288599D01*
X87968807Y-121367589D01*
X87728828Y-121495860D01*
X87518484Y-121668485D01*
X87345859Y-121878829D01*
X87217588Y-122118808D01*
X87138598Y-122379201D01*
X87111927Y-122650000D01*
X87111927Y-123950000D01*
X87138598Y-124220799D01*
X87217588Y-124481192D01*
X87345859Y-124721171D01*
X87507305Y-124917893D01*
X86985199Y-125440000D01*
X83934801Y-125440000D01*
X84341956Y-125032846D01*
X84428828Y-125104140D01*
X84668807Y-125232411D01*
X84929200Y-125311401D01*
X85199999Y-125338072D01*
X85200001Y-125338072D01*
X85470800Y-125311401D01*
X85731193Y-125232411D01*
X85971172Y-125104140D01*
X86181516Y-124931515D01*
X86354141Y-124721171D01*
X86482412Y-124481192D01*
X86561402Y-124220799D01*
X86588073Y-123950000D01*
X86588073Y-122650000D01*
X86561402Y-122379201D01*
X86482412Y-122118808D01*
X86354141Y-121878829D01*
X86181516Y-121668485D01*
X85971172Y-121495860D01*
X85731193Y-121367589D01*
X85470800Y-121288599D01*
X85200001Y-121261928D01*
X85199999Y-121261928D01*
X84929200Y-121288599D01*
X84668807Y-121367589D01*
X84428828Y-121495860D01*
X84218484Y-121668485D01*
X84045859Y-121878829D01*
X83917588Y-122118808D01*
X83838598Y-122379201D01*
X83811927Y-122650000D01*
X83811927Y-123413271D01*
X82585199Y-124640000D01*
X75205532Y-124640000D01*
X75202168Y-124623088D01*
X75078918Y-124325537D01*
X74899987Y-124057748D01*
X74672252Y-123830013D01*
X74404463Y-123651082D01*
X74106912Y-123527832D01*
X73791033Y-123465000D01*
X73468967Y-123465000D01*
X73153088Y-123527832D01*
X72855537Y-123651082D01*
X72587748Y-123830013D01*
X72360013Y-124057748D01*
X72181082Y-124325537D01*
X72057832Y-124623088D01*
X71995000Y-124938967D01*
X71995000Y-125261033D01*
X72057832Y-125576912D01*
X72181082Y-125874463D01*
X72360013Y-126142252D01*
X72587748Y-126369987D01*
X72854966Y-126548536D01*
X72854965Y-131851464D01*
X72587748Y-132030013D01*
X72360013Y-132257748D01*
X72181082Y-132525537D01*
X72057832Y-132823088D01*
X71995000Y-133138967D01*
X71995000Y-133461033D01*
X72057832Y-133776912D01*
X72181082Y-134074463D01*
X72360013Y-134342252D01*
X72587748Y-134569987D01*
X72855537Y-134748918D01*
X73153088Y-134872168D01*
X73468967Y-134935000D01*
X73791033Y-134935000D01*
X74106912Y-134872168D01*
X74404463Y-134748918D01*
X74672252Y-134569987D01*
X74899987Y-134342252D01*
X75078918Y-134074463D01*
X75202168Y-133776912D01*
X75265000Y-133461033D01*
X75265000Y-133138967D01*
X75202168Y-132823088D01*
X75078918Y-132525537D01*
X74899987Y-132257748D01*
X74672252Y-132030013D01*
X74404463Y-131851082D01*
X74374965Y-131838863D01*
X74374965Y-126561137D01*
X74404463Y-126548918D01*
X74672252Y-126369987D01*
X74882239Y-126160000D01*
X79265198Y-126160000D01*
X77964163Y-127461036D01*
X77935165Y-127484834D01*
X77911367Y-127513832D01*
X77911366Y-127513833D01*
X77840191Y-127600559D01*
X77769619Y-127732589D01*
X77755480Y-127779201D01*
X77726163Y-127875849D01*
X77717877Y-127959974D01*
X77711489Y-128024835D01*
X77715166Y-128062168D01*
X77715165Y-145114982D01*
X77700702Y-145120973D01*
X77432913Y-145299904D01*
X77205178Y-145527639D01*
X77026247Y-145795428D01*
X77020256Y-145809891D01*
X71730074Y-145809891D01*
X71724083Y-145795428D01*
X71545152Y-145527639D01*
X71317417Y-145299904D01*
X71049628Y-145120973D01*
X70752077Y-144997723D01*
X70436198Y-144934891D01*
X70114132Y-144934891D01*
X69798253Y-144997723D01*
X69500702Y-145120973D01*
X69232913Y-145299904D01*
X69005178Y-145527639D01*
X68826247Y-145795428D01*
X68702997Y-146092979D01*
X68640165Y-146408858D01*
X67185036Y-146408858D01*
X67185036Y-134435413D01*
X68244192Y-134435413D01*
X68339956Y-134699814D01*
X68629571Y-134840704D01*
X68941108Y-134922384D01*
X69262595Y-134941718D01*
X69581675Y-134897961D01*
X69886088Y-134792795D01*
X70060044Y-134699814D01*
X70155808Y-134435413D01*
X69200000Y-133479605D01*
X68244192Y-134435413D01*
X67185036Y-134435413D01*
X67185036Y-133362595D01*
X67558282Y-133362595D01*
X67602039Y-133681675D01*
X67707205Y-133986088D01*
X67800186Y-134160044D01*
X68064587Y-134255808D01*
X69020395Y-133300000D01*
X69379605Y-133300000D01*
X70335413Y-134255808D01*
X70599814Y-134160044D01*
X70740704Y-133870429D01*
X70822384Y-133558892D01*
X70841718Y-133237405D01*
X70797961Y-132918325D01*
X70692795Y-132613912D01*
X70599814Y-132439956D01*
X70335413Y-132344192D01*
X69379605Y-133300000D01*
X69020395Y-133300000D01*
X68064587Y-132344192D01*
X67800186Y-132439956D01*
X67659296Y-132729571D01*
X67577616Y-133041108D01*
X67558282Y-133362595D01*
X67185036Y-133362595D01*
X67185036Y-132164587D01*
X68244192Y-132164587D01*
X69200000Y-133120395D01*
X70155808Y-132164587D01*
X70060044Y-131900186D01*
X69770429Y-131759296D01*
X69458892Y-131677616D01*
X69137405Y-131658282D01*
X68818325Y-131702039D01*
X68513912Y-131807205D01*
X68339956Y-131900186D01*
X68244192Y-132164587D01*
X67185036Y-132164587D01*
X67185036Y-126235413D01*
X68244192Y-126235413D01*
X68339956Y-126499814D01*
X68629571Y-126640704D01*
X68941108Y-126722384D01*
X69262595Y-126741718D01*
X69581675Y-126697961D01*
X69886088Y-126592795D01*
X70060044Y-126499814D01*
X70155808Y-126235413D01*
X69200000Y-125279605D01*
X68244192Y-126235413D01*
X67185036Y-126235413D01*
X67185036Y-125162595D01*
X67558282Y-125162595D01*
X67602039Y-125481675D01*
X67707205Y-125786088D01*
X67800186Y-125960044D01*
X68064587Y-126055808D01*
X69020395Y-125100000D01*
X69379605Y-125100000D01*
X70335413Y-126055808D01*
X70599814Y-125960044D01*
X70740704Y-125670429D01*
X70822384Y-125358892D01*
X70841718Y-125037405D01*
X70797961Y-124718325D01*
X70692795Y-124413912D01*
X70599814Y-124239956D01*
X70335413Y-124144192D01*
X69379605Y-125100000D01*
X69020395Y-125100000D01*
X68064587Y-124144192D01*
X67800186Y-124239956D01*
X67659296Y-124529571D01*
X67577616Y-124841108D01*
X67558282Y-125162595D01*
X67185036Y-125162595D01*
X67185036Y-123964587D01*
X68244192Y-123964587D01*
X69200000Y-124920395D01*
X70155808Y-123964587D01*
X70060044Y-123700186D01*
X69770429Y-123559296D01*
X69458892Y-123477616D01*
X69137405Y-123458282D01*
X68818325Y-123502039D01*
X68513912Y-123607205D01*
X68339956Y-123700186D01*
X68244192Y-123964587D01*
X67185036Y-123964587D01*
X67185036Y-120127000D01*
X68431931Y-120127000D01*
X68394038Y-120152319D01*
G04 #@! TA.AperFunction,Conductor*
D14*
G36*
X68394038Y-120152319D02*
G01*
X68152373Y-120393984D01*
X67962499Y-120678151D01*
X67831711Y-120993901D01*
X67765036Y-121329099D01*
X67765036Y-121670865D01*
X67831711Y-122006063D01*
X67962499Y-122321813D01*
X68152373Y-122605980D01*
X68394038Y-122847645D01*
X68678205Y-123037519D01*
X68993955Y-123168307D01*
X69329153Y-123234982D01*
X69670919Y-123234982D01*
X70006117Y-123168307D01*
X70321867Y-123037519D01*
X70606034Y-122847645D01*
X70847699Y-122605980D01*
X71037573Y-122321813D01*
X71168361Y-122006063D01*
X71235036Y-121670865D01*
X71235036Y-121329099D01*
X71168361Y-120993901D01*
X71037573Y-120678151D01*
X70847699Y-120393984D01*
X70606034Y-120152319D01*
X70568141Y-120127000D01*
X115931895Y-120127000D01*
X115894002Y-120152319D01*
X115652337Y-120393984D01*
X115462463Y-120678151D01*
X115331675Y-120993901D01*
X115265000Y-121329099D01*
X115265000Y-121670865D01*
X115331675Y-122006063D01*
X115462463Y-122321813D01*
X115652337Y-122605980D01*
X115894002Y-122847645D01*
X116178169Y-123037519D01*
X116493919Y-123168307D01*
X116829117Y-123234982D01*
X117170883Y-123234982D01*
X117506081Y-123168307D01*
X117821831Y-123037519D01*
X118105998Y-122847645D01*
X118347663Y-122605980D01*
X118537537Y-122321813D01*
X118668325Y-122006063D01*
X118735000Y-121670865D01*
X118735000Y-121329099D01*
X118668325Y-120993901D01*
X118537537Y-120678151D01*
X118347663Y-120393984D01*
X118105998Y-120152319D01*
X118068105Y-120127000D01*
X119315000Y-120127000D01*
X119315001Y-154689989D01*
X104985000Y-154689989D01*
X104985000Y-152135304D01*
X107069192Y-152135304D01*
X107164956Y-152399705D01*
X107454571Y-152540595D01*
X107766108Y-152622275D01*
X108087595Y-152641609D01*
X108406675Y-152597852D01*
X108711088Y-152492686D01*
X108885044Y-152399705D01*
X108980808Y-152135304D01*
X115269192Y-152135304D01*
X115364956Y-152399705D01*
X115654571Y-152540595D01*
X115966108Y-152622275D01*
X116287595Y-152641609D01*
X116606675Y-152597852D01*
X116911088Y-152492686D01*
X117085044Y-152399705D01*
X117180808Y-152135304D01*
X116225000Y-151179496D01*
X115269192Y-152135304D01*
X108980808Y-152135304D01*
X108025000Y-151179496D01*
X107069192Y-152135304D01*
X104985000Y-152135304D01*
X104985000Y-151062486D01*
X106383282Y-151062486D01*
X106427039Y-151381566D01*
X106532205Y-151685979D01*
X106625186Y-151859935D01*
X106889587Y-151955699D01*
X107845395Y-150999891D01*
X108204605Y-150999891D01*
X109160413Y-151955699D01*
X109424814Y-151859935D01*
X109565704Y-151570320D01*
X109647384Y-151258783D01*
X109659189Y-151062486D01*
X114583282Y-151062486D01*
X114627039Y-151381566D01*
X114732205Y-151685979D01*
X114825186Y-151859935D01*
X115089587Y-151955699D01*
X116045395Y-150999891D01*
X116404605Y-150999891D01*
X117360413Y-151955699D01*
X117624814Y-151859935D01*
X117765704Y-151570320D01*
X117847384Y-151258783D01*
X117866718Y-150937296D01*
X117822961Y-150618216D01*
X117717795Y-150313803D01*
X117624814Y-150139847D01*
X117360413Y-150044083D01*
X116404605Y-150999891D01*
X116045395Y-150999891D01*
X115089587Y-150044083D01*
X114825186Y-150139847D01*
X114684296Y-150429462D01*
X114602616Y-150740999D01*
X114583282Y-151062486D01*
X109659189Y-151062486D01*
X109666718Y-150937296D01*
X109622961Y-150618216D01*
X109517795Y-150313803D01*
X109424814Y-150139847D01*
X109160413Y-150044083D01*
X108204605Y-150999891D01*
X107845395Y-150999891D01*
X106889587Y-150044083D01*
X106625186Y-150139847D01*
X106484296Y-150429462D01*
X106402616Y-150740999D01*
X106383282Y-151062486D01*
X104985000Y-151062486D01*
X104985000Y-149864478D01*
X107069192Y-149864478D01*
X108025000Y-150820286D01*
X108980808Y-149864478D01*
X115269192Y-149864478D01*
X116225000Y-150820286D01*
X117180808Y-149864478D01*
X117085044Y-149600077D01*
X116795429Y-149459187D01*
X116483892Y-149377507D01*
X116162405Y-149358173D01*
X115843325Y-149401930D01*
X115538912Y-149507096D01*
X115364956Y-149600077D01*
X115269192Y-149864478D01*
X108980808Y-149864478D01*
X108885044Y-149600077D01*
X108595429Y-149459187D01*
X108283892Y-149377507D01*
X107962405Y-149358173D01*
X107643325Y-149401930D01*
X107338912Y-149507096D01*
X107164956Y-149600077D01*
X107069192Y-149864478D01*
X104985000Y-149864478D01*
X104985000Y-148712612D01*
X104988314Y-148678965D01*
X104975088Y-148544682D01*
X104935919Y-148415559D01*
X104872312Y-148296558D01*
X104786711Y-148192254D01*
X104682407Y-148106653D01*
X104563406Y-148043046D01*
X104434283Y-148003877D01*
X104333647Y-147993965D01*
X104300000Y-147990651D01*
X104266353Y-147993965D01*
X82233647Y-147993965D01*
X82200000Y-147990651D01*
X82166353Y-147993965D01*
X82065717Y-148003877D01*
X81936594Y-148043046D01*
X81817593Y-148106653D01*
X81713289Y-148192254D01*
X81627688Y-148296558D01*
X81564081Y-148415559D01*
X81524912Y-148544682D01*
X81511686Y-148678965D01*
X81515000Y-148712612D01*
X81515001Y-154689989D01*
X67185036Y-154689989D01*
X67185036Y-152135304D01*
X69319357Y-152135304D01*
X69415121Y-152399705D01*
X69704736Y-152540595D01*
X70016273Y-152622275D01*
X70337760Y-152641609D01*
X70656840Y-152597852D01*
X70961253Y-152492686D01*
X71135209Y-152399705D01*
X71230973Y-152135304D01*
X77519357Y-152135304D01*
X77615121Y-152399705D01*
X77904736Y-152540595D01*
X78216273Y-152622275D01*
X78537760Y-152641609D01*
X78856840Y-152597852D01*
X79161253Y-152492686D01*
X79335209Y-152399705D01*
X79430973Y-152135304D01*
X78475165Y-151179496D01*
X77519357Y-152135304D01*
X71230973Y-152135304D01*
X70275165Y-151179496D01*
X69319357Y-152135304D01*
X67185036Y-152135304D01*
X67185036Y-151062486D01*
X68633447Y-151062486D01*
X68677204Y-151381566D01*
X68782370Y-151685979D01*
X68875351Y-151859935D01*
X69139752Y-151955699D01*
X70095560Y-150999891D01*
X70454770Y-150999891D01*
X71410578Y-151955699D01*
X71674979Y-151859935D01*
X71815869Y-151570320D01*
X71897549Y-151258783D01*
X71909354Y-151062486D01*
X76833447Y-151062486D01*
X76877204Y-151381566D01*
X76982370Y-151685979D01*
X77075351Y-151859935D01*
X77339752Y-151955699D01*
X78295560Y-150999891D01*
X78654770Y-150999891D01*
X79610578Y-151955699D01*
X79874979Y-151859935D01*
X80015869Y-151570320D01*
X80097549Y-151258783D01*
X80116883Y-150937296D01*
X80073126Y-150618216D01*
X79967960Y-150313803D01*
X79874979Y-150139847D01*
X79610578Y-150044083D01*
X78654770Y-150999891D01*
X78295560Y-150999891D01*
X77339752Y-150044083D01*
X77075351Y-150139847D01*
X76934461Y-150429462D01*
X76852781Y-150740999D01*
X76833447Y-151062486D01*
X71909354Y-151062486D01*
X71916883Y-150937296D01*
X71873126Y-150618216D01*
X71767960Y-150313803D01*
X71674979Y-150139847D01*
X71410578Y-150044083D01*
X70454770Y-150999891D01*
X70095560Y-150999891D01*
X69139752Y-150044083D01*
X68875351Y-150139847D01*
X68734461Y-150429462D01*
X68652781Y-150740999D01*
X68633447Y-151062486D01*
X67185036Y-151062486D01*
X67185036Y-149864478D01*
X69319357Y-149864478D01*
X70275165Y-150820286D01*
X71230973Y-149864478D01*
X77519357Y-149864478D01*
X78475165Y-150820286D01*
X79430973Y-149864478D01*
X79335209Y-149600077D01*
X79045594Y-149459187D01*
X78734057Y-149377507D01*
X78412570Y-149358173D01*
X78093490Y-149401930D01*
X77789077Y-149507096D01*
X77615121Y-149600077D01*
X77519357Y-149864478D01*
X71230973Y-149864478D01*
X71135209Y-149600077D01*
X70845594Y-149459187D01*
X70534057Y-149377507D01*
X70212570Y-149358173D01*
X69893490Y-149401930D01*
X69589077Y-149507096D01*
X69415121Y-149600077D01*
X69319357Y-149864478D01*
X67185036Y-149864478D01*
X67185036Y-146408858D01*
X68640165Y-146408858D01*
X68640165Y-146730924D01*
X68702997Y-147046803D01*
X68826247Y-147344354D01*
X69005178Y-147612143D01*
X69232913Y-147839878D01*
X69500702Y-148018809D01*
X69798253Y-148142059D01*
X70114132Y-148204891D01*
X70436198Y-148204891D01*
X70752077Y-148142059D01*
X71049628Y-148018809D01*
X71317417Y-147839878D01*
X71545152Y-147612143D01*
X71724083Y-147344354D01*
X71730074Y-147329891D01*
X77020256Y-147329891D01*
X77026247Y-147344354D01*
X77205178Y-147612143D01*
X77432913Y-147839878D01*
X77700702Y-148018809D01*
X77998253Y-148142059D01*
X78314132Y-148204891D01*
X78636198Y-148204891D01*
X78952077Y-148142059D01*
X79249628Y-148018809D01*
X79517417Y-147839878D01*
X79745152Y-147612143D01*
X79924083Y-147344354D01*
X80047333Y-147046803D01*
X80110165Y-146730924D01*
X80110165Y-146408858D01*
X80047333Y-146092979D01*
X79924083Y-145795428D01*
X79745152Y-145527639D01*
X79517417Y-145299904D01*
X79249628Y-145120973D01*
X79235165Y-145114982D01*
X79235165Y-142504362D01*
X83540151Y-142504362D01*
X83540151Y-142846128D01*
X83606826Y-143181326D01*
X83737614Y-143497076D01*
X83927488Y-143781243D01*
X84169153Y-144022908D01*
X84453320Y-144212782D01*
X84769070Y-144343570D01*
X85104268Y-144410245D01*
X85446034Y-144410245D01*
X85781232Y-144343570D01*
X86096982Y-144212782D01*
X86381149Y-144022908D01*
X86622814Y-143781243D01*
X86812688Y-143497076D01*
X86943476Y-143181326D01*
X87010151Y-142846128D01*
X87010151Y-142504362D01*
X99490151Y-142504362D01*
X99490151Y-142846128D01*
X99556826Y-143181326D01*
X99687614Y-143497076D01*
X99877488Y-143781243D01*
X100119153Y-144022908D01*
X100403320Y-144212782D01*
X100719070Y-144343570D01*
X101054268Y-144410245D01*
X101396034Y-144410245D01*
X101731232Y-144343570D01*
X102046982Y-144212782D01*
X102331149Y-144022908D01*
X102572814Y-143781243D01*
X102762688Y-143497076D01*
X102893476Y-143181326D01*
X102960151Y-142846128D01*
X102960151Y-142504362D01*
X102893476Y-142169164D01*
X102762688Y-141853414D01*
X102572814Y-141569247D01*
X102331149Y-141327582D01*
X102046982Y-141137708D01*
X101731232Y-141006920D01*
X101396034Y-140940245D01*
X101054268Y-140940245D01*
X100719070Y-141006920D01*
X100403320Y-141137708D01*
X100119153Y-141327582D01*
X99877488Y-141569247D01*
X99687614Y-141853414D01*
X99556826Y-142169164D01*
X99490151Y-142504362D01*
X87010151Y-142504362D01*
X86943476Y-142169164D01*
X86812688Y-141853414D01*
X86622814Y-141569247D01*
X86381149Y-141327582D01*
X86096982Y-141137708D01*
X85781232Y-141006920D01*
X85446034Y-140940245D01*
X85104268Y-140940245D01*
X84769070Y-141006920D01*
X84453320Y-141137708D01*
X84169153Y-141327582D01*
X83927488Y-141569247D01*
X83737614Y-141853414D01*
X83606826Y-142169164D01*
X83540151Y-142504362D01*
X79235165Y-142504362D01*
X79235165Y-128339636D01*
X80614803Y-126960000D01*
X84350673Y-126960000D01*
X84218484Y-127068485D01*
X84045859Y-127278829D01*
X83917588Y-127518808D01*
X83838598Y-127779201D01*
X83811927Y-128050000D01*
X83811927Y-129013271D01*
X82288998Y-130536201D01*
X82260000Y-130559999D01*
X82236202Y-130588997D01*
X82236201Y-130588998D01*
X82165026Y-130675724D01*
X82094454Y-130807754D01*
X82050998Y-130951015D01*
X82036324Y-131100000D01*
X82040001Y-131137332D01*
X82040000Y-135061928D01*
X81550000Y-135061928D01*
X81425518Y-135074188D01*
X81305820Y-135110498D01*
X81195506Y-135169463D01*
X81098815Y-135248815D01*
X81019463Y-135345506D01*
X80960498Y-135455820D01*
X80924188Y-135575518D01*
X80911928Y-135700000D01*
X80911928Y-137500000D01*
X80924188Y-137624482D01*
X80960498Y-137744180D01*
X81019463Y-137854494D01*
X81098815Y-137951185D01*
X81195506Y-138030537D01*
X81305820Y-138089502D01*
X81425518Y-138125812D01*
X81550000Y-138138072D01*
X83263271Y-138138072D01*
X86436201Y-141311003D01*
X86459999Y-141340001D01*
X86488997Y-141363799D01*
X86575723Y-141434974D01*
X86707753Y-141505546D01*
X86851014Y-141549003D01*
X86962667Y-141560000D01*
X86962677Y-141560000D01*
X87000000Y-141563676D01*
X87037323Y-141560000D01*
X89311928Y-141560000D01*
X89311928Y-141700000D01*
X89324188Y-141824482D01*
X89360498Y-141944180D01*
X89419463Y-142054494D01*
X89498815Y-142151185D01*
X89595506Y-142230537D01*
X89705820Y-142289502D01*
X89825518Y-142325812D01*
X89950000Y-142338072D01*
X92450000Y-142338072D01*
X92574482Y-142325812D01*
X92694180Y-142289502D01*
X92804494Y-142230537D01*
X92901185Y-142151185D01*
X92980537Y-142054494D01*
X93039502Y-141944180D01*
X93075812Y-141824482D01*
X93088072Y-141700000D01*
X93088072Y-139900000D01*
X93311928Y-139900000D01*
X93311928Y-141700000D01*
X93324188Y-141824482D01*
X93360498Y-141944180D01*
X93419463Y-142054494D01*
X93498815Y-142151185D01*
X93595506Y-142230537D01*
X93705820Y-142289502D01*
X93825518Y-142325812D01*
X93950000Y-142338072D01*
X96450000Y-142338072D01*
X96574482Y-142325812D01*
X96694180Y-142289502D01*
X96804494Y-142230537D01*
X96901185Y-142151185D01*
X96980537Y-142054494D01*
X97039502Y-141944180D01*
X97075812Y-141824482D01*
X97088072Y-141700000D01*
X97088072Y-141560000D01*
X97562678Y-141560000D01*
X97600000Y-141563676D01*
X97637322Y-141560000D01*
X97637333Y-141560000D01*
X97748986Y-141549003D01*
X97892247Y-141505546D01*
X98024276Y-141434974D01*
X98140001Y-141340001D01*
X98163804Y-141310997D01*
X99214802Y-140260000D01*
X103762678Y-140260000D01*
X103800000Y-140263676D01*
X103837322Y-140260000D01*
X103837333Y-140260000D01*
X103948986Y-140249003D01*
X104092247Y-140205546D01*
X104224276Y-140134974D01*
X104340001Y-140040001D01*
X104363804Y-140010998D01*
X105411004Y-138963798D01*
X105440001Y-138940001D01*
X105466332Y-138907917D01*
X105534974Y-138824277D01*
X105605546Y-138692247D01*
X105605546Y-138692246D01*
X105649003Y-138548986D01*
X105660000Y-138437333D01*
X105660000Y-138437323D01*
X105663676Y-138400000D01*
X105660000Y-138362677D01*
X105660000Y-137079527D01*
X105689851Y-137070472D01*
X105843387Y-136988405D01*
X105977962Y-136877962D01*
X106088405Y-136743387D01*
X106170472Y-136589851D01*
X106221008Y-136423255D01*
X106238072Y-136250001D01*
X106238072Y-135599999D01*
X106221008Y-135426745D01*
X106170472Y-135260149D01*
X106088405Y-135106613D01*
X105977962Y-134972038D01*
X105971406Y-134966658D01*
X106051185Y-134901185D01*
X106130537Y-134804494D01*
X106189502Y-134694180D01*
X106225812Y-134574482D01*
X106238072Y-134450000D01*
X106235000Y-134160750D01*
X106076250Y-134002000D01*
X105027000Y-134002000D01*
X105027000Y-134022000D01*
X104773000Y-134022000D01*
X104773000Y-134002000D01*
X103723750Y-134002000D01*
X103565000Y-134160750D01*
X103561928Y-134450000D01*
X103574188Y-134574482D01*
X103610498Y-134694180D01*
X103669463Y-134804494D01*
X103748815Y-134901185D01*
X103828594Y-134966658D01*
X103822038Y-134972038D01*
X103711595Y-135106613D01*
X103701082Y-135126281D01*
X102060000Y-133485199D01*
X102060000Y-133300000D01*
X103561928Y-133300000D01*
X103565000Y-133589250D01*
X103723750Y-133748000D01*
X104773000Y-133748000D01*
X104773000Y-132823750D01*
X105027000Y-132823750D01*
X105027000Y-133748000D01*
X106076250Y-133748000D01*
X106235000Y-133589250D01*
X106238072Y-133300000D01*
X106225812Y-133175518D01*
X106189502Y-133055820D01*
X106130537Y-132945506D01*
X106051185Y-132848815D01*
X105954494Y-132769463D01*
X105844180Y-132710498D01*
X105724482Y-132674188D01*
X105600000Y-132661928D01*
X105185750Y-132665000D01*
X105027000Y-132823750D01*
X104773000Y-132823750D01*
X104614250Y-132665000D01*
X104200000Y-132661928D01*
X104075518Y-132674188D01*
X103955820Y-132710498D01*
X103845506Y-132769463D01*
X103748815Y-132848815D01*
X103669463Y-132945506D01*
X103610498Y-133055820D01*
X103574188Y-133175518D01*
X103561928Y-133300000D01*
X102060000Y-133300000D01*
X102060000Y-130510112D01*
X102071172Y-130504140D01*
X102281516Y-130331515D01*
X102454141Y-130121171D01*
X102582412Y-129881192D01*
X102661402Y-129620799D01*
X102688073Y-129350000D01*
X102688073Y-128050000D01*
X102661402Y-127779201D01*
X102582412Y-127518808D01*
X102454141Y-127278829D01*
X102281516Y-127068485D01*
X102071172Y-126895860D01*
X101831193Y-126767589D01*
X101570800Y-126688599D01*
X101300001Y-126661928D01*
X101299999Y-126661928D01*
X101029200Y-126688599D01*
X100768807Y-126767589D01*
X100528828Y-126895860D01*
X100318484Y-127068485D01*
X100145859Y-127278829D01*
X100017588Y-127518808D01*
X99938598Y-127779201D01*
X99911927Y-128050000D01*
X99911927Y-129350000D01*
X99938598Y-129620799D01*
X100017588Y-129881192D01*
X100145859Y-130121171D01*
X100318484Y-130331515D01*
X100528828Y-130504140D01*
X100540000Y-130510112D01*
X100540001Y-132665199D01*
X98226690Y-130351889D01*
X98251516Y-130331515D01*
X98424141Y-130121171D01*
X98552412Y-129881192D01*
X98631402Y-129620799D01*
X98658073Y-129350000D01*
X98658073Y-128050000D01*
X98631402Y-127779201D01*
X98552412Y-127518808D01*
X98424141Y-127278829D01*
X98251516Y-127068485D01*
X98041172Y-126895860D01*
X97801193Y-126767589D01*
X97540800Y-126688599D01*
X97270001Y-126661928D01*
X97269999Y-126661928D01*
X96999200Y-126688599D01*
X96738807Y-126767589D01*
X96498828Y-126895860D01*
X96288484Y-127068485D01*
X96115859Y-127278829D01*
X95987588Y-127518808D01*
X95908598Y-127779201D01*
X95881927Y-128050000D01*
X95881927Y-129350000D01*
X95908598Y-129620799D01*
X95987588Y-129881192D01*
X96115859Y-130121171D01*
X96288484Y-130331515D01*
X96498828Y-130504140D01*
X96510290Y-130510267D01*
X96520998Y-130618986D01*
X96534180Y-130662442D01*
X96564454Y-130762246D01*
X96635026Y-130894276D01*
X96681591Y-130951015D01*
X96730000Y-131010001D01*
X96758998Y-131033799D01*
X99440000Y-133714802D01*
X99440001Y-135061928D01*
X98950000Y-135061928D01*
X98825518Y-135074188D01*
X98705820Y-135110498D01*
X98595506Y-135169463D01*
X98498815Y-135248815D01*
X98419463Y-135345506D01*
X98360498Y-135455820D01*
X98324188Y-135575518D01*
X98311928Y-135700000D01*
X98311928Y-137500000D01*
X98324188Y-137624482D01*
X98360498Y-137744180D01*
X98419463Y-137854494D01*
X98498815Y-137951185D01*
X98595506Y-138030537D01*
X98705820Y-138089502D01*
X98825518Y-138125812D01*
X98950000Y-138138072D01*
X101450000Y-138138072D01*
X101574482Y-138125812D01*
X101694180Y-138089502D01*
X101804494Y-138030537D01*
X101901185Y-137951185D01*
X101980537Y-137854494D01*
X102039502Y-137744180D01*
X102075812Y-137624482D01*
X102088072Y-137500000D01*
X102088072Y-135700000D01*
X102084016Y-135658818D01*
X102861201Y-136436003D01*
X102884999Y-136465001D01*
X103000724Y-136559974D01*
X103132753Y-136630546D01*
X103276014Y-136674003D01*
X103387667Y-136685000D01*
X103387677Y-136685000D01*
X103425000Y-136688676D01*
X103462323Y-136685000D01*
X103680386Y-136685000D01*
X103711595Y-136743387D01*
X103822038Y-136877962D01*
X103956613Y-136988405D01*
X104110149Y-137070472D01*
X104140001Y-137079527D01*
X104140000Y-138085198D01*
X103485199Y-138740000D01*
X98937325Y-138740000D01*
X98900000Y-138736324D01*
X98862675Y-138740000D01*
X98862667Y-138740000D01*
X98751014Y-138750997D01*
X98607753Y-138794454D01*
X98475724Y-138865026D01*
X98359999Y-138959999D01*
X98336201Y-138988997D01*
X97285199Y-140040000D01*
X97088072Y-140040000D01*
X97088072Y-139900000D01*
X97075812Y-139775518D01*
X97039502Y-139655820D01*
X96980537Y-139545506D01*
X96901185Y-139448815D01*
X96804494Y-139369463D01*
X96694180Y-139310498D01*
X96574482Y-139274188D01*
X96450000Y-139261928D01*
X93950000Y-139261928D01*
X93825518Y-139274188D01*
X93705820Y-139310498D01*
X93595506Y-139369463D01*
X93498815Y-139448815D01*
X93419463Y-139545506D01*
X93360498Y-139655820D01*
X93324188Y-139775518D01*
X93311928Y-139900000D01*
X93088072Y-139900000D01*
X93075812Y-139775518D01*
X93039502Y-139655820D01*
X92980537Y-139545506D01*
X92901185Y-139448815D01*
X92804494Y-139369463D01*
X92694180Y-139310498D01*
X92574482Y-139274188D01*
X92450000Y-139261928D01*
X89950000Y-139261928D01*
X89825518Y-139274188D01*
X89705820Y-139310498D01*
X89595506Y-139369463D01*
X89498815Y-139448815D01*
X89419463Y-139545506D01*
X89360498Y-139655820D01*
X89324188Y-139775518D01*
X89311928Y-139900000D01*
X89311928Y-140040000D01*
X87314802Y-140040000D01*
X85389769Y-138114968D01*
X85425518Y-138125812D01*
X85550000Y-138138072D01*
X88050000Y-138138072D01*
X88174482Y-138125812D01*
X88294180Y-138089502D01*
X88404494Y-138030537D01*
X88501185Y-137951185D01*
X88580537Y-137854494D01*
X88639502Y-137744180D01*
X88675812Y-137624482D01*
X88688072Y-137500000D01*
X88688072Y-135786730D01*
X88800000Y-135674801D01*
X89661200Y-136536002D01*
X89684999Y-136565001D01*
X89800724Y-136659974D01*
X89932753Y-136730546D01*
X90076014Y-136774003D01*
X90187667Y-136785000D01*
X90187675Y-136785000D01*
X90225000Y-136788676D01*
X90262325Y-136785000D01*
X90980386Y-136785000D01*
X91011595Y-136843387D01*
X91122038Y-136977962D01*
X91256613Y-137088405D01*
X91410149Y-137170472D01*
X91576745Y-137221008D01*
X91749999Y-137238072D01*
X92650001Y-137238072D01*
X92823255Y-137221008D01*
X92989851Y-137170472D01*
X93143387Y-137088405D01*
X93277962Y-136977962D01*
X93388405Y-136843387D01*
X93419614Y-136785000D01*
X94311928Y-136785000D01*
X94311928Y-137500000D01*
X94324188Y-137624482D01*
X94360498Y-137744180D01*
X94419463Y-137854494D01*
X94498815Y-137951185D01*
X94595506Y-138030537D01*
X94705820Y-138089502D01*
X94825518Y-138125812D01*
X94950000Y-138138072D01*
X97450000Y-138138072D01*
X97574482Y-138125812D01*
X97694180Y-138089502D01*
X97804494Y-138030537D01*
X97901185Y-137951185D01*
X97980537Y-137854494D01*
X98039502Y-137744180D01*
X98075812Y-137624482D01*
X98088072Y-137500000D01*
X98088072Y-135700000D01*
X98075812Y-135575518D01*
X98039502Y-135455820D01*
X97980537Y-135345506D01*
X97901185Y-135248815D01*
X97804494Y-135169463D01*
X97694180Y-135110498D01*
X97574482Y-135074188D01*
X97450000Y-135061928D01*
X94950000Y-135061928D01*
X94825518Y-135074188D01*
X94705820Y-135110498D01*
X94595506Y-135169463D01*
X94498815Y-135248815D01*
X94485532Y-135265000D01*
X93419614Y-135265000D01*
X93388405Y-135206613D01*
X93277962Y-135072038D01*
X93271406Y-135066658D01*
X93351185Y-135001185D01*
X93430537Y-134904494D01*
X93489502Y-134794180D01*
X93525812Y-134674482D01*
X93538072Y-134550000D01*
X93535000Y-134260750D01*
X93376250Y-134102000D01*
X92327000Y-134102000D01*
X92327000Y-134122000D01*
X92073000Y-134122000D01*
X92073000Y-134102000D01*
X91023750Y-134102000D01*
X90865000Y-134260750D01*
X90861928Y-134550000D01*
X90874188Y-134674482D01*
X90910498Y-134794180D01*
X90969463Y-134904494D01*
X91048815Y-135001185D01*
X91128594Y-135066658D01*
X91122038Y-135072038D01*
X91011595Y-135206613D01*
X90980386Y-135265000D01*
X90539802Y-135265000D01*
X89970000Y-134695199D01*
X89970000Y-134227325D01*
X89973676Y-134190000D01*
X89970000Y-134152675D01*
X89970000Y-133400000D01*
X90861928Y-133400000D01*
X90865000Y-133689250D01*
X91023750Y-133848000D01*
X92073000Y-133848000D01*
X92073000Y-132923750D01*
X92327000Y-132923750D01*
X92327000Y-133848000D01*
X93376250Y-133848000D01*
X93535000Y-133689250D01*
X93538072Y-133400000D01*
X93525812Y-133275518D01*
X93489502Y-133155820D01*
X93430537Y-133045506D01*
X93351185Y-132948815D01*
X93254494Y-132869463D01*
X93144180Y-132810498D01*
X93024482Y-132774188D01*
X92900000Y-132761928D01*
X92485750Y-132765000D01*
X92327000Y-132923750D01*
X92073000Y-132923750D01*
X91914250Y-132765000D01*
X91500000Y-132761928D01*
X91375518Y-132774188D01*
X91255820Y-132810498D01*
X91145506Y-132869463D01*
X91048815Y-132948815D01*
X90969463Y-133045506D01*
X90910498Y-133155820D01*
X90874188Y-133275518D01*
X90861928Y-133400000D01*
X89970000Y-133400000D01*
X89970000Y-130510112D01*
X89981172Y-130504140D01*
X90191516Y-130331515D01*
X90364141Y-130121171D01*
X90375457Y-130100000D01*
X91851928Y-130100000D01*
X91864188Y-130224482D01*
X91900498Y-130344180D01*
X91959463Y-130454494D01*
X92038815Y-130551185D01*
X92135506Y-130630537D01*
X92245820Y-130689502D01*
X92365518Y-130725812D01*
X92490000Y-130738072D01*
X92954250Y-130735000D01*
X93113000Y-130576250D01*
X93113000Y-128827000D01*
X93367000Y-128827000D01*
X93367000Y-130576250D01*
X93525750Y-130735000D01*
X93990000Y-130738072D01*
X94114482Y-130725812D01*
X94234180Y-130689502D01*
X94344494Y-130630537D01*
X94441185Y-130551185D01*
X94520537Y-130454494D01*
X94579502Y-130344180D01*
X94615812Y-130224482D01*
X94628072Y-130100000D01*
X94625000Y-128985750D01*
X94466250Y-128827000D01*
X93367000Y-128827000D01*
X93113000Y-128827000D01*
X92013750Y-128827000D01*
X91855000Y-128985750D01*
X91851928Y-130100000D01*
X90375457Y-130100000D01*
X90492412Y-129881192D01*
X90571402Y-129620799D01*
X90598073Y-129350000D01*
X90598073Y-128050000D01*
X90571402Y-127779201D01*
X90492412Y-127518808D01*
X90375458Y-127300000D01*
X91851928Y-127300000D01*
X91855000Y-128414250D01*
X92013750Y-128573000D01*
X93113000Y-128573000D01*
X93113000Y-126823750D01*
X93367000Y-126823750D01*
X93367000Y-128573000D01*
X94466250Y-128573000D01*
X94625000Y-128414250D01*
X94628072Y-127300000D01*
X94615812Y-127175518D01*
X94579502Y-127055820D01*
X94520537Y-126945506D01*
X94441185Y-126848815D01*
X94344494Y-126769463D01*
X94234180Y-126710498D01*
X94114482Y-126674188D01*
X93990000Y-126661928D01*
X93525750Y-126665000D01*
X93367000Y-126823750D01*
X93113000Y-126823750D01*
X92954250Y-126665000D01*
X92490000Y-126661928D01*
X92365518Y-126674188D01*
X92245820Y-126710498D01*
X92135506Y-126769463D01*
X92038815Y-126848815D01*
X91959463Y-126945506D01*
X91900498Y-127055820D01*
X91864188Y-127175518D01*
X91851928Y-127300000D01*
X90375458Y-127300000D01*
X90364141Y-127278829D01*
X90191516Y-127068485D01*
X89981172Y-126895860D01*
X89741193Y-126767589D01*
X89480800Y-126688599D01*
X89210001Y-126661928D01*
X89209999Y-126661928D01*
X88939200Y-126688599D01*
X88678807Y-126767589D01*
X88438828Y-126895860D01*
X88228484Y-127068485D01*
X88055859Y-127278829D01*
X87927588Y-127518808D01*
X87848598Y-127779201D01*
X87821927Y-128050000D01*
X87821927Y-129350000D01*
X87848598Y-129620799D01*
X87927588Y-129881192D01*
X88055859Y-130121171D01*
X88228484Y-130331515D01*
X88438828Y-130504140D01*
X88450000Y-130510112D01*
X88450001Y-133875197D01*
X87263271Y-135061928D01*
X85550000Y-135061928D01*
X85425518Y-135074188D01*
X85305820Y-135110498D01*
X85195506Y-135169463D01*
X85098815Y-135248815D01*
X85019463Y-135345506D01*
X84960498Y-135455820D01*
X84924188Y-135575518D01*
X84911928Y-135700000D01*
X84911928Y-137500000D01*
X84924188Y-137624482D01*
X84935032Y-137660231D01*
X84688072Y-137413271D01*
X84688072Y-135700000D01*
X84675812Y-135575518D01*
X84639502Y-135455820D01*
X84580537Y-135345506D01*
X84501185Y-135248815D01*
X84404494Y-135169463D01*
X84294180Y-135110498D01*
X84174482Y-135074188D01*
X84050000Y-135061928D01*
X83560000Y-135061928D01*
X83560000Y-131414801D01*
X84456090Y-130518712D01*
X84668807Y-130632411D01*
X84929200Y-130711401D01*
X85199999Y-130738072D01*
X85200001Y-130738072D01*
X85470800Y-130711401D01*
X85731193Y-130632411D01*
X85971172Y-130504140D01*
X86181516Y-130331515D01*
X86354141Y-130121171D01*
X86482412Y-129881192D01*
X86561402Y-129620799D01*
X86588073Y-129350000D01*
X86588073Y-128050000D01*
X86561402Y-127779201D01*
X86482412Y-127518808D01*
X86354141Y-127278829D01*
X86181516Y-127068485D01*
X86049327Y-126960000D01*
X87262678Y-126960000D01*
X87300000Y-126963676D01*
X87337322Y-126960000D01*
X87337333Y-126960000D01*
X87448986Y-126949003D01*
X87592247Y-126905546D01*
X87724276Y-126834974D01*
X87840001Y-126740001D01*
X87863804Y-126710997D01*
X89011004Y-125563798D01*
X89040001Y-125540001D01*
X89134974Y-125424276D01*
X89205546Y-125292247D01*
X89249003Y-125148986D01*
X89252434Y-125114156D01*
X89271172Y-125104140D01*
X89481516Y-124931515D01*
X89654141Y-124721171D01*
X89665457Y-124700000D01*
X90251928Y-124700000D01*
X90264188Y-124824482D01*
X90300498Y-124944180D01*
X90359463Y-125054494D01*
X90438815Y-125151185D01*
X90535506Y-125230537D01*
X90645820Y-125289502D01*
X90765518Y-125325812D01*
X90890000Y-125338072D01*
X91354250Y-125335000D01*
X91513000Y-125176250D01*
X91513000Y-123427000D01*
X91767000Y-123427000D01*
X91767000Y-125176250D01*
X91925750Y-125335000D01*
X92390000Y-125338072D01*
X92514482Y-125325812D01*
X92634180Y-125289502D01*
X92744494Y-125230537D01*
X92841185Y-125151185D01*
X92920537Y-125054494D01*
X92979502Y-124944180D01*
X93015812Y-124824482D01*
X93028072Y-124700000D01*
X93471928Y-124700000D01*
X93484188Y-124824482D01*
X93520498Y-124944180D01*
X93579463Y-125054494D01*
X93658815Y-125151185D01*
X93755506Y-125230537D01*
X93865820Y-125289502D01*
X93985518Y-125325812D01*
X94110000Y-125338072D01*
X94574250Y-125335000D01*
X94733000Y-125176250D01*
X94733000Y-123427000D01*
X94987000Y-123427000D01*
X94987000Y-125176250D01*
X95145750Y-125335000D01*
X95610000Y-125338072D01*
X95734482Y-125325812D01*
X95854180Y-125289502D01*
X95964494Y-125230537D01*
X96061185Y-125151185D01*
X96140537Y-125054494D01*
X96199502Y-124944180D01*
X96235812Y-124824482D01*
X96248072Y-124700000D01*
X96245000Y-123585750D01*
X96086250Y-123427000D01*
X94987000Y-123427000D01*
X94733000Y-123427000D01*
X93633750Y-123427000D01*
X93475000Y-123585750D01*
X93471928Y-124700000D01*
X93028072Y-124700000D01*
X93025000Y-123585750D01*
X92866250Y-123427000D01*
X91767000Y-123427000D01*
X91513000Y-123427000D01*
X90413750Y-123427000D01*
X90255000Y-123585750D01*
X90251928Y-124700000D01*
X89665457Y-124700000D01*
X89782412Y-124481192D01*
X89861402Y-124220799D01*
X89888073Y-123950000D01*
X89888073Y-122650000D01*
X89861402Y-122379201D01*
X89782412Y-122118808D01*
X89665458Y-121900000D01*
X90251928Y-121900000D01*
X90255000Y-123014250D01*
X90413750Y-123173000D01*
X91513000Y-123173000D01*
X91513000Y-121423750D01*
X91767000Y-121423750D01*
X91767000Y-123173000D01*
X92866250Y-123173000D01*
X93025000Y-123014250D01*
X93028072Y-121900000D01*
X93471928Y-121900000D01*
X93475000Y-123014250D01*
X93633750Y-123173000D01*
X94733000Y-123173000D01*
X94733000Y-121423750D01*
X94987000Y-121423750D01*
X94987000Y-123173000D01*
X96086250Y-123173000D01*
X96245000Y-123014250D01*
X96246004Y-122650000D01*
X96691927Y-122650000D01*
X96691927Y-123950000D01*
X96718598Y-124220799D01*
X96797588Y-124481192D01*
X96925859Y-124721171D01*
X97098484Y-124931515D01*
X97308828Y-125104140D01*
X97548807Y-125232411D01*
X97809200Y-125311401D01*
X98079999Y-125338072D01*
X98080001Y-125338072D01*
X98350800Y-125311401D01*
X98611193Y-125232411D01*
X98851172Y-125104140D01*
X98938044Y-125032846D01*
X100216200Y-126311002D01*
X100239999Y-126340001D01*
X100268997Y-126363799D01*
X100355724Y-126434974D01*
X100487753Y-126505546D01*
X100631014Y-126549003D01*
X100780000Y-126563677D01*
X100817333Y-126560000D01*
X106185199Y-126560000D01*
X107265001Y-127639803D01*
X107265000Y-145114982D01*
X107250537Y-145120973D01*
X106982748Y-145299904D01*
X106755013Y-145527639D01*
X106576082Y-145795428D01*
X106452832Y-146092979D01*
X106390000Y-146408858D01*
X106390000Y-146730924D01*
X106452832Y-147046803D01*
X106576082Y-147344354D01*
X106755013Y-147612143D01*
X106982748Y-147839878D01*
X107250537Y-148018809D01*
X107548088Y-148142059D01*
X107863967Y-148204891D01*
X108186033Y-148204891D01*
X108501912Y-148142059D01*
X108799463Y-148018809D01*
X109067252Y-147839878D01*
X109294987Y-147612143D01*
X109473918Y-147344354D01*
X109479909Y-147329891D01*
X114770091Y-147329891D01*
X114776082Y-147344354D01*
X114955013Y-147612143D01*
X115182748Y-147839878D01*
X115450537Y-148018809D01*
X115748088Y-148142059D01*
X116063967Y-148204891D01*
X116386033Y-148204891D01*
X116701912Y-148142059D01*
X116999463Y-148018809D01*
X117267252Y-147839878D01*
X117494987Y-147612143D01*
X117673918Y-147344354D01*
X117797168Y-147046803D01*
X117860000Y-146730924D01*
X117860000Y-146408858D01*
X117797168Y-146092979D01*
X117673918Y-145795428D01*
X117494987Y-145527639D01*
X117267252Y-145299904D01*
X116999463Y-145120973D01*
X116701912Y-144997723D01*
X116386033Y-144934891D01*
X116063967Y-144934891D01*
X115748088Y-144997723D01*
X115450537Y-145120973D01*
X115182748Y-145299904D01*
X114955013Y-145527639D01*
X114776082Y-145795428D01*
X114770091Y-145809891D01*
X109479909Y-145809891D01*
X109473918Y-145795428D01*
X109294987Y-145527639D01*
X109067252Y-145299904D01*
X108799463Y-145120973D01*
X108785000Y-145114982D01*
X108785000Y-127362325D01*
X108788676Y-127325000D01*
X108785000Y-127287675D01*
X108785000Y-127287667D01*
X108774003Y-127176014D01*
X108730546Y-127032753D01*
X108659974Y-126900724D01*
X108565001Y-126784999D01*
X108536003Y-126761201D01*
X107634739Y-125859938D01*
X111429891Y-125859938D01*
X111435882Y-125874401D01*
X111614813Y-126142190D01*
X111842548Y-126369925D01*
X112110337Y-126548856D01*
X112124800Y-126554847D01*
X112124801Y-131845029D01*
X112110337Y-131851020D01*
X111842548Y-132029951D01*
X111614813Y-132257686D01*
X111435882Y-132525475D01*
X111312632Y-132823026D01*
X111249800Y-133138905D01*
X111249800Y-133460971D01*
X111312632Y-133776850D01*
X111435882Y-134074401D01*
X111614813Y-134342190D01*
X111842548Y-134569925D01*
X112110337Y-134748856D01*
X112407888Y-134872106D01*
X112723767Y-134934938D01*
X113045833Y-134934938D01*
X113361712Y-134872106D01*
X113659263Y-134748856D01*
X113927052Y-134569925D01*
X114061626Y-134435351D01*
X116358992Y-134435351D01*
X116454756Y-134699752D01*
X116744371Y-134840642D01*
X117055908Y-134922322D01*
X117377395Y-134941656D01*
X117696475Y-134897899D01*
X118000888Y-134792733D01*
X118174844Y-134699752D01*
X118270608Y-134435351D01*
X117314800Y-133479543D01*
X116358992Y-134435351D01*
X114061626Y-134435351D01*
X114154787Y-134342190D01*
X114333718Y-134074401D01*
X114456968Y-133776850D01*
X114519800Y-133460971D01*
X114519800Y-133362533D01*
X115673082Y-133362533D01*
X115716839Y-133681613D01*
X115822005Y-133986026D01*
X115914986Y-134159982D01*
X116179387Y-134255746D01*
X117135195Y-133299938D01*
X117494405Y-133299938D01*
X118450213Y-134255746D01*
X118714614Y-134159982D01*
X118855504Y-133870367D01*
X118937184Y-133558830D01*
X118956518Y-133237343D01*
X118912761Y-132918263D01*
X118807595Y-132613850D01*
X118714614Y-132439894D01*
X118450213Y-132344130D01*
X117494405Y-133299938D01*
X117135195Y-133299938D01*
X116179387Y-132344130D01*
X115914986Y-132439894D01*
X115774096Y-132729509D01*
X115692416Y-133041046D01*
X115673082Y-133362533D01*
X114519800Y-133362533D01*
X114519800Y-133138905D01*
X114456968Y-132823026D01*
X114333718Y-132525475D01*
X114154787Y-132257686D01*
X114061626Y-132164525D01*
X116358992Y-132164525D01*
X117314800Y-133120333D01*
X118270608Y-132164525D01*
X118174844Y-131900124D01*
X117885229Y-131759234D01*
X117573692Y-131677554D01*
X117252205Y-131658220D01*
X116933125Y-131701977D01*
X116628712Y-131807143D01*
X116454756Y-131900124D01*
X116358992Y-132164525D01*
X114061626Y-132164525D01*
X113927052Y-132029951D01*
X113659263Y-131851020D01*
X113644800Y-131845029D01*
X113644800Y-126554847D01*
X113659263Y-126548856D01*
X113927052Y-126369925D01*
X114061626Y-126235351D01*
X116358992Y-126235351D01*
X116454756Y-126499752D01*
X116744371Y-126640642D01*
X117055908Y-126722322D01*
X117377395Y-126741656D01*
X117696475Y-126697899D01*
X118000888Y-126592733D01*
X118174844Y-126499752D01*
X118270608Y-126235351D01*
X117314800Y-125279543D01*
X116358992Y-126235351D01*
X114061626Y-126235351D01*
X114154787Y-126142190D01*
X114333718Y-125874401D01*
X114456968Y-125576850D01*
X114519800Y-125260971D01*
X114519800Y-125162533D01*
X115673082Y-125162533D01*
X115716839Y-125481613D01*
X115822005Y-125786026D01*
X115914986Y-125959982D01*
X116179387Y-126055746D01*
X117135195Y-125099938D01*
X117494405Y-125099938D01*
X118450213Y-126055746D01*
X118714614Y-125959982D01*
X118855504Y-125670367D01*
X118937184Y-125358830D01*
X118956518Y-125037343D01*
X118912761Y-124718263D01*
X118807595Y-124413850D01*
X118714614Y-124239894D01*
X118450213Y-124144130D01*
X117494405Y-125099938D01*
X117135195Y-125099938D01*
X116179387Y-124144130D01*
X115914986Y-124239894D01*
X115774096Y-124529509D01*
X115692416Y-124841046D01*
X115673082Y-125162533D01*
X114519800Y-125162533D01*
X114519800Y-124938905D01*
X114456968Y-124623026D01*
X114333718Y-124325475D01*
X114154787Y-124057686D01*
X114061626Y-123964525D01*
X116358992Y-123964525D01*
X117314800Y-124920333D01*
X118270608Y-123964525D01*
X118174844Y-123700124D01*
X117885229Y-123559234D01*
X117573692Y-123477554D01*
X117252205Y-123458220D01*
X116933125Y-123501977D01*
X116628712Y-123607143D01*
X116454756Y-123700124D01*
X116358992Y-123964525D01*
X114061626Y-123964525D01*
X113927052Y-123829951D01*
X113659263Y-123651020D01*
X113361712Y-123527770D01*
X113045833Y-123464938D01*
X112723767Y-123464938D01*
X112407888Y-123527770D01*
X112110337Y-123651020D01*
X111842548Y-123829951D01*
X111614813Y-124057686D01*
X111435882Y-124325475D01*
X111429891Y-124339938D01*
X103614741Y-124339938D01*
X102688073Y-123413271D01*
X102688073Y-122650000D01*
X102661402Y-122379201D01*
X102582412Y-122118808D01*
X102454141Y-121878829D01*
X102281516Y-121668485D01*
X102071172Y-121495860D01*
X101831193Y-121367589D01*
X101570800Y-121288599D01*
X101300001Y-121261928D01*
X101299999Y-121261928D01*
X101029200Y-121288599D01*
X100768807Y-121367589D01*
X100528828Y-121495860D01*
X100318484Y-121668485D01*
X100145859Y-121878829D01*
X100017588Y-122118808D01*
X99938598Y-122379201D01*
X99911927Y-122650000D01*
X99911927Y-123857126D01*
X99468073Y-123413272D01*
X99468073Y-122650000D01*
X99441402Y-122379201D01*
X99362412Y-122118808D01*
X99234141Y-121878829D01*
X99061516Y-121668485D01*
X98851172Y-121495860D01*
X98611193Y-121367589D01*
X98350800Y-121288599D01*
X98080001Y-121261928D01*
X98079999Y-121261928D01*
X97809200Y-121288599D01*
X97548807Y-121367589D01*
X97308828Y-121495860D01*
X97098484Y-121668485D01*
X96925859Y-121878829D01*
X96797588Y-122118808D01*
X96718598Y-122379201D01*
X96691927Y-122650000D01*
X96246004Y-122650000D01*
X96248072Y-121900000D01*
X96235812Y-121775518D01*
X96199502Y-121655820D01*
X96140537Y-121545506D01*
X96061185Y-121448815D01*
X95964494Y-121369463D01*
X95854180Y-121310498D01*
X95734482Y-121274188D01*
X95610000Y-121261928D01*
X95145750Y-121265000D01*
X94987000Y-121423750D01*
X94733000Y-121423750D01*
X94574250Y-121265000D01*
X94110000Y-121261928D01*
X93985518Y-121274188D01*
X93865820Y-121310498D01*
X93755506Y-121369463D01*
X93658815Y-121448815D01*
X93579463Y-121545506D01*
X93520498Y-121655820D01*
X93484188Y-121775518D01*
X93471928Y-121900000D01*
X93028072Y-121900000D01*
X93015812Y-121775518D01*
X92979502Y-121655820D01*
X92920537Y-121545506D01*
X92841185Y-121448815D01*
X92744494Y-121369463D01*
X92634180Y-121310498D01*
X92514482Y-121274188D01*
X92390000Y-121261928D01*
X91925750Y-121265000D01*
X91767000Y-121423750D01*
X91513000Y-121423750D01*
X91354250Y-121265000D01*
X90890000Y-121261928D01*
X90765518Y-121274188D01*
X90645820Y-121310498D01*
X90535506Y-121369463D01*
X90438815Y-121448815D01*
X90359463Y-121545506D01*
X90300498Y-121655820D01*
X90264188Y-121775518D01*
X90251928Y-121900000D01*
X89665458Y-121900000D01*
X89654141Y-121878829D01*
X89481516Y-121668485D01*
X89271172Y-121495860D01*
X89031193Y-121367589D01*
X88770800Y-121288599D01*
X88500001Y-121261928D01*
X88499999Y-121261928D01*
X88229200Y-121288599D01*
X87968807Y-121367589D01*
X87728828Y-121495860D01*
X87518484Y-121668485D01*
X87345859Y-121878829D01*
X87217588Y-122118808D01*
X87138598Y-122379201D01*
X87111927Y-122650000D01*
X87111927Y-123950000D01*
X87138598Y-124220799D01*
X87217588Y-124481192D01*
X87345859Y-124721171D01*
X87507305Y-124917893D01*
X86985199Y-125440000D01*
X83934801Y-125440000D01*
X84341956Y-125032846D01*
X84428828Y-125104140D01*
X84668807Y-125232411D01*
X84929200Y-125311401D01*
X85199999Y-125338072D01*
X85200001Y-125338072D01*
X85470800Y-125311401D01*
X85731193Y-125232411D01*
X85971172Y-125104140D01*
X86181516Y-124931515D01*
X86354141Y-124721171D01*
X86482412Y-124481192D01*
X86561402Y-124220799D01*
X86588073Y-123950000D01*
X86588073Y-122650000D01*
X86561402Y-122379201D01*
X86482412Y-122118808D01*
X86354141Y-121878829D01*
X86181516Y-121668485D01*
X85971172Y-121495860D01*
X85731193Y-121367589D01*
X85470800Y-121288599D01*
X85200001Y-121261928D01*
X85199999Y-121261928D01*
X84929200Y-121288599D01*
X84668807Y-121367589D01*
X84428828Y-121495860D01*
X84218484Y-121668485D01*
X84045859Y-121878829D01*
X83917588Y-122118808D01*
X83838598Y-122379201D01*
X83811927Y-122650000D01*
X83811927Y-123413271D01*
X82585199Y-124640000D01*
X75205532Y-124640000D01*
X75202168Y-124623088D01*
X75078918Y-124325537D01*
X74899987Y-124057748D01*
X74672252Y-123830013D01*
X74404463Y-123651082D01*
X74106912Y-123527832D01*
X73791033Y-123465000D01*
X73468967Y-123465000D01*
X73153088Y-123527832D01*
X72855537Y-123651082D01*
X72587748Y-123830013D01*
X72360013Y-124057748D01*
X72181082Y-124325537D01*
X72057832Y-124623088D01*
X71995000Y-124938967D01*
X71995000Y-125261033D01*
X72057832Y-125576912D01*
X72181082Y-125874463D01*
X72360013Y-126142252D01*
X72587748Y-126369987D01*
X72854966Y-126548536D01*
X72854965Y-131851464D01*
X72587748Y-132030013D01*
X72360013Y-132257748D01*
X72181082Y-132525537D01*
X72057832Y-132823088D01*
X71995000Y-133138967D01*
X71995000Y-133461033D01*
X72057832Y-133776912D01*
X72181082Y-134074463D01*
X72360013Y-134342252D01*
X72587748Y-134569987D01*
X72855537Y-134748918D01*
X73153088Y-134872168D01*
X73468967Y-134935000D01*
X73791033Y-134935000D01*
X74106912Y-134872168D01*
X74404463Y-134748918D01*
X74672252Y-134569987D01*
X74899987Y-134342252D01*
X75078918Y-134074463D01*
X75202168Y-133776912D01*
X75265000Y-133461033D01*
X75265000Y-133138967D01*
X75202168Y-132823088D01*
X75078918Y-132525537D01*
X74899987Y-132257748D01*
X74672252Y-132030013D01*
X74404463Y-131851082D01*
X74374965Y-131838863D01*
X74374965Y-126561137D01*
X74404463Y-126548918D01*
X74672252Y-126369987D01*
X74882239Y-126160000D01*
X79265198Y-126160000D01*
X77964163Y-127461036D01*
X77935165Y-127484834D01*
X77911367Y-127513832D01*
X77911366Y-127513833D01*
X77840191Y-127600559D01*
X77769619Y-127732589D01*
X77755480Y-127779201D01*
X77726163Y-127875849D01*
X77717877Y-127959974D01*
X77711489Y-128024835D01*
X77715166Y-128062168D01*
X77715165Y-145114982D01*
X77700702Y-145120973D01*
X77432913Y-145299904D01*
X77205178Y-145527639D01*
X77026247Y-145795428D01*
X77020256Y-145809891D01*
X71730074Y-145809891D01*
X71724083Y-145795428D01*
X71545152Y-145527639D01*
X71317417Y-145299904D01*
X71049628Y-145120973D01*
X70752077Y-144997723D01*
X70436198Y-144934891D01*
X70114132Y-144934891D01*
X69798253Y-144997723D01*
X69500702Y-145120973D01*
X69232913Y-145299904D01*
X69005178Y-145527639D01*
X68826247Y-145795428D01*
X68702997Y-146092979D01*
X68640165Y-146408858D01*
X67185036Y-146408858D01*
X67185036Y-134435413D01*
X68244192Y-134435413D01*
X68339956Y-134699814D01*
X68629571Y-134840704D01*
X68941108Y-134922384D01*
X69262595Y-134941718D01*
X69581675Y-134897961D01*
X69886088Y-134792795D01*
X70060044Y-134699814D01*
X70155808Y-134435413D01*
X69200000Y-133479605D01*
X68244192Y-134435413D01*
X67185036Y-134435413D01*
X67185036Y-133362595D01*
X67558282Y-133362595D01*
X67602039Y-133681675D01*
X67707205Y-133986088D01*
X67800186Y-134160044D01*
X68064587Y-134255808D01*
X69020395Y-133300000D01*
X69379605Y-133300000D01*
X70335413Y-134255808D01*
X70599814Y-134160044D01*
X70740704Y-133870429D01*
X70822384Y-133558892D01*
X70841718Y-133237405D01*
X70797961Y-132918325D01*
X70692795Y-132613912D01*
X70599814Y-132439956D01*
X70335413Y-132344192D01*
X69379605Y-133300000D01*
X69020395Y-133300000D01*
X68064587Y-132344192D01*
X67800186Y-132439956D01*
X67659296Y-132729571D01*
X67577616Y-133041108D01*
X67558282Y-133362595D01*
X67185036Y-133362595D01*
X67185036Y-132164587D01*
X68244192Y-132164587D01*
X69200000Y-133120395D01*
X70155808Y-132164587D01*
X70060044Y-131900186D01*
X69770429Y-131759296D01*
X69458892Y-131677616D01*
X69137405Y-131658282D01*
X68818325Y-131702039D01*
X68513912Y-131807205D01*
X68339956Y-131900186D01*
X68244192Y-132164587D01*
X67185036Y-132164587D01*
X67185036Y-126235413D01*
X68244192Y-126235413D01*
X68339956Y-126499814D01*
X68629571Y-126640704D01*
X68941108Y-126722384D01*
X69262595Y-126741718D01*
X69581675Y-126697961D01*
X69886088Y-126592795D01*
X70060044Y-126499814D01*
X70155808Y-126235413D01*
X69200000Y-125279605D01*
X68244192Y-126235413D01*
X67185036Y-126235413D01*
X67185036Y-125162595D01*
X67558282Y-125162595D01*
X67602039Y-125481675D01*
X67707205Y-125786088D01*
X67800186Y-125960044D01*
X68064587Y-126055808D01*
X69020395Y-125100000D01*
X69379605Y-125100000D01*
X70335413Y-126055808D01*
X70599814Y-125960044D01*
X70740704Y-125670429D01*
X70822384Y-125358892D01*
X70841718Y-125037405D01*
X70797961Y-124718325D01*
X70692795Y-124413912D01*
X70599814Y-124239956D01*
X70335413Y-124144192D01*
X69379605Y-125100000D01*
X69020395Y-125100000D01*
X68064587Y-124144192D01*
X67800186Y-124239956D01*
X67659296Y-124529571D01*
X67577616Y-124841108D01*
X67558282Y-125162595D01*
X67185036Y-125162595D01*
X67185036Y-123964587D01*
X68244192Y-123964587D01*
X69200000Y-124920395D01*
X70155808Y-123964587D01*
X70060044Y-123700186D01*
X69770429Y-123559296D01*
X69458892Y-123477616D01*
X69137405Y-123458282D01*
X68818325Y-123502039D01*
X68513912Y-123607205D01*
X68339956Y-123700186D01*
X68244192Y-123964587D01*
X67185036Y-123964587D01*
X67185036Y-120127000D01*
X68431931Y-120127000D01*
X68394038Y-120152319D01*
G37*
G04 #@! TD.AperFunction*
D13*
X119315001Y-154689989D02*
X104985000Y-154689989D01*
X104985000Y-152135304D01*
X107069192Y-152135304D01*
X107164956Y-152399705D01*
X107454571Y-152540595D01*
X107766108Y-152622275D01*
X108087595Y-152641609D01*
X108406675Y-152597852D01*
X108711088Y-152492686D01*
X108885044Y-152399705D01*
X108980808Y-152135304D01*
X115269192Y-152135304D01*
X115364956Y-152399705D01*
X115654571Y-152540595D01*
X115966108Y-152622275D01*
X116287595Y-152641609D01*
X116606675Y-152597852D01*
X116911088Y-152492686D01*
X117085044Y-152399705D01*
X117180808Y-152135304D01*
X116225000Y-151179496D01*
X115269192Y-152135304D01*
X108980808Y-152135304D01*
X108025000Y-151179496D01*
X107069192Y-152135304D01*
X104985000Y-152135304D01*
X104985000Y-151062486D01*
X106383282Y-151062486D01*
X106427039Y-151381566D01*
X106532205Y-151685979D01*
X106625186Y-151859935D01*
X106889587Y-151955699D01*
X107845395Y-150999891D01*
X108204605Y-150999891D01*
X109160413Y-151955699D01*
X109424814Y-151859935D01*
X109565704Y-151570320D01*
X109647384Y-151258783D01*
X109659189Y-151062486D01*
X114583282Y-151062486D01*
X114627039Y-151381566D01*
X114732205Y-151685979D01*
X114825186Y-151859935D01*
X115089587Y-151955699D01*
X116045395Y-150999891D01*
X116404605Y-150999891D01*
X117360413Y-151955699D01*
X117624814Y-151859935D01*
X117765704Y-151570320D01*
X117847384Y-151258783D01*
X117866718Y-150937296D01*
X117822961Y-150618216D01*
X117717795Y-150313803D01*
X117624814Y-150139847D01*
X117360413Y-150044083D01*
X116404605Y-150999891D01*
X116045395Y-150999891D01*
X115089587Y-150044083D01*
X114825186Y-150139847D01*
X114684296Y-150429462D01*
X114602616Y-150740999D01*
X114583282Y-151062486D01*
X109659189Y-151062486D01*
X109666718Y-150937296D01*
X109622961Y-150618216D01*
X109517795Y-150313803D01*
X109424814Y-150139847D01*
X109160413Y-150044083D01*
X108204605Y-150999891D01*
X107845395Y-150999891D01*
X106889587Y-150044083D01*
X106625186Y-150139847D01*
X106484296Y-150429462D01*
X106402616Y-150740999D01*
X106383282Y-151062486D01*
X104985000Y-151062486D01*
X104985000Y-149864478D01*
X107069192Y-149864478D01*
X108025000Y-150820286D01*
X108980808Y-149864478D01*
X115269192Y-149864478D01*
X116225000Y-150820286D01*
X117180808Y-149864478D01*
X117085044Y-149600077D01*
X116795429Y-149459187D01*
X116483892Y-149377507D01*
X116162405Y-149358173D01*
X115843325Y-149401930D01*
X115538912Y-149507096D01*
X115364956Y-149600077D01*
X115269192Y-149864478D01*
X108980808Y-149864478D01*
X108885044Y-149600077D01*
X108595429Y-149459187D01*
X108283892Y-149377507D01*
X107962405Y-149358173D01*
X107643325Y-149401930D01*
X107338912Y-149507096D01*
X107164956Y-149600077D01*
X107069192Y-149864478D01*
X104985000Y-149864478D01*
X104985000Y-148712612D01*
X104988314Y-148678965D01*
X104975088Y-148544682D01*
X104935919Y-148415559D01*
X104872312Y-148296558D01*
X104786711Y-148192254D01*
X104682407Y-148106653D01*
X104563406Y-148043046D01*
X104434283Y-148003877D01*
X104333647Y-147993965D01*
X104300000Y-147990651D01*
X104266353Y-147993965D01*
X82233647Y-147993965D01*
X82200000Y-147990651D01*
X82166353Y-147993965D01*
X82065717Y-148003877D01*
X81936594Y-148043046D01*
X81817593Y-148106653D01*
X81713289Y-148192254D01*
X81627688Y-148296558D01*
X81564081Y-148415559D01*
X81524912Y-148544682D01*
X81511686Y-148678965D01*
X81515000Y-148712612D01*
X81515001Y-154689989D01*
X67185036Y-154689989D01*
X67185036Y-152135304D01*
X69319357Y-152135304D01*
X69415121Y-152399705D01*
X69704736Y-152540595D01*
X70016273Y-152622275D01*
X70337760Y-152641609D01*
X70656840Y-152597852D01*
X70961253Y-152492686D01*
X71135209Y-152399705D01*
X71230973Y-152135304D01*
X77519357Y-152135304D01*
X77615121Y-152399705D01*
X77904736Y-152540595D01*
X78216273Y-152622275D01*
X78537760Y-152641609D01*
X78856840Y-152597852D01*
X79161253Y-152492686D01*
X79335209Y-152399705D01*
X79430973Y-152135304D01*
X78475165Y-151179496D01*
X77519357Y-152135304D01*
X71230973Y-152135304D01*
X70275165Y-151179496D01*
X69319357Y-152135304D01*
X67185036Y-152135304D01*
X67185036Y-151062486D01*
X68633447Y-151062486D01*
X68677204Y-151381566D01*
X68782370Y-151685979D01*
X68875351Y-151859935D01*
X69139752Y-151955699D01*
X70095560Y-150999891D01*
X70454770Y-150999891D01*
X71410578Y-151955699D01*
X71674979Y-151859935D01*
X71815869Y-151570320D01*
X71897549Y-151258783D01*
X71909354Y-151062486D01*
X76833447Y-151062486D01*
X76877204Y-151381566D01*
X76982370Y-151685979D01*
X77075351Y-151859935D01*
X77339752Y-151955699D01*
X78295560Y-150999891D01*
X78654770Y-150999891D01*
X79610578Y-151955699D01*
X79874979Y-151859935D01*
X80015869Y-151570320D01*
X80097549Y-151258783D01*
X80116883Y-150937296D01*
X80073126Y-150618216D01*
X79967960Y-150313803D01*
X79874979Y-150139847D01*
X79610578Y-150044083D01*
X78654770Y-150999891D01*
X78295560Y-150999891D01*
X77339752Y-150044083D01*
X77075351Y-150139847D01*
X76934461Y-150429462D01*
X76852781Y-150740999D01*
X76833447Y-151062486D01*
X71909354Y-151062486D01*
X71916883Y-150937296D01*
X71873126Y-150618216D01*
X71767960Y-150313803D01*
X71674979Y-150139847D01*
X71410578Y-150044083D01*
X70454770Y-150999891D01*
X70095560Y-150999891D01*
X69139752Y-150044083D01*
X68875351Y-150139847D01*
X68734461Y-150429462D01*
X68652781Y-150740999D01*
X68633447Y-151062486D01*
X67185036Y-151062486D01*
X67185036Y-149864478D01*
X69319357Y-149864478D01*
X70275165Y-150820286D01*
X71230973Y-149864478D01*
X77519357Y-149864478D01*
X78475165Y-150820286D01*
X79430973Y-149864478D01*
X79335209Y-149600077D01*
X79045594Y-149459187D01*
X78734057Y-149377507D01*
X78412570Y-149358173D01*
X78093490Y-149401930D01*
X77789077Y-149507096D01*
X77615121Y-149600077D01*
X77519357Y-149864478D01*
X71230973Y-149864478D01*
X71135209Y-149600077D01*
X70845594Y-149459187D01*
X70534057Y-149377507D01*
X70212570Y-149358173D01*
X69893490Y-149401930D01*
X69589077Y-149507096D01*
X69415121Y-149600077D01*
X69319357Y-149864478D01*
X67185036Y-149864478D01*
X67185036Y-146408858D01*
X68640165Y-146408858D01*
X68640165Y-146730924D01*
X68702997Y-147046803D01*
X68826247Y-147344354D01*
X69005178Y-147612143D01*
X69232913Y-147839878D01*
X69500702Y-148018809D01*
X69798253Y-148142059D01*
X70114132Y-148204891D01*
X70436198Y-148204891D01*
X70752077Y-148142059D01*
X71049628Y-148018809D01*
X71317417Y-147839878D01*
X71545152Y-147612143D01*
X71724083Y-147344354D01*
X71730074Y-147329891D01*
X77020256Y-147329891D01*
X77026247Y-147344354D01*
X77205178Y-147612143D01*
X77432913Y-147839878D01*
X77700702Y-148018809D01*
X77998253Y-148142059D01*
X78314132Y-148204891D01*
X78636198Y-148204891D01*
X78952077Y-148142059D01*
X79249628Y-148018809D01*
X79517417Y-147839878D01*
X79745152Y-147612143D01*
X79924083Y-147344354D01*
X80047333Y-147046803D01*
X80110165Y-146730924D01*
X80110165Y-146408858D01*
X80047333Y-146092979D01*
X79924083Y-145795428D01*
X79745152Y-145527639D01*
X79517417Y-145299904D01*
X79249628Y-145120973D01*
X79235165Y-145114982D01*
X79235165Y-142504362D01*
X83540151Y-142504362D01*
X83540151Y-142846128D01*
X83606826Y-143181326D01*
X83737614Y-143497076D01*
X83927488Y-143781243D01*
X84169153Y-144022908D01*
X84453320Y-144212782D01*
X84769070Y-144343570D01*
X85104268Y-144410245D01*
X85446034Y-144410245D01*
X85781232Y-144343570D01*
X86096982Y-144212782D01*
X86381149Y-144022908D01*
X86622814Y-143781243D01*
X86812688Y-143497076D01*
X86943476Y-143181326D01*
X87010151Y-142846128D01*
X87010151Y-142504362D01*
X99490151Y-142504362D01*
X99490151Y-142846128D01*
X99556826Y-143181326D01*
X99687614Y-143497076D01*
X99877488Y-143781243D01*
X100119153Y-144022908D01*
X100403320Y-144212782D01*
X100719070Y-144343570D01*
X101054268Y-144410245D01*
X101396034Y-144410245D01*
X101731232Y-144343570D01*
X102046982Y-144212782D01*
X102331149Y-144022908D01*
X102572814Y-143781243D01*
X102762688Y-143497076D01*
X102893476Y-143181326D01*
X102960151Y-142846128D01*
X102960151Y-142504362D01*
X102893476Y-142169164D01*
X102762688Y-141853414D01*
X102572814Y-141569247D01*
X102331149Y-141327582D01*
X102046982Y-141137708D01*
X101731232Y-141006920D01*
X101396034Y-140940245D01*
X101054268Y-140940245D01*
X100719070Y-141006920D01*
X100403320Y-141137708D01*
X100119153Y-141327582D01*
X99877488Y-141569247D01*
X99687614Y-141853414D01*
X99556826Y-142169164D01*
X99490151Y-142504362D01*
X87010151Y-142504362D01*
X86943476Y-142169164D01*
X86812688Y-141853414D01*
X86622814Y-141569247D01*
X86381149Y-141327582D01*
X86096982Y-141137708D01*
X85781232Y-141006920D01*
X85446034Y-140940245D01*
X85104268Y-140940245D01*
X84769070Y-141006920D01*
X84453320Y-141137708D01*
X84169153Y-141327582D01*
X83927488Y-141569247D01*
X83737614Y-141853414D01*
X83606826Y-142169164D01*
X83540151Y-142504362D01*
X79235165Y-142504362D01*
X79235165Y-128339636D01*
X80614803Y-126960000D01*
X84350673Y-126960000D01*
X84218484Y-127068485D01*
X84045859Y-127278829D01*
X83917588Y-127518808D01*
X83838598Y-127779201D01*
X83811927Y-128050000D01*
X83811927Y-129013271D01*
X82288998Y-130536201D01*
X82260000Y-130559999D01*
X82236202Y-130588997D01*
X82236201Y-130588998D01*
X82165026Y-130675724D01*
X82094454Y-130807754D01*
X82050998Y-130951015D01*
X82036324Y-131100000D01*
X82040001Y-131137332D01*
X82040000Y-135061928D01*
X81550000Y-135061928D01*
X81425518Y-135074188D01*
X81305820Y-135110498D01*
X81195506Y-135169463D01*
X81098815Y-135248815D01*
X81019463Y-135345506D01*
X80960498Y-135455820D01*
X80924188Y-135575518D01*
X80911928Y-135700000D01*
X80911928Y-137500000D01*
X80924188Y-137624482D01*
X80960498Y-137744180D01*
X81019463Y-137854494D01*
X81098815Y-137951185D01*
X81195506Y-138030537D01*
X81305820Y-138089502D01*
X81425518Y-138125812D01*
X81550000Y-138138072D01*
X83263271Y-138138072D01*
X86436201Y-141311003D01*
X86459999Y-141340001D01*
X86488997Y-141363799D01*
X86575723Y-141434974D01*
X86707753Y-141505546D01*
X86851014Y-141549003D01*
X86962667Y-141560000D01*
X86962677Y-141560000D01*
X87000000Y-141563676D01*
X87037323Y-141560000D01*
X89311928Y-141560000D01*
X89311928Y-141700000D01*
X89324188Y-141824482D01*
X89360498Y-141944180D01*
X89419463Y-142054494D01*
X89498815Y-142151185D01*
X89595506Y-142230537D01*
X89705820Y-142289502D01*
X89825518Y-142325812D01*
X89950000Y-142338072D01*
X92450000Y-142338072D01*
X92574482Y-142325812D01*
X92694180Y-142289502D01*
X92804494Y-142230537D01*
X92901185Y-142151185D01*
X92980537Y-142054494D01*
X93039502Y-141944180D01*
X93075812Y-141824482D01*
X93088072Y-141700000D01*
X93088072Y-139900000D01*
X93311928Y-139900000D01*
X93311928Y-141700000D01*
X93324188Y-141824482D01*
X93360498Y-141944180D01*
X93419463Y-142054494D01*
X93498815Y-142151185D01*
X93595506Y-142230537D01*
X93705820Y-142289502D01*
X93825518Y-142325812D01*
X93950000Y-142338072D01*
X96450000Y-142338072D01*
X96574482Y-142325812D01*
X96694180Y-142289502D01*
X96804494Y-142230537D01*
X96901185Y-142151185D01*
X96980537Y-142054494D01*
X97039502Y-141944180D01*
X97075812Y-141824482D01*
X97088072Y-141700000D01*
X97088072Y-141560000D01*
X97562678Y-141560000D01*
X97600000Y-141563676D01*
X97637322Y-141560000D01*
X97637333Y-141560000D01*
X97748986Y-141549003D01*
X97892247Y-141505546D01*
X98024276Y-141434974D01*
X98140001Y-141340001D01*
X98163804Y-141310997D01*
X99214802Y-140260000D01*
X103762678Y-140260000D01*
X103800000Y-140263676D01*
X103837322Y-140260000D01*
X103837333Y-140260000D01*
X103948986Y-140249003D01*
X104092247Y-140205546D01*
X104224276Y-140134974D01*
X104340001Y-140040001D01*
X104363804Y-140010998D01*
X105411004Y-138963798D01*
X105440001Y-138940001D01*
X105466332Y-138907917D01*
X105534974Y-138824277D01*
X105605546Y-138692247D01*
X105605546Y-138692246D01*
X105649003Y-138548986D01*
X105660000Y-138437333D01*
X105660000Y-138437323D01*
X105663676Y-138400000D01*
X105660000Y-138362677D01*
X105660000Y-137079527D01*
X105689851Y-137070472D01*
X105843387Y-136988405D01*
X105977962Y-136877962D01*
X106088405Y-136743387D01*
X106170472Y-136589851D01*
X106221008Y-136423255D01*
X106238072Y-136250001D01*
X106238072Y-135599999D01*
X106221008Y-135426745D01*
X106170472Y-135260149D01*
X106088405Y-135106613D01*
X105977962Y-134972038D01*
X105971406Y-134966658D01*
X106051185Y-134901185D01*
X106130537Y-134804494D01*
X106189502Y-134694180D01*
X106225812Y-134574482D01*
X106238072Y-134450000D01*
X106235000Y-134160750D01*
X106076250Y-134002000D01*
X105027000Y-134002000D01*
X105027000Y-134022000D01*
X104773000Y-134022000D01*
X104773000Y-134002000D01*
X103723750Y-134002000D01*
X103565000Y-134160750D01*
X103561928Y-134450000D01*
X103574188Y-134574482D01*
X103610498Y-134694180D01*
X103669463Y-134804494D01*
X103748815Y-134901185D01*
X103828594Y-134966658D01*
X103822038Y-134972038D01*
X103711595Y-135106613D01*
X103701082Y-135126281D01*
X102060000Y-133485199D01*
X102060000Y-133300000D01*
X103561928Y-133300000D01*
X103565000Y-133589250D01*
X103723750Y-133748000D01*
X104773000Y-133748000D01*
X104773000Y-132823750D01*
X105027000Y-132823750D01*
X105027000Y-133748000D01*
X106076250Y-133748000D01*
X106235000Y-133589250D01*
X106238072Y-133300000D01*
X106225812Y-133175518D01*
X106189502Y-133055820D01*
X106130537Y-132945506D01*
X106051185Y-132848815D01*
X105954494Y-132769463D01*
X105844180Y-132710498D01*
X105724482Y-132674188D01*
X105600000Y-132661928D01*
X105185750Y-132665000D01*
X105027000Y-132823750D01*
X104773000Y-132823750D01*
X104614250Y-132665000D01*
X104200000Y-132661928D01*
X104075518Y-132674188D01*
X103955820Y-132710498D01*
X103845506Y-132769463D01*
X103748815Y-132848815D01*
X103669463Y-132945506D01*
X103610498Y-133055820D01*
X103574188Y-133175518D01*
X103561928Y-133300000D01*
X102060000Y-133300000D01*
X102060000Y-130510112D01*
X102071172Y-130504140D01*
X102281516Y-130331515D01*
X102454141Y-130121171D01*
X102582412Y-129881192D01*
X102661402Y-129620799D01*
X102688073Y-129350000D01*
X102688073Y-128050000D01*
X102661402Y-127779201D01*
X102582412Y-127518808D01*
X102454141Y-127278829D01*
X102281516Y-127068485D01*
X102071172Y-126895860D01*
X101831193Y-126767589D01*
X101570800Y-126688599D01*
X101300001Y-126661928D01*
X101299999Y-126661928D01*
X101029200Y-126688599D01*
X100768807Y-126767589D01*
X100528828Y-126895860D01*
X100318484Y-127068485D01*
X100145859Y-127278829D01*
X100017588Y-127518808D01*
X99938598Y-127779201D01*
X99911927Y-128050000D01*
X99911927Y-129350000D01*
X99938598Y-129620799D01*
X100017588Y-129881192D01*
X100145859Y-130121171D01*
X100318484Y-130331515D01*
X100528828Y-130504140D01*
X100540000Y-130510112D01*
X100540001Y-132665199D01*
X98226690Y-130351889D01*
X98251516Y-130331515D01*
X98424141Y-130121171D01*
X98552412Y-129881192D01*
X98631402Y-129620799D01*
X98658073Y-129350000D01*
X98658073Y-128050000D01*
X98631402Y-127779201D01*
X98552412Y-127518808D01*
X98424141Y-127278829D01*
X98251516Y-127068485D01*
X98041172Y-126895860D01*
X97801193Y-126767589D01*
X97540800Y-126688599D01*
X97270001Y-126661928D01*
X97269999Y-126661928D01*
X96999200Y-126688599D01*
X96738807Y-126767589D01*
X96498828Y-126895860D01*
X96288484Y-127068485D01*
X96115859Y-127278829D01*
X95987588Y-127518808D01*
X95908598Y-127779201D01*
X95881927Y-128050000D01*
X95881927Y-129350000D01*
X95908598Y-129620799D01*
X95987588Y-129881192D01*
X96115859Y-130121171D01*
X96288484Y-130331515D01*
X96498828Y-130504140D01*
X96510290Y-130510267D01*
X96520998Y-130618986D01*
X96534180Y-130662442D01*
X96564454Y-130762246D01*
X96635026Y-130894276D01*
X96681591Y-130951015D01*
X96730000Y-131010001D01*
X96758998Y-131033799D01*
X99440000Y-133714802D01*
X99440001Y-135061928D01*
X98950000Y-135061928D01*
X98825518Y-135074188D01*
X98705820Y-135110498D01*
X98595506Y-135169463D01*
X98498815Y-135248815D01*
X98419463Y-135345506D01*
X98360498Y-135455820D01*
X98324188Y-135575518D01*
X98311928Y-135700000D01*
X98311928Y-137500000D01*
X98324188Y-137624482D01*
X98360498Y-137744180D01*
X98419463Y-137854494D01*
X98498815Y-137951185D01*
X98595506Y-138030537D01*
X98705820Y-138089502D01*
X98825518Y-138125812D01*
X98950000Y-138138072D01*
X101450000Y-138138072D01*
X101574482Y-138125812D01*
X101694180Y-138089502D01*
X101804494Y-138030537D01*
X101901185Y-137951185D01*
X101980537Y-137854494D01*
X102039502Y-137744180D01*
X102075812Y-137624482D01*
X102088072Y-137500000D01*
X102088072Y-135700000D01*
X102084016Y-135658818D01*
X102861201Y-136436003D01*
X102884999Y-136465001D01*
X103000724Y-136559974D01*
X103132753Y-136630546D01*
X103276014Y-136674003D01*
X103387667Y-136685000D01*
X103387677Y-136685000D01*
X103425000Y-136688676D01*
X103462323Y-136685000D01*
X103680386Y-136685000D01*
X103711595Y-136743387D01*
X103822038Y-136877962D01*
X103956613Y-136988405D01*
X104110149Y-137070472D01*
X104140001Y-137079527D01*
X104140000Y-138085198D01*
X103485199Y-138740000D01*
X98937325Y-138740000D01*
X98900000Y-138736324D01*
X98862675Y-138740000D01*
X98862667Y-138740000D01*
X98751014Y-138750997D01*
X98607753Y-138794454D01*
X98475724Y-138865026D01*
X98359999Y-138959999D01*
X98336201Y-138988997D01*
X97285199Y-140040000D01*
X97088072Y-140040000D01*
X97088072Y-139900000D01*
X97075812Y-139775518D01*
X97039502Y-139655820D01*
X96980537Y-139545506D01*
X96901185Y-139448815D01*
X96804494Y-139369463D01*
X96694180Y-139310498D01*
X96574482Y-139274188D01*
X96450000Y-139261928D01*
X93950000Y-139261928D01*
X93825518Y-139274188D01*
X93705820Y-139310498D01*
X93595506Y-139369463D01*
X93498815Y-139448815D01*
X93419463Y-139545506D01*
X93360498Y-139655820D01*
X93324188Y-139775518D01*
X93311928Y-139900000D01*
X93088072Y-139900000D01*
X93075812Y-139775518D01*
X93039502Y-139655820D01*
X92980537Y-139545506D01*
X92901185Y-139448815D01*
X92804494Y-139369463D01*
X92694180Y-139310498D01*
X92574482Y-139274188D01*
X92450000Y-139261928D01*
X89950000Y-139261928D01*
X89825518Y-139274188D01*
X89705820Y-139310498D01*
X89595506Y-139369463D01*
X89498815Y-139448815D01*
X89419463Y-139545506D01*
X89360498Y-139655820D01*
X89324188Y-139775518D01*
X89311928Y-139900000D01*
X89311928Y-140040000D01*
X87314802Y-140040000D01*
X85389769Y-138114968D01*
X85425518Y-138125812D01*
X85550000Y-138138072D01*
X88050000Y-138138072D01*
X88174482Y-138125812D01*
X88294180Y-138089502D01*
X88404494Y-138030537D01*
X88501185Y-137951185D01*
X88580537Y-137854494D01*
X88639502Y-137744180D01*
X88675812Y-137624482D01*
X88688072Y-137500000D01*
X88688072Y-135786730D01*
X88800000Y-135674801D01*
X89661200Y-136536002D01*
X89684999Y-136565001D01*
X89800724Y-136659974D01*
X89932753Y-136730546D01*
X90076014Y-136774003D01*
X90187667Y-136785000D01*
X90187675Y-136785000D01*
X90225000Y-136788676D01*
X90262325Y-136785000D01*
X90980386Y-136785000D01*
X91011595Y-136843387D01*
X91122038Y-136977962D01*
X91256613Y-137088405D01*
X91410149Y-137170472D01*
X91576745Y-137221008D01*
X91749999Y-137238072D01*
X92650001Y-137238072D01*
X92823255Y-137221008D01*
X92989851Y-137170472D01*
X93143387Y-137088405D01*
X93277962Y-136977962D01*
X93388405Y-136843387D01*
X93419614Y-136785000D01*
X94311928Y-136785000D01*
X94311928Y-137500000D01*
X94324188Y-137624482D01*
X94360498Y-137744180D01*
X94419463Y-137854494D01*
X94498815Y-137951185D01*
X94595506Y-138030537D01*
X94705820Y-138089502D01*
X94825518Y-138125812D01*
X94950000Y-138138072D01*
X97450000Y-138138072D01*
X97574482Y-138125812D01*
X97694180Y-138089502D01*
X97804494Y-138030537D01*
X97901185Y-137951185D01*
X97980537Y-137854494D01*
X98039502Y-137744180D01*
X98075812Y-137624482D01*
X98088072Y-137500000D01*
X98088072Y-135700000D01*
X98075812Y-135575518D01*
X98039502Y-135455820D01*
X97980537Y-135345506D01*
X97901185Y-135248815D01*
X97804494Y-135169463D01*
X97694180Y-135110498D01*
X97574482Y-135074188D01*
X97450000Y-135061928D01*
X94950000Y-135061928D01*
X94825518Y-135074188D01*
X94705820Y-135110498D01*
X94595506Y-135169463D01*
X94498815Y-135248815D01*
X94485532Y-135265000D01*
X93419614Y-135265000D01*
X93388405Y-135206613D01*
X93277962Y-135072038D01*
X93271406Y-135066658D01*
X93351185Y-135001185D01*
X93430537Y-134904494D01*
X93489502Y-134794180D01*
X93525812Y-134674482D01*
X93538072Y-134550000D01*
X93535000Y-134260750D01*
X93376250Y-134102000D01*
X92327000Y-134102000D01*
X92327000Y-134122000D01*
X92073000Y-134122000D01*
X92073000Y-134102000D01*
X91023750Y-134102000D01*
X90865000Y-134260750D01*
X90861928Y-134550000D01*
X90874188Y-134674482D01*
X90910498Y-134794180D01*
X90969463Y-134904494D01*
X91048815Y-135001185D01*
X91128594Y-135066658D01*
X91122038Y-135072038D01*
X91011595Y-135206613D01*
X90980386Y-135265000D01*
X90539802Y-135265000D01*
X89970000Y-134695199D01*
X89970000Y-134227325D01*
X89973676Y-134190000D01*
X89970000Y-134152675D01*
X89970000Y-133400000D01*
X90861928Y-133400000D01*
X90865000Y-133689250D01*
X91023750Y-133848000D01*
X92073000Y-133848000D01*
X92073000Y-132923750D01*
X92327000Y-132923750D01*
X92327000Y-133848000D01*
X93376250Y-133848000D01*
X93535000Y-133689250D01*
X93538072Y-133400000D01*
X93525812Y-133275518D01*
X93489502Y-133155820D01*
X93430537Y-133045506D01*
X93351185Y-132948815D01*
X93254494Y-132869463D01*
X93144180Y-132810498D01*
X93024482Y-132774188D01*
X92900000Y-132761928D01*
X92485750Y-132765000D01*
X92327000Y-132923750D01*
X92073000Y-132923750D01*
X91914250Y-132765000D01*
X91500000Y-132761928D01*
X91375518Y-132774188D01*
X91255820Y-132810498D01*
X91145506Y-132869463D01*
X91048815Y-132948815D01*
X90969463Y-133045506D01*
X90910498Y-133155820D01*
X90874188Y-133275518D01*
X90861928Y-133400000D01*
X89970000Y-133400000D01*
X89970000Y-130510112D01*
X89981172Y-130504140D01*
X90191516Y-130331515D01*
X90364141Y-130121171D01*
X90375457Y-130100000D01*
X91851928Y-130100000D01*
X91864188Y-130224482D01*
X91900498Y-130344180D01*
X91959463Y-130454494D01*
X92038815Y-130551185D01*
X92135506Y-130630537D01*
X92245820Y-130689502D01*
X92365518Y-130725812D01*
X92490000Y-130738072D01*
X92954250Y-130735000D01*
X93113000Y-130576250D01*
X93113000Y-128827000D01*
X93367000Y-128827000D01*
X93367000Y-130576250D01*
X93525750Y-130735000D01*
X93990000Y-130738072D01*
X94114482Y-130725812D01*
X94234180Y-130689502D01*
X94344494Y-130630537D01*
X94441185Y-130551185D01*
X94520537Y-130454494D01*
X94579502Y-130344180D01*
X94615812Y-130224482D01*
X94628072Y-130100000D01*
X94625000Y-128985750D01*
X94466250Y-128827000D01*
X93367000Y-128827000D01*
X93113000Y-128827000D01*
X92013750Y-128827000D01*
X91855000Y-128985750D01*
X91851928Y-130100000D01*
X90375457Y-130100000D01*
X90492412Y-129881192D01*
X90571402Y-129620799D01*
X90598073Y-129350000D01*
X90598073Y-128050000D01*
X90571402Y-127779201D01*
X90492412Y-127518808D01*
X90375458Y-127300000D01*
X91851928Y-127300000D01*
X91855000Y-128414250D01*
X92013750Y-128573000D01*
X93113000Y-128573000D01*
X93113000Y-126823750D01*
X93367000Y-126823750D01*
X93367000Y-128573000D01*
X94466250Y-128573000D01*
X94625000Y-128414250D01*
X94628072Y-127300000D01*
X94615812Y-127175518D01*
X94579502Y-127055820D01*
X94520537Y-126945506D01*
X94441185Y-126848815D01*
X94344494Y-126769463D01*
X94234180Y-126710498D01*
X94114482Y-126674188D01*
X93990000Y-126661928D01*
X93525750Y-126665000D01*
X93367000Y-126823750D01*
X93113000Y-126823750D01*
X92954250Y-126665000D01*
X92490000Y-126661928D01*
X92365518Y-126674188D01*
X92245820Y-126710498D01*
X92135506Y-126769463D01*
X92038815Y-126848815D01*
X91959463Y-126945506D01*
X91900498Y-127055820D01*
X91864188Y-127175518D01*
X91851928Y-127300000D01*
X90375458Y-127300000D01*
X90364141Y-127278829D01*
X90191516Y-127068485D01*
X89981172Y-126895860D01*
X89741193Y-126767589D01*
X89480800Y-126688599D01*
X89210001Y-126661928D01*
X89209999Y-126661928D01*
X88939200Y-126688599D01*
X88678807Y-126767589D01*
X88438828Y-126895860D01*
X88228484Y-127068485D01*
X88055859Y-127278829D01*
X87927588Y-127518808D01*
X87848598Y-127779201D01*
X87821927Y-128050000D01*
X87821927Y-129350000D01*
X87848598Y-129620799D01*
X87927588Y-129881192D01*
X88055859Y-130121171D01*
X88228484Y-130331515D01*
X88438828Y-130504140D01*
X88450000Y-130510112D01*
X88450001Y-133875197D01*
X87263271Y-135061928D01*
X85550000Y-135061928D01*
X85425518Y-135074188D01*
X85305820Y-135110498D01*
X85195506Y-135169463D01*
X85098815Y-135248815D01*
X85019463Y-135345506D01*
X84960498Y-135455820D01*
X84924188Y-135575518D01*
X84911928Y-135700000D01*
X84911928Y-137500000D01*
X84924188Y-137624482D01*
X84935032Y-137660231D01*
X84688072Y-137413271D01*
X84688072Y-135700000D01*
X84675812Y-135575518D01*
X84639502Y-135455820D01*
X84580537Y-135345506D01*
X84501185Y-135248815D01*
X84404494Y-135169463D01*
X84294180Y-135110498D01*
X84174482Y-135074188D01*
X84050000Y-135061928D01*
X83560000Y-135061928D01*
X83560000Y-131414801D01*
X84456090Y-130518712D01*
X84668807Y-130632411D01*
X84929200Y-130711401D01*
X85199999Y-130738072D01*
X85200001Y-130738072D01*
X85470800Y-130711401D01*
X85731193Y-130632411D01*
X85971172Y-130504140D01*
X86181516Y-130331515D01*
X86354141Y-130121171D01*
X86482412Y-129881192D01*
X86561402Y-129620799D01*
X86588073Y-129350000D01*
X86588073Y-128050000D01*
X86561402Y-127779201D01*
X86482412Y-127518808D01*
X86354141Y-127278829D01*
X86181516Y-127068485D01*
X86049327Y-126960000D01*
X87262678Y-126960000D01*
X87300000Y-126963676D01*
X87337322Y-126960000D01*
X87337333Y-126960000D01*
X87448986Y-126949003D01*
X87592247Y-126905546D01*
X87724276Y-126834974D01*
X87840001Y-126740001D01*
X87863804Y-126710997D01*
X89011004Y-125563798D01*
X89040001Y-125540001D01*
X89134974Y-125424276D01*
X89205546Y-125292247D01*
X89249003Y-125148986D01*
X89252434Y-125114156D01*
X89271172Y-125104140D01*
X89481516Y-124931515D01*
X89654141Y-124721171D01*
X89665457Y-124700000D01*
X90251928Y-124700000D01*
X90264188Y-124824482D01*
X90300498Y-124944180D01*
X90359463Y-125054494D01*
X90438815Y-125151185D01*
X90535506Y-125230537D01*
X90645820Y-125289502D01*
X90765518Y-125325812D01*
X90890000Y-125338072D01*
X91354250Y-125335000D01*
X91513000Y-125176250D01*
X91513000Y-123427000D01*
X91767000Y-123427000D01*
X91767000Y-125176250D01*
X91925750Y-125335000D01*
X92390000Y-125338072D01*
X92514482Y-125325812D01*
X92634180Y-125289502D01*
X92744494Y-125230537D01*
X92841185Y-125151185D01*
X92920537Y-125054494D01*
X92979502Y-124944180D01*
X93015812Y-124824482D01*
X93028072Y-124700000D01*
X93471928Y-124700000D01*
X93484188Y-124824482D01*
X93520498Y-124944180D01*
X93579463Y-125054494D01*
X93658815Y-125151185D01*
X93755506Y-125230537D01*
X93865820Y-125289502D01*
X93985518Y-125325812D01*
X94110000Y-125338072D01*
X94574250Y-125335000D01*
X94733000Y-125176250D01*
X94733000Y-123427000D01*
X94987000Y-123427000D01*
X94987000Y-125176250D01*
X95145750Y-125335000D01*
X95610000Y-125338072D01*
X95734482Y-125325812D01*
X95854180Y-125289502D01*
X95964494Y-125230537D01*
X96061185Y-125151185D01*
X96140537Y-125054494D01*
X96199502Y-124944180D01*
X96235812Y-124824482D01*
X96248072Y-124700000D01*
X96245000Y-123585750D01*
X96086250Y-123427000D01*
X94987000Y-123427000D01*
X94733000Y-123427000D01*
X93633750Y-123427000D01*
X93475000Y-123585750D01*
X93471928Y-124700000D01*
X93028072Y-124700000D01*
X93025000Y-123585750D01*
X92866250Y-123427000D01*
X91767000Y-123427000D01*
X91513000Y-123427000D01*
X90413750Y-123427000D01*
X90255000Y-123585750D01*
X90251928Y-124700000D01*
X89665457Y-124700000D01*
X89782412Y-124481192D01*
X89861402Y-124220799D01*
X89888073Y-123950000D01*
X89888073Y-122650000D01*
X89861402Y-122379201D01*
X89782412Y-122118808D01*
X89665458Y-121900000D01*
X90251928Y-121900000D01*
X90255000Y-123014250D01*
X90413750Y-123173000D01*
X91513000Y-123173000D01*
X91513000Y-121423750D01*
X91767000Y-121423750D01*
X91767000Y-123173000D01*
X92866250Y-123173000D01*
X93025000Y-123014250D01*
X93028072Y-121900000D01*
X93471928Y-121900000D01*
X93475000Y-123014250D01*
X93633750Y-123173000D01*
X94733000Y-123173000D01*
X94733000Y-121423750D01*
X94987000Y-121423750D01*
X94987000Y-123173000D01*
X96086250Y-123173000D01*
X96245000Y-123014250D01*
X96246004Y-122650000D01*
X96691927Y-122650000D01*
X96691927Y-123950000D01*
X96718598Y-124220799D01*
X96797588Y-124481192D01*
X96925859Y-124721171D01*
X97098484Y-124931515D01*
X97308828Y-125104140D01*
X97548807Y-125232411D01*
X97809200Y-125311401D01*
X98079999Y-125338072D01*
X98080001Y-125338072D01*
X98350800Y-125311401D01*
X98611193Y-125232411D01*
X98851172Y-125104140D01*
X98938044Y-125032846D01*
X100216200Y-126311002D01*
X100239999Y-126340001D01*
X100268997Y-126363799D01*
X100355724Y-126434974D01*
X100487753Y-126505546D01*
X100631014Y-126549003D01*
X100780000Y-126563677D01*
X100817333Y-126560000D01*
X106185199Y-126560000D01*
X107265001Y-127639803D01*
X107265000Y-145114982D01*
X107250537Y-145120973D01*
X106982748Y-145299904D01*
X106755013Y-145527639D01*
X106576082Y-145795428D01*
X106452832Y-146092979D01*
X106390000Y-146408858D01*
X106390000Y-146730924D01*
X106452832Y-147046803D01*
X106576082Y-147344354D01*
X106755013Y-147612143D01*
X106982748Y-147839878D01*
X107250537Y-148018809D01*
X107548088Y-148142059D01*
X107863967Y-148204891D01*
X108186033Y-148204891D01*
X108501912Y-148142059D01*
X108799463Y-148018809D01*
X109067252Y-147839878D01*
X109294987Y-147612143D01*
X109473918Y-147344354D01*
X109479909Y-147329891D01*
X114770091Y-147329891D01*
X114776082Y-147344354D01*
X114955013Y-147612143D01*
X115182748Y-147839878D01*
X115450537Y-148018809D01*
X115748088Y-148142059D01*
X116063967Y-148204891D01*
X116386033Y-148204891D01*
X116701912Y-148142059D01*
X116999463Y-148018809D01*
X117267252Y-147839878D01*
X117494987Y-147612143D01*
X117673918Y-147344354D01*
X117797168Y-147046803D01*
X117860000Y-146730924D01*
X117860000Y-146408858D01*
X117797168Y-146092979D01*
X117673918Y-145795428D01*
X117494987Y-145527639D01*
X117267252Y-145299904D01*
X116999463Y-145120973D01*
X116701912Y-144997723D01*
X116386033Y-144934891D01*
X116063967Y-144934891D01*
X115748088Y-144997723D01*
X115450537Y-145120973D01*
X115182748Y-145299904D01*
X114955013Y-145527639D01*
X114776082Y-145795428D01*
X114770091Y-145809891D01*
X109479909Y-145809891D01*
X109473918Y-145795428D01*
X109294987Y-145527639D01*
X109067252Y-145299904D01*
X108799463Y-145120973D01*
X108785000Y-145114982D01*
X108785000Y-127362325D01*
X108788676Y-127325000D01*
X108785000Y-127287675D01*
X108785000Y-127287667D01*
X108774003Y-127176014D01*
X108730546Y-127032753D01*
X108659974Y-126900724D01*
X108565001Y-126784999D01*
X108536003Y-126761201D01*
X107634739Y-125859938D01*
X111429891Y-125859938D01*
X111435882Y-125874401D01*
X111614813Y-126142190D01*
X111842548Y-126369925D01*
X112110337Y-126548856D01*
X112124800Y-126554847D01*
X112124801Y-131845029D01*
X112110337Y-131851020D01*
X111842548Y-132029951D01*
X111614813Y-132257686D01*
X111435882Y-132525475D01*
X111312632Y-132823026D01*
X111249800Y-133138905D01*
X111249800Y-133460971D01*
X111312632Y-133776850D01*
X111435882Y-134074401D01*
X111614813Y-134342190D01*
X111842548Y-134569925D01*
X112110337Y-134748856D01*
X112407888Y-134872106D01*
X112723767Y-134934938D01*
X113045833Y-134934938D01*
X113361712Y-134872106D01*
X113659263Y-134748856D01*
X113927052Y-134569925D01*
X114061626Y-134435351D01*
X116358992Y-134435351D01*
X116454756Y-134699752D01*
X116744371Y-134840642D01*
X117055908Y-134922322D01*
X117377395Y-134941656D01*
X117696475Y-134897899D01*
X118000888Y-134792733D01*
X118174844Y-134699752D01*
X118270608Y-134435351D01*
X117314800Y-133479543D01*
X116358992Y-134435351D01*
X114061626Y-134435351D01*
X114154787Y-134342190D01*
X114333718Y-134074401D01*
X114456968Y-133776850D01*
X114519800Y-133460971D01*
X114519800Y-133362533D01*
X115673082Y-133362533D01*
X115716839Y-133681613D01*
X115822005Y-133986026D01*
X115914986Y-134159982D01*
X116179387Y-134255746D01*
X117135195Y-133299938D01*
X117494405Y-133299938D01*
X118450213Y-134255746D01*
X118714614Y-134159982D01*
X118855504Y-133870367D01*
X118937184Y-133558830D01*
X118956518Y-133237343D01*
X118912761Y-132918263D01*
X118807595Y-132613850D01*
X118714614Y-132439894D01*
X118450213Y-132344130D01*
X117494405Y-133299938D01*
X117135195Y-133299938D01*
X116179387Y-132344130D01*
X115914986Y-132439894D01*
X115774096Y-132729509D01*
X115692416Y-133041046D01*
X115673082Y-133362533D01*
X114519800Y-133362533D01*
X114519800Y-133138905D01*
X114456968Y-132823026D01*
X114333718Y-132525475D01*
X114154787Y-132257686D01*
X114061626Y-132164525D01*
X116358992Y-132164525D01*
X117314800Y-133120333D01*
X118270608Y-132164525D01*
X118174844Y-131900124D01*
X117885229Y-131759234D01*
X117573692Y-131677554D01*
X117252205Y-131658220D01*
X116933125Y-131701977D01*
X116628712Y-131807143D01*
X116454756Y-131900124D01*
X116358992Y-132164525D01*
X114061626Y-132164525D01*
X113927052Y-132029951D01*
X113659263Y-131851020D01*
X113644800Y-131845029D01*
X113644800Y-126554847D01*
X113659263Y-126548856D01*
X113927052Y-126369925D01*
X114061626Y-126235351D01*
X116358992Y-126235351D01*
X116454756Y-126499752D01*
X116744371Y-126640642D01*
X117055908Y-126722322D01*
X117377395Y-126741656D01*
X117696475Y-126697899D01*
X118000888Y-126592733D01*
X118174844Y-126499752D01*
X118270608Y-126235351D01*
X117314800Y-125279543D01*
X116358992Y-126235351D01*
X114061626Y-126235351D01*
X114154787Y-126142190D01*
X114333718Y-125874401D01*
X114456968Y-125576850D01*
X114519800Y-125260971D01*
X114519800Y-125162533D01*
X115673082Y-125162533D01*
X115716839Y-125481613D01*
X115822005Y-125786026D01*
X115914986Y-125959982D01*
X116179387Y-126055746D01*
X117135195Y-125099938D01*
X117494405Y-125099938D01*
X118450213Y-126055746D01*
X118714614Y-125959982D01*
X118855504Y-125670367D01*
X118937184Y-125358830D01*
X118956518Y-125037343D01*
X118912761Y-124718263D01*
X118807595Y-124413850D01*
X118714614Y-124239894D01*
X118450213Y-124144130D01*
X117494405Y-125099938D01*
X117135195Y-125099938D01*
X116179387Y-124144130D01*
X115914986Y-124239894D01*
X115774096Y-124529509D01*
X115692416Y-124841046D01*
X115673082Y-125162533D01*
X114519800Y-125162533D01*
X114519800Y-124938905D01*
X114456968Y-124623026D01*
X114333718Y-124325475D01*
X114154787Y-124057686D01*
X114061626Y-123964525D01*
X116358992Y-123964525D01*
X117314800Y-124920333D01*
X118270608Y-123964525D01*
X118174844Y-123700124D01*
X117885229Y-123559234D01*
X117573692Y-123477554D01*
X117252205Y-123458220D01*
X116933125Y-123501977D01*
X116628712Y-123607143D01*
X116454756Y-123700124D01*
X116358992Y-123964525D01*
X114061626Y-123964525D01*
X113927052Y-123829951D01*
X113659263Y-123651020D01*
X113361712Y-123527770D01*
X113045833Y-123464938D01*
X112723767Y-123464938D01*
X112407888Y-123527770D01*
X112110337Y-123651020D01*
X111842548Y-123829951D01*
X111614813Y-124057686D01*
X111435882Y-124325475D01*
X111429891Y-124339938D01*
X103614741Y-124339938D01*
X102688073Y-123413271D01*
X102688073Y-122650000D01*
X102661402Y-122379201D01*
X102582412Y-122118808D01*
X102454141Y-121878829D01*
X102281516Y-121668485D01*
X102071172Y-121495860D01*
X101831193Y-121367589D01*
X101704310Y-121329099D01*
X115265000Y-121329099D01*
X115265000Y-121670865D01*
X115331675Y-122006063D01*
X115462463Y-122321813D01*
X115652337Y-122605980D01*
X115894002Y-122847645D01*
X116178169Y-123037519D01*
X116493919Y-123168307D01*
X116829117Y-123234982D01*
X117170883Y-123234982D01*
X117506081Y-123168307D01*
X117821831Y-123037519D01*
X118105998Y-122847645D01*
X118347663Y-122605980D01*
X118537537Y-122321813D01*
X118668325Y-122006063D01*
X118735000Y-121670865D01*
X118735000Y-121329099D01*
X118668325Y-120993901D01*
X118537537Y-120678151D01*
X118347663Y-120393984D01*
X118105998Y-120152319D01*
X117821831Y-119962445D01*
X117506081Y-119831657D01*
X117170883Y-119764982D01*
X116829117Y-119764982D01*
X116493919Y-119831657D01*
X116178169Y-119962445D01*
X115894002Y-120152319D01*
X115652337Y-120393984D01*
X115462463Y-120678151D01*
X115331675Y-120993901D01*
X115265000Y-121329099D01*
X101704310Y-121329099D01*
X101570800Y-121288599D01*
X101300001Y-121261928D01*
X101299999Y-121261928D01*
X101029200Y-121288599D01*
X100768807Y-121367589D01*
X100528828Y-121495860D01*
X100318484Y-121668485D01*
X100145859Y-121878829D01*
X100017588Y-122118808D01*
X99938598Y-122379201D01*
X99911927Y-122650000D01*
X99911927Y-123857126D01*
X99468073Y-123413272D01*
X99468073Y-122650000D01*
X99441402Y-122379201D01*
X99362412Y-122118808D01*
X99234141Y-121878829D01*
X99061516Y-121668485D01*
X98851172Y-121495860D01*
X98611193Y-121367589D01*
X98350800Y-121288599D01*
X98080001Y-121261928D01*
X98079999Y-121261928D01*
X97809200Y-121288599D01*
X97548807Y-121367589D01*
X97308828Y-121495860D01*
X97098484Y-121668485D01*
X96925859Y-121878829D01*
X96797588Y-122118808D01*
X96718598Y-122379201D01*
X96691927Y-122650000D01*
X96246004Y-122650000D01*
X96248072Y-121900000D01*
X96235812Y-121775518D01*
X96199502Y-121655820D01*
X96140537Y-121545506D01*
X96061185Y-121448815D01*
X95964494Y-121369463D01*
X95854180Y-121310498D01*
X95734482Y-121274188D01*
X95610000Y-121261928D01*
X95145750Y-121265000D01*
X94987000Y-121423750D01*
X94733000Y-121423750D01*
X94574250Y-121265000D01*
X94110000Y-121261928D01*
X93985518Y-121274188D01*
X93865820Y-121310498D01*
X93755506Y-121369463D01*
X93658815Y-121448815D01*
X93579463Y-121545506D01*
X93520498Y-121655820D01*
X93484188Y-121775518D01*
X93471928Y-121900000D01*
X93028072Y-121900000D01*
X93015812Y-121775518D01*
X92979502Y-121655820D01*
X92920537Y-121545506D01*
X92841185Y-121448815D01*
X92744494Y-121369463D01*
X92634180Y-121310498D01*
X92514482Y-121274188D01*
X92390000Y-121261928D01*
X91925750Y-121265000D01*
X91767000Y-121423750D01*
X91513000Y-121423750D01*
X91354250Y-121265000D01*
X90890000Y-121261928D01*
X90765518Y-121274188D01*
X90645820Y-121310498D01*
X90535506Y-121369463D01*
X90438815Y-121448815D01*
X90359463Y-121545506D01*
X90300498Y-121655820D01*
X90264188Y-121775518D01*
X90251928Y-121900000D01*
X89665458Y-121900000D01*
X89654141Y-121878829D01*
X89481516Y-121668485D01*
X89271172Y-121495860D01*
X89031193Y-121367589D01*
X88770800Y-121288599D01*
X88500001Y-121261928D01*
X88499999Y-121261928D01*
X88229200Y-121288599D01*
X87968807Y-121367589D01*
X87728828Y-121495860D01*
X87518484Y-121668485D01*
X87345859Y-121878829D01*
X87217588Y-122118808D01*
X87138598Y-122379201D01*
X87111927Y-122650000D01*
X87111927Y-123950000D01*
X87138598Y-124220799D01*
X87217588Y-124481192D01*
X87345859Y-124721171D01*
X87507305Y-124917893D01*
X86985199Y-125440000D01*
X83934801Y-125440000D01*
X84341956Y-125032846D01*
X84428828Y-125104140D01*
X84668807Y-125232411D01*
X84929200Y-125311401D01*
X85199999Y-125338072D01*
X85200001Y-125338072D01*
X85470800Y-125311401D01*
X85731193Y-125232411D01*
X85971172Y-125104140D01*
X86181516Y-124931515D01*
X86354141Y-124721171D01*
X86482412Y-124481192D01*
X86561402Y-124220799D01*
X86588073Y-123950000D01*
X86588073Y-122650000D01*
X86561402Y-122379201D01*
X86482412Y-122118808D01*
X86354141Y-121878829D01*
X86181516Y-121668485D01*
X85971172Y-121495860D01*
X85731193Y-121367589D01*
X85470800Y-121288599D01*
X85200001Y-121261928D01*
X85199999Y-121261928D01*
X84929200Y-121288599D01*
X84668807Y-121367589D01*
X84428828Y-121495860D01*
X84218484Y-121668485D01*
X84045859Y-121878829D01*
X83917588Y-122118808D01*
X83838598Y-122379201D01*
X83811927Y-122650000D01*
X83811927Y-123413271D01*
X82585199Y-124640000D01*
X75205532Y-124640000D01*
X75202168Y-124623088D01*
X75078918Y-124325537D01*
X74899987Y-124057748D01*
X74672252Y-123830013D01*
X74404463Y-123651082D01*
X74106912Y-123527832D01*
X73791033Y-123465000D01*
X73468967Y-123465000D01*
X73153088Y-123527832D01*
X72855537Y-123651082D01*
X72587748Y-123830013D01*
X72360013Y-124057748D01*
X72181082Y-124325537D01*
X72057832Y-124623088D01*
X71995000Y-124938967D01*
X71995000Y-125261033D01*
X72057832Y-125576912D01*
X72181082Y-125874463D01*
X72360013Y-126142252D01*
X72587748Y-126369987D01*
X72854966Y-126548536D01*
X72854965Y-131851464D01*
X72587748Y-132030013D01*
X72360013Y-132257748D01*
X72181082Y-132525537D01*
X72057832Y-132823088D01*
X71995000Y-133138967D01*
X71995000Y-133461033D01*
X72057832Y-133776912D01*
X72181082Y-134074463D01*
X72360013Y-134342252D01*
X72587748Y-134569987D01*
X72855537Y-134748918D01*
X73153088Y-134872168D01*
X73468967Y-134935000D01*
X73791033Y-134935000D01*
X74106912Y-134872168D01*
X74404463Y-134748918D01*
X74672252Y-134569987D01*
X74899987Y-134342252D01*
X75078918Y-134074463D01*
X75202168Y-133776912D01*
X75265000Y-133461033D01*
X75265000Y-133138967D01*
X75202168Y-132823088D01*
X75078918Y-132525537D01*
X74899987Y-132257748D01*
X74672252Y-132030013D01*
X74404463Y-131851082D01*
X74374965Y-131838863D01*
X74374965Y-126561137D01*
X74404463Y-126548918D01*
X74672252Y-126369987D01*
X74882239Y-126160000D01*
X79265198Y-126160000D01*
X77964163Y-127461036D01*
X77935165Y-127484834D01*
X77911367Y-127513832D01*
X77911366Y-127513833D01*
X77840191Y-127600559D01*
X77769619Y-127732589D01*
X77755480Y-127779201D01*
X77726163Y-127875849D01*
X77717877Y-127959974D01*
X77711489Y-128024835D01*
X77715166Y-128062168D01*
X77715165Y-145114982D01*
X77700702Y-145120973D01*
X77432913Y-145299904D01*
X77205178Y-145527639D01*
X77026247Y-145795428D01*
X77020256Y-145809891D01*
X71730074Y-145809891D01*
X71724083Y-145795428D01*
X71545152Y-145527639D01*
X71317417Y-145299904D01*
X71049628Y-145120973D01*
X70752077Y-144997723D01*
X70436198Y-144934891D01*
X70114132Y-144934891D01*
X69798253Y-144997723D01*
X69500702Y-145120973D01*
X69232913Y-145299904D01*
X69005178Y-145527639D01*
X68826247Y-145795428D01*
X68702997Y-146092979D01*
X68640165Y-146408858D01*
X67185036Y-146408858D01*
X67185036Y-134435413D01*
X68244192Y-134435413D01*
X68339956Y-134699814D01*
X68629571Y-134840704D01*
X68941108Y-134922384D01*
X69262595Y-134941718D01*
X69581675Y-134897961D01*
X69886088Y-134792795D01*
X70060044Y-134699814D01*
X70155808Y-134435413D01*
X69200000Y-133479605D01*
X68244192Y-134435413D01*
X67185036Y-134435413D01*
X67185036Y-133362595D01*
X67558282Y-133362595D01*
X67602039Y-133681675D01*
X67707205Y-133986088D01*
X67800186Y-134160044D01*
X68064587Y-134255808D01*
X69020395Y-133300000D01*
X69379605Y-133300000D01*
X70335413Y-134255808D01*
X70599814Y-134160044D01*
X70740704Y-133870429D01*
X70822384Y-133558892D01*
X70841718Y-133237405D01*
X70797961Y-132918325D01*
X70692795Y-132613912D01*
X70599814Y-132439956D01*
X70335413Y-132344192D01*
X69379605Y-133300000D01*
X69020395Y-133300000D01*
X68064587Y-132344192D01*
X67800186Y-132439956D01*
X67659296Y-132729571D01*
X67577616Y-133041108D01*
X67558282Y-133362595D01*
X67185036Y-133362595D01*
X67185036Y-132164587D01*
X68244192Y-132164587D01*
X69200000Y-133120395D01*
X70155808Y-132164587D01*
X70060044Y-131900186D01*
X69770429Y-131759296D01*
X69458892Y-131677616D01*
X69137405Y-131658282D01*
X68818325Y-131702039D01*
X68513912Y-131807205D01*
X68339956Y-131900186D01*
X68244192Y-132164587D01*
X67185036Y-132164587D01*
X67185036Y-126235413D01*
X68244192Y-126235413D01*
X68339956Y-126499814D01*
X68629571Y-126640704D01*
X68941108Y-126722384D01*
X69262595Y-126741718D01*
X69581675Y-126697961D01*
X69886088Y-126592795D01*
X70060044Y-126499814D01*
X70155808Y-126235413D01*
X69200000Y-125279605D01*
X68244192Y-126235413D01*
X67185036Y-126235413D01*
X67185036Y-125162595D01*
X67558282Y-125162595D01*
X67602039Y-125481675D01*
X67707205Y-125786088D01*
X67800186Y-125960044D01*
X68064587Y-126055808D01*
X69020395Y-125100000D01*
X69379605Y-125100000D01*
X70335413Y-126055808D01*
X70599814Y-125960044D01*
X70740704Y-125670429D01*
X70822384Y-125358892D01*
X70841718Y-125037405D01*
X70797961Y-124718325D01*
X70692795Y-124413912D01*
X70599814Y-124239956D01*
X70335413Y-124144192D01*
X69379605Y-125100000D01*
X69020395Y-125100000D01*
X68064587Y-124144192D01*
X67800186Y-124239956D01*
X67659296Y-124529571D01*
X67577616Y-124841108D01*
X67558282Y-125162595D01*
X67185036Y-125162595D01*
X67185036Y-123964587D01*
X68244192Y-123964587D01*
X69200000Y-124920395D01*
X70155808Y-123964587D01*
X70060044Y-123700186D01*
X69770429Y-123559296D01*
X69458892Y-123477616D01*
X69137405Y-123458282D01*
X68818325Y-123502039D01*
X68513912Y-123607205D01*
X68339956Y-123700186D01*
X68244192Y-123964587D01*
X67185036Y-123964587D01*
X67185036Y-121329099D01*
X67765036Y-121329099D01*
X67765036Y-121670865D01*
X67831711Y-122006063D01*
X67962499Y-122321813D01*
X68152373Y-122605980D01*
X68394038Y-122847645D01*
X68678205Y-123037519D01*
X68993955Y-123168307D01*
X69329153Y-123234982D01*
X69670919Y-123234982D01*
X70006117Y-123168307D01*
X70321867Y-123037519D01*
X70606034Y-122847645D01*
X70847699Y-122605980D01*
X71037573Y-122321813D01*
X71168361Y-122006063D01*
X71235036Y-121670865D01*
X71235036Y-121329099D01*
X71168361Y-120993901D01*
X71037573Y-120678151D01*
X70847699Y-120393984D01*
X70606034Y-120152319D01*
X70321867Y-119962445D01*
X70006117Y-119831657D01*
X69670919Y-119764982D01*
X69329153Y-119764982D01*
X68993955Y-119831657D01*
X68678205Y-119962445D01*
X68394038Y-120152319D01*
X68152373Y-120393984D01*
X67962499Y-120678151D01*
X67831711Y-120993901D01*
X67765036Y-121329099D01*
X67185036Y-121329099D01*
X67185036Y-119685000D01*
X119315000Y-119685000D01*
X119315001Y-154689989D01*
G04 #@! TA.AperFunction,Conductor*
D14*
G36*
X119315001Y-154689989D02*
G01*
X104985000Y-154689989D01*
X104985000Y-152135304D01*
X107069192Y-152135304D01*
X107164956Y-152399705D01*
X107454571Y-152540595D01*
X107766108Y-152622275D01*
X108087595Y-152641609D01*
X108406675Y-152597852D01*
X108711088Y-152492686D01*
X108885044Y-152399705D01*
X108980808Y-152135304D01*
X115269192Y-152135304D01*
X115364956Y-152399705D01*
X115654571Y-152540595D01*
X115966108Y-152622275D01*
X116287595Y-152641609D01*
X116606675Y-152597852D01*
X116911088Y-152492686D01*
X117085044Y-152399705D01*
X117180808Y-152135304D01*
X116225000Y-151179496D01*
X115269192Y-152135304D01*
X108980808Y-152135304D01*
X108025000Y-151179496D01*
X107069192Y-152135304D01*
X104985000Y-152135304D01*
X104985000Y-151062486D01*
X106383282Y-151062486D01*
X106427039Y-151381566D01*
X106532205Y-151685979D01*
X106625186Y-151859935D01*
X106889587Y-151955699D01*
X107845395Y-150999891D01*
X108204605Y-150999891D01*
X109160413Y-151955699D01*
X109424814Y-151859935D01*
X109565704Y-151570320D01*
X109647384Y-151258783D01*
X109659189Y-151062486D01*
X114583282Y-151062486D01*
X114627039Y-151381566D01*
X114732205Y-151685979D01*
X114825186Y-151859935D01*
X115089587Y-151955699D01*
X116045395Y-150999891D01*
X116404605Y-150999891D01*
X117360413Y-151955699D01*
X117624814Y-151859935D01*
X117765704Y-151570320D01*
X117847384Y-151258783D01*
X117866718Y-150937296D01*
X117822961Y-150618216D01*
X117717795Y-150313803D01*
X117624814Y-150139847D01*
X117360413Y-150044083D01*
X116404605Y-150999891D01*
X116045395Y-150999891D01*
X115089587Y-150044083D01*
X114825186Y-150139847D01*
X114684296Y-150429462D01*
X114602616Y-150740999D01*
X114583282Y-151062486D01*
X109659189Y-151062486D01*
X109666718Y-150937296D01*
X109622961Y-150618216D01*
X109517795Y-150313803D01*
X109424814Y-150139847D01*
X109160413Y-150044083D01*
X108204605Y-150999891D01*
X107845395Y-150999891D01*
X106889587Y-150044083D01*
X106625186Y-150139847D01*
X106484296Y-150429462D01*
X106402616Y-150740999D01*
X106383282Y-151062486D01*
X104985000Y-151062486D01*
X104985000Y-149864478D01*
X107069192Y-149864478D01*
X108025000Y-150820286D01*
X108980808Y-149864478D01*
X115269192Y-149864478D01*
X116225000Y-150820286D01*
X117180808Y-149864478D01*
X117085044Y-149600077D01*
X116795429Y-149459187D01*
X116483892Y-149377507D01*
X116162405Y-149358173D01*
X115843325Y-149401930D01*
X115538912Y-149507096D01*
X115364956Y-149600077D01*
X115269192Y-149864478D01*
X108980808Y-149864478D01*
X108885044Y-149600077D01*
X108595429Y-149459187D01*
X108283892Y-149377507D01*
X107962405Y-149358173D01*
X107643325Y-149401930D01*
X107338912Y-149507096D01*
X107164956Y-149600077D01*
X107069192Y-149864478D01*
X104985000Y-149864478D01*
X104985000Y-148712612D01*
X104988314Y-148678965D01*
X104975088Y-148544682D01*
X104935919Y-148415559D01*
X104872312Y-148296558D01*
X104786711Y-148192254D01*
X104682407Y-148106653D01*
X104563406Y-148043046D01*
X104434283Y-148003877D01*
X104333647Y-147993965D01*
X104300000Y-147990651D01*
X104266353Y-147993965D01*
X82233647Y-147993965D01*
X82200000Y-147990651D01*
X82166353Y-147993965D01*
X82065717Y-148003877D01*
X81936594Y-148043046D01*
X81817593Y-148106653D01*
X81713289Y-148192254D01*
X81627688Y-148296558D01*
X81564081Y-148415559D01*
X81524912Y-148544682D01*
X81511686Y-148678965D01*
X81515000Y-148712612D01*
X81515001Y-154689989D01*
X67185036Y-154689989D01*
X67185036Y-152135304D01*
X69319357Y-152135304D01*
X69415121Y-152399705D01*
X69704736Y-152540595D01*
X70016273Y-152622275D01*
X70337760Y-152641609D01*
X70656840Y-152597852D01*
X70961253Y-152492686D01*
X71135209Y-152399705D01*
X71230973Y-152135304D01*
X77519357Y-152135304D01*
X77615121Y-152399705D01*
X77904736Y-152540595D01*
X78216273Y-152622275D01*
X78537760Y-152641609D01*
X78856840Y-152597852D01*
X79161253Y-152492686D01*
X79335209Y-152399705D01*
X79430973Y-152135304D01*
X78475165Y-151179496D01*
X77519357Y-152135304D01*
X71230973Y-152135304D01*
X70275165Y-151179496D01*
X69319357Y-152135304D01*
X67185036Y-152135304D01*
X67185036Y-151062486D01*
X68633447Y-151062486D01*
X68677204Y-151381566D01*
X68782370Y-151685979D01*
X68875351Y-151859935D01*
X69139752Y-151955699D01*
X70095560Y-150999891D01*
X70454770Y-150999891D01*
X71410578Y-151955699D01*
X71674979Y-151859935D01*
X71815869Y-151570320D01*
X71897549Y-151258783D01*
X71909354Y-151062486D01*
X76833447Y-151062486D01*
X76877204Y-151381566D01*
X76982370Y-151685979D01*
X77075351Y-151859935D01*
X77339752Y-151955699D01*
X78295560Y-150999891D01*
X78654770Y-150999891D01*
X79610578Y-151955699D01*
X79874979Y-151859935D01*
X80015869Y-151570320D01*
X80097549Y-151258783D01*
X80116883Y-150937296D01*
X80073126Y-150618216D01*
X79967960Y-150313803D01*
X79874979Y-150139847D01*
X79610578Y-150044083D01*
X78654770Y-150999891D01*
X78295560Y-150999891D01*
X77339752Y-150044083D01*
X77075351Y-150139847D01*
X76934461Y-150429462D01*
X76852781Y-150740999D01*
X76833447Y-151062486D01*
X71909354Y-151062486D01*
X71916883Y-150937296D01*
X71873126Y-150618216D01*
X71767960Y-150313803D01*
X71674979Y-150139847D01*
X71410578Y-150044083D01*
X70454770Y-150999891D01*
X70095560Y-150999891D01*
X69139752Y-150044083D01*
X68875351Y-150139847D01*
X68734461Y-150429462D01*
X68652781Y-150740999D01*
X68633447Y-151062486D01*
X67185036Y-151062486D01*
X67185036Y-149864478D01*
X69319357Y-149864478D01*
X70275165Y-150820286D01*
X71230973Y-149864478D01*
X77519357Y-149864478D01*
X78475165Y-150820286D01*
X79430973Y-149864478D01*
X79335209Y-149600077D01*
X79045594Y-149459187D01*
X78734057Y-149377507D01*
X78412570Y-149358173D01*
X78093490Y-149401930D01*
X77789077Y-149507096D01*
X77615121Y-149600077D01*
X77519357Y-149864478D01*
X71230973Y-149864478D01*
X71135209Y-149600077D01*
X70845594Y-149459187D01*
X70534057Y-149377507D01*
X70212570Y-149358173D01*
X69893490Y-149401930D01*
X69589077Y-149507096D01*
X69415121Y-149600077D01*
X69319357Y-149864478D01*
X67185036Y-149864478D01*
X67185036Y-146408858D01*
X68640165Y-146408858D01*
X68640165Y-146730924D01*
X68702997Y-147046803D01*
X68826247Y-147344354D01*
X69005178Y-147612143D01*
X69232913Y-147839878D01*
X69500702Y-148018809D01*
X69798253Y-148142059D01*
X70114132Y-148204891D01*
X70436198Y-148204891D01*
X70752077Y-148142059D01*
X71049628Y-148018809D01*
X71317417Y-147839878D01*
X71545152Y-147612143D01*
X71724083Y-147344354D01*
X71730074Y-147329891D01*
X77020256Y-147329891D01*
X77026247Y-147344354D01*
X77205178Y-147612143D01*
X77432913Y-147839878D01*
X77700702Y-148018809D01*
X77998253Y-148142059D01*
X78314132Y-148204891D01*
X78636198Y-148204891D01*
X78952077Y-148142059D01*
X79249628Y-148018809D01*
X79517417Y-147839878D01*
X79745152Y-147612143D01*
X79924083Y-147344354D01*
X80047333Y-147046803D01*
X80110165Y-146730924D01*
X80110165Y-146408858D01*
X80047333Y-146092979D01*
X79924083Y-145795428D01*
X79745152Y-145527639D01*
X79517417Y-145299904D01*
X79249628Y-145120973D01*
X79235165Y-145114982D01*
X79235165Y-142504362D01*
X83540151Y-142504362D01*
X83540151Y-142846128D01*
X83606826Y-143181326D01*
X83737614Y-143497076D01*
X83927488Y-143781243D01*
X84169153Y-144022908D01*
X84453320Y-144212782D01*
X84769070Y-144343570D01*
X85104268Y-144410245D01*
X85446034Y-144410245D01*
X85781232Y-144343570D01*
X86096982Y-144212782D01*
X86381149Y-144022908D01*
X86622814Y-143781243D01*
X86812688Y-143497076D01*
X86943476Y-143181326D01*
X87010151Y-142846128D01*
X87010151Y-142504362D01*
X99490151Y-142504362D01*
X99490151Y-142846128D01*
X99556826Y-143181326D01*
X99687614Y-143497076D01*
X99877488Y-143781243D01*
X100119153Y-144022908D01*
X100403320Y-144212782D01*
X100719070Y-144343570D01*
X101054268Y-144410245D01*
X101396034Y-144410245D01*
X101731232Y-144343570D01*
X102046982Y-144212782D01*
X102331149Y-144022908D01*
X102572814Y-143781243D01*
X102762688Y-143497076D01*
X102893476Y-143181326D01*
X102960151Y-142846128D01*
X102960151Y-142504362D01*
X102893476Y-142169164D01*
X102762688Y-141853414D01*
X102572814Y-141569247D01*
X102331149Y-141327582D01*
X102046982Y-141137708D01*
X101731232Y-141006920D01*
X101396034Y-140940245D01*
X101054268Y-140940245D01*
X100719070Y-141006920D01*
X100403320Y-141137708D01*
X100119153Y-141327582D01*
X99877488Y-141569247D01*
X99687614Y-141853414D01*
X99556826Y-142169164D01*
X99490151Y-142504362D01*
X87010151Y-142504362D01*
X86943476Y-142169164D01*
X86812688Y-141853414D01*
X86622814Y-141569247D01*
X86381149Y-141327582D01*
X86096982Y-141137708D01*
X85781232Y-141006920D01*
X85446034Y-140940245D01*
X85104268Y-140940245D01*
X84769070Y-141006920D01*
X84453320Y-141137708D01*
X84169153Y-141327582D01*
X83927488Y-141569247D01*
X83737614Y-141853414D01*
X83606826Y-142169164D01*
X83540151Y-142504362D01*
X79235165Y-142504362D01*
X79235165Y-128339636D01*
X80614803Y-126960000D01*
X84350673Y-126960000D01*
X84218484Y-127068485D01*
X84045859Y-127278829D01*
X83917588Y-127518808D01*
X83838598Y-127779201D01*
X83811927Y-128050000D01*
X83811927Y-129013271D01*
X82288998Y-130536201D01*
X82260000Y-130559999D01*
X82236202Y-130588997D01*
X82236201Y-130588998D01*
X82165026Y-130675724D01*
X82094454Y-130807754D01*
X82050998Y-130951015D01*
X82036324Y-131100000D01*
X82040001Y-131137332D01*
X82040000Y-135061928D01*
X81550000Y-135061928D01*
X81425518Y-135074188D01*
X81305820Y-135110498D01*
X81195506Y-135169463D01*
X81098815Y-135248815D01*
X81019463Y-135345506D01*
X80960498Y-135455820D01*
X80924188Y-135575518D01*
X80911928Y-135700000D01*
X80911928Y-137500000D01*
X80924188Y-137624482D01*
X80960498Y-137744180D01*
X81019463Y-137854494D01*
X81098815Y-137951185D01*
X81195506Y-138030537D01*
X81305820Y-138089502D01*
X81425518Y-138125812D01*
X81550000Y-138138072D01*
X83263271Y-138138072D01*
X86436201Y-141311003D01*
X86459999Y-141340001D01*
X86488997Y-141363799D01*
X86575723Y-141434974D01*
X86707753Y-141505546D01*
X86851014Y-141549003D01*
X86962667Y-141560000D01*
X86962677Y-141560000D01*
X87000000Y-141563676D01*
X87037323Y-141560000D01*
X89311928Y-141560000D01*
X89311928Y-141700000D01*
X89324188Y-141824482D01*
X89360498Y-141944180D01*
X89419463Y-142054494D01*
X89498815Y-142151185D01*
X89595506Y-142230537D01*
X89705820Y-142289502D01*
X89825518Y-142325812D01*
X89950000Y-142338072D01*
X92450000Y-142338072D01*
X92574482Y-142325812D01*
X92694180Y-142289502D01*
X92804494Y-142230537D01*
X92901185Y-142151185D01*
X92980537Y-142054494D01*
X93039502Y-141944180D01*
X93075812Y-141824482D01*
X93088072Y-141700000D01*
X93088072Y-139900000D01*
X93311928Y-139900000D01*
X93311928Y-141700000D01*
X93324188Y-141824482D01*
X93360498Y-141944180D01*
X93419463Y-142054494D01*
X93498815Y-142151185D01*
X93595506Y-142230537D01*
X93705820Y-142289502D01*
X93825518Y-142325812D01*
X93950000Y-142338072D01*
X96450000Y-142338072D01*
X96574482Y-142325812D01*
X96694180Y-142289502D01*
X96804494Y-142230537D01*
X96901185Y-142151185D01*
X96980537Y-142054494D01*
X97039502Y-141944180D01*
X97075812Y-141824482D01*
X97088072Y-141700000D01*
X97088072Y-141560000D01*
X97562678Y-141560000D01*
X97600000Y-141563676D01*
X97637322Y-141560000D01*
X97637333Y-141560000D01*
X97748986Y-141549003D01*
X97892247Y-141505546D01*
X98024276Y-141434974D01*
X98140001Y-141340001D01*
X98163804Y-141310997D01*
X99214802Y-140260000D01*
X103762678Y-140260000D01*
X103800000Y-140263676D01*
X103837322Y-140260000D01*
X103837333Y-140260000D01*
X103948986Y-140249003D01*
X104092247Y-140205546D01*
X104224276Y-140134974D01*
X104340001Y-140040001D01*
X104363804Y-140010998D01*
X105411004Y-138963798D01*
X105440001Y-138940001D01*
X105466332Y-138907917D01*
X105534974Y-138824277D01*
X105605546Y-138692247D01*
X105605546Y-138692246D01*
X105649003Y-138548986D01*
X105660000Y-138437333D01*
X105660000Y-138437323D01*
X105663676Y-138400000D01*
X105660000Y-138362677D01*
X105660000Y-137079527D01*
X105689851Y-137070472D01*
X105843387Y-136988405D01*
X105977962Y-136877962D01*
X106088405Y-136743387D01*
X106170472Y-136589851D01*
X106221008Y-136423255D01*
X106238072Y-136250001D01*
X106238072Y-135599999D01*
X106221008Y-135426745D01*
X106170472Y-135260149D01*
X106088405Y-135106613D01*
X105977962Y-134972038D01*
X105971406Y-134966658D01*
X106051185Y-134901185D01*
X106130537Y-134804494D01*
X106189502Y-134694180D01*
X106225812Y-134574482D01*
X106238072Y-134450000D01*
X106235000Y-134160750D01*
X106076250Y-134002000D01*
X105027000Y-134002000D01*
X105027000Y-134022000D01*
X104773000Y-134022000D01*
X104773000Y-134002000D01*
X103723750Y-134002000D01*
X103565000Y-134160750D01*
X103561928Y-134450000D01*
X103574188Y-134574482D01*
X103610498Y-134694180D01*
X103669463Y-134804494D01*
X103748815Y-134901185D01*
X103828594Y-134966658D01*
X103822038Y-134972038D01*
X103711595Y-135106613D01*
X103701082Y-135126281D01*
X102060000Y-133485199D01*
X102060000Y-133300000D01*
X103561928Y-133300000D01*
X103565000Y-133589250D01*
X103723750Y-133748000D01*
X104773000Y-133748000D01*
X104773000Y-132823750D01*
X105027000Y-132823750D01*
X105027000Y-133748000D01*
X106076250Y-133748000D01*
X106235000Y-133589250D01*
X106238072Y-133300000D01*
X106225812Y-133175518D01*
X106189502Y-133055820D01*
X106130537Y-132945506D01*
X106051185Y-132848815D01*
X105954494Y-132769463D01*
X105844180Y-132710498D01*
X105724482Y-132674188D01*
X105600000Y-132661928D01*
X105185750Y-132665000D01*
X105027000Y-132823750D01*
X104773000Y-132823750D01*
X104614250Y-132665000D01*
X104200000Y-132661928D01*
X104075518Y-132674188D01*
X103955820Y-132710498D01*
X103845506Y-132769463D01*
X103748815Y-132848815D01*
X103669463Y-132945506D01*
X103610498Y-133055820D01*
X103574188Y-133175518D01*
X103561928Y-133300000D01*
X102060000Y-133300000D01*
X102060000Y-130510112D01*
X102071172Y-130504140D01*
X102281516Y-130331515D01*
X102454141Y-130121171D01*
X102582412Y-129881192D01*
X102661402Y-129620799D01*
X102688073Y-129350000D01*
X102688073Y-128050000D01*
X102661402Y-127779201D01*
X102582412Y-127518808D01*
X102454141Y-127278829D01*
X102281516Y-127068485D01*
X102071172Y-126895860D01*
X101831193Y-126767589D01*
X101570800Y-126688599D01*
X101300001Y-126661928D01*
X101299999Y-126661928D01*
X101029200Y-126688599D01*
X100768807Y-126767589D01*
X100528828Y-126895860D01*
X100318484Y-127068485D01*
X100145859Y-127278829D01*
X100017588Y-127518808D01*
X99938598Y-127779201D01*
X99911927Y-128050000D01*
X99911927Y-129350000D01*
X99938598Y-129620799D01*
X100017588Y-129881192D01*
X100145859Y-130121171D01*
X100318484Y-130331515D01*
X100528828Y-130504140D01*
X100540000Y-130510112D01*
X100540001Y-132665199D01*
X98226690Y-130351889D01*
X98251516Y-130331515D01*
X98424141Y-130121171D01*
X98552412Y-129881192D01*
X98631402Y-129620799D01*
X98658073Y-129350000D01*
X98658073Y-128050000D01*
X98631402Y-127779201D01*
X98552412Y-127518808D01*
X98424141Y-127278829D01*
X98251516Y-127068485D01*
X98041172Y-126895860D01*
X97801193Y-126767589D01*
X97540800Y-126688599D01*
X97270001Y-126661928D01*
X97269999Y-126661928D01*
X96999200Y-126688599D01*
X96738807Y-126767589D01*
X96498828Y-126895860D01*
X96288484Y-127068485D01*
X96115859Y-127278829D01*
X95987588Y-127518808D01*
X95908598Y-127779201D01*
X95881927Y-128050000D01*
X95881927Y-129350000D01*
X95908598Y-129620799D01*
X95987588Y-129881192D01*
X96115859Y-130121171D01*
X96288484Y-130331515D01*
X96498828Y-130504140D01*
X96510290Y-130510267D01*
X96520998Y-130618986D01*
X96534180Y-130662442D01*
X96564454Y-130762246D01*
X96635026Y-130894276D01*
X96681591Y-130951015D01*
X96730000Y-131010001D01*
X96758998Y-131033799D01*
X99440000Y-133714802D01*
X99440001Y-135061928D01*
X98950000Y-135061928D01*
X98825518Y-135074188D01*
X98705820Y-135110498D01*
X98595506Y-135169463D01*
X98498815Y-135248815D01*
X98419463Y-135345506D01*
X98360498Y-135455820D01*
X98324188Y-135575518D01*
X98311928Y-135700000D01*
X98311928Y-137500000D01*
X98324188Y-137624482D01*
X98360498Y-137744180D01*
X98419463Y-137854494D01*
X98498815Y-137951185D01*
X98595506Y-138030537D01*
X98705820Y-138089502D01*
X98825518Y-138125812D01*
X98950000Y-138138072D01*
X101450000Y-138138072D01*
X101574482Y-138125812D01*
X101694180Y-138089502D01*
X101804494Y-138030537D01*
X101901185Y-137951185D01*
X101980537Y-137854494D01*
X102039502Y-137744180D01*
X102075812Y-137624482D01*
X102088072Y-137500000D01*
X102088072Y-135700000D01*
X102084016Y-135658818D01*
X102861201Y-136436003D01*
X102884999Y-136465001D01*
X103000724Y-136559974D01*
X103132753Y-136630546D01*
X103276014Y-136674003D01*
X103387667Y-136685000D01*
X103387677Y-136685000D01*
X103425000Y-136688676D01*
X103462323Y-136685000D01*
X103680386Y-136685000D01*
X103711595Y-136743387D01*
X103822038Y-136877962D01*
X103956613Y-136988405D01*
X104110149Y-137070472D01*
X104140001Y-137079527D01*
X104140000Y-138085198D01*
X103485199Y-138740000D01*
X98937325Y-138740000D01*
X98900000Y-138736324D01*
X98862675Y-138740000D01*
X98862667Y-138740000D01*
X98751014Y-138750997D01*
X98607753Y-138794454D01*
X98475724Y-138865026D01*
X98359999Y-138959999D01*
X98336201Y-138988997D01*
X97285199Y-140040000D01*
X97088072Y-140040000D01*
X97088072Y-139900000D01*
X97075812Y-139775518D01*
X97039502Y-139655820D01*
X96980537Y-139545506D01*
X96901185Y-139448815D01*
X96804494Y-139369463D01*
X96694180Y-139310498D01*
X96574482Y-139274188D01*
X96450000Y-139261928D01*
X93950000Y-139261928D01*
X93825518Y-139274188D01*
X93705820Y-139310498D01*
X93595506Y-139369463D01*
X93498815Y-139448815D01*
X93419463Y-139545506D01*
X93360498Y-139655820D01*
X93324188Y-139775518D01*
X93311928Y-139900000D01*
X93088072Y-139900000D01*
X93075812Y-139775518D01*
X93039502Y-139655820D01*
X92980537Y-139545506D01*
X92901185Y-139448815D01*
X92804494Y-139369463D01*
X92694180Y-139310498D01*
X92574482Y-139274188D01*
X92450000Y-139261928D01*
X89950000Y-139261928D01*
X89825518Y-139274188D01*
X89705820Y-139310498D01*
X89595506Y-139369463D01*
X89498815Y-139448815D01*
X89419463Y-139545506D01*
X89360498Y-139655820D01*
X89324188Y-139775518D01*
X89311928Y-139900000D01*
X89311928Y-140040000D01*
X87314802Y-140040000D01*
X85389769Y-138114968D01*
X85425518Y-138125812D01*
X85550000Y-138138072D01*
X88050000Y-138138072D01*
X88174482Y-138125812D01*
X88294180Y-138089502D01*
X88404494Y-138030537D01*
X88501185Y-137951185D01*
X88580537Y-137854494D01*
X88639502Y-137744180D01*
X88675812Y-137624482D01*
X88688072Y-137500000D01*
X88688072Y-135786730D01*
X88800000Y-135674801D01*
X89661200Y-136536002D01*
X89684999Y-136565001D01*
X89800724Y-136659974D01*
X89932753Y-136730546D01*
X90076014Y-136774003D01*
X90187667Y-136785000D01*
X90187675Y-136785000D01*
X90225000Y-136788676D01*
X90262325Y-136785000D01*
X90980386Y-136785000D01*
X91011595Y-136843387D01*
X91122038Y-136977962D01*
X91256613Y-137088405D01*
X91410149Y-137170472D01*
X91576745Y-137221008D01*
X91749999Y-137238072D01*
X92650001Y-137238072D01*
X92823255Y-137221008D01*
X92989851Y-137170472D01*
X93143387Y-137088405D01*
X93277962Y-136977962D01*
X93388405Y-136843387D01*
X93419614Y-136785000D01*
X94311928Y-136785000D01*
X94311928Y-137500000D01*
X94324188Y-137624482D01*
X94360498Y-137744180D01*
X94419463Y-137854494D01*
X94498815Y-137951185D01*
X94595506Y-138030537D01*
X94705820Y-138089502D01*
X94825518Y-138125812D01*
X94950000Y-138138072D01*
X97450000Y-138138072D01*
X97574482Y-138125812D01*
X97694180Y-138089502D01*
X97804494Y-138030537D01*
X97901185Y-137951185D01*
X97980537Y-137854494D01*
X98039502Y-137744180D01*
X98075812Y-137624482D01*
X98088072Y-137500000D01*
X98088072Y-135700000D01*
X98075812Y-135575518D01*
X98039502Y-135455820D01*
X97980537Y-135345506D01*
X97901185Y-135248815D01*
X97804494Y-135169463D01*
X97694180Y-135110498D01*
X97574482Y-135074188D01*
X97450000Y-135061928D01*
X94950000Y-135061928D01*
X94825518Y-135074188D01*
X94705820Y-135110498D01*
X94595506Y-135169463D01*
X94498815Y-135248815D01*
X94485532Y-135265000D01*
X93419614Y-135265000D01*
X93388405Y-135206613D01*
X93277962Y-135072038D01*
X93271406Y-135066658D01*
X93351185Y-135001185D01*
X93430537Y-134904494D01*
X93489502Y-134794180D01*
X93525812Y-134674482D01*
X93538072Y-134550000D01*
X93535000Y-134260750D01*
X93376250Y-134102000D01*
X92327000Y-134102000D01*
X92327000Y-134122000D01*
X92073000Y-134122000D01*
X92073000Y-134102000D01*
X91023750Y-134102000D01*
X90865000Y-134260750D01*
X90861928Y-134550000D01*
X90874188Y-134674482D01*
X90910498Y-134794180D01*
X90969463Y-134904494D01*
X91048815Y-135001185D01*
X91128594Y-135066658D01*
X91122038Y-135072038D01*
X91011595Y-135206613D01*
X90980386Y-135265000D01*
X90539802Y-135265000D01*
X89970000Y-134695199D01*
X89970000Y-134227325D01*
X89973676Y-134190000D01*
X89970000Y-134152675D01*
X89970000Y-133400000D01*
X90861928Y-133400000D01*
X90865000Y-133689250D01*
X91023750Y-133848000D01*
X92073000Y-133848000D01*
X92073000Y-132923750D01*
X92327000Y-132923750D01*
X92327000Y-133848000D01*
X93376250Y-133848000D01*
X93535000Y-133689250D01*
X93538072Y-133400000D01*
X93525812Y-133275518D01*
X93489502Y-133155820D01*
X93430537Y-133045506D01*
X93351185Y-132948815D01*
X93254494Y-132869463D01*
X93144180Y-132810498D01*
X93024482Y-132774188D01*
X92900000Y-132761928D01*
X92485750Y-132765000D01*
X92327000Y-132923750D01*
X92073000Y-132923750D01*
X91914250Y-132765000D01*
X91500000Y-132761928D01*
X91375518Y-132774188D01*
X91255820Y-132810498D01*
X91145506Y-132869463D01*
X91048815Y-132948815D01*
X90969463Y-133045506D01*
X90910498Y-133155820D01*
X90874188Y-133275518D01*
X90861928Y-133400000D01*
X89970000Y-133400000D01*
X89970000Y-130510112D01*
X89981172Y-130504140D01*
X90191516Y-130331515D01*
X90364141Y-130121171D01*
X90375457Y-130100000D01*
X91851928Y-130100000D01*
X91864188Y-130224482D01*
X91900498Y-130344180D01*
X91959463Y-130454494D01*
X92038815Y-130551185D01*
X92135506Y-130630537D01*
X92245820Y-130689502D01*
X92365518Y-130725812D01*
X92490000Y-130738072D01*
X92954250Y-130735000D01*
X93113000Y-130576250D01*
X93113000Y-128827000D01*
X93367000Y-128827000D01*
X93367000Y-130576250D01*
X93525750Y-130735000D01*
X93990000Y-130738072D01*
X94114482Y-130725812D01*
X94234180Y-130689502D01*
X94344494Y-130630537D01*
X94441185Y-130551185D01*
X94520537Y-130454494D01*
X94579502Y-130344180D01*
X94615812Y-130224482D01*
X94628072Y-130100000D01*
X94625000Y-128985750D01*
X94466250Y-128827000D01*
X93367000Y-128827000D01*
X93113000Y-128827000D01*
X92013750Y-128827000D01*
X91855000Y-128985750D01*
X91851928Y-130100000D01*
X90375457Y-130100000D01*
X90492412Y-129881192D01*
X90571402Y-129620799D01*
X90598073Y-129350000D01*
X90598073Y-128050000D01*
X90571402Y-127779201D01*
X90492412Y-127518808D01*
X90375458Y-127300000D01*
X91851928Y-127300000D01*
X91855000Y-128414250D01*
X92013750Y-128573000D01*
X93113000Y-128573000D01*
X93113000Y-126823750D01*
X93367000Y-126823750D01*
X93367000Y-128573000D01*
X94466250Y-128573000D01*
X94625000Y-128414250D01*
X94628072Y-127300000D01*
X94615812Y-127175518D01*
X94579502Y-127055820D01*
X94520537Y-126945506D01*
X94441185Y-126848815D01*
X94344494Y-126769463D01*
X94234180Y-126710498D01*
X94114482Y-126674188D01*
X93990000Y-126661928D01*
X93525750Y-126665000D01*
X93367000Y-126823750D01*
X93113000Y-126823750D01*
X92954250Y-126665000D01*
X92490000Y-126661928D01*
X92365518Y-126674188D01*
X92245820Y-126710498D01*
X92135506Y-126769463D01*
X92038815Y-126848815D01*
X91959463Y-126945506D01*
X91900498Y-127055820D01*
X91864188Y-127175518D01*
X91851928Y-127300000D01*
X90375458Y-127300000D01*
X90364141Y-127278829D01*
X90191516Y-127068485D01*
X89981172Y-126895860D01*
X89741193Y-126767589D01*
X89480800Y-126688599D01*
X89210001Y-126661928D01*
X89209999Y-126661928D01*
X88939200Y-126688599D01*
X88678807Y-126767589D01*
X88438828Y-126895860D01*
X88228484Y-127068485D01*
X88055859Y-127278829D01*
X87927588Y-127518808D01*
X87848598Y-127779201D01*
X87821927Y-128050000D01*
X87821927Y-129350000D01*
X87848598Y-129620799D01*
X87927588Y-129881192D01*
X88055859Y-130121171D01*
X88228484Y-130331515D01*
X88438828Y-130504140D01*
X88450000Y-130510112D01*
X88450001Y-133875197D01*
X87263271Y-135061928D01*
X85550000Y-135061928D01*
X85425518Y-135074188D01*
X85305820Y-135110498D01*
X85195506Y-135169463D01*
X85098815Y-135248815D01*
X85019463Y-135345506D01*
X84960498Y-135455820D01*
X84924188Y-135575518D01*
X84911928Y-135700000D01*
X84911928Y-137500000D01*
X84924188Y-137624482D01*
X84935032Y-137660231D01*
X84688072Y-137413271D01*
X84688072Y-135700000D01*
X84675812Y-135575518D01*
X84639502Y-135455820D01*
X84580537Y-135345506D01*
X84501185Y-135248815D01*
X84404494Y-135169463D01*
X84294180Y-135110498D01*
X84174482Y-135074188D01*
X84050000Y-135061928D01*
X83560000Y-135061928D01*
X83560000Y-131414801D01*
X84456090Y-130518712D01*
X84668807Y-130632411D01*
X84929200Y-130711401D01*
X85199999Y-130738072D01*
X85200001Y-130738072D01*
X85470800Y-130711401D01*
X85731193Y-130632411D01*
X85971172Y-130504140D01*
X86181516Y-130331515D01*
X86354141Y-130121171D01*
X86482412Y-129881192D01*
X86561402Y-129620799D01*
X86588073Y-129350000D01*
X86588073Y-128050000D01*
X86561402Y-127779201D01*
X86482412Y-127518808D01*
X86354141Y-127278829D01*
X86181516Y-127068485D01*
X86049327Y-126960000D01*
X87262678Y-126960000D01*
X87300000Y-126963676D01*
X87337322Y-126960000D01*
X87337333Y-126960000D01*
X87448986Y-126949003D01*
X87592247Y-126905546D01*
X87724276Y-126834974D01*
X87840001Y-126740001D01*
X87863804Y-126710997D01*
X89011004Y-125563798D01*
X89040001Y-125540001D01*
X89134974Y-125424276D01*
X89205546Y-125292247D01*
X89249003Y-125148986D01*
X89252434Y-125114156D01*
X89271172Y-125104140D01*
X89481516Y-124931515D01*
X89654141Y-124721171D01*
X89665457Y-124700000D01*
X90251928Y-124700000D01*
X90264188Y-124824482D01*
X90300498Y-124944180D01*
X90359463Y-125054494D01*
X90438815Y-125151185D01*
X90535506Y-125230537D01*
X90645820Y-125289502D01*
X90765518Y-125325812D01*
X90890000Y-125338072D01*
X91354250Y-125335000D01*
X91513000Y-125176250D01*
X91513000Y-123427000D01*
X91767000Y-123427000D01*
X91767000Y-125176250D01*
X91925750Y-125335000D01*
X92390000Y-125338072D01*
X92514482Y-125325812D01*
X92634180Y-125289502D01*
X92744494Y-125230537D01*
X92841185Y-125151185D01*
X92920537Y-125054494D01*
X92979502Y-124944180D01*
X93015812Y-124824482D01*
X93028072Y-124700000D01*
X93471928Y-124700000D01*
X93484188Y-124824482D01*
X93520498Y-124944180D01*
X93579463Y-125054494D01*
X93658815Y-125151185D01*
X93755506Y-125230537D01*
X93865820Y-125289502D01*
X93985518Y-125325812D01*
X94110000Y-125338072D01*
X94574250Y-125335000D01*
X94733000Y-125176250D01*
X94733000Y-123427000D01*
X94987000Y-123427000D01*
X94987000Y-125176250D01*
X95145750Y-125335000D01*
X95610000Y-125338072D01*
X95734482Y-125325812D01*
X95854180Y-125289502D01*
X95964494Y-125230537D01*
X96061185Y-125151185D01*
X96140537Y-125054494D01*
X96199502Y-124944180D01*
X96235812Y-124824482D01*
X96248072Y-124700000D01*
X96245000Y-123585750D01*
X96086250Y-123427000D01*
X94987000Y-123427000D01*
X94733000Y-123427000D01*
X93633750Y-123427000D01*
X93475000Y-123585750D01*
X93471928Y-124700000D01*
X93028072Y-124700000D01*
X93025000Y-123585750D01*
X92866250Y-123427000D01*
X91767000Y-123427000D01*
X91513000Y-123427000D01*
X90413750Y-123427000D01*
X90255000Y-123585750D01*
X90251928Y-124700000D01*
X89665457Y-124700000D01*
X89782412Y-124481192D01*
X89861402Y-124220799D01*
X89888073Y-123950000D01*
X89888073Y-122650000D01*
X89861402Y-122379201D01*
X89782412Y-122118808D01*
X89665458Y-121900000D01*
X90251928Y-121900000D01*
X90255000Y-123014250D01*
X90413750Y-123173000D01*
X91513000Y-123173000D01*
X91513000Y-121423750D01*
X91767000Y-121423750D01*
X91767000Y-123173000D01*
X92866250Y-123173000D01*
X93025000Y-123014250D01*
X93028072Y-121900000D01*
X93471928Y-121900000D01*
X93475000Y-123014250D01*
X93633750Y-123173000D01*
X94733000Y-123173000D01*
X94733000Y-121423750D01*
X94987000Y-121423750D01*
X94987000Y-123173000D01*
X96086250Y-123173000D01*
X96245000Y-123014250D01*
X96246004Y-122650000D01*
X96691927Y-122650000D01*
X96691927Y-123950000D01*
X96718598Y-124220799D01*
X96797588Y-124481192D01*
X96925859Y-124721171D01*
X97098484Y-124931515D01*
X97308828Y-125104140D01*
X97548807Y-125232411D01*
X97809200Y-125311401D01*
X98079999Y-125338072D01*
X98080001Y-125338072D01*
X98350800Y-125311401D01*
X98611193Y-125232411D01*
X98851172Y-125104140D01*
X98938044Y-125032846D01*
X100216200Y-126311002D01*
X100239999Y-126340001D01*
X100268997Y-126363799D01*
X100355724Y-126434974D01*
X100487753Y-126505546D01*
X100631014Y-126549003D01*
X100780000Y-126563677D01*
X100817333Y-126560000D01*
X106185199Y-126560000D01*
X107265001Y-127639803D01*
X107265000Y-145114982D01*
X107250537Y-145120973D01*
X106982748Y-145299904D01*
X106755013Y-145527639D01*
X106576082Y-145795428D01*
X106452832Y-146092979D01*
X106390000Y-146408858D01*
X106390000Y-146730924D01*
X106452832Y-147046803D01*
X106576082Y-147344354D01*
X106755013Y-147612143D01*
X106982748Y-147839878D01*
X107250537Y-148018809D01*
X107548088Y-148142059D01*
X107863967Y-148204891D01*
X108186033Y-148204891D01*
X108501912Y-148142059D01*
X108799463Y-148018809D01*
X109067252Y-147839878D01*
X109294987Y-147612143D01*
X109473918Y-147344354D01*
X109479909Y-147329891D01*
X114770091Y-147329891D01*
X114776082Y-147344354D01*
X114955013Y-147612143D01*
X115182748Y-147839878D01*
X115450537Y-148018809D01*
X115748088Y-148142059D01*
X116063967Y-148204891D01*
X116386033Y-148204891D01*
X116701912Y-148142059D01*
X116999463Y-148018809D01*
X117267252Y-147839878D01*
X117494987Y-147612143D01*
X117673918Y-147344354D01*
X117797168Y-147046803D01*
X117860000Y-146730924D01*
X117860000Y-146408858D01*
X117797168Y-146092979D01*
X117673918Y-145795428D01*
X117494987Y-145527639D01*
X117267252Y-145299904D01*
X116999463Y-145120973D01*
X116701912Y-144997723D01*
X116386033Y-144934891D01*
X116063967Y-144934891D01*
X115748088Y-144997723D01*
X115450537Y-145120973D01*
X115182748Y-145299904D01*
X114955013Y-145527639D01*
X114776082Y-145795428D01*
X114770091Y-145809891D01*
X109479909Y-145809891D01*
X109473918Y-145795428D01*
X109294987Y-145527639D01*
X109067252Y-145299904D01*
X108799463Y-145120973D01*
X108785000Y-145114982D01*
X108785000Y-127362325D01*
X108788676Y-127325000D01*
X108785000Y-127287675D01*
X108785000Y-127287667D01*
X108774003Y-127176014D01*
X108730546Y-127032753D01*
X108659974Y-126900724D01*
X108565001Y-126784999D01*
X108536003Y-126761201D01*
X107634739Y-125859938D01*
X111429891Y-125859938D01*
X111435882Y-125874401D01*
X111614813Y-126142190D01*
X111842548Y-126369925D01*
X112110337Y-126548856D01*
X112124800Y-126554847D01*
X112124801Y-131845029D01*
X112110337Y-131851020D01*
X111842548Y-132029951D01*
X111614813Y-132257686D01*
X111435882Y-132525475D01*
X111312632Y-132823026D01*
X111249800Y-133138905D01*
X111249800Y-133460971D01*
X111312632Y-133776850D01*
X111435882Y-134074401D01*
X111614813Y-134342190D01*
X111842548Y-134569925D01*
X112110337Y-134748856D01*
X112407888Y-134872106D01*
X112723767Y-134934938D01*
X113045833Y-134934938D01*
X113361712Y-134872106D01*
X113659263Y-134748856D01*
X113927052Y-134569925D01*
X114061626Y-134435351D01*
X116358992Y-134435351D01*
X116454756Y-134699752D01*
X116744371Y-134840642D01*
X117055908Y-134922322D01*
X117377395Y-134941656D01*
X117696475Y-134897899D01*
X118000888Y-134792733D01*
X118174844Y-134699752D01*
X118270608Y-134435351D01*
X117314800Y-133479543D01*
X116358992Y-134435351D01*
X114061626Y-134435351D01*
X114154787Y-134342190D01*
X114333718Y-134074401D01*
X114456968Y-133776850D01*
X114519800Y-133460971D01*
X114519800Y-133362533D01*
X115673082Y-133362533D01*
X115716839Y-133681613D01*
X115822005Y-133986026D01*
X115914986Y-134159982D01*
X116179387Y-134255746D01*
X117135195Y-133299938D01*
X117494405Y-133299938D01*
X118450213Y-134255746D01*
X118714614Y-134159982D01*
X118855504Y-133870367D01*
X118937184Y-133558830D01*
X118956518Y-133237343D01*
X118912761Y-132918263D01*
X118807595Y-132613850D01*
X118714614Y-132439894D01*
X118450213Y-132344130D01*
X117494405Y-133299938D01*
X117135195Y-133299938D01*
X116179387Y-132344130D01*
X115914986Y-132439894D01*
X115774096Y-132729509D01*
X115692416Y-133041046D01*
X115673082Y-133362533D01*
X114519800Y-133362533D01*
X114519800Y-133138905D01*
X114456968Y-132823026D01*
X114333718Y-132525475D01*
X114154787Y-132257686D01*
X114061626Y-132164525D01*
X116358992Y-132164525D01*
X117314800Y-133120333D01*
X118270608Y-132164525D01*
X118174844Y-131900124D01*
X117885229Y-131759234D01*
X117573692Y-131677554D01*
X117252205Y-131658220D01*
X116933125Y-131701977D01*
X116628712Y-131807143D01*
X116454756Y-131900124D01*
X116358992Y-132164525D01*
X114061626Y-132164525D01*
X113927052Y-132029951D01*
X113659263Y-131851020D01*
X113644800Y-131845029D01*
X113644800Y-126554847D01*
X113659263Y-126548856D01*
X113927052Y-126369925D01*
X114061626Y-126235351D01*
X116358992Y-126235351D01*
X116454756Y-126499752D01*
X116744371Y-126640642D01*
X117055908Y-126722322D01*
X117377395Y-126741656D01*
X117696475Y-126697899D01*
X118000888Y-126592733D01*
X118174844Y-126499752D01*
X118270608Y-126235351D01*
X117314800Y-125279543D01*
X116358992Y-126235351D01*
X114061626Y-126235351D01*
X114154787Y-126142190D01*
X114333718Y-125874401D01*
X114456968Y-125576850D01*
X114519800Y-125260971D01*
X114519800Y-125162533D01*
X115673082Y-125162533D01*
X115716839Y-125481613D01*
X115822005Y-125786026D01*
X115914986Y-125959982D01*
X116179387Y-126055746D01*
X117135195Y-125099938D01*
X117494405Y-125099938D01*
X118450213Y-126055746D01*
X118714614Y-125959982D01*
X118855504Y-125670367D01*
X118937184Y-125358830D01*
X118956518Y-125037343D01*
X118912761Y-124718263D01*
X118807595Y-124413850D01*
X118714614Y-124239894D01*
X118450213Y-124144130D01*
X117494405Y-125099938D01*
X117135195Y-125099938D01*
X116179387Y-124144130D01*
X115914986Y-124239894D01*
X115774096Y-124529509D01*
X115692416Y-124841046D01*
X115673082Y-125162533D01*
X114519800Y-125162533D01*
X114519800Y-124938905D01*
X114456968Y-124623026D01*
X114333718Y-124325475D01*
X114154787Y-124057686D01*
X114061626Y-123964525D01*
X116358992Y-123964525D01*
X117314800Y-124920333D01*
X118270608Y-123964525D01*
X118174844Y-123700124D01*
X117885229Y-123559234D01*
X117573692Y-123477554D01*
X117252205Y-123458220D01*
X116933125Y-123501977D01*
X116628712Y-123607143D01*
X116454756Y-123700124D01*
X116358992Y-123964525D01*
X114061626Y-123964525D01*
X113927052Y-123829951D01*
X113659263Y-123651020D01*
X113361712Y-123527770D01*
X113045833Y-123464938D01*
X112723767Y-123464938D01*
X112407888Y-123527770D01*
X112110337Y-123651020D01*
X111842548Y-123829951D01*
X111614813Y-124057686D01*
X111435882Y-124325475D01*
X111429891Y-124339938D01*
X103614741Y-124339938D01*
X102688073Y-123413271D01*
X102688073Y-122650000D01*
X102661402Y-122379201D01*
X102582412Y-122118808D01*
X102454141Y-121878829D01*
X102281516Y-121668485D01*
X102071172Y-121495860D01*
X101831193Y-121367589D01*
X101704310Y-121329099D01*
X115265000Y-121329099D01*
X115265000Y-121670865D01*
X115331675Y-122006063D01*
X115462463Y-122321813D01*
X115652337Y-122605980D01*
X115894002Y-122847645D01*
X116178169Y-123037519D01*
X116493919Y-123168307D01*
X116829117Y-123234982D01*
X117170883Y-123234982D01*
X117506081Y-123168307D01*
X117821831Y-123037519D01*
X118105998Y-122847645D01*
X118347663Y-122605980D01*
X118537537Y-122321813D01*
X118668325Y-122006063D01*
X118735000Y-121670865D01*
X118735000Y-121329099D01*
X118668325Y-120993901D01*
X118537537Y-120678151D01*
X118347663Y-120393984D01*
X118105998Y-120152319D01*
X117821831Y-119962445D01*
X117506081Y-119831657D01*
X117170883Y-119764982D01*
X116829117Y-119764982D01*
X116493919Y-119831657D01*
X116178169Y-119962445D01*
X115894002Y-120152319D01*
X115652337Y-120393984D01*
X115462463Y-120678151D01*
X115331675Y-120993901D01*
X115265000Y-121329099D01*
X101704310Y-121329099D01*
X101570800Y-121288599D01*
X101300001Y-121261928D01*
X101299999Y-121261928D01*
X101029200Y-121288599D01*
X100768807Y-121367589D01*
X100528828Y-121495860D01*
X100318484Y-121668485D01*
X100145859Y-121878829D01*
X100017588Y-122118808D01*
X99938598Y-122379201D01*
X99911927Y-122650000D01*
X99911927Y-123857126D01*
X99468073Y-123413272D01*
X99468073Y-122650000D01*
X99441402Y-122379201D01*
X99362412Y-122118808D01*
X99234141Y-121878829D01*
X99061516Y-121668485D01*
X98851172Y-121495860D01*
X98611193Y-121367589D01*
X98350800Y-121288599D01*
X98080001Y-121261928D01*
X98079999Y-121261928D01*
X97809200Y-121288599D01*
X97548807Y-121367589D01*
X97308828Y-121495860D01*
X97098484Y-121668485D01*
X96925859Y-121878829D01*
X96797588Y-122118808D01*
X96718598Y-122379201D01*
X96691927Y-122650000D01*
X96246004Y-122650000D01*
X96248072Y-121900000D01*
X96235812Y-121775518D01*
X96199502Y-121655820D01*
X96140537Y-121545506D01*
X96061185Y-121448815D01*
X95964494Y-121369463D01*
X95854180Y-121310498D01*
X95734482Y-121274188D01*
X95610000Y-121261928D01*
X95145750Y-121265000D01*
X94987000Y-121423750D01*
X94733000Y-121423750D01*
X94574250Y-121265000D01*
X94110000Y-121261928D01*
X93985518Y-121274188D01*
X93865820Y-121310498D01*
X93755506Y-121369463D01*
X93658815Y-121448815D01*
X93579463Y-121545506D01*
X93520498Y-121655820D01*
X93484188Y-121775518D01*
X93471928Y-121900000D01*
X93028072Y-121900000D01*
X93015812Y-121775518D01*
X92979502Y-121655820D01*
X92920537Y-121545506D01*
X92841185Y-121448815D01*
X92744494Y-121369463D01*
X92634180Y-121310498D01*
X92514482Y-121274188D01*
X92390000Y-121261928D01*
X91925750Y-121265000D01*
X91767000Y-121423750D01*
X91513000Y-121423750D01*
X91354250Y-121265000D01*
X90890000Y-121261928D01*
X90765518Y-121274188D01*
X90645820Y-121310498D01*
X90535506Y-121369463D01*
X90438815Y-121448815D01*
X90359463Y-121545506D01*
X90300498Y-121655820D01*
X90264188Y-121775518D01*
X90251928Y-121900000D01*
X89665458Y-121900000D01*
X89654141Y-121878829D01*
X89481516Y-121668485D01*
X89271172Y-121495860D01*
X89031193Y-121367589D01*
X88770800Y-121288599D01*
X88500001Y-121261928D01*
X88499999Y-121261928D01*
X88229200Y-121288599D01*
X87968807Y-121367589D01*
X87728828Y-121495860D01*
X87518484Y-121668485D01*
X87345859Y-121878829D01*
X87217588Y-122118808D01*
X87138598Y-122379201D01*
X87111927Y-122650000D01*
X87111927Y-123950000D01*
X87138598Y-124220799D01*
X87217588Y-124481192D01*
X87345859Y-124721171D01*
X87507305Y-124917893D01*
X86985199Y-125440000D01*
X83934801Y-125440000D01*
X84341956Y-125032846D01*
X84428828Y-125104140D01*
X84668807Y-125232411D01*
X84929200Y-125311401D01*
X85199999Y-125338072D01*
X85200001Y-125338072D01*
X85470800Y-125311401D01*
X85731193Y-125232411D01*
X85971172Y-125104140D01*
X86181516Y-124931515D01*
X86354141Y-124721171D01*
X86482412Y-124481192D01*
X86561402Y-124220799D01*
X86588073Y-123950000D01*
X86588073Y-122650000D01*
X86561402Y-122379201D01*
X86482412Y-122118808D01*
X86354141Y-121878829D01*
X86181516Y-121668485D01*
X85971172Y-121495860D01*
X85731193Y-121367589D01*
X85470800Y-121288599D01*
X85200001Y-121261928D01*
X85199999Y-121261928D01*
X84929200Y-121288599D01*
X84668807Y-121367589D01*
X84428828Y-121495860D01*
X84218484Y-121668485D01*
X84045859Y-121878829D01*
X83917588Y-122118808D01*
X83838598Y-122379201D01*
X83811927Y-122650000D01*
X83811927Y-123413271D01*
X82585199Y-124640000D01*
X75205532Y-124640000D01*
X75202168Y-124623088D01*
X75078918Y-124325537D01*
X74899987Y-124057748D01*
X74672252Y-123830013D01*
X74404463Y-123651082D01*
X74106912Y-123527832D01*
X73791033Y-123465000D01*
X73468967Y-123465000D01*
X73153088Y-123527832D01*
X72855537Y-123651082D01*
X72587748Y-123830013D01*
X72360013Y-124057748D01*
X72181082Y-124325537D01*
X72057832Y-124623088D01*
X71995000Y-124938967D01*
X71995000Y-125261033D01*
X72057832Y-125576912D01*
X72181082Y-125874463D01*
X72360013Y-126142252D01*
X72587748Y-126369987D01*
X72854966Y-126548536D01*
X72854965Y-131851464D01*
X72587748Y-132030013D01*
X72360013Y-132257748D01*
X72181082Y-132525537D01*
X72057832Y-132823088D01*
X71995000Y-133138967D01*
X71995000Y-133461033D01*
X72057832Y-133776912D01*
X72181082Y-134074463D01*
X72360013Y-134342252D01*
X72587748Y-134569987D01*
X72855537Y-134748918D01*
X73153088Y-134872168D01*
X73468967Y-134935000D01*
X73791033Y-134935000D01*
X74106912Y-134872168D01*
X74404463Y-134748918D01*
X74672252Y-134569987D01*
X74899987Y-134342252D01*
X75078918Y-134074463D01*
X75202168Y-133776912D01*
X75265000Y-133461033D01*
X75265000Y-133138967D01*
X75202168Y-132823088D01*
X75078918Y-132525537D01*
X74899987Y-132257748D01*
X74672252Y-132030013D01*
X74404463Y-131851082D01*
X74374965Y-131838863D01*
X74374965Y-126561137D01*
X74404463Y-126548918D01*
X74672252Y-126369987D01*
X74882239Y-126160000D01*
X79265198Y-126160000D01*
X77964163Y-127461036D01*
X77935165Y-127484834D01*
X77911367Y-127513832D01*
X77911366Y-127513833D01*
X77840191Y-127600559D01*
X77769619Y-127732589D01*
X77755480Y-127779201D01*
X77726163Y-127875849D01*
X77717877Y-127959974D01*
X77711489Y-128024835D01*
X77715166Y-128062168D01*
X77715165Y-145114982D01*
X77700702Y-145120973D01*
X77432913Y-145299904D01*
X77205178Y-145527639D01*
X77026247Y-145795428D01*
X77020256Y-145809891D01*
X71730074Y-145809891D01*
X71724083Y-145795428D01*
X71545152Y-145527639D01*
X71317417Y-145299904D01*
X71049628Y-145120973D01*
X70752077Y-144997723D01*
X70436198Y-144934891D01*
X70114132Y-144934891D01*
X69798253Y-144997723D01*
X69500702Y-145120973D01*
X69232913Y-145299904D01*
X69005178Y-145527639D01*
X68826247Y-145795428D01*
X68702997Y-146092979D01*
X68640165Y-146408858D01*
X67185036Y-146408858D01*
X67185036Y-134435413D01*
X68244192Y-134435413D01*
X68339956Y-134699814D01*
X68629571Y-134840704D01*
X68941108Y-134922384D01*
X69262595Y-134941718D01*
X69581675Y-134897961D01*
X69886088Y-134792795D01*
X70060044Y-134699814D01*
X70155808Y-134435413D01*
X69200000Y-133479605D01*
X68244192Y-134435413D01*
X67185036Y-134435413D01*
X67185036Y-133362595D01*
X67558282Y-133362595D01*
X67602039Y-133681675D01*
X67707205Y-133986088D01*
X67800186Y-134160044D01*
X68064587Y-134255808D01*
X69020395Y-133300000D01*
X69379605Y-133300000D01*
X70335413Y-134255808D01*
X70599814Y-134160044D01*
X70740704Y-133870429D01*
X70822384Y-133558892D01*
X70841718Y-133237405D01*
X70797961Y-132918325D01*
X70692795Y-132613912D01*
X70599814Y-132439956D01*
X70335413Y-132344192D01*
X69379605Y-133300000D01*
X69020395Y-133300000D01*
X68064587Y-132344192D01*
X67800186Y-132439956D01*
X67659296Y-132729571D01*
X67577616Y-133041108D01*
X67558282Y-133362595D01*
X67185036Y-133362595D01*
X67185036Y-132164587D01*
X68244192Y-132164587D01*
X69200000Y-133120395D01*
X70155808Y-132164587D01*
X70060044Y-131900186D01*
X69770429Y-131759296D01*
X69458892Y-131677616D01*
X69137405Y-131658282D01*
X68818325Y-131702039D01*
X68513912Y-131807205D01*
X68339956Y-131900186D01*
X68244192Y-132164587D01*
X67185036Y-132164587D01*
X67185036Y-126235413D01*
X68244192Y-126235413D01*
X68339956Y-126499814D01*
X68629571Y-126640704D01*
X68941108Y-126722384D01*
X69262595Y-126741718D01*
X69581675Y-126697961D01*
X69886088Y-126592795D01*
X70060044Y-126499814D01*
X70155808Y-126235413D01*
X69200000Y-125279605D01*
X68244192Y-126235413D01*
X67185036Y-126235413D01*
X67185036Y-125162595D01*
X67558282Y-125162595D01*
X67602039Y-125481675D01*
X67707205Y-125786088D01*
X67800186Y-125960044D01*
X68064587Y-126055808D01*
X69020395Y-125100000D01*
X69379605Y-125100000D01*
X70335413Y-126055808D01*
X70599814Y-125960044D01*
X70740704Y-125670429D01*
X70822384Y-125358892D01*
X70841718Y-125037405D01*
X70797961Y-124718325D01*
X70692795Y-124413912D01*
X70599814Y-124239956D01*
X70335413Y-124144192D01*
X69379605Y-125100000D01*
X69020395Y-125100000D01*
X68064587Y-124144192D01*
X67800186Y-124239956D01*
X67659296Y-124529571D01*
X67577616Y-124841108D01*
X67558282Y-125162595D01*
X67185036Y-125162595D01*
X67185036Y-123964587D01*
X68244192Y-123964587D01*
X69200000Y-124920395D01*
X70155808Y-123964587D01*
X70060044Y-123700186D01*
X69770429Y-123559296D01*
X69458892Y-123477616D01*
X69137405Y-123458282D01*
X68818325Y-123502039D01*
X68513912Y-123607205D01*
X68339956Y-123700186D01*
X68244192Y-123964587D01*
X67185036Y-123964587D01*
X67185036Y-121329099D01*
X67765036Y-121329099D01*
X67765036Y-121670865D01*
X67831711Y-122006063D01*
X67962499Y-122321813D01*
X68152373Y-122605980D01*
X68394038Y-122847645D01*
X68678205Y-123037519D01*
X68993955Y-123168307D01*
X69329153Y-123234982D01*
X69670919Y-123234982D01*
X70006117Y-123168307D01*
X70321867Y-123037519D01*
X70606034Y-122847645D01*
X70847699Y-122605980D01*
X71037573Y-122321813D01*
X71168361Y-122006063D01*
X71235036Y-121670865D01*
X71235036Y-121329099D01*
X71168361Y-120993901D01*
X71037573Y-120678151D01*
X70847699Y-120393984D01*
X70606034Y-120152319D01*
X70321867Y-119962445D01*
X70006117Y-119831657D01*
X69670919Y-119764982D01*
X69329153Y-119764982D01*
X68993955Y-119831657D01*
X68678205Y-119962445D01*
X68394038Y-120152319D01*
X68152373Y-120393984D01*
X67962499Y-120678151D01*
X67831711Y-120993901D01*
X67765036Y-121329099D01*
X67185036Y-121329099D01*
X67185036Y-119685000D01*
X119315000Y-119685000D01*
X119315001Y-154689989D01*
G37*
G04 #@! TD.AperFunction*
M02*
