G04 #@! TF.GenerationSoftware,KiCad,Pcbnew,(5.1.9)-1*
G04 #@! TF.CreationDate,2021-10-01T15:11:33-04:00*
G04 #@! TF.ProjectId,GBZ2,47425a32-2e6b-4696-9361-645f70636258,rev?*
G04 #@! TF.SameCoordinates,Original*
G04 #@! TF.FileFunction,Soldermask,Bot*
G04 #@! TF.FilePolarity,Negative*
%FSLAX46Y46*%
G04 Gerber Fmt 4.6, Leading zero omitted, Abs format (unit mm)*
G04 Created by KiCad (PCBNEW (5.1.9)-1) date 2021-10-01 15:11:33*
%MOMM*%
%LPD*%
G01*
G04 APERTURE LIST*
%ADD10C,2.100000*%
%ADD11C,2.300000*%
G04 APERTURE END LIST*
D10*
X108025000Y-150999891D03*
X108025000Y-146569891D03*
X116225000Y-150999891D03*
X116225000Y-146569891D03*
X70275165Y-150999891D03*
X70275165Y-146569891D03*
X78475165Y-150999891D03*
X78475165Y-146569891D03*
X73630000Y-133300000D03*
X69200000Y-133300000D03*
X73630000Y-125100000D03*
X69200000Y-125100000D03*
D11*
X69500036Y-121499982D03*
X117000000Y-121499982D03*
G36*
G01*
X86000000Y-128050000D02*
X86000000Y-129350000D01*
G75*
G02*
X85200000Y-130150000I-800000J0D01*
G01*
X85200000Y-130150000D01*
G75*
G02*
X84400000Y-129350000I0J800000D01*
G01*
X84400000Y-128050000D01*
G75*
G02*
X85200000Y-127250000I800000J0D01*
G01*
X85200000Y-127250000D01*
G75*
G02*
X86000000Y-128050000I0J-800000D01*
G01*
G37*
G36*
G01*
X100500000Y-129350000D02*
X100500000Y-128050000D01*
G75*
G02*
X101300000Y-127250000I800000J0D01*
G01*
X101300000Y-127250000D01*
G75*
G02*
X102100000Y-128050000I0J-800000D01*
G01*
X102100000Y-129350000D01*
G75*
G02*
X101300000Y-130150000I-800000J0D01*
G01*
X101300000Y-130150000D01*
G75*
G02*
X100500000Y-129350000I0J800000D01*
G01*
G37*
G36*
G01*
X96470000Y-129350000D02*
X96470000Y-128050000D01*
G75*
G02*
X97270000Y-127250000I800000J0D01*
G01*
X97270000Y-127250000D01*
G75*
G02*
X98070000Y-128050000I0J-800000D01*
G01*
X98070000Y-129350000D01*
G75*
G02*
X97270000Y-130150000I-800000J0D01*
G01*
X97270000Y-130150000D01*
G75*
G02*
X96470000Y-129350000I0J800000D01*
G01*
G37*
G36*
G01*
X84400000Y-123950000D02*
X84400000Y-122650000D01*
G75*
G02*
X85200000Y-121850000I800000J0D01*
G01*
X85200000Y-121850000D01*
G75*
G02*
X86000000Y-122650000I0J-800000D01*
G01*
X86000000Y-123950000D01*
G75*
G02*
X85200000Y-124750000I-800000J0D01*
G01*
X85200000Y-124750000D01*
G75*
G02*
X84400000Y-123950000I0J800000D01*
G01*
G37*
G36*
G01*
X87700000Y-123950000D02*
X87700000Y-122650000D01*
G75*
G02*
X88500000Y-121850000I800000J0D01*
G01*
X88500000Y-121850000D01*
G75*
G02*
X89300000Y-122650000I0J-800000D01*
G01*
X89300000Y-123950000D01*
G75*
G02*
X88500000Y-124750000I-800000J0D01*
G01*
X88500000Y-124750000D01*
G75*
G02*
X87700000Y-123950000I0J800000D01*
G01*
G37*
G36*
G01*
X97280000Y-123950000D02*
X97280000Y-122650000D01*
G75*
G02*
X98080000Y-121850000I800000J0D01*
G01*
X98080000Y-121850000D01*
G75*
G02*
X98880000Y-122650000I0J-800000D01*
G01*
X98880000Y-123950000D01*
G75*
G02*
X98080000Y-124750000I-800000J0D01*
G01*
X98080000Y-124750000D01*
G75*
G02*
X97280000Y-123950000I0J800000D01*
G01*
G37*
G36*
G01*
X100500000Y-123950000D02*
X100500000Y-122650000D01*
G75*
G02*
X101300000Y-121850000I800000J0D01*
G01*
X101300000Y-121850000D01*
G75*
G02*
X102100000Y-122650000I0J-800000D01*
G01*
X102100000Y-123950000D01*
G75*
G02*
X101300000Y-124750000I-800000J0D01*
G01*
X101300000Y-124750000D01*
G75*
G02*
X100500000Y-123950000I0J800000D01*
G01*
G37*
G36*
G01*
X94060000Y-123950000D02*
X94060000Y-122650000D01*
G75*
G02*
X94860000Y-121850000I800000J0D01*
G01*
X94860000Y-121850000D01*
G75*
G02*
X95660000Y-122650000I0J-800000D01*
G01*
X95660000Y-123950000D01*
G75*
G02*
X94860000Y-124750000I-800000J0D01*
G01*
X94860000Y-124750000D01*
G75*
G02*
X94060000Y-123950000I0J800000D01*
G01*
G37*
G36*
G01*
X90840000Y-123950000D02*
X90840000Y-122650000D01*
G75*
G02*
X91640000Y-121850000I800000J0D01*
G01*
X91640000Y-121850000D01*
G75*
G02*
X92440000Y-122650000I0J-800000D01*
G01*
X92440000Y-123950000D01*
G75*
G02*
X91640000Y-124750000I-800000J0D01*
G01*
X91640000Y-124750000D01*
G75*
G02*
X90840000Y-123950000I0J800000D01*
G01*
G37*
G36*
G01*
X92440000Y-129350000D02*
X92440000Y-128050000D01*
G75*
G02*
X93240000Y-127250000I800000J0D01*
G01*
X93240000Y-127250000D01*
G75*
G02*
X94040000Y-128050000I0J-800000D01*
G01*
X94040000Y-129350000D01*
G75*
G02*
X93240000Y-130150000I-800000J0D01*
G01*
X93240000Y-130150000D01*
G75*
G02*
X92440000Y-129350000I0J800000D01*
G01*
G37*
G36*
G01*
X88410000Y-129350000D02*
X88410000Y-128050000D01*
G75*
G02*
X89210000Y-127250000I800000J0D01*
G01*
X89210000Y-127250000D01*
G75*
G02*
X90010000Y-128050000I0J-800000D01*
G01*
X90010000Y-129350000D01*
G75*
G02*
X89210000Y-130150000I-800000J0D01*
G01*
X89210000Y-130150000D01*
G75*
G02*
X88410000Y-129350000I0J800000D01*
G01*
G37*
X101225151Y-142675245D03*
X85275151Y-142675245D03*
D10*
X117314800Y-133299938D03*
X112884800Y-133299938D03*
X117314800Y-125099938D03*
X112884800Y-125099938D03*
M02*
