M48
; DRILL file {KiCad (5.1.9)-1} date 10/01/21 15:11:35
; FORMAT={-:-/ absolute / inch / decimal}
; #@! TF.CreationDate,2021-10-01T15:11:35-04:00
; #@! TF.GenerationSoftware,Kicad,Pcbnew,(5.1.9)-1
FMAT,2
INCH
T1C0.0276
T2C0.0433
T3C0.0866
%
G90
G05
T1
X3.3543Y-4.8543
X3.3543Y-5.0669
X3.4843Y-4.8543
X3.5122Y-5.0669
X3.6079Y-4.8543
X3.6709Y-5.0669
X3.7346Y-4.8543
X3.8295Y-5.0669
X3.8614Y-4.8543
X3.9882Y-4.8543
X3.9882Y-5.0669
T2
X2.7244Y-4.9252
X2.7244Y-5.248
X2.7667Y-5.7705
X2.7667Y-5.9449
X2.8988Y-4.9252
X2.8988Y-5.248
X3.0896Y-5.7705
X3.0896Y-5.9449
X4.253Y-5.7705
X4.253Y-5.9449
X4.4443Y-4.9252
X4.4443Y-5.248
X4.5758Y-5.7705
X4.5758Y-5.9449
X4.6187Y-4.9252
X4.6187Y-5.248
T3
X2.7362Y-4.7835
X3.3573Y-5.6171
X3.9852Y-5.6171
X4.6063Y-4.7835
T0
M30
