G04 #@! TF.GenerationSoftware,KiCad,Pcbnew,(5.1.9)-1*
G04 #@! TF.CreationDate,2021-10-01T15:11:33-04:00*
G04 #@! TF.ProjectId,GBZ2,47425a32-2e6b-4696-9361-645f70636258,rev?*
G04 #@! TF.SameCoordinates,Original*
G04 #@! TF.FileFunction,Legend,Bot*
G04 #@! TF.FilePolarity,Positive*
%FSLAX46Y46*%
G04 Gerber Fmt 4.6, Leading zero omitted, Abs format (unit mm)*
G04 Created by KiCad (PCBNEW (5.1.9)-1) date 2021-10-01 15:11:33*
%MOMM*%
%LPD*%
G01*
G04 APERTURE LIST*
%ADD10C,0.150000*%
%ADD11C,0.100000*%
%ADD12C,0.120000*%
%ADD13C,0.010000*%
G04 APERTURE END LIST*
D10*
X101476666Y-121252380D02*
X101952857Y-121252380D01*
X101952857Y-120252380D01*
X100619523Y-121252380D02*
X101190952Y-121252380D01*
X100905238Y-121252380D02*
X100905238Y-120252380D01*
X101000476Y-120395238D01*
X101095714Y-120490476D01*
X101190952Y-120538095D01*
X98266666Y-121252380D02*
X98742857Y-121252380D01*
X98742857Y-120252380D01*
X97980952Y-120347619D02*
X97933333Y-120300000D01*
X97838095Y-120252380D01*
X97600000Y-120252380D01*
X97504761Y-120300000D01*
X97457142Y-120347619D01*
X97409523Y-120442857D01*
X97409523Y-120538095D01*
X97457142Y-120680952D01*
X98028571Y-121252380D01*
X97409523Y-121252380D01*
X95671904Y-120310000D02*
X95767142Y-120262380D01*
X95910000Y-120262380D01*
X96052857Y-120310000D01*
X96148095Y-120405238D01*
X96195714Y-120500476D01*
X96243333Y-120690952D01*
X96243333Y-120833809D01*
X96195714Y-121024285D01*
X96148095Y-121119523D01*
X96052857Y-121214761D01*
X95910000Y-121262380D01*
X95814761Y-121262380D01*
X95671904Y-121214761D01*
X95624285Y-121167142D01*
X95624285Y-120833809D01*
X95814761Y-120833809D01*
X95195714Y-121262380D02*
X95195714Y-120262380D01*
X94624285Y-121262380D01*
X94624285Y-120262380D01*
X94148095Y-121262380D02*
X94148095Y-120262380D01*
X93910000Y-120262380D01*
X93767142Y-120310000D01*
X93671904Y-120405238D01*
X93624285Y-120500476D01*
X93576666Y-120690952D01*
X93576666Y-120833809D01*
X93624285Y-121024285D01*
X93671904Y-121119523D01*
X93767142Y-121214761D01*
X93910000Y-121262380D01*
X94148095Y-121262380D01*
X92411904Y-120310000D02*
X92507142Y-120262380D01*
X92650000Y-120262380D01*
X92792857Y-120310000D01*
X92888095Y-120405238D01*
X92935714Y-120500476D01*
X92983333Y-120690952D01*
X92983333Y-120833809D01*
X92935714Y-121024285D01*
X92888095Y-121119523D01*
X92792857Y-121214761D01*
X92650000Y-121262380D01*
X92554761Y-121262380D01*
X92411904Y-121214761D01*
X92364285Y-121167142D01*
X92364285Y-120833809D01*
X92554761Y-120833809D01*
X91935714Y-121262380D02*
X91935714Y-120262380D01*
X91364285Y-121262380D01*
X91364285Y-120262380D01*
X90888095Y-121262380D02*
X90888095Y-120262380D01*
X90650000Y-120262380D01*
X90507142Y-120310000D01*
X90411904Y-120405238D01*
X90364285Y-120500476D01*
X90316666Y-120690952D01*
X90316666Y-120833809D01*
X90364285Y-121024285D01*
X90411904Y-121119523D01*
X90507142Y-121214761D01*
X90650000Y-121262380D01*
X90888095Y-121262380D01*
X88646666Y-121252380D02*
X88980000Y-120776190D01*
X89218095Y-121252380D02*
X89218095Y-120252380D01*
X88837142Y-120252380D01*
X88741904Y-120300000D01*
X88694285Y-120347619D01*
X88646666Y-120442857D01*
X88646666Y-120585714D01*
X88694285Y-120680952D01*
X88741904Y-120728571D01*
X88837142Y-120776190D01*
X89218095Y-120776190D01*
X88265714Y-120347619D02*
X88218095Y-120300000D01*
X88122857Y-120252380D01*
X87884761Y-120252380D01*
X87789523Y-120300000D01*
X87741904Y-120347619D01*
X87694285Y-120442857D01*
X87694285Y-120538095D01*
X87741904Y-120680952D01*
X88313333Y-121252380D01*
X87694285Y-121252380D01*
X85356666Y-121252380D02*
X85690000Y-120776190D01*
X85928095Y-121252380D02*
X85928095Y-120252380D01*
X85547142Y-120252380D01*
X85451904Y-120300000D01*
X85404285Y-120347619D01*
X85356666Y-120442857D01*
X85356666Y-120585714D01*
X85404285Y-120680952D01*
X85451904Y-120728571D01*
X85547142Y-120776190D01*
X85928095Y-120776190D01*
X84404285Y-121252380D02*
X84975714Y-121252380D01*
X84690000Y-121252380D02*
X84690000Y-120252380D01*
X84785238Y-120395238D01*
X84880476Y-120490476D01*
X84975714Y-120538095D01*
X82728571Y-133485714D02*
X82490476Y-134152380D01*
X82252380Y-133485714D01*
X81347619Y-134152380D02*
X81919047Y-134152380D01*
X81633333Y-134152380D02*
X81633333Y-133152380D01*
X81728571Y-133295238D01*
X81823809Y-133390476D01*
X81919047Y-133438095D01*
X80919047Y-134057142D02*
X80871428Y-134104761D01*
X80919047Y-134152380D01*
X80966666Y-134104761D01*
X80919047Y-134057142D01*
X80919047Y-134152380D01*
X80490476Y-133247619D02*
X80442857Y-133200000D01*
X80347619Y-133152380D01*
X80109523Y-133152380D01*
X80014285Y-133200000D01*
X79966666Y-133247619D01*
X79919047Y-133342857D01*
X79919047Y-133438095D01*
X79966666Y-133580952D01*
X80538095Y-134152380D01*
X79919047Y-134152380D01*
D11*
X114140564Y-148784891D02*
G75*
G03*
X114140564Y-148784891I-2015564J0D01*
G01*
X76390729Y-148784891D02*
G75*
G03*
X76390729Y-148784891I-2015564J0D01*
G01*
X73430564Y-129200000D02*
G75*
G03*
X73430564Y-129200000I-2015564J0D01*
G01*
D12*
X86150000Y-127049000D02*
X84250000Y-127049000D01*
X84250000Y-127049000D02*
X84250000Y-130351000D01*
X84250000Y-130351000D02*
X86150000Y-130351000D01*
X86150000Y-130351000D02*
X86150000Y-127049000D01*
X100350000Y-130351000D02*
X102250000Y-130351000D01*
X102250000Y-130351000D02*
X102250000Y-127049000D01*
X102250000Y-127049000D02*
X100350000Y-127049000D01*
X100350000Y-127049000D02*
X100350000Y-130351000D01*
X96450000Y-130351000D02*
X98350000Y-130351000D01*
X98350000Y-130351000D02*
X98350000Y-127049000D01*
X98350000Y-127049000D02*
X96450000Y-127049000D01*
X96450000Y-127049000D02*
X96450000Y-130351000D01*
X84250000Y-124951000D02*
X86150000Y-124951000D01*
X86150000Y-124951000D02*
X86150000Y-121649000D01*
X86150000Y-121649000D02*
X84250000Y-121649000D01*
X84250000Y-121649000D02*
X84250000Y-124951000D01*
X87550000Y-124951000D02*
X89450000Y-124951000D01*
X89450000Y-124951000D02*
X89450000Y-121649000D01*
X89450000Y-121649000D02*
X87550000Y-121649000D01*
X87550000Y-121649000D02*
X87550000Y-124951000D01*
X97130000Y-124951000D02*
X99030000Y-124951000D01*
X99030000Y-124951000D02*
X99030000Y-121649000D01*
X99030000Y-121649000D02*
X97130000Y-121649000D01*
X97130000Y-121649000D02*
X97130000Y-124951000D01*
X100350000Y-124951000D02*
X102250000Y-124951000D01*
X102250000Y-124951000D02*
X102250000Y-121649000D01*
X102250000Y-121649000D02*
X100350000Y-121649000D01*
X100350000Y-121649000D02*
X100350000Y-124951000D01*
X93910000Y-124951000D02*
X95810000Y-124951000D01*
X95810000Y-124951000D02*
X95810000Y-121649000D01*
X95810000Y-121649000D02*
X93910000Y-121649000D01*
X93910000Y-121649000D02*
X93910000Y-124951000D01*
X90690000Y-124951000D02*
X92590000Y-124951000D01*
X92590000Y-124951000D02*
X92590000Y-121649000D01*
X92590000Y-121649000D02*
X90690000Y-121649000D01*
X90690000Y-121649000D02*
X90690000Y-124951000D01*
X92290000Y-130351000D02*
X94190000Y-130351000D01*
X94190000Y-130351000D02*
X94190000Y-127049000D01*
X94190000Y-127049000D02*
X92290000Y-127049000D01*
X92290000Y-127049000D02*
X92290000Y-130351000D01*
X88260000Y-130351000D02*
X90160000Y-130351000D01*
X90160000Y-130351000D02*
X90160000Y-127049000D01*
X90160000Y-127049000D02*
X88260000Y-127049000D01*
X88260000Y-127049000D02*
X88260000Y-130351000D01*
D13*
G36*
X83977973Y-136738649D02*
G01*
X83922087Y-136846995D01*
X83900096Y-136908698D01*
X83912003Y-136936808D01*
X83957806Y-136944378D01*
X83977973Y-136944595D01*
X84027924Y-136939482D01*
X84053201Y-136912696D01*
X84061833Y-136847068D01*
X84062233Y-136764392D01*
X84060682Y-136584189D01*
X83977973Y-136738649D01*
G37*
X83977973Y-136738649D02*
X83922087Y-136846995D01*
X83900096Y-136908698D01*
X83912003Y-136936808D01*
X83957806Y-136944378D01*
X83977973Y-136944595D01*
X84027924Y-136939482D01*
X84053201Y-136912696D01*
X84061833Y-136847068D01*
X84062233Y-136764392D01*
X84060682Y-136584189D01*
X83977973Y-136738649D01*
G36*
X86500811Y-137528108D02*
G01*
X86706757Y-137528108D01*
X86706757Y-136670000D01*
X86500811Y-136670000D01*
X86500811Y-137528108D01*
G37*
X86500811Y-137528108D02*
X86706757Y-137528108D01*
X86706757Y-136670000D01*
X86500811Y-136670000D01*
X86500811Y-137528108D01*
G36*
X87805135Y-137528108D02*
G01*
X88011081Y-137528108D01*
X88011081Y-136670000D01*
X87805135Y-136670000D01*
X87805135Y-137528108D01*
G37*
X87805135Y-137528108D02*
X88011081Y-137528108D01*
X88011081Y-136670000D01*
X87805135Y-136670000D01*
X87805135Y-137528108D01*
G36*
X90579934Y-136629309D02*
G01*
X90537334Y-136701490D01*
X90499595Y-136772973D01*
X90412628Y-136944595D01*
X90516179Y-136944595D01*
X90577477Y-136940891D01*
X90608043Y-136917974D01*
X90618565Y-136858134D01*
X90619730Y-136772973D01*
X90616745Y-136675041D01*
X90609113Y-136612905D01*
X90603146Y-136601351D01*
X90579934Y-136629309D01*
G37*
X90579934Y-136629309D02*
X90537334Y-136701490D01*
X90499595Y-136772973D01*
X90412628Y-136944595D01*
X90516179Y-136944595D01*
X90577477Y-136940891D01*
X90608043Y-136917974D01*
X90618565Y-136858134D01*
X90619730Y-136772973D01*
X90616745Y-136675041D01*
X90609113Y-136612905D01*
X90603146Y-136601351D01*
X90579934Y-136629309D01*
G36*
X91755054Y-136675422D02*
G01*
X91725702Y-136704802D01*
X91718271Y-136777815D01*
X91718108Y-136807297D01*
X91722175Y-136895333D01*
X91744210Y-136934469D01*
X91798970Y-136944378D01*
X91821081Y-136944595D01*
X91887108Y-136939173D01*
X91916460Y-136909792D01*
X91923892Y-136836779D01*
X91924054Y-136807297D01*
X91919988Y-136719261D01*
X91897952Y-136680125D01*
X91843193Y-136670217D01*
X91821081Y-136670000D01*
X91755054Y-136675422D01*
G37*
X91755054Y-136675422D02*
X91725702Y-136704802D01*
X91718271Y-136777815D01*
X91718108Y-136807297D01*
X91722175Y-136895333D01*
X91744210Y-136934469D01*
X91798970Y-136944378D01*
X91821081Y-136944595D01*
X91887108Y-136939173D01*
X91916460Y-136909792D01*
X91923892Y-136836779D01*
X91924054Y-136807297D01*
X91919988Y-136719261D01*
X91897952Y-136680125D01*
X91843193Y-136670217D01*
X91821081Y-136670000D01*
X91755054Y-136675422D01*
G36*
X91757762Y-137223667D02*
G01*
X91727771Y-137249519D01*
X91718690Y-137315377D01*
X91718108Y-137373649D01*
X91721093Y-137468628D01*
X91738328Y-137513613D01*
X91782234Y-137527235D01*
X91821081Y-137528108D01*
X91884401Y-137523631D01*
X91914391Y-137497778D01*
X91923472Y-137431920D01*
X91924054Y-137373649D01*
X91921069Y-137278669D01*
X91903834Y-137233684D01*
X91859929Y-137220062D01*
X91821081Y-137219189D01*
X91757762Y-137223667D01*
G37*
X91757762Y-137223667D02*
X91727771Y-137249519D01*
X91718690Y-137315377D01*
X91718108Y-137373649D01*
X91721093Y-137468628D01*
X91738328Y-137513613D01*
X91782234Y-137527235D01*
X91821081Y-137528108D01*
X91884401Y-137523631D01*
X91914391Y-137497778D01*
X91923472Y-137431920D01*
X91924054Y-137373649D01*
X91921069Y-137278669D01*
X91903834Y-137233684D01*
X91859929Y-137220062D01*
X91821081Y-137219189D01*
X91757762Y-137223667D01*
G36*
X98070730Y-136675422D02*
G01*
X98041378Y-136704802D01*
X98033946Y-136777815D01*
X98033784Y-136807297D01*
X98037850Y-136895333D01*
X98059886Y-136934469D01*
X98114646Y-136944378D01*
X98136757Y-136944595D01*
X98202784Y-136939173D01*
X98232136Y-136909792D01*
X98239567Y-136836779D01*
X98239730Y-136807297D01*
X98235664Y-136719261D01*
X98213628Y-136680125D01*
X98158868Y-136670217D01*
X98136757Y-136670000D01*
X98070730Y-136675422D01*
G37*
X98070730Y-136675422D02*
X98041378Y-136704802D01*
X98033946Y-136777815D01*
X98033784Y-136807297D01*
X98037850Y-136895333D01*
X98059886Y-136934469D01*
X98114646Y-136944378D01*
X98136757Y-136944595D01*
X98202784Y-136939173D01*
X98232136Y-136909792D01*
X98239567Y-136836779D01*
X98239730Y-136807297D01*
X98235664Y-136719261D01*
X98213628Y-136680125D01*
X98158868Y-136670217D01*
X98136757Y-136670000D01*
X98070730Y-136675422D01*
G36*
X98073437Y-137223667D02*
G01*
X98043447Y-137249519D01*
X98034366Y-137315377D01*
X98033784Y-137373649D01*
X98036769Y-137468628D01*
X98054004Y-137513613D01*
X98097909Y-137527235D01*
X98136757Y-137528108D01*
X98200077Y-137523631D01*
X98230067Y-137497778D01*
X98239148Y-137431920D01*
X98239730Y-137373649D01*
X98236745Y-137278669D01*
X98219510Y-137233684D01*
X98175605Y-137220062D01*
X98136757Y-137219189D01*
X98073437Y-137223667D01*
G37*
X98073437Y-137223667D02*
X98043447Y-137249519D01*
X98034366Y-137315377D01*
X98033784Y-137373649D01*
X98036769Y-137468628D01*
X98054004Y-137513613D01*
X98097909Y-137527235D01*
X98136757Y-137528108D01*
X98200077Y-137523631D01*
X98230067Y-137497778D01*
X98239148Y-137431920D01*
X98239730Y-137373649D01*
X98236745Y-137278669D01*
X98219510Y-137233684D01*
X98175605Y-137220062D01*
X98136757Y-137219189D01*
X98073437Y-137223667D01*
G36*
X93141551Y-136561245D02*
G01*
X93076539Y-136619387D01*
X93061817Y-136694720D01*
X93092444Y-136764091D01*
X93163481Y-136804346D01*
X93194054Y-136807297D01*
X93266126Y-136784397D01*
X93290162Y-136766108D01*
X93332169Y-136688388D01*
X93320301Y-136613971D01*
X93267712Y-136560992D01*
X93187557Y-136547581D01*
X93141551Y-136561245D01*
G37*
X93141551Y-136561245D02*
X93076539Y-136619387D01*
X93061817Y-136694720D01*
X93092444Y-136764091D01*
X93163481Y-136804346D01*
X93194054Y-136807297D01*
X93266126Y-136784397D01*
X93290162Y-136766108D01*
X93332169Y-136688388D01*
X93320301Y-136613971D01*
X93267712Y-136560992D01*
X93187557Y-136547581D01*
X93141551Y-136561245D01*
G36*
X92882649Y-136808628D02*
G01*
X92825103Y-136866146D01*
X92824229Y-136952836D01*
X92837321Y-136993274D01*
X92885189Y-137037104D01*
X92961418Y-137047981D01*
X93034851Y-137027167D01*
X93072384Y-136983754D01*
X93077644Y-136885341D01*
X93035013Y-136815515D01*
X92959726Y-136788341D01*
X92882649Y-136808628D01*
G37*
X92882649Y-136808628D02*
X92825103Y-136866146D01*
X92824229Y-136952836D01*
X92837321Y-136993274D01*
X92885189Y-137037104D01*
X92961418Y-137047981D01*
X93034851Y-137027167D01*
X93072384Y-136983754D01*
X93077644Y-136885341D01*
X93035013Y-136815515D01*
X92959726Y-136788341D01*
X92882649Y-136808628D01*
G36*
X93386631Y-136793429D02*
G01*
X93328173Y-136847222D01*
X93308409Y-136928222D01*
X93332719Y-136997728D01*
X93396460Y-137035873D01*
X93479879Y-137047413D01*
X93545472Y-137027669D01*
X93548739Y-137024685D01*
X93578050Y-136955858D01*
X93559035Y-136879574D01*
X93506065Y-136816335D01*
X93433511Y-136786643D01*
X93386631Y-136793429D01*
G37*
X93386631Y-136793429D02*
X93328173Y-136847222D01*
X93308409Y-136928222D01*
X93332719Y-136997728D01*
X93396460Y-137035873D01*
X93479879Y-137047413D01*
X93545472Y-137027669D01*
X93548739Y-137024685D01*
X93578050Y-136955858D01*
X93559035Y-136879574D01*
X93506065Y-136816335D01*
X93433511Y-136786643D01*
X93386631Y-136793429D01*
G36*
X94219497Y-136575532D02*
G01*
X94192614Y-136615651D01*
X94189460Y-136670000D01*
X94182763Y-136739184D01*
X94148794Y-136767560D01*
X94069325Y-136772973D01*
X93988806Y-136778286D01*
X93955785Y-136808265D01*
X93949204Y-136883964D01*
X93949189Y-136893108D01*
X93954503Y-136973626D01*
X93984481Y-137006648D01*
X94060180Y-137013228D01*
X94069325Y-137013243D01*
X94149843Y-137018557D01*
X94182864Y-137048535D01*
X94189445Y-137124234D01*
X94189460Y-137133378D01*
X94195200Y-137214092D01*
X94224316Y-137247198D01*
X94292433Y-137253513D01*
X94361616Y-137246816D01*
X94389992Y-137212847D01*
X94395406Y-137133378D01*
X94400719Y-137052860D01*
X94430697Y-137019839D01*
X94506397Y-137013258D01*
X94515541Y-137013243D01*
X94596059Y-137007930D01*
X94629080Y-136977952D01*
X94635661Y-136902252D01*
X94635676Y-136893108D01*
X94630362Y-136812590D01*
X94600384Y-136779568D01*
X94524685Y-136772988D01*
X94515541Y-136772973D01*
X94434827Y-136767233D01*
X94401721Y-136738116D01*
X94395406Y-136670000D01*
X94386900Y-136597064D01*
X94346781Y-136570182D01*
X94292433Y-136567027D01*
X94219497Y-136575532D01*
G37*
X94219497Y-136575532D02*
X94192614Y-136615651D01*
X94189460Y-136670000D01*
X94182763Y-136739184D01*
X94148794Y-136767560D01*
X94069325Y-136772973D01*
X93988806Y-136778286D01*
X93955785Y-136808265D01*
X93949204Y-136883964D01*
X93949189Y-136893108D01*
X93954503Y-136973626D01*
X93984481Y-137006648D01*
X94060180Y-137013228D01*
X94069325Y-137013243D01*
X94149843Y-137018557D01*
X94182864Y-137048535D01*
X94189445Y-137124234D01*
X94189460Y-137133378D01*
X94195200Y-137214092D01*
X94224316Y-137247198D01*
X94292433Y-137253513D01*
X94361616Y-137246816D01*
X94389992Y-137212847D01*
X94395406Y-137133378D01*
X94400719Y-137052860D01*
X94430697Y-137019839D01*
X94506397Y-137013258D01*
X94515541Y-137013243D01*
X94596059Y-137007930D01*
X94629080Y-136977952D01*
X94635661Y-136902252D01*
X94635676Y-136893108D01*
X94630362Y-136812590D01*
X94600384Y-136779568D01*
X94524685Y-136772988D01*
X94515541Y-136772973D01*
X94434827Y-136767233D01*
X94401721Y-136738116D01*
X94395406Y-136670000D01*
X94386900Y-136597064D01*
X94346781Y-136570182D01*
X94292433Y-136567027D01*
X94219497Y-136575532D01*
G36*
X93136901Y-137063378D02*
G01*
X93076886Y-137113884D01*
X93064927Y-137187940D01*
X93110695Y-137268224D01*
X93170970Y-137315014D01*
X93226053Y-137309716D01*
X93276564Y-137277334D01*
X93323644Y-137210397D01*
X93323583Y-137133034D01*
X93281309Y-137071830D01*
X93235070Y-137053514D01*
X93136901Y-137063378D01*
G37*
X93136901Y-137063378D02*
X93076886Y-137113884D01*
X93064927Y-137187940D01*
X93110695Y-137268224D01*
X93170970Y-137315014D01*
X93226053Y-137309716D01*
X93276564Y-137277334D01*
X93323644Y-137210397D01*
X93323583Y-137133034D01*
X93281309Y-137071830D01*
X93235070Y-137053514D01*
X93136901Y-137063378D01*
G36*
X93670294Y-137412094D02*
G01*
X93607545Y-137478621D01*
X93573594Y-137527093D01*
X93571622Y-137534530D01*
X93602502Y-137550449D01*
X93681455Y-137560551D01*
X93743243Y-137562432D01*
X93841154Y-137557090D01*
X93903293Y-137543430D01*
X93914865Y-137532737D01*
X93895412Y-137487870D01*
X93847971Y-137418102D01*
X93841915Y-137410301D01*
X93768965Y-137317560D01*
X93670294Y-137412094D01*
G37*
X93670294Y-137412094D02*
X93607545Y-137478621D01*
X93573594Y-137527093D01*
X93571622Y-137534530D01*
X93602502Y-137550449D01*
X93681455Y-137560551D01*
X93743243Y-137562432D01*
X93841154Y-137557090D01*
X93903293Y-137543430D01*
X93914865Y-137532737D01*
X93895412Y-137487870D01*
X93847971Y-137418102D01*
X93841915Y-137410301D01*
X93768965Y-137317560D01*
X93670294Y-137412094D01*
G36*
X88821783Y-130870703D02*
G01*
X88709530Y-130874778D01*
X88641944Y-130880716D01*
X88628919Y-130885102D01*
X88650448Y-130914530D01*
X88710642Y-130987794D01*
X88802912Y-131097110D01*
X88920668Y-131234692D01*
X89057321Y-131392758D01*
X89107145Y-131450046D01*
X89267980Y-131635707D01*
X89389021Y-131778806D01*
X89476292Y-131887899D01*
X89535818Y-131971544D01*
X89573623Y-132038299D01*
X89595731Y-132096722D01*
X89608166Y-132155371D01*
X89609396Y-132163525D01*
X89625725Y-132270815D01*
X89649406Y-132420888D01*
X89676482Y-132588815D01*
X89689979Y-132671216D01*
X89746539Y-133014459D01*
X90033404Y-133024505D01*
X90320268Y-133034551D01*
X90298900Y-132904370D01*
X90285224Y-132817380D01*
X90264690Y-132682340D01*
X90240298Y-132519135D01*
X90219702Y-132379459D01*
X90161873Y-131984730D01*
X90459450Y-131446864D01*
X90555024Y-131273055D01*
X90637860Y-131120391D01*
X90702649Y-130998816D01*
X90744086Y-130918279D01*
X90757027Y-130889093D01*
X90725159Y-130880660D01*
X90639363Y-130874042D01*
X90514355Y-130870106D01*
X90422365Y-130869392D01*
X90087703Y-130869595D01*
X89781873Y-131444677D01*
X89540474Y-131156933D01*
X89299076Y-130869189D01*
X88963997Y-130869189D01*
X88821783Y-130870703D01*
G37*
X88821783Y-130870703D02*
X88709530Y-130874778D01*
X88641944Y-130880716D01*
X88628919Y-130885102D01*
X88650448Y-130914530D01*
X88710642Y-130987794D01*
X88802912Y-131097110D01*
X88920668Y-131234692D01*
X89057321Y-131392758D01*
X89107145Y-131450046D01*
X89267980Y-131635707D01*
X89389021Y-131778806D01*
X89476292Y-131887899D01*
X89535818Y-131971544D01*
X89573623Y-132038299D01*
X89595731Y-132096722D01*
X89608166Y-132155371D01*
X89609396Y-132163525D01*
X89625725Y-132270815D01*
X89649406Y-132420888D01*
X89676482Y-132588815D01*
X89689979Y-132671216D01*
X89746539Y-133014459D01*
X90033404Y-133024505D01*
X90320268Y-133034551D01*
X90298900Y-132904370D01*
X90285224Y-132817380D01*
X90264690Y-132682340D01*
X90240298Y-132519135D01*
X90219702Y-132379459D01*
X90161873Y-131984730D01*
X90459450Y-131446864D01*
X90555024Y-131273055D01*
X90637860Y-131120391D01*
X90702649Y-130998816D01*
X90744086Y-130918279D01*
X90757027Y-130889093D01*
X90725159Y-130880660D01*
X90639363Y-130874042D01*
X90514355Y-130870106D01*
X90422365Y-130869392D01*
X90087703Y-130869595D01*
X89781873Y-131444677D01*
X89540474Y-131156933D01*
X89299076Y-130869189D01*
X88963997Y-130869189D01*
X88821783Y-130870703D01*
G36*
X96961654Y-131906120D02*
G01*
X96952568Y-132945811D01*
X96803282Y-131984730D01*
X96763910Y-131732468D01*
X96727187Y-131499478D01*
X96694634Y-131295230D01*
X96667774Y-131129197D01*
X96648126Y-131010849D01*
X96637213Y-130949658D01*
X96636521Y-130946419D01*
X96628462Y-130918982D01*
X96612152Y-130898960D01*
X96577981Y-130885185D01*
X96516342Y-130876490D01*
X96417626Y-130871705D01*
X96272223Y-130869663D01*
X96070527Y-130869197D01*
X96001207Y-130869189D01*
X95383369Y-130869189D01*
X95401789Y-130946419D01*
X95417899Y-131027370D01*
X95436748Y-131140135D01*
X95443732Y-131186689D01*
X95467254Y-131349730D01*
X95787412Y-131349730D01*
X95928334Y-131352314D01*
X96041128Y-131359247D01*
X96109783Y-131369300D01*
X96122799Y-131375473D01*
X96137424Y-131422854D01*
X96155820Y-131510747D01*
X96162166Y-131547095D01*
X96186305Y-131692973D01*
X95874369Y-131692973D01*
X95737601Y-131695309D01*
X95631328Y-131701571D01*
X95570789Y-131710638D01*
X95562433Y-131715905D01*
X95567922Y-131759284D01*
X95582244Y-131849811D01*
X95600281Y-131956175D01*
X95638128Y-132173513D01*
X95941211Y-132173513D01*
X96089255Y-132173896D01*
X96183292Y-132181811D01*
X96237914Y-132207409D01*
X96267713Y-132260839D01*
X96287281Y-132352251D01*
X96298964Y-132422365D01*
X96320678Y-132551081D01*
X95659372Y-132551081D01*
X95681388Y-132696959D01*
X95700005Y-132814253D01*
X95718171Y-132919628D01*
X95721457Y-132937230D01*
X95739509Y-133031622D01*
X97537757Y-133031622D01*
X97514419Y-131847432D01*
X97812361Y-132362297D01*
X97937132Y-132578142D01*
X98032405Y-132741998D01*
X98103585Y-132860988D01*
X98156078Y-132942236D01*
X98195290Y-132992866D01*
X98226627Y-133020001D01*
X98255494Y-133030765D01*
X98287296Y-133032282D01*
X98320261Y-133031622D01*
X98433534Y-133031622D01*
X98564248Y-132473851D01*
X98609014Y-132286802D01*
X98649887Y-132123397D01*
X98683812Y-131995274D01*
X98707739Y-131914070D01*
X98717060Y-131891191D01*
X98733495Y-131914070D01*
X98765472Y-131992917D01*
X98809455Y-132117757D01*
X98861906Y-132278612D01*
X98911762Y-132440380D01*
X99084367Y-133014459D01*
X99584817Y-133023935D01*
X100085268Y-133033411D01*
X100108248Y-132903800D01*
X100127399Y-132795952D01*
X100147890Y-132724590D01*
X100182671Y-132682214D01*
X100244694Y-132661326D01*
X100346910Y-132654426D01*
X100502272Y-132654017D01*
X100539594Y-132654054D01*
X100912670Y-132654054D01*
X101009241Y-132834257D01*
X101105811Y-133014459D01*
X101406149Y-133024377D01*
X101540043Y-133026401D01*
X101643194Y-133023396D01*
X101700097Y-133016025D01*
X101706487Y-133011578D01*
X101690696Y-132977144D01*
X101645799Y-132889419D01*
X101575510Y-132755404D01*
X101483545Y-132582105D01*
X101373616Y-132376523D01*
X101282882Y-132207838D01*
X100676257Y-132207838D01*
X100470561Y-132207838D01*
X100352086Y-132204135D01*
X100288344Y-132190667D01*
X100265702Y-132163889D01*
X100264865Y-132154382D01*
X100270689Y-132078355D01*
X100285709Y-131971540D01*
X100306252Y-131853347D01*
X100328643Y-131743185D01*
X100349207Y-131660463D01*
X100364269Y-131624591D01*
X100365219Y-131624324D01*
X100388787Y-131653026D01*
X100434341Y-131730132D01*
X100494184Y-131842147D01*
X100531560Y-131916081D01*
X100676257Y-132207838D01*
X101282882Y-132207838D01*
X101249438Y-132145662D01*
X101132338Y-131929026D01*
X100558190Y-130869189D01*
X100259094Y-130869189D01*
X100123048Y-130871950D01*
X100015465Y-130879326D01*
X99953011Y-130889951D01*
X99944320Y-130894932D01*
X99933061Y-130934242D01*
X99909579Y-131031386D01*
X99875991Y-131177068D01*
X99834418Y-131361987D01*
X99786977Y-131576847D01*
X99744929Y-131770024D01*
X99694344Y-132000890D01*
X99647743Y-132207887D01*
X99607242Y-132382076D01*
X99574954Y-132514520D01*
X99552992Y-132596282D01*
X99544054Y-132619257D01*
X99529359Y-132587947D01*
X99496627Y-132499716D01*
X99448770Y-132363016D01*
X99388697Y-132186301D01*
X99319319Y-131978026D01*
X99243546Y-131746641D01*
X99242299Y-131742801D01*
X98957705Y-130866459D01*
X98394189Y-130886351D01*
X98271569Y-131433545D01*
X98220424Y-131653122D01*
X98179724Y-131808008D01*
X98148535Y-131901211D01*
X98125925Y-131935737D01*
X98117109Y-131931289D01*
X98090269Y-131885720D01*
X98036426Y-131791353D01*
X97961919Y-131659401D01*
X97873086Y-131501076D01*
X97807745Y-131384096D01*
X97530220Y-130886351D01*
X97250480Y-130876390D01*
X96970741Y-130866429D01*
X96961654Y-131906120D01*
G37*
X96961654Y-131906120D02*
X96952568Y-132945811D01*
X96803282Y-131984730D01*
X96763910Y-131732468D01*
X96727187Y-131499478D01*
X96694634Y-131295230D01*
X96667774Y-131129197D01*
X96648126Y-131010849D01*
X96637213Y-130949658D01*
X96636521Y-130946419D01*
X96628462Y-130918982D01*
X96612152Y-130898960D01*
X96577981Y-130885185D01*
X96516342Y-130876490D01*
X96417626Y-130871705D01*
X96272223Y-130869663D01*
X96070527Y-130869197D01*
X96001207Y-130869189D01*
X95383369Y-130869189D01*
X95401789Y-130946419D01*
X95417899Y-131027370D01*
X95436748Y-131140135D01*
X95443732Y-131186689D01*
X95467254Y-131349730D01*
X95787412Y-131349730D01*
X95928334Y-131352314D01*
X96041128Y-131359247D01*
X96109783Y-131369300D01*
X96122799Y-131375473D01*
X96137424Y-131422854D01*
X96155820Y-131510747D01*
X96162166Y-131547095D01*
X96186305Y-131692973D01*
X95874369Y-131692973D01*
X95737601Y-131695309D01*
X95631328Y-131701571D01*
X95570789Y-131710638D01*
X95562433Y-131715905D01*
X95567922Y-131759284D01*
X95582244Y-131849811D01*
X95600281Y-131956175D01*
X95638128Y-132173513D01*
X95941211Y-132173513D01*
X96089255Y-132173896D01*
X96183292Y-132181811D01*
X96237914Y-132207409D01*
X96267713Y-132260839D01*
X96287281Y-132352251D01*
X96298964Y-132422365D01*
X96320678Y-132551081D01*
X95659372Y-132551081D01*
X95681388Y-132696959D01*
X95700005Y-132814253D01*
X95718171Y-132919628D01*
X95721457Y-132937230D01*
X95739509Y-133031622D01*
X97537757Y-133031622D01*
X97514419Y-131847432D01*
X97812361Y-132362297D01*
X97937132Y-132578142D01*
X98032405Y-132741998D01*
X98103585Y-132860988D01*
X98156078Y-132942236D01*
X98195290Y-132992866D01*
X98226627Y-133020001D01*
X98255494Y-133030765D01*
X98287296Y-133032282D01*
X98320261Y-133031622D01*
X98433534Y-133031622D01*
X98564248Y-132473851D01*
X98609014Y-132286802D01*
X98649887Y-132123397D01*
X98683812Y-131995274D01*
X98707739Y-131914070D01*
X98717060Y-131891191D01*
X98733495Y-131914070D01*
X98765472Y-131992917D01*
X98809455Y-132117757D01*
X98861906Y-132278612D01*
X98911762Y-132440380D01*
X99084367Y-133014459D01*
X99584817Y-133023935D01*
X100085268Y-133033411D01*
X100108248Y-132903800D01*
X100127399Y-132795952D01*
X100147890Y-132724590D01*
X100182671Y-132682214D01*
X100244694Y-132661326D01*
X100346910Y-132654426D01*
X100502272Y-132654017D01*
X100539594Y-132654054D01*
X100912670Y-132654054D01*
X101009241Y-132834257D01*
X101105811Y-133014459D01*
X101406149Y-133024377D01*
X101540043Y-133026401D01*
X101643194Y-133023396D01*
X101700097Y-133016025D01*
X101706487Y-133011578D01*
X101690696Y-132977144D01*
X101645799Y-132889419D01*
X101575510Y-132755404D01*
X101483545Y-132582105D01*
X101373616Y-132376523D01*
X101282882Y-132207838D01*
X100676257Y-132207838D01*
X100470561Y-132207838D01*
X100352086Y-132204135D01*
X100288344Y-132190667D01*
X100265702Y-132163889D01*
X100264865Y-132154382D01*
X100270689Y-132078355D01*
X100285709Y-131971540D01*
X100306252Y-131853347D01*
X100328643Y-131743185D01*
X100349207Y-131660463D01*
X100364269Y-131624591D01*
X100365219Y-131624324D01*
X100388787Y-131653026D01*
X100434341Y-131730132D01*
X100494184Y-131842147D01*
X100531560Y-131916081D01*
X100676257Y-132207838D01*
X101282882Y-132207838D01*
X101249438Y-132145662D01*
X101132338Y-131929026D01*
X100558190Y-130869189D01*
X100259094Y-130869189D01*
X100123048Y-130871950D01*
X100015465Y-130879326D01*
X99953011Y-130889951D01*
X99944320Y-130894932D01*
X99933061Y-130934242D01*
X99909579Y-131031386D01*
X99875991Y-131177068D01*
X99834418Y-131361987D01*
X99786977Y-131576847D01*
X99744929Y-131770024D01*
X99694344Y-132000890D01*
X99647743Y-132207887D01*
X99607242Y-132382076D01*
X99574954Y-132514520D01*
X99552992Y-132596282D01*
X99544054Y-132619257D01*
X99529359Y-132587947D01*
X99496627Y-132499716D01*
X99448770Y-132363016D01*
X99388697Y-132186301D01*
X99319319Y-131978026D01*
X99243546Y-131746641D01*
X99242299Y-131742801D01*
X98957705Y-130866459D01*
X98394189Y-130886351D01*
X98271569Y-131433545D01*
X98220424Y-131653122D01*
X98179724Y-131808008D01*
X98148535Y-131901211D01*
X98125925Y-131935737D01*
X98117109Y-131931289D01*
X98090269Y-131885720D01*
X98036426Y-131791353D01*
X97961919Y-131659401D01*
X97873086Y-131501076D01*
X97807745Y-131384096D01*
X97530220Y-130886351D01*
X97250480Y-130876390D01*
X96970741Y-130866429D01*
X96961654Y-131906120D01*
G36*
X91574458Y-130818795D02*
G01*
X91334357Y-130875498D01*
X91119165Y-130982225D01*
X90938392Y-131138251D01*
X90861010Y-131238838D01*
X90786644Y-131368877D01*
X90742718Y-131498388D01*
X90724529Y-131649314D01*
X90727373Y-131843599D01*
X90728189Y-131858510D01*
X90776078Y-132130295D01*
X90882395Y-132380526D01*
X91038662Y-132603022D01*
X91236401Y-132791602D01*
X91467135Y-132940084D01*
X91722385Y-133042289D01*
X91993675Y-133092034D01*
X92272527Y-133083139D01*
X92379967Y-133062803D01*
X92623363Y-132973630D01*
X92822229Y-132832837D01*
X92973405Y-132643586D01*
X93073729Y-132409040D01*
X93088059Y-132354249D01*
X93118510Y-132225000D01*
X93121958Y-132355084D01*
X93153303Y-132516338D01*
X93229590Y-132680002D01*
X93336089Y-132814547D01*
X93337061Y-132815456D01*
X93417066Y-132881662D01*
X93503585Y-132931782D01*
X93607829Y-132968290D01*
X93741008Y-132993663D01*
X93914331Y-133010377D01*
X94139008Y-133020907D01*
X94285365Y-133024887D01*
X94878973Y-133038471D01*
X94860083Y-132957816D01*
X94850813Y-132907590D01*
X94832903Y-132801414D01*
X94807986Y-132649603D01*
X94799035Y-132594302D01*
X94228564Y-132594302D01*
X94037922Y-132578493D01*
X93893781Y-132554175D01*
X93792895Y-132511634D01*
X93778100Y-132500076D01*
X93721241Y-132405973D01*
X93708919Y-132321804D01*
X93729381Y-132229812D01*
X93795609Y-132171858D01*
X93914870Y-132143639D01*
X94017345Y-132139189D01*
X94080650Y-132139694D01*
X94122208Y-132149593D01*
X94149416Y-132181465D01*
X94169673Y-132247889D01*
X94190376Y-132361440D01*
X94206698Y-132461138D01*
X94228564Y-132594302D01*
X94799035Y-132594302D01*
X94777696Y-132462467D01*
X94743665Y-132250320D01*
X94707526Y-132023475D01*
X94670912Y-131792244D01*
X94661371Y-131731609D01*
X94092888Y-131731609D01*
X93960971Y-131708943D01*
X93858041Y-131676310D01*
X93777259Y-131625736D01*
X93768987Y-131617173D01*
X93713113Y-131515206D01*
X93719107Y-131422700D01*
X93780269Y-131352449D01*
X93889899Y-131317243D01*
X93927043Y-131315405D01*
X93992603Y-131330827D01*
X94025801Y-131389810D01*
X94032273Y-131418378D01*
X94054529Y-131533499D01*
X94072525Y-131626480D01*
X94092888Y-131731609D01*
X94661371Y-131731609D01*
X94635457Y-131566939D01*
X94602792Y-131357874D01*
X94574552Y-131175361D01*
X94552368Y-131029712D01*
X94537874Y-130931240D01*
X94532703Y-130890285D01*
X94500786Y-130880697D01*
X94414507Y-130874251D01*
X94288073Y-130870789D01*
X94135690Y-130870152D01*
X93971566Y-130872181D01*
X93809907Y-130876718D01*
X93664921Y-130883604D01*
X93550815Y-130892681D01*
X93488987Y-130901937D01*
X93377626Y-130944284D01*
X93281460Y-131007032D01*
X93271896Y-131016016D01*
X93197894Y-131135256D01*
X93167746Y-131288370D01*
X93180228Y-131457455D01*
X93234119Y-131624606D01*
X93323114Y-131765968D01*
X93378020Y-131838783D01*
X93387272Y-131877786D01*
X93365447Y-131893275D01*
X93308968Y-131927592D01*
X93234881Y-131990451D01*
X93221020Y-132003970D01*
X93127191Y-132097799D01*
X93122216Y-132067750D01*
X92507073Y-132067750D01*
X92474375Y-132222802D01*
X92392494Y-132359482D01*
X92259301Y-132466965D01*
X92221716Y-132486170D01*
X92040008Y-132534271D01*
X91850650Y-132516946D01*
X91720507Y-132466510D01*
X91602555Y-132381028D01*
X91484665Y-132256223D01*
X91387944Y-132117442D01*
X91338117Y-132007337D01*
X91315005Y-131823655D01*
X91354405Y-131656041D01*
X91450374Y-131515419D01*
X91596967Y-131412711D01*
X91678646Y-131381538D01*
X91777687Y-131358529D01*
X91865956Y-131359677D01*
X91976660Y-131386433D01*
X92007341Y-131395906D01*
X92188620Y-131480393D01*
X92331362Y-131600649D01*
X92433437Y-131745846D01*
X92492717Y-131905155D01*
X92507073Y-132067750D01*
X93122216Y-132067750D01*
X93106465Y-131972616D01*
X93027955Y-131675760D01*
X92896255Y-131420730D01*
X92708456Y-131202616D01*
X92593742Y-131106722D01*
X92349111Y-130956079D01*
X92091346Y-130858360D01*
X91829958Y-130812841D01*
X91574458Y-130818795D01*
G37*
X91574458Y-130818795D02*
X91334357Y-130875498D01*
X91119165Y-130982225D01*
X90938392Y-131138251D01*
X90861010Y-131238838D01*
X90786644Y-131368877D01*
X90742718Y-131498388D01*
X90724529Y-131649314D01*
X90727373Y-131843599D01*
X90728189Y-131858510D01*
X90776078Y-132130295D01*
X90882395Y-132380526D01*
X91038662Y-132603022D01*
X91236401Y-132791602D01*
X91467135Y-132940084D01*
X91722385Y-133042289D01*
X91993675Y-133092034D01*
X92272527Y-133083139D01*
X92379967Y-133062803D01*
X92623363Y-132973630D01*
X92822229Y-132832837D01*
X92973405Y-132643586D01*
X93073729Y-132409040D01*
X93088059Y-132354249D01*
X93118510Y-132225000D01*
X93121958Y-132355084D01*
X93153303Y-132516338D01*
X93229590Y-132680002D01*
X93336089Y-132814547D01*
X93337061Y-132815456D01*
X93417066Y-132881662D01*
X93503585Y-132931782D01*
X93607829Y-132968290D01*
X93741008Y-132993663D01*
X93914331Y-133010377D01*
X94139008Y-133020907D01*
X94285365Y-133024887D01*
X94878973Y-133038471D01*
X94860083Y-132957816D01*
X94850813Y-132907590D01*
X94832903Y-132801414D01*
X94807986Y-132649603D01*
X94799035Y-132594302D01*
X94228564Y-132594302D01*
X94037922Y-132578493D01*
X93893781Y-132554175D01*
X93792895Y-132511634D01*
X93778100Y-132500076D01*
X93721241Y-132405973D01*
X93708919Y-132321804D01*
X93729381Y-132229812D01*
X93795609Y-132171858D01*
X93914870Y-132143639D01*
X94017345Y-132139189D01*
X94080650Y-132139694D01*
X94122208Y-132149593D01*
X94149416Y-132181465D01*
X94169673Y-132247889D01*
X94190376Y-132361440D01*
X94206698Y-132461138D01*
X94228564Y-132594302D01*
X94799035Y-132594302D01*
X94777696Y-132462467D01*
X94743665Y-132250320D01*
X94707526Y-132023475D01*
X94670912Y-131792244D01*
X94661371Y-131731609D01*
X94092888Y-131731609D01*
X93960971Y-131708943D01*
X93858041Y-131676310D01*
X93777259Y-131625736D01*
X93768987Y-131617173D01*
X93713113Y-131515206D01*
X93719107Y-131422700D01*
X93780269Y-131352449D01*
X93889899Y-131317243D01*
X93927043Y-131315405D01*
X93992603Y-131330827D01*
X94025801Y-131389810D01*
X94032273Y-131418378D01*
X94054529Y-131533499D01*
X94072525Y-131626480D01*
X94092888Y-131731609D01*
X94661371Y-131731609D01*
X94635457Y-131566939D01*
X94602792Y-131357874D01*
X94574552Y-131175361D01*
X94552368Y-131029712D01*
X94537874Y-130931240D01*
X94532703Y-130890285D01*
X94500786Y-130880697D01*
X94414507Y-130874251D01*
X94288073Y-130870789D01*
X94135690Y-130870152D01*
X93971566Y-130872181D01*
X93809907Y-130876718D01*
X93664921Y-130883604D01*
X93550815Y-130892681D01*
X93488987Y-130901937D01*
X93377626Y-130944284D01*
X93281460Y-131007032D01*
X93271896Y-131016016D01*
X93197894Y-131135256D01*
X93167746Y-131288370D01*
X93180228Y-131457455D01*
X93234119Y-131624606D01*
X93323114Y-131765968D01*
X93378020Y-131838783D01*
X93387272Y-131877786D01*
X93365447Y-131893275D01*
X93308968Y-131927592D01*
X93234881Y-131990451D01*
X93221020Y-132003970D01*
X93127191Y-132097799D01*
X93122216Y-132067750D01*
X92507073Y-132067750D01*
X92474375Y-132222802D01*
X92392494Y-132359482D01*
X92259301Y-132466965D01*
X92221716Y-132486170D01*
X92040008Y-132534271D01*
X91850650Y-132516946D01*
X91720507Y-132466510D01*
X91602555Y-132381028D01*
X91484665Y-132256223D01*
X91387944Y-132117442D01*
X91338117Y-132007337D01*
X91315005Y-131823655D01*
X91354405Y-131656041D01*
X91450374Y-131515419D01*
X91596967Y-131412711D01*
X91678646Y-131381538D01*
X91777687Y-131358529D01*
X91865956Y-131359677D01*
X91976660Y-131386433D01*
X92007341Y-131395906D01*
X92188620Y-131480393D01*
X92331362Y-131600649D01*
X92433437Y-131745846D01*
X92492717Y-131905155D01*
X92507073Y-132067750D01*
X93122216Y-132067750D01*
X93106465Y-131972616D01*
X93027955Y-131675760D01*
X92896255Y-131420730D01*
X92708456Y-131202616D01*
X92593742Y-131106722D01*
X92349111Y-130956079D01*
X92091346Y-130858360D01*
X91829958Y-130812841D01*
X91574458Y-130818795D01*
G36*
X102029628Y-130819593D02*
G01*
X101899434Y-130849340D01*
X101729873Y-130923414D01*
X101572377Y-131036288D01*
X101445889Y-131171566D01*
X101371626Y-131306112D01*
X101334409Y-131412875D01*
X101612493Y-131524971D01*
X101746351Y-131577944D01*
X101830882Y-131606682D01*
X101880153Y-131613284D01*
X101908234Y-131599852D01*
X101927248Y-131571957D01*
X101975542Y-131503598D01*
X102045597Y-131421792D01*
X102055671Y-131411127D01*
X102132536Y-131347330D01*
X102220013Y-131319828D01*
X102306227Y-131315405D01*
X102498749Y-131347427D01*
X102667512Y-131438490D01*
X102805623Y-131581093D01*
X102906192Y-131767734D01*
X102962327Y-131990909D01*
X102967237Y-132035009D01*
X102959214Y-132234051D01*
X102900408Y-132399546D01*
X102796734Y-132523889D01*
X102654106Y-132599471D01*
X102512556Y-132619730D01*
X102375385Y-132602330D01*
X102252235Y-132542921D01*
X102144122Y-132454654D01*
X102069179Y-132373674D01*
X102052417Y-132320082D01*
X102096630Y-132289418D01*
X102204611Y-132277220D01*
X102255676Y-132276486D01*
X102364170Y-132275173D01*
X102428519Y-132262197D01*
X102457421Y-132224001D01*
X102459573Y-132147029D01*
X102443673Y-132017726D01*
X102439794Y-131989520D01*
X102417967Y-131830270D01*
X101291484Y-131830270D01*
X101315210Y-131958986D01*
X101401122Y-132264094D01*
X101536211Y-132528073D01*
X101715769Y-132746465D01*
X101935090Y-132914814D01*
X102189469Y-133028663D01*
X102474200Y-133083555D01*
X102504869Y-133085671D01*
X102693799Y-133085772D01*
X102863642Y-133066185D01*
X102919085Y-133053303D01*
X103146561Y-132957411D01*
X103328539Y-132815122D01*
X103462714Y-132633398D01*
X103546784Y-132419197D01*
X103578444Y-132179482D01*
X103555389Y-131921211D01*
X103475317Y-131651346D01*
X103422419Y-131532734D01*
X103270331Y-131297143D01*
X103071501Y-131101638D01*
X102836972Y-130951175D01*
X102577787Y-130850710D01*
X102304992Y-130805197D01*
X102029628Y-130819593D01*
G37*
X102029628Y-130819593D02*
X101899434Y-130849340D01*
X101729873Y-130923414D01*
X101572377Y-131036288D01*
X101445889Y-131171566D01*
X101371626Y-131306112D01*
X101334409Y-131412875D01*
X101612493Y-131524971D01*
X101746351Y-131577944D01*
X101830882Y-131606682D01*
X101880153Y-131613284D01*
X101908234Y-131599852D01*
X101927248Y-131571957D01*
X101975542Y-131503598D01*
X102045597Y-131421792D01*
X102055671Y-131411127D01*
X102132536Y-131347330D01*
X102220013Y-131319828D01*
X102306227Y-131315405D01*
X102498749Y-131347427D01*
X102667512Y-131438490D01*
X102805623Y-131581093D01*
X102906192Y-131767734D01*
X102962327Y-131990909D01*
X102967237Y-132035009D01*
X102959214Y-132234051D01*
X102900408Y-132399546D01*
X102796734Y-132523889D01*
X102654106Y-132599471D01*
X102512556Y-132619730D01*
X102375385Y-132602330D01*
X102252235Y-132542921D01*
X102144122Y-132454654D01*
X102069179Y-132373674D01*
X102052417Y-132320082D01*
X102096630Y-132289418D01*
X102204611Y-132277220D01*
X102255676Y-132276486D01*
X102364170Y-132275173D01*
X102428519Y-132262197D01*
X102457421Y-132224001D01*
X102459573Y-132147029D01*
X102443673Y-132017726D01*
X102439794Y-131989520D01*
X102417967Y-131830270D01*
X101291484Y-131830270D01*
X101315210Y-131958986D01*
X101401122Y-132264094D01*
X101536211Y-132528073D01*
X101715769Y-132746465D01*
X101935090Y-132914814D01*
X102189469Y-133028663D01*
X102474200Y-133083555D01*
X102504869Y-133085671D01*
X102693799Y-133085772D01*
X102863642Y-133066185D01*
X102919085Y-133053303D01*
X103146561Y-132957411D01*
X103328539Y-132815122D01*
X103462714Y-132633398D01*
X103546784Y-132419197D01*
X103578444Y-132179482D01*
X103555389Y-131921211D01*
X103475317Y-131651346D01*
X103422419Y-131532734D01*
X103270331Y-131297143D01*
X103071501Y-131101638D01*
X102836972Y-130951175D01*
X102577787Y-130850710D01*
X102304992Y-130805197D01*
X102029628Y-130819593D01*
G36*
X83869315Y-130787737D02*
G01*
X83638497Y-130872294D01*
X83445362Y-130997571D01*
X83369162Y-131072483D01*
X83250398Y-131231582D01*
X83177690Y-131394561D01*
X83144732Y-131581602D01*
X83144114Y-131792654D01*
X83165611Y-131999520D01*
X83211708Y-132185103D01*
X83288405Y-132358503D01*
X83401702Y-132528819D01*
X83557597Y-132705151D01*
X83762090Y-132896599D01*
X84006224Y-133100270D01*
X84369505Y-133392027D01*
X83852747Y-133401521D01*
X83654782Y-133405430D01*
X83515615Y-133409814D01*
X83425409Y-133416367D01*
X83374324Y-133426785D01*
X83352522Y-133442763D01*
X83350163Y-133465998D01*
X83354774Y-133487332D01*
X83368109Y-133555386D01*
X83387336Y-133670490D01*
X83409013Y-133811681D01*
X83416629Y-133863986D01*
X83459699Y-134164324D01*
X84777169Y-134164324D01*
X85083881Y-134163560D01*
X85361421Y-134161369D01*
X85603267Y-134157903D01*
X85802896Y-134153313D01*
X85953785Y-134147752D01*
X86049411Y-134141371D01*
X86083250Y-134134321D01*
X86083198Y-134133941D01*
X86056118Y-134103980D01*
X85984686Y-134033242D01*
X85874986Y-133927526D01*
X85733099Y-133792629D01*
X85565110Y-133634347D01*
X85377100Y-133458478D01*
X85265135Y-133354282D01*
X85062469Y-133165085D01*
X84871172Y-132984725D01*
X84698409Y-132820095D01*
X84551348Y-132678089D01*
X84437157Y-132565600D01*
X84363000Y-132489519D01*
X84344247Y-132468576D01*
X84203695Y-132273484D01*
X84107014Y-132080674D01*
X84056456Y-131899531D01*
X84054275Y-131739436D01*
X84102722Y-131609771D01*
X84129835Y-131575651D01*
X84238637Y-131502434D01*
X84362099Y-131484973D01*
X84487210Y-131516200D01*
X84600959Y-131589047D01*
X84690333Y-131696445D01*
X84742322Y-131831327D01*
X84750270Y-131912687D01*
X84750270Y-132001892D01*
X85716806Y-132001892D01*
X85693350Y-131890338D01*
X85612332Y-131649150D01*
X85477617Y-131410022D01*
X85302504Y-131189990D01*
X85100290Y-131006086D01*
X84910597Y-130887718D01*
X84658454Y-130793889D01*
X84392233Y-130746983D01*
X84124873Y-130745449D01*
X83869315Y-130787737D01*
G37*
X83869315Y-130787737D02*
X83638497Y-130872294D01*
X83445362Y-130997571D01*
X83369162Y-131072483D01*
X83250398Y-131231582D01*
X83177690Y-131394561D01*
X83144732Y-131581602D01*
X83144114Y-131792654D01*
X83165611Y-131999520D01*
X83211708Y-132185103D01*
X83288405Y-132358503D01*
X83401702Y-132528819D01*
X83557597Y-132705151D01*
X83762090Y-132896599D01*
X84006224Y-133100270D01*
X84369505Y-133392027D01*
X83852747Y-133401521D01*
X83654782Y-133405430D01*
X83515615Y-133409814D01*
X83425409Y-133416367D01*
X83374324Y-133426785D01*
X83352522Y-133442763D01*
X83350163Y-133465998D01*
X83354774Y-133487332D01*
X83368109Y-133555386D01*
X83387336Y-133670490D01*
X83409013Y-133811681D01*
X83416629Y-133863986D01*
X83459699Y-134164324D01*
X84777169Y-134164324D01*
X85083881Y-134163560D01*
X85361421Y-134161369D01*
X85603267Y-134157903D01*
X85802896Y-134153313D01*
X85953785Y-134147752D01*
X86049411Y-134141371D01*
X86083250Y-134134321D01*
X86083198Y-134133941D01*
X86056118Y-134103980D01*
X85984686Y-134033242D01*
X85874986Y-133927526D01*
X85733099Y-133792629D01*
X85565110Y-133634347D01*
X85377100Y-133458478D01*
X85265135Y-133354282D01*
X85062469Y-133165085D01*
X84871172Y-132984725D01*
X84698409Y-132820095D01*
X84551348Y-132678089D01*
X84437157Y-132565600D01*
X84363000Y-132489519D01*
X84344247Y-132468576D01*
X84203695Y-132273484D01*
X84107014Y-132080674D01*
X84056456Y-131899531D01*
X84054275Y-131739436D01*
X84102722Y-131609771D01*
X84129835Y-131575651D01*
X84238637Y-131502434D01*
X84362099Y-131484973D01*
X84487210Y-131516200D01*
X84600959Y-131589047D01*
X84690333Y-131696445D01*
X84742322Y-131831327D01*
X84750270Y-131912687D01*
X84750270Y-132001892D01*
X85716806Y-132001892D01*
X85693350Y-131890338D01*
X85612332Y-131649150D01*
X85477617Y-131410022D01*
X85302504Y-131189990D01*
X85100290Y-131006086D01*
X84910597Y-130887718D01*
X84658454Y-130793889D01*
X84392233Y-130746983D01*
X84124873Y-130745449D01*
X83869315Y-130787737D01*
G36*
X85923571Y-131512770D02*
G01*
X86102139Y-131747113D01*
X86303675Y-132011521D01*
X86512051Y-132284840D01*
X86711140Y-132545916D01*
X86884812Y-132773594D01*
X86885266Y-132774189D01*
X87356652Y-133392027D01*
X86688461Y-133401334D01*
X86443521Y-133405898D01*
X86260892Y-133412167D01*
X86134248Y-133420627D01*
X86057264Y-133431768D01*
X86023614Y-133446077D01*
X86020870Y-133452820D01*
X86026440Y-133503823D01*
X86040839Y-133604664D01*
X86061455Y-133737489D01*
X86072226Y-133803919D01*
X86094642Y-133942931D01*
X86112028Y-134055646D01*
X86121840Y-134125346D01*
X86123113Y-134138581D01*
X86156270Y-134144129D01*
X86250897Y-134149267D01*
X86399817Y-134153863D01*
X86595853Y-134157786D01*
X86831826Y-134160905D01*
X87100560Y-134163088D01*
X87394876Y-134164205D01*
X87530541Y-134164324D01*
X87833829Y-134163860D01*
X88114685Y-134162534D01*
X88365932Y-134160448D01*
X88580394Y-134157701D01*
X88750894Y-134154395D01*
X88870256Y-134150629D01*
X88931301Y-134146505D01*
X88937838Y-134144604D01*
X88917604Y-134114180D01*
X88859652Y-134034802D01*
X88768107Y-133911939D01*
X88647094Y-133751060D01*
X88500740Y-133557632D01*
X88333168Y-133337125D01*
X88148506Y-133095007D01*
X87973311Y-132866023D01*
X87008784Y-131607162D01*
X87650758Y-131597811D01*
X88292731Y-131588459D01*
X88274349Y-131512000D01*
X88260732Y-131442898D01*
X88241012Y-131327806D01*
X88218910Y-131188676D01*
X88213396Y-131152365D01*
X88170825Y-130869189D01*
X85433262Y-130869189D01*
X85923571Y-131512770D01*
G37*
X85923571Y-131512770D02*
X86102139Y-131747113D01*
X86303675Y-132011521D01*
X86512051Y-132284840D01*
X86711140Y-132545916D01*
X86884812Y-132773594D01*
X86885266Y-132774189D01*
X87356652Y-133392027D01*
X86688461Y-133401334D01*
X86443521Y-133405898D01*
X86260892Y-133412167D01*
X86134248Y-133420627D01*
X86057264Y-133431768D01*
X86023614Y-133446077D01*
X86020870Y-133452820D01*
X86026440Y-133503823D01*
X86040839Y-133604664D01*
X86061455Y-133737489D01*
X86072226Y-133803919D01*
X86094642Y-133942931D01*
X86112028Y-134055646D01*
X86121840Y-134125346D01*
X86123113Y-134138581D01*
X86156270Y-134144129D01*
X86250897Y-134149267D01*
X86399817Y-134153863D01*
X86595853Y-134157786D01*
X86831826Y-134160905D01*
X87100560Y-134163088D01*
X87394876Y-134164205D01*
X87530541Y-134164324D01*
X87833829Y-134163860D01*
X88114685Y-134162534D01*
X88365932Y-134160448D01*
X88580394Y-134157701D01*
X88750894Y-134154395D01*
X88870256Y-134150629D01*
X88931301Y-134146505D01*
X88937838Y-134144604D01*
X88917604Y-134114180D01*
X88859652Y-134034802D01*
X88768107Y-133911939D01*
X88647094Y-133751060D01*
X88500740Y-133557632D01*
X88333168Y-133337125D01*
X88148506Y-133095007D01*
X87973311Y-132866023D01*
X87008784Y-131607162D01*
X87650758Y-131597811D01*
X88292731Y-131588459D01*
X88274349Y-131512000D01*
X88260732Y-131442898D01*
X88241012Y-131327806D01*
X88218910Y-131188676D01*
X88213396Y-131152365D01*
X88170825Y-130869189D01*
X85433262Y-130869189D01*
X85923571Y-131512770D01*
G36*
X90027079Y-133373798D02*
G01*
X89914043Y-133382262D01*
X89814207Y-133394392D01*
X89747889Y-133408884D01*
X89734162Y-133416054D01*
X89694694Y-133498991D01*
X89697091Y-133607076D01*
X89737749Y-133714025D01*
X89782748Y-133770262D01*
X89872522Y-133853462D01*
X89799910Y-133976531D01*
X89745819Y-134077075D01*
X89734856Y-134133855D01*
X89770176Y-134158918D01*
X89849111Y-134164324D01*
X89927509Y-134157604D01*
X89977361Y-134125906D01*
X90020888Y-134051924D01*
X90036148Y-134018642D01*
X90101372Y-133872959D01*
X90124668Y-134018642D01*
X90144117Y-134110485D01*
X90173635Y-134152704D01*
X90228943Y-134164091D01*
X90246549Y-134164324D01*
X90317669Y-134154530D01*
X90342918Y-134111356D01*
X90345088Y-134069932D01*
X90339170Y-133992692D01*
X90323481Y-133870728D01*
X90301047Y-133726760D01*
X90296992Y-133703203D01*
X90067157Y-133703203D01*
X90037788Y-133713930D01*
X89987537Y-133697274D01*
X89942304Y-133649638D01*
X89933243Y-133608946D01*
X89952973Y-133558959D01*
X89996873Y-133553266D01*
X90042012Y-133586220D01*
X90064347Y-133641229D01*
X90067157Y-133703203D01*
X90296992Y-133703203D01*
X90293649Y-133683784D01*
X90270511Y-133551532D01*
X90252767Y-133448409D01*
X90243160Y-133390425D01*
X90242209Y-133383446D01*
X90211480Y-133373086D01*
X90132997Y-133370305D01*
X90027079Y-133373798D01*
G37*
X90027079Y-133373798D02*
X89914043Y-133382262D01*
X89814207Y-133394392D01*
X89747889Y-133408884D01*
X89734162Y-133416054D01*
X89694694Y-133498991D01*
X89697091Y-133607076D01*
X89737749Y-133714025D01*
X89782748Y-133770262D01*
X89872522Y-133853462D01*
X89799910Y-133976531D01*
X89745819Y-134077075D01*
X89734856Y-134133855D01*
X89770176Y-134158918D01*
X89849111Y-134164324D01*
X89927509Y-134157604D01*
X89977361Y-134125906D01*
X90020888Y-134051924D01*
X90036148Y-134018642D01*
X90101372Y-133872959D01*
X90124668Y-134018642D01*
X90144117Y-134110485D01*
X90173635Y-134152704D01*
X90228943Y-134164091D01*
X90246549Y-134164324D01*
X90317669Y-134154530D01*
X90342918Y-134111356D01*
X90345088Y-134069932D01*
X90339170Y-133992692D01*
X90323481Y-133870728D01*
X90301047Y-133726760D01*
X90296992Y-133703203D01*
X90067157Y-133703203D01*
X90037788Y-133713930D01*
X89987537Y-133697274D01*
X89942304Y-133649638D01*
X89933243Y-133608946D01*
X89952973Y-133558959D01*
X89996873Y-133553266D01*
X90042012Y-133586220D01*
X90064347Y-133641229D01*
X90067157Y-133703203D01*
X90296992Y-133703203D01*
X90293649Y-133683784D01*
X90270511Y-133551532D01*
X90252767Y-133448409D01*
X90243160Y-133390425D01*
X90242209Y-133383446D01*
X90211480Y-133373086D01*
X90132997Y-133370305D01*
X90027079Y-133373798D01*
G36*
X90463221Y-133379073D02*
G01*
X90379035Y-133390128D01*
X90345194Y-133405677D01*
X90345135Y-133406382D01*
X90368940Y-133496329D01*
X90442567Y-133540567D01*
X90503267Y-133546486D01*
X90590656Y-133558392D01*
X90619692Y-133595988D01*
X90619730Y-133597973D01*
X90589724Y-133638448D01*
X90514477Y-133649459D01*
X90441606Y-133656516D01*
X90417678Y-133690534D01*
X90420085Y-133743851D01*
X90440098Y-133811498D01*
X90493860Y-133844592D01*
X90548353Y-133855405D01*
X90642140Y-133880848D01*
X90680392Y-133914163D01*
X90660812Y-133943803D01*
X90581104Y-133958218D01*
X90568824Y-133958378D01*
X90486601Y-133963035D01*
X90454385Y-133987189D01*
X90453663Y-134046111D01*
X90454409Y-134052770D01*
X90463713Y-134102576D01*
X90487804Y-134131717D01*
X90542482Y-134146882D01*
X90643546Y-134154760D01*
X90701585Y-134157417D01*
X90937899Y-134167672D01*
X90918403Y-134070192D01*
X90904695Y-133991492D01*
X90885317Y-133867566D01*
X90863796Y-133721220D01*
X90857090Y-133673789D01*
X90815273Y-133374865D01*
X90580204Y-133374865D01*
X90463221Y-133379073D01*
G37*
X90463221Y-133379073D02*
X90379035Y-133390128D01*
X90345194Y-133405677D01*
X90345135Y-133406382D01*
X90368940Y-133496329D01*
X90442567Y-133540567D01*
X90503267Y-133546486D01*
X90590656Y-133558392D01*
X90619692Y-133595988D01*
X90619730Y-133597973D01*
X90589724Y-133638448D01*
X90514477Y-133649459D01*
X90441606Y-133656516D01*
X90417678Y-133690534D01*
X90420085Y-133743851D01*
X90440098Y-133811498D01*
X90493860Y-133844592D01*
X90548353Y-133855405D01*
X90642140Y-133880848D01*
X90680392Y-133914163D01*
X90660812Y-133943803D01*
X90581104Y-133958218D01*
X90568824Y-133958378D01*
X90486601Y-133963035D01*
X90454385Y-133987189D01*
X90453663Y-134046111D01*
X90454409Y-134052770D01*
X90463713Y-134102576D01*
X90487804Y-134131717D01*
X90542482Y-134146882D01*
X90643546Y-134154760D01*
X90701585Y-134157417D01*
X90937899Y-134167672D01*
X90918403Y-134070192D01*
X90904695Y-133991492D01*
X90885317Y-133867566D01*
X90863796Y-133721220D01*
X90857090Y-133673789D01*
X90815273Y-133374865D01*
X90580204Y-133374865D01*
X90463221Y-133379073D01*
G36*
X91544043Y-133384825D02*
G01*
X91504801Y-133426595D01*
X91492091Y-133469257D01*
X91460097Y-133611564D01*
X91437791Y-133692230D01*
X91417004Y-133715896D01*
X91389565Y-133687206D01*
X91347302Y-133610802D01*
X91323017Y-133565325D01*
X91262381Y-133459889D01*
X91214599Y-133402519D01*
X91163671Y-133378995D01*
X91108852Y-133374985D01*
X90997297Y-133374865D01*
X90997297Y-134164324D01*
X91203243Y-134164324D01*
X91203773Y-133949797D01*
X91204302Y-133735270D01*
X91325896Y-133949797D01*
X91391821Y-134055290D01*
X91451363Y-134131857D01*
X91492426Y-134164118D01*
X91494615Y-134164324D01*
X91530345Y-134131303D01*
X91567396Y-134037142D01*
X91589932Y-133949797D01*
X91638122Y-133735270D01*
X91703859Y-133941216D01*
X91745080Y-134057468D01*
X91782126Y-134122277D01*
X91825966Y-134151158D01*
X91856690Y-134157319D01*
X91930118Y-134157741D01*
X91964549Y-134146712D01*
X91962613Y-134107852D01*
X91941752Y-134017849D01*
X91905541Y-133890421D01*
X91861244Y-133750407D01*
X91737175Y-133374865D01*
X91625322Y-133374865D01*
X91544043Y-133384825D01*
G37*
X91544043Y-133384825D02*
X91504801Y-133426595D01*
X91492091Y-133469257D01*
X91460097Y-133611564D01*
X91437791Y-133692230D01*
X91417004Y-133715896D01*
X91389565Y-133687206D01*
X91347302Y-133610802D01*
X91323017Y-133565325D01*
X91262381Y-133459889D01*
X91214599Y-133402519D01*
X91163671Y-133378995D01*
X91108852Y-133374985D01*
X90997297Y-133374865D01*
X90997297Y-134164324D01*
X91203243Y-134164324D01*
X91203773Y-133949797D01*
X91204302Y-133735270D01*
X91325896Y-133949797D01*
X91391821Y-134055290D01*
X91451363Y-134131857D01*
X91492426Y-134164118D01*
X91494615Y-134164324D01*
X91530345Y-134131303D01*
X91567396Y-134037142D01*
X91589932Y-133949797D01*
X91638122Y-133735270D01*
X91703859Y-133941216D01*
X91745080Y-134057468D01*
X91782126Y-134122277D01*
X91825966Y-134151158D01*
X91856690Y-134157319D01*
X91930118Y-134157741D01*
X91964549Y-134146712D01*
X91962613Y-134107852D01*
X91941752Y-134017849D01*
X91905541Y-133890421D01*
X91861244Y-133750407D01*
X91737175Y-133374865D01*
X91625322Y-133374865D01*
X91544043Y-133384825D01*
G36*
X92158063Y-133367846D02*
G01*
X92051150Y-133441463D01*
X91983540Y-133548944D01*
X91957137Y-133677841D01*
X91973845Y-133815706D01*
X92035568Y-133950090D01*
X92144210Y-134068545D01*
X92186337Y-134099181D01*
X92298432Y-134143997D01*
X92438872Y-134162289D01*
X92575755Y-134152467D01*
X92662027Y-134122867D01*
X92755211Y-134048029D01*
X92802918Y-133947122D01*
X92815267Y-133821081D01*
X92810364Y-133790889D01*
X92603830Y-133790889D01*
X92558958Y-133879439D01*
X92557108Y-133882092D01*
X92475433Y-133947103D01*
X92369522Y-133950242D01*
X92297722Y-133921967D01*
X92217193Y-133845646D01*
X92185243Y-133743019D01*
X92208821Y-133639019D01*
X92215690Y-133627664D01*
X92293903Y-133560668D01*
X92392223Y-133552728D01*
X92496001Y-133603699D01*
X92526290Y-133630737D01*
X92593878Y-133715626D01*
X92603830Y-133790889D01*
X92810364Y-133790889D01*
X92786399Y-133643317D01*
X92702117Y-133500579D01*
X92569509Y-133399511D01*
X92395666Y-133346756D01*
X92302375Y-133340540D01*
X92158063Y-133367846D01*
G37*
X92158063Y-133367846D02*
X92051150Y-133441463D01*
X91983540Y-133548944D01*
X91957137Y-133677841D01*
X91973845Y-133815706D01*
X92035568Y-133950090D01*
X92144210Y-134068545D01*
X92186337Y-134099181D01*
X92298432Y-134143997D01*
X92438872Y-134162289D01*
X92575755Y-134152467D01*
X92662027Y-134122867D01*
X92755211Y-134048029D01*
X92802918Y-133947122D01*
X92815267Y-133821081D01*
X92810364Y-133790889D01*
X92603830Y-133790889D01*
X92558958Y-133879439D01*
X92557108Y-133882092D01*
X92475433Y-133947103D01*
X92369522Y-133950242D01*
X92297722Y-133921967D01*
X92217193Y-133845646D01*
X92185243Y-133743019D01*
X92208821Y-133639019D01*
X92215690Y-133627664D01*
X92293903Y-133560668D01*
X92392223Y-133552728D01*
X92496001Y-133603699D01*
X92526290Y-133630737D01*
X92593878Y-133715626D01*
X92603830Y-133790889D01*
X92810364Y-133790889D01*
X92786399Y-133643317D01*
X92702117Y-133500579D01*
X92569509Y-133399511D01*
X92395666Y-133346756D01*
X92302375Y-133340540D01*
X92158063Y-133367846D01*
G36*
X93160758Y-133348104D02*
G01*
X93036311Y-133389672D01*
X92936772Y-133466947D01*
X92873682Y-133577421D01*
X92858583Y-133718584D01*
X92864948Y-133765540D01*
X92928064Y-133930731D01*
X93042681Y-134057234D01*
X93199158Y-134137572D01*
X93379219Y-134164324D01*
X93516335Y-134147140D01*
X93620195Y-134089671D01*
X93624571Y-134085962D01*
X93703320Y-133976438D01*
X93736225Y-133836669D01*
X93731744Y-133793716D01*
X93498239Y-133793716D01*
X93480381Y-133888455D01*
X93465472Y-133910720D01*
X93392566Y-133950809D01*
X93296454Y-133945815D01*
X93201245Y-133900397D01*
X93150072Y-133849812D01*
X93101598Y-133743662D01*
X93109327Y-133650732D01*
X93160815Y-133583463D01*
X93243622Y-133554298D01*
X93345304Y-133575678D01*
X93394407Y-133605478D01*
X93467653Y-133691107D01*
X93498239Y-133793716D01*
X93731744Y-133793716D01*
X93720877Y-133689572D01*
X93676790Y-133589078D01*
X93568128Y-133462730D01*
X93438208Y-133382124D01*
X93298570Y-133344752D01*
X93160758Y-133348104D01*
G37*
X93160758Y-133348104D02*
X93036311Y-133389672D01*
X92936772Y-133466947D01*
X92873682Y-133577421D01*
X92858583Y-133718584D01*
X92864948Y-133765540D01*
X92928064Y-133930731D01*
X93042681Y-134057234D01*
X93199158Y-134137572D01*
X93379219Y-134164324D01*
X93516335Y-134147140D01*
X93620195Y-134089671D01*
X93624571Y-134085962D01*
X93703320Y-133976438D01*
X93736225Y-133836669D01*
X93731744Y-133793716D01*
X93498239Y-133793716D01*
X93480381Y-133888455D01*
X93465472Y-133910720D01*
X93392566Y-133950809D01*
X93296454Y-133945815D01*
X93201245Y-133900397D01*
X93150072Y-133849812D01*
X93101598Y-133743662D01*
X93109327Y-133650732D01*
X93160815Y-133583463D01*
X93243622Y-133554298D01*
X93345304Y-133575678D01*
X93394407Y-133605478D01*
X93467653Y-133691107D01*
X93498239Y-133793716D01*
X93731744Y-133793716D01*
X93720877Y-133689572D01*
X93676790Y-133589078D01*
X93568128Y-133462730D01*
X93438208Y-133382124D01*
X93298570Y-133344752D01*
X93160758Y-133348104D01*
G36*
X94059218Y-133378143D02*
G01*
X93975432Y-133392220D01*
X93915009Y-133423462D01*
X93868059Y-133465356D01*
X93791039Y-133586619D01*
X93773313Y-133726923D01*
X93814436Y-133871487D01*
X93883364Y-133973512D01*
X94017826Y-134083438D01*
X94190373Y-134145851D01*
X94391115Y-134164133D01*
X94483694Y-134161623D01*
X94524053Y-134145790D01*
X94528608Y-134104653D01*
X94522123Y-134068518D01*
X94508580Y-133990659D01*
X94495186Y-133904889D01*
X94264780Y-133904889D01*
X94244457Y-133955943D01*
X94187450Y-133954284D01*
X94116911Y-133921967D01*
X94036383Y-133845646D01*
X94004432Y-133743019D01*
X94028011Y-133639019D01*
X94034880Y-133627664D01*
X94091586Y-133572943D01*
X94157414Y-133547734D01*
X94209495Y-133556622D01*
X94225830Y-133589392D01*
X94232341Y-133647069D01*
X94246480Y-133743879D01*
X94254713Y-133795338D01*
X94264780Y-133904889D01*
X94495186Y-133904889D01*
X94489336Y-133867434D01*
X94467890Y-133721504D01*
X94461144Y-133673789D01*
X94419327Y-133374865D01*
X94188939Y-133374865D01*
X94059218Y-133378143D01*
G37*
X94059218Y-133378143D02*
X93975432Y-133392220D01*
X93915009Y-133423462D01*
X93868059Y-133465356D01*
X93791039Y-133586619D01*
X93773313Y-133726923D01*
X93814436Y-133871487D01*
X93883364Y-133973512D01*
X94017826Y-134083438D01*
X94190373Y-134145851D01*
X94391115Y-134164133D01*
X94483694Y-134161623D01*
X94524053Y-134145790D01*
X94528608Y-134104653D01*
X94522123Y-134068518D01*
X94508580Y-133990659D01*
X94495186Y-133904889D01*
X94264780Y-133904889D01*
X94244457Y-133955943D01*
X94187450Y-133954284D01*
X94116911Y-133921967D01*
X94036383Y-133845646D01*
X94004432Y-133743019D01*
X94028011Y-133639019D01*
X94034880Y-133627664D01*
X94091586Y-133572943D01*
X94157414Y-133547734D01*
X94209495Y-133556622D01*
X94225830Y-133589392D01*
X94232341Y-133647069D01*
X94246480Y-133743879D01*
X94254713Y-133795338D01*
X94264780Y-133904889D01*
X94495186Y-133904889D01*
X94489336Y-133867434D01*
X94467890Y-133721504D01*
X94461144Y-133673789D01*
X94419327Y-133374865D01*
X94188939Y-133374865D01*
X94059218Y-133378143D01*
G36*
X95336956Y-133383717D02*
G01*
X95283682Y-133419824D01*
X95256840Y-133467082D01*
X95214823Y-133559300D01*
X95139256Y-133464530D01*
X95072867Y-133399651D01*
X94996403Y-133378679D01*
X94934617Y-133380893D01*
X94805545Y-133392027D01*
X94966283Y-133575362D01*
X95066666Y-133702308D01*
X95127732Y-133817051D01*
X95164914Y-133948804D01*
X95165743Y-133952930D01*
X95191453Y-134064303D01*
X95218869Y-134124645D01*
X95258686Y-134150981D01*
X95294397Y-134157710D01*
X95367449Y-134156067D01*
X95401799Y-134139990D01*
X95406071Y-134092317D01*
X95397479Y-134002363D01*
X95387842Y-133943497D01*
X95373330Y-133842387D01*
X95379477Y-133764339D01*
X95412233Y-133680199D01*
X95459424Y-133592751D01*
X95513738Y-133493835D01*
X95551063Y-133420744D01*
X95562433Y-133392547D01*
X95532030Y-133381282D01*
X95456445Y-133375207D01*
X95430645Y-133374865D01*
X95336956Y-133383717D01*
G37*
X95336956Y-133383717D02*
X95283682Y-133419824D01*
X95256840Y-133467082D01*
X95214823Y-133559300D01*
X95139256Y-133464530D01*
X95072867Y-133399651D01*
X94996403Y-133378679D01*
X94934617Y-133380893D01*
X94805545Y-133392027D01*
X94966283Y-133575362D01*
X95066666Y-133702308D01*
X95127732Y-133817051D01*
X95164914Y-133948804D01*
X95165743Y-133952930D01*
X95191453Y-134064303D01*
X95218869Y-134124645D01*
X95258686Y-134150981D01*
X95294397Y-134157710D01*
X95367449Y-134156067D01*
X95401799Y-134139990D01*
X95406071Y-134092317D01*
X95397479Y-134002363D01*
X95387842Y-133943497D01*
X95373330Y-133842387D01*
X95379477Y-133764339D01*
X95412233Y-133680199D01*
X95459424Y-133592751D01*
X95513738Y-133493835D01*
X95551063Y-133420744D01*
X95562433Y-133392547D01*
X95532030Y-133381282D01*
X95456445Y-133375207D01*
X95430645Y-133374865D01*
X95336956Y-133383717D01*
G36*
X95677275Y-133658040D02*
G01*
X95687803Y-133806539D01*
X95695655Y-133942461D01*
X95699396Y-134040359D01*
X95699524Y-134052770D01*
X95706679Y-134129705D01*
X95740685Y-134159734D01*
X95800990Y-134164324D01*
X95858705Y-134160678D01*
X95890064Y-134138594D01*
X95904773Y-134081354D01*
X95912543Y-133972242D01*
X95912544Y-133972226D01*
X95922838Y-133780127D01*
X96027266Y-133963645D01*
X96089684Y-134060438D01*
X96146599Y-134126936D01*
X96180161Y-134147162D01*
X96217974Y-134114126D01*
X96257418Y-134019793D01*
X96279339Y-133941216D01*
X96330050Y-133735270D01*
X96393686Y-133949797D01*
X96430272Y-134065512D01*
X96461003Y-134129846D01*
X96497614Y-134157774D01*
X96551839Y-134164272D01*
X96561793Y-134164324D01*
X96632681Y-134158820D01*
X96653811Y-134128169D01*
X96642959Y-134058210D01*
X96621144Y-133976054D01*
X96583945Y-133852278D01*
X96538423Y-133710138D01*
X96525765Y-133672062D01*
X96479275Y-133536835D01*
X96444278Y-133453508D01*
X96410900Y-133408743D01*
X96369263Y-133389201D01*
X96310748Y-133381653D01*
X96234160Y-133379234D01*
X96195264Y-133401154D01*
X96175103Y-133465029D01*
X96166528Y-133515676D01*
X96143547Y-133633158D01*
X96117925Y-133683774D01*
X96081992Y-133669123D01*
X96028076Y-133590803D01*
X96004045Y-133549534D01*
X95943362Y-133450341D01*
X95894388Y-133397966D01*
X95838294Y-133377747D01*
X95779759Y-133374865D01*
X95655231Y-133374865D01*
X95677275Y-133658040D01*
G37*
X95677275Y-133658040D02*
X95687803Y-133806539D01*
X95695655Y-133942461D01*
X95699396Y-134040359D01*
X95699524Y-134052770D01*
X95706679Y-134129705D01*
X95740685Y-134159734D01*
X95800990Y-134164324D01*
X95858705Y-134160678D01*
X95890064Y-134138594D01*
X95904773Y-134081354D01*
X95912543Y-133972242D01*
X95912544Y-133972226D01*
X95922838Y-133780127D01*
X96027266Y-133963645D01*
X96089684Y-134060438D01*
X96146599Y-134126936D01*
X96180161Y-134147162D01*
X96217974Y-134114126D01*
X96257418Y-134019793D01*
X96279339Y-133941216D01*
X96330050Y-133735270D01*
X96393686Y-133949797D01*
X96430272Y-134065512D01*
X96461003Y-134129846D01*
X96497614Y-134157774D01*
X96551839Y-134164272D01*
X96561793Y-134164324D01*
X96632681Y-134158820D01*
X96653811Y-134128169D01*
X96642959Y-134058210D01*
X96621144Y-133976054D01*
X96583945Y-133852278D01*
X96538423Y-133710138D01*
X96525765Y-133672062D01*
X96479275Y-133536835D01*
X96444278Y-133453508D01*
X96410900Y-133408743D01*
X96369263Y-133389201D01*
X96310748Y-133381653D01*
X96234160Y-133379234D01*
X96195264Y-133401154D01*
X96175103Y-133465029D01*
X96166528Y-133515676D01*
X96143547Y-133633158D01*
X96117925Y-133683774D01*
X96081992Y-133669123D01*
X96028076Y-133590803D01*
X96004045Y-133549534D01*
X95943362Y-133450341D01*
X95894388Y-133397966D01*
X95838294Y-133377747D01*
X95779759Y-133374865D01*
X95655231Y-133374865D01*
X95677275Y-133658040D01*
G36*
X96861224Y-133367617D02*
G01*
X96736454Y-133441756D01*
X96658840Y-133552473D01*
X96633445Y-133689161D01*
X96665326Y-133841207D01*
X96731885Y-133961785D01*
X96857861Y-134084592D01*
X97021633Y-134150937D01*
X97159450Y-134164324D01*
X97275132Y-134154597D01*
X97358844Y-134116372D01*
X97418586Y-134063992D01*
X97495928Y-133944543D01*
X97516599Y-133813945D01*
X97277314Y-133813945D01*
X97250115Y-133902158D01*
X97237460Y-133917189D01*
X97155201Y-133955619D01*
X97054083Y-133941663D01*
X96955507Y-133878538D01*
X96951008Y-133874128D01*
X96885154Y-133774825D01*
X96875980Y-133681012D01*
X96911814Y-133604586D01*
X96980988Y-133557444D01*
X97071829Y-133551481D01*
X97172670Y-133598594D01*
X97199207Y-133621118D01*
X97259183Y-133711275D01*
X97277314Y-133813945D01*
X97516599Y-133813945D01*
X97517274Y-133809681D01*
X97489359Y-133671879D01*
X97418915Y-133543611D01*
X97312677Y-133437348D01*
X97177379Y-133365565D01*
X97028093Y-133340669D01*
X96861224Y-133367617D01*
G37*
X96861224Y-133367617D02*
X96736454Y-133441756D01*
X96658840Y-133552473D01*
X96633445Y-133689161D01*
X96665326Y-133841207D01*
X96731885Y-133961785D01*
X96857861Y-134084592D01*
X97021633Y-134150937D01*
X97159450Y-134164324D01*
X97275132Y-134154597D01*
X97358844Y-134116372D01*
X97418586Y-134063992D01*
X97495928Y-133944543D01*
X97516599Y-133813945D01*
X97277314Y-133813945D01*
X97250115Y-133902158D01*
X97237460Y-133917189D01*
X97155201Y-133955619D01*
X97054083Y-133941663D01*
X96955507Y-133878538D01*
X96951008Y-133874128D01*
X96885154Y-133774825D01*
X96875980Y-133681012D01*
X96911814Y-133604586D01*
X96980988Y-133557444D01*
X97071829Y-133551481D01*
X97172670Y-133598594D01*
X97199207Y-133621118D01*
X97259183Y-133711275D01*
X97277314Y-133813945D01*
X97516599Y-133813945D01*
X97517274Y-133809681D01*
X97489359Y-133671879D01*
X97418915Y-133543611D01*
X97312677Y-133437348D01*
X97177379Y-133365565D01*
X97028093Y-133340669D01*
X96861224Y-133367617D01*
G36*
X97823050Y-133348999D02*
G01*
X97685256Y-133413640D01*
X97649360Y-133445089D01*
X97585381Y-133517682D01*
X97558265Y-133584893D01*
X97557514Y-133678601D01*
X97560650Y-133714463D01*
X97606826Y-133899348D01*
X97702999Y-134038221D01*
X97845219Y-134127524D01*
X98029535Y-134163700D01*
X98060143Y-134164324D01*
X98178756Y-134156105D01*
X98260442Y-134124392D01*
X98320860Y-134073833D01*
X98400298Y-133950595D01*
X98422619Y-133819512D01*
X98195828Y-133819512D01*
X98148599Y-133895608D01*
X98056388Y-133951729D01*
X97944908Y-133945099D01*
X97897841Y-133924779D01*
X97841447Y-133869118D01*
X97800094Y-133790879D01*
X97787791Y-133681243D01*
X97825844Y-133600602D01*
X97899450Y-133556338D01*
X97993806Y-133555835D01*
X98094109Y-133606476D01*
X98121155Y-133630737D01*
X98191672Y-133728691D01*
X98195828Y-133819512D01*
X98422619Y-133819512D01*
X98424585Y-133807969D01*
X98397518Y-133661748D01*
X98322894Y-133527727D01*
X98204508Y-133421701D01*
X98157989Y-133396259D01*
X97984355Y-133342847D01*
X97823050Y-133348999D01*
G37*
X97823050Y-133348999D02*
X97685256Y-133413640D01*
X97649360Y-133445089D01*
X97585381Y-133517682D01*
X97558265Y-133584893D01*
X97557514Y-133678601D01*
X97560650Y-133714463D01*
X97606826Y-133899348D01*
X97702999Y-134038221D01*
X97845219Y-134127524D01*
X98029535Y-134163700D01*
X98060143Y-134164324D01*
X98178756Y-134156105D01*
X98260442Y-134124392D01*
X98320860Y-134073833D01*
X98400298Y-133950595D01*
X98422619Y-133819512D01*
X98195828Y-133819512D01*
X98148599Y-133895608D01*
X98056388Y-133951729D01*
X97944908Y-133945099D01*
X97897841Y-133924779D01*
X97841447Y-133869118D01*
X97800094Y-133790879D01*
X97787791Y-133681243D01*
X97825844Y-133600602D01*
X97899450Y-133556338D01*
X97993806Y-133555835D01*
X98094109Y-133606476D01*
X98121155Y-133630737D01*
X98191672Y-133728691D01*
X98195828Y-133819512D01*
X98422619Y-133819512D01*
X98424585Y-133807969D01*
X98397518Y-133661748D01*
X98322894Y-133527727D01*
X98204508Y-133421701D01*
X98157989Y-133396259D01*
X97984355Y-133342847D01*
X97823050Y-133348999D01*
G36*
X98744031Y-133379503D02*
G01*
X98655423Y-133397640D01*
X98586550Y-133435609D01*
X98559144Y-133457722D01*
X98495836Y-133525775D01*
X98469292Y-133603472D01*
X98466028Y-133693703D01*
X98500254Y-133863290D01*
X98590783Y-134000214D01*
X98730896Y-134099035D01*
X98913875Y-134154309D01*
X99047046Y-134164324D01*
X99141864Y-134161046D01*
X99186670Y-134143603D01*
X99200047Y-134100585D01*
X99200764Y-134069932D01*
X99194846Y-133992692D01*
X99179723Y-133875135D01*
X98953941Y-133875135D01*
X98952613Y-133933668D01*
X98933698Y-133954573D01*
X98892983Y-133953053D01*
X98889569Y-133952553D01*
X98815790Y-133917903D01*
X98745402Y-133850369D01*
X98744986Y-133849812D01*
X98697622Y-133746300D01*
X98703914Y-133650626D01*
X98759980Y-133580595D01*
X98808203Y-133560049D01*
X98876821Y-133548046D01*
X98906355Y-133550945D01*
X98916203Y-133589149D01*
X98930158Y-133675099D01*
X98941895Y-133763770D01*
X98953941Y-133875135D01*
X99179723Y-133875135D01*
X99179156Y-133870728D01*
X99156722Y-133726760D01*
X99149325Y-133683784D01*
X99126186Y-133551532D01*
X99108443Y-133448409D01*
X99098835Y-133390425D01*
X99097885Y-133383446D01*
X99066553Y-133379058D01*
X98984682Y-133375965D01*
X98876644Y-133374865D01*
X98744031Y-133379503D01*
G37*
X98744031Y-133379503D02*
X98655423Y-133397640D01*
X98586550Y-133435609D01*
X98559144Y-133457722D01*
X98495836Y-133525775D01*
X98469292Y-133603472D01*
X98466028Y-133693703D01*
X98500254Y-133863290D01*
X98590783Y-134000214D01*
X98730896Y-134099035D01*
X98913875Y-134154309D01*
X99047046Y-134164324D01*
X99141864Y-134161046D01*
X99186670Y-134143603D01*
X99200047Y-134100585D01*
X99200764Y-134069932D01*
X99194846Y-133992692D01*
X99179723Y-133875135D01*
X98953941Y-133875135D01*
X98952613Y-133933668D01*
X98933698Y-133954573D01*
X98892983Y-133953053D01*
X98889569Y-133952553D01*
X98815790Y-133917903D01*
X98745402Y-133850369D01*
X98744986Y-133849812D01*
X98697622Y-133746300D01*
X98703914Y-133650626D01*
X98759980Y-133580595D01*
X98808203Y-133560049D01*
X98876821Y-133548046D01*
X98906355Y-133550945D01*
X98916203Y-133589149D01*
X98930158Y-133675099D01*
X98941895Y-133763770D01*
X98953941Y-133875135D01*
X99179723Y-133875135D01*
X99179156Y-133870728D01*
X99156722Y-133726760D01*
X99149325Y-133683784D01*
X99126186Y-133551532D01*
X99108443Y-133448409D01*
X99098835Y-133390425D01*
X99097885Y-133383446D01*
X99066553Y-133379058D01*
X98984682Y-133375965D01*
X98876644Y-133374865D01*
X98744031Y-133379503D01*
G36*
X100038859Y-133384512D02*
G01*
X99981158Y-133422015D01*
X99955640Y-133461247D01*
X99909410Y-133547630D01*
X99819246Y-133461247D01*
X99701827Y-133388731D01*
X99619406Y-133374865D01*
X99537055Y-133383443D01*
X99515575Y-133413314D01*
X99553809Y-133470680D01*
X99594046Y-133510757D01*
X99740318Y-133683597D01*
X99837123Y-133874742D01*
X99868650Y-134001284D01*
X99885759Y-134099613D01*
X99910107Y-134147571D01*
X99955683Y-134163102D01*
X99995744Y-134164324D01*
X100099984Y-134164324D01*
X100076606Y-133962900D01*
X100066789Y-133845317D01*
X100074920Y-133757967D01*
X100107627Y-133670333D01*
X100162323Y-133568170D01*
X100271418Y-133374865D01*
X100136644Y-133374865D01*
X100038859Y-133384512D01*
G37*
X100038859Y-133384512D02*
X99981158Y-133422015D01*
X99955640Y-133461247D01*
X99909410Y-133547630D01*
X99819246Y-133461247D01*
X99701827Y-133388731D01*
X99619406Y-133374865D01*
X99537055Y-133383443D01*
X99515575Y-133413314D01*
X99553809Y-133470680D01*
X99594046Y-133510757D01*
X99740318Y-133683597D01*
X99837123Y-133874742D01*
X99868650Y-134001284D01*
X99885759Y-134099613D01*
X99910107Y-134147571D01*
X99955683Y-134163102D01*
X99995744Y-134164324D01*
X100099984Y-134164324D01*
X100076606Y-133962900D01*
X100066789Y-133845317D01*
X100074920Y-133757967D01*
X100107627Y-133670333D01*
X100162323Y-133568170D01*
X100271418Y-133374865D01*
X100136644Y-133374865D01*
X100038859Y-133384512D01*
G36*
X100652755Y-133381920D02*
G01*
X100499898Y-133397375D01*
X100407889Y-133431268D01*
X100370033Y-133489754D01*
X100379638Y-133578986D01*
X100393572Y-133620212D01*
X100416751Y-133717920D01*
X100399085Y-133773303D01*
X100377192Y-133835611D01*
X100373739Y-133926644D01*
X100374077Y-133930393D01*
X100416249Y-134035158D01*
X100516086Y-134110982D01*
X100667592Y-134154614D01*
X100805473Y-134164271D01*
X100910716Y-134161578D01*
X100964417Y-134148410D01*
X100983620Y-134117250D01*
X100985676Y-134084817D01*
X100979950Y-134007877D01*
X100969057Y-133922977D01*
X100745406Y-133922977D01*
X100732733Y-133981268D01*
X100689893Y-133984300D01*
X100623250Y-133943527D01*
X100579599Y-133897283D01*
X100594505Y-133855986D01*
X100597220Y-133853158D01*
X100659657Y-133827067D01*
X100717958Y-133853155D01*
X100745329Y-133918802D01*
X100745406Y-133922977D01*
X100969057Y-133922977D01*
X100965178Y-133892749D01*
X100950792Y-133801642D01*
X100928186Y-133668730D01*
X100918292Y-133609832D01*
X100703609Y-133609832D01*
X100693471Y-133643935D01*
X100657811Y-133644156D01*
X100597614Y-133611237D01*
X100581256Y-133586114D01*
X100591394Y-133552011D01*
X100627054Y-133551789D01*
X100687252Y-133584709D01*
X100703609Y-133609832D01*
X100918292Y-133609832D01*
X100907415Y-133545091D01*
X100897464Y-133484893D01*
X100879020Y-133371812D01*
X100652755Y-133381920D01*
G37*
X100652755Y-133381920D02*
X100499898Y-133397375D01*
X100407889Y-133431268D01*
X100370033Y-133489754D01*
X100379638Y-133578986D01*
X100393572Y-133620212D01*
X100416751Y-133717920D01*
X100399085Y-133773303D01*
X100377192Y-133835611D01*
X100373739Y-133926644D01*
X100374077Y-133930393D01*
X100416249Y-134035158D01*
X100516086Y-134110982D01*
X100667592Y-134154614D01*
X100805473Y-134164271D01*
X100910716Y-134161578D01*
X100964417Y-134148410D01*
X100983620Y-134117250D01*
X100985676Y-134084817D01*
X100979950Y-134007877D01*
X100969057Y-133922977D01*
X100745406Y-133922977D01*
X100732733Y-133981268D01*
X100689893Y-133984300D01*
X100623250Y-133943527D01*
X100579599Y-133897283D01*
X100594505Y-133855986D01*
X100597220Y-133853158D01*
X100659657Y-133827067D01*
X100717958Y-133853155D01*
X100745329Y-133918802D01*
X100745406Y-133922977D01*
X100969057Y-133922977D01*
X100965178Y-133892749D01*
X100950792Y-133801642D01*
X100928186Y-133668730D01*
X100918292Y-133609832D01*
X100703609Y-133609832D01*
X100693471Y-133643935D01*
X100657811Y-133644156D01*
X100597614Y-133611237D01*
X100581256Y-133586114D01*
X100591394Y-133552011D01*
X100627054Y-133551789D01*
X100687252Y-133584709D01*
X100703609Y-133609832D01*
X100918292Y-133609832D01*
X100907415Y-133545091D01*
X100897464Y-133484893D01*
X100879020Y-133371812D01*
X100652755Y-133381920D01*
G36*
X92245938Y-135534157D02*
G01*
X92235997Y-135615212D01*
X92232973Y-135708919D01*
X92232973Y-135914865D01*
X87882365Y-135915677D01*
X83531757Y-135916490D01*
X83102703Y-136566532D01*
X83102703Y-138283243D01*
X92662027Y-138283991D01*
X93637974Y-138472401D01*
X93888306Y-138520548D01*
X94116809Y-138564152D01*
X94314778Y-138601578D01*
X94473506Y-138631194D01*
X94584287Y-138651365D01*
X94638416Y-138660458D01*
X94641961Y-138660811D01*
X94657318Y-138629768D01*
X94667503Y-138549693D01*
X94670000Y-138472027D01*
X94670000Y-138283243D01*
X103663874Y-138283243D01*
X103654843Y-137107635D01*
X103648317Y-136258108D01*
X103285406Y-136258108D01*
X103285406Y-137940000D01*
X102839189Y-137940000D01*
X102839189Y-137219189D01*
X102633243Y-137219189D01*
X102633243Y-137940000D01*
X102187027Y-137940000D01*
X102187027Y-136258108D01*
X101981081Y-136258108D01*
X101981081Y-137577436D01*
X101623021Y-137940000D01*
X100848379Y-137940000D01*
X100848379Y-136258108D01*
X100676757Y-136258108D01*
X100676757Y-137940000D01*
X100196216Y-137940000D01*
X100196216Y-136670000D01*
X100024595Y-136670000D01*
X100024595Y-137940000D01*
X99544054Y-137940000D01*
X99544054Y-136670000D01*
X99372433Y-136670000D01*
X99372433Y-137940000D01*
X98891892Y-137940000D01*
X98891892Y-136258108D01*
X98720270Y-136258108D01*
X98720270Y-137940000D01*
X97950132Y-137940000D01*
X97587568Y-137581940D01*
X97587568Y-137081892D01*
X97841770Y-137081892D01*
X97714669Y-136951728D01*
X97652139Y-136884977D01*
X97614454Y-136828943D01*
X97595323Y-136763245D01*
X97588458Y-136667502D01*
X97587568Y-136539837D01*
X97587568Y-136258108D01*
X97415946Y-136258108D01*
X97415946Y-137940000D01*
X96386216Y-137940000D01*
X96386216Y-137528108D01*
X96935406Y-137528108D01*
X96935406Y-136258108D01*
X96214595Y-136258108D01*
X96214595Y-137940000D01*
X95081892Y-137940000D01*
X95081892Y-137528108D01*
X95734054Y-137528108D01*
X95734054Y-137373649D01*
X95731490Y-137278742D01*
X95714109Y-137233801D01*
X95667380Y-137220142D01*
X95613919Y-137219189D01*
X95537001Y-137215033D01*
X95502818Y-137189368D01*
X95494053Y-137122405D01*
X95493784Y-137081892D01*
X95497421Y-136993985D01*
X95519877Y-136954919D01*
X95578470Y-136944902D01*
X95613919Y-136944595D01*
X95690837Y-136940438D01*
X95725020Y-136914774D01*
X95733786Y-136847810D01*
X95734054Y-136807297D01*
X95734054Y-136670000D01*
X95081892Y-136670000D01*
X95081892Y-136261219D01*
X94841622Y-136261219D01*
X94841622Y-137343796D01*
X94609933Y-137410350D01*
X94378243Y-137476904D01*
X94368501Y-137845749D01*
X94360932Y-138025974D01*
X94348980Y-138143303D01*
X94331854Y-138203393D01*
X94317015Y-138214449D01*
X94269606Y-138208641D01*
X94168064Y-138192793D01*
X94025804Y-138169104D01*
X93856243Y-138139770D01*
X93794730Y-138128896D01*
X93613278Y-138096418D01*
X93449156Y-138066621D01*
X93317668Y-138042314D01*
X93234117Y-138026305D01*
X93221198Y-138023650D01*
X93174071Y-138010102D01*
X93145596Y-137984057D01*
X93130141Y-137930076D01*
X93122078Y-137832720D01*
X93118225Y-137741254D01*
X93108243Y-137478700D01*
X92867973Y-137406719D01*
X92627703Y-137334739D01*
X92618423Y-136623972D01*
X92613647Y-136258108D01*
X92370270Y-136258108D01*
X92370270Y-137940000D01*
X91634456Y-137940000D01*
X91271892Y-137581940D01*
X91271892Y-137081892D01*
X91526094Y-137081892D01*
X91398993Y-136951728D01*
X91336464Y-136884977D01*
X91298778Y-136828943D01*
X91279647Y-136763245D01*
X91272782Y-136667502D01*
X91271892Y-136539837D01*
X91271892Y-136258108D01*
X91065946Y-136258108D01*
X91065946Y-137940000D01*
X90619730Y-137940000D01*
X90619730Y-137219189D01*
X90413784Y-137219189D01*
X90413784Y-137940000D01*
X89933243Y-137940000D01*
X89933243Y-136840994D01*
X90121256Y-136549551D01*
X90309268Y-136258108D01*
X89761622Y-136258108D01*
X89761622Y-136601351D01*
X89431868Y-136601351D01*
X89277632Y-136602939D01*
X89181213Y-136608854D01*
X89131831Y-136620828D01*
X89118705Y-136640590D01*
X89121240Y-136651190D01*
X89146115Y-136695550D01*
X89202506Y-136785958D01*
X89283471Y-136911595D01*
X89382069Y-137061642D01*
X89450993Y-137165148D01*
X89568744Y-137342902D01*
X89652655Y-137475593D01*
X89708311Y-137574362D01*
X89741297Y-137650344D01*
X89757198Y-137714679D01*
X89761599Y-137778503D01*
X89761622Y-137784634D01*
X89761622Y-137940000D01*
X88625332Y-137940000D01*
X88635706Y-137759797D01*
X88646081Y-137579595D01*
X88963581Y-137569725D01*
X89101672Y-137563790D01*
X89209405Y-137556031D01*
X89271675Y-137547700D01*
X89281081Y-137543449D01*
X89262960Y-137510925D01*
X89212739Y-137431064D01*
X89136637Y-137313492D01*
X89040869Y-137167833D01*
X88955000Y-137038637D01*
X88833308Y-136854439D01*
X88745742Y-136715890D01*
X88686911Y-136612502D01*
X88651426Y-136533789D01*
X88633898Y-136469263D01*
X88628935Y-136408437D01*
X88628919Y-136404170D01*
X88628919Y-136258108D01*
X88457297Y-136258108D01*
X88457297Y-137577436D01*
X88099237Y-137940000D01*
X87324595Y-137940000D01*
X87324595Y-136620672D01*
X87682655Y-136258108D01*
X87152973Y-136258108D01*
X87152973Y-137577436D01*
X86794913Y-137940000D01*
X86020270Y-137940000D01*
X86020270Y-136620672D01*
X86199301Y-136439390D01*
X86378331Y-136258108D01*
X85848649Y-136258108D01*
X85848649Y-137940000D01*
X85368108Y-137940000D01*
X85368108Y-137253513D01*
X85196487Y-137253513D01*
X85196487Y-137940000D01*
X84713833Y-137940000D01*
X84723471Y-137519527D01*
X84733108Y-137099054D01*
X84845149Y-137088262D01*
X84957189Y-137077470D01*
X84836568Y-136930267D01*
X84774849Y-136850491D01*
X84738808Y-136783166D01*
X84721573Y-136704953D01*
X84716270Y-136592510D01*
X84715946Y-136520586D01*
X84715946Y-136258108D01*
X84544325Y-136258108D01*
X84544325Y-137940000D01*
X84063784Y-137940000D01*
X84063784Y-137219189D01*
X83892162Y-137219189D01*
X83892162Y-137940000D01*
X83411622Y-137940000D01*
X83411622Y-136828700D01*
X83591308Y-136543404D01*
X83770995Y-136258108D01*
X84544325Y-136258108D01*
X84715946Y-136258108D01*
X85196487Y-136258108D01*
X85196487Y-136526719D01*
X85198663Y-136666013D01*
X85208315Y-136755770D01*
X85230123Y-136815045D01*
X85268769Y-136862891D01*
X85282297Y-136875946D01*
X85368108Y-136956561D01*
X85368108Y-136258108D01*
X85848649Y-136258108D01*
X86378331Y-136258108D01*
X87152973Y-136258108D01*
X87682655Y-136258108D01*
X88457297Y-136258108D01*
X88628919Y-136258108D01*
X89761622Y-136258108D01*
X90309268Y-136258108D01*
X91065946Y-136258108D01*
X91271892Y-136258108D01*
X92370270Y-136258108D01*
X92613647Y-136258108D01*
X92609143Y-135913206D01*
X92687072Y-135931197D01*
X92740805Y-135940839D01*
X92852761Y-135958894D01*
X93013230Y-135983869D01*
X93212504Y-136014268D01*
X93440877Y-136048599D01*
X93688638Y-136085366D01*
X93691757Y-136085826D01*
X93941884Y-136122810D01*
X94174747Y-136157440D01*
X94380189Y-136188191D01*
X94548056Y-136213536D01*
X94668190Y-136231950D01*
X94730068Y-136241842D01*
X94841622Y-136261219D01*
X95081892Y-136261219D01*
X95081892Y-136258108D01*
X96214595Y-136258108D01*
X96935406Y-136258108D01*
X97415946Y-136258108D01*
X97587568Y-136258108D01*
X98720270Y-136258108D01*
X98891892Y-136258108D01*
X100676757Y-136258108D01*
X100848379Y-136258108D01*
X101328919Y-136258108D01*
X101328919Y-137528108D01*
X101534865Y-137528108D01*
X101534865Y-136258108D01*
X101981081Y-136258108D01*
X102187027Y-136258108D01*
X102633243Y-136258108D01*
X102633243Y-136944595D01*
X102839189Y-136944595D01*
X102839189Y-136258108D01*
X103285406Y-136258108D01*
X103648317Y-136258108D01*
X103645811Y-135932027D01*
X94790135Y-135897665D01*
X93538990Y-135700319D01*
X93253912Y-135655467D01*
X92990172Y-135614189D01*
X92755462Y-135577675D01*
X92557471Y-135547109D01*
X92403892Y-135523681D01*
X92302415Y-135508576D01*
X92260732Y-135502982D01*
X92260409Y-135502973D01*
X92245938Y-135534157D01*
G37*
X92245938Y-135534157D02*
X92235997Y-135615212D01*
X92232973Y-135708919D01*
X92232973Y-135914865D01*
X87882365Y-135915677D01*
X83531757Y-135916490D01*
X83102703Y-136566532D01*
X83102703Y-138283243D01*
X92662027Y-138283991D01*
X93637974Y-138472401D01*
X93888306Y-138520548D01*
X94116809Y-138564152D01*
X94314778Y-138601578D01*
X94473506Y-138631194D01*
X94584287Y-138651365D01*
X94638416Y-138660458D01*
X94641961Y-138660811D01*
X94657318Y-138629768D01*
X94667503Y-138549693D01*
X94670000Y-138472027D01*
X94670000Y-138283243D01*
X103663874Y-138283243D01*
X103654843Y-137107635D01*
X103648317Y-136258108D01*
X103285406Y-136258108D01*
X103285406Y-137940000D01*
X102839189Y-137940000D01*
X102839189Y-137219189D01*
X102633243Y-137219189D01*
X102633243Y-137940000D01*
X102187027Y-137940000D01*
X102187027Y-136258108D01*
X101981081Y-136258108D01*
X101981081Y-137577436D01*
X101623021Y-137940000D01*
X100848379Y-137940000D01*
X100848379Y-136258108D01*
X100676757Y-136258108D01*
X100676757Y-137940000D01*
X100196216Y-137940000D01*
X100196216Y-136670000D01*
X100024595Y-136670000D01*
X100024595Y-137940000D01*
X99544054Y-137940000D01*
X99544054Y-136670000D01*
X99372433Y-136670000D01*
X99372433Y-137940000D01*
X98891892Y-137940000D01*
X98891892Y-136258108D01*
X98720270Y-136258108D01*
X98720270Y-137940000D01*
X97950132Y-137940000D01*
X97587568Y-137581940D01*
X97587568Y-137081892D01*
X97841770Y-137081892D01*
X97714669Y-136951728D01*
X97652139Y-136884977D01*
X97614454Y-136828943D01*
X97595323Y-136763245D01*
X97588458Y-136667502D01*
X97587568Y-136539837D01*
X97587568Y-136258108D01*
X97415946Y-136258108D01*
X97415946Y-137940000D01*
X96386216Y-137940000D01*
X96386216Y-137528108D01*
X96935406Y-137528108D01*
X96935406Y-136258108D01*
X96214595Y-136258108D01*
X96214595Y-137940000D01*
X95081892Y-137940000D01*
X95081892Y-137528108D01*
X95734054Y-137528108D01*
X95734054Y-137373649D01*
X95731490Y-137278742D01*
X95714109Y-137233801D01*
X95667380Y-137220142D01*
X95613919Y-137219189D01*
X95537001Y-137215033D01*
X95502818Y-137189368D01*
X95494053Y-137122405D01*
X95493784Y-137081892D01*
X95497421Y-136993985D01*
X95519877Y-136954919D01*
X95578470Y-136944902D01*
X95613919Y-136944595D01*
X95690837Y-136940438D01*
X95725020Y-136914774D01*
X95733786Y-136847810D01*
X95734054Y-136807297D01*
X95734054Y-136670000D01*
X95081892Y-136670000D01*
X95081892Y-136261219D01*
X94841622Y-136261219D01*
X94841622Y-137343796D01*
X94609933Y-137410350D01*
X94378243Y-137476904D01*
X94368501Y-137845749D01*
X94360932Y-138025974D01*
X94348980Y-138143303D01*
X94331854Y-138203393D01*
X94317015Y-138214449D01*
X94269606Y-138208641D01*
X94168064Y-138192793D01*
X94025804Y-138169104D01*
X93856243Y-138139770D01*
X93794730Y-138128896D01*
X93613278Y-138096418D01*
X93449156Y-138066621D01*
X93317668Y-138042314D01*
X93234117Y-138026305D01*
X93221198Y-138023650D01*
X93174071Y-138010102D01*
X93145596Y-137984057D01*
X93130141Y-137930076D01*
X93122078Y-137832720D01*
X93118225Y-137741254D01*
X93108243Y-137478700D01*
X92867973Y-137406719D01*
X92627703Y-137334739D01*
X92618423Y-136623972D01*
X92613647Y-136258108D01*
X92370270Y-136258108D01*
X92370270Y-137940000D01*
X91634456Y-137940000D01*
X91271892Y-137581940D01*
X91271892Y-137081892D01*
X91526094Y-137081892D01*
X91398993Y-136951728D01*
X91336464Y-136884977D01*
X91298778Y-136828943D01*
X91279647Y-136763245D01*
X91272782Y-136667502D01*
X91271892Y-136539837D01*
X91271892Y-136258108D01*
X91065946Y-136258108D01*
X91065946Y-137940000D01*
X90619730Y-137940000D01*
X90619730Y-137219189D01*
X90413784Y-137219189D01*
X90413784Y-137940000D01*
X89933243Y-137940000D01*
X89933243Y-136840994D01*
X90121256Y-136549551D01*
X90309268Y-136258108D01*
X89761622Y-136258108D01*
X89761622Y-136601351D01*
X89431868Y-136601351D01*
X89277632Y-136602939D01*
X89181213Y-136608854D01*
X89131831Y-136620828D01*
X89118705Y-136640590D01*
X89121240Y-136651190D01*
X89146115Y-136695550D01*
X89202506Y-136785958D01*
X89283471Y-136911595D01*
X89382069Y-137061642D01*
X89450993Y-137165148D01*
X89568744Y-137342902D01*
X89652655Y-137475593D01*
X89708311Y-137574362D01*
X89741297Y-137650344D01*
X89757198Y-137714679D01*
X89761599Y-137778503D01*
X89761622Y-137784634D01*
X89761622Y-137940000D01*
X88625332Y-137940000D01*
X88635706Y-137759797D01*
X88646081Y-137579595D01*
X88963581Y-137569725D01*
X89101672Y-137563790D01*
X89209405Y-137556031D01*
X89271675Y-137547700D01*
X89281081Y-137543449D01*
X89262960Y-137510925D01*
X89212739Y-137431064D01*
X89136637Y-137313492D01*
X89040869Y-137167833D01*
X88955000Y-137038637D01*
X88833308Y-136854439D01*
X88745742Y-136715890D01*
X88686911Y-136612502D01*
X88651426Y-136533789D01*
X88633898Y-136469263D01*
X88628935Y-136408437D01*
X88628919Y-136404170D01*
X88628919Y-136258108D01*
X88457297Y-136258108D01*
X88457297Y-137577436D01*
X88099237Y-137940000D01*
X87324595Y-137940000D01*
X87324595Y-136620672D01*
X87682655Y-136258108D01*
X87152973Y-136258108D01*
X87152973Y-137577436D01*
X86794913Y-137940000D01*
X86020270Y-137940000D01*
X86020270Y-136620672D01*
X86199301Y-136439390D01*
X86378331Y-136258108D01*
X85848649Y-136258108D01*
X85848649Y-137940000D01*
X85368108Y-137940000D01*
X85368108Y-137253513D01*
X85196487Y-137253513D01*
X85196487Y-137940000D01*
X84713833Y-137940000D01*
X84723471Y-137519527D01*
X84733108Y-137099054D01*
X84845149Y-137088262D01*
X84957189Y-137077470D01*
X84836568Y-136930267D01*
X84774849Y-136850491D01*
X84738808Y-136783166D01*
X84721573Y-136704953D01*
X84716270Y-136592510D01*
X84715946Y-136520586D01*
X84715946Y-136258108D01*
X84544325Y-136258108D01*
X84544325Y-137940000D01*
X84063784Y-137940000D01*
X84063784Y-137219189D01*
X83892162Y-137219189D01*
X83892162Y-137940000D01*
X83411622Y-137940000D01*
X83411622Y-136828700D01*
X83591308Y-136543404D01*
X83770995Y-136258108D01*
X84544325Y-136258108D01*
X84715946Y-136258108D01*
X85196487Y-136258108D01*
X85196487Y-136526719D01*
X85198663Y-136666013D01*
X85208315Y-136755770D01*
X85230123Y-136815045D01*
X85268769Y-136862891D01*
X85282297Y-136875946D01*
X85368108Y-136956561D01*
X85368108Y-136258108D01*
X85848649Y-136258108D01*
X86378331Y-136258108D01*
X87152973Y-136258108D01*
X87682655Y-136258108D01*
X88457297Y-136258108D01*
X88628919Y-136258108D01*
X89761622Y-136258108D01*
X90309268Y-136258108D01*
X91065946Y-136258108D01*
X91271892Y-136258108D01*
X92370270Y-136258108D01*
X92613647Y-136258108D01*
X92609143Y-135913206D01*
X92687072Y-135931197D01*
X92740805Y-135940839D01*
X92852761Y-135958894D01*
X93013230Y-135983869D01*
X93212504Y-136014268D01*
X93440877Y-136048599D01*
X93688638Y-136085366D01*
X93691757Y-136085826D01*
X93941884Y-136122810D01*
X94174747Y-136157440D01*
X94380189Y-136188191D01*
X94548056Y-136213536D01*
X94668190Y-136231950D01*
X94730068Y-136241842D01*
X94841622Y-136261219D01*
X95081892Y-136261219D01*
X95081892Y-136258108D01*
X96214595Y-136258108D01*
X96935406Y-136258108D01*
X97415946Y-136258108D01*
X97587568Y-136258108D01*
X98720270Y-136258108D01*
X98891892Y-136258108D01*
X100676757Y-136258108D01*
X100848379Y-136258108D01*
X101328919Y-136258108D01*
X101328919Y-137528108D01*
X101534865Y-137528108D01*
X101534865Y-136258108D01*
X101981081Y-136258108D01*
X102187027Y-136258108D01*
X102633243Y-136258108D01*
X102633243Y-136944595D01*
X102839189Y-136944595D01*
X102839189Y-136258108D01*
X103285406Y-136258108D01*
X103648317Y-136258108D01*
X103645811Y-135932027D01*
X94790135Y-135897665D01*
X93538990Y-135700319D01*
X93253912Y-135655467D01*
X92990172Y-135614189D01*
X92755462Y-135577675D01*
X92557471Y-135547109D01*
X92403892Y-135523681D01*
X92302415Y-135508576D01*
X92260732Y-135502982D01*
X92260409Y-135502973D01*
X92245938Y-135534157D01*
G36*
X83102703Y-140136757D02*
G01*
X83274325Y-140136757D01*
X83274325Y-139753468D01*
X83275743Y-139602619D01*
X83279594Y-139482856D01*
X83285272Y-139407120D01*
X83291459Y-139387315D01*
X83305533Y-139425924D01*
X83330237Y-139516994D01*
X83361780Y-139645866D01*
X83388426Y-139762022D01*
X83424531Y-139920318D01*
X83452089Y-140023728D01*
X83477101Y-140084455D01*
X83505568Y-140114701D01*
X83543489Y-140126671D01*
X83569231Y-140129753D01*
X83670203Y-140139912D01*
X83755440Y-139752186D01*
X83840676Y-139364459D01*
X83860086Y-140136757D01*
X84063784Y-140136757D01*
X84063784Y-139038378D01*
X83892816Y-139038378D01*
X83819564Y-139037527D01*
X83769052Y-139042235D01*
X83734400Y-139063390D01*
X83708723Y-139111882D01*
X83685139Y-139198601D01*
X83656765Y-139334436D01*
X83633700Y-139448336D01*
X83607288Y-139571827D01*
X83585040Y-139665911D01*
X83571113Y-139713210D01*
X83569787Y-139715439D01*
X83558845Y-139689176D01*
X83538598Y-139609094D01*
X83512299Y-139488861D01*
X83492647Y-139391292D01*
X83427112Y-139055540D01*
X83264908Y-139045079D01*
X83102703Y-139034617D01*
X83102703Y-140136757D01*
G37*
X83102703Y-140136757D02*
X83274325Y-140136757D01*
X83274325Y-139753468D01*
X83275743Y-139602619D01*
X83279594Y-139482856D01*
X83285272Y-139407120D01*
X83291459Y-139387315D01*
X83305533Y-139425924D01*
X83330237Y-139516994D01*
X83361780Y-139645866D01*
X83388426Y-139762022D01*
X83424531Y-139920318D01*
X83452089Y-140023728D01*
X83477101Y-140084455D01*
X83505568Y-140114701D01*
X83543489Y-140126671D01*
X83569231Y-140129753D01*
X83670203Y-140139912D01*
X83755440Y-139752186D01*
X83840676Y-139364459D01*
X83860086Y-140136757D01*
X84063784Y-140136757D01*
X84063784Y-139038378D01*
X83892816Y-139038378D01*
X83819564Y-139037527D01*
X83769052Y-139042235D01*
X83734400Y-139063390D01*
X83708723Y-139111882D01*
X83685139Y-139198601D01*
X83656765Y-139334436D01*
X83633700Y-139448336D01*
X83607288Y-139571827D01*
X83585040Y-139665911D01*
X83571113Y-139713210D01*
X83569787Y-139715439D01*
X83558845Y-139689176D01*
X83538598Y-139609094D01*
X83512299Y-139488861D01*
X83492647Y-139391292D01*
X83427112Y-139055540D01*
X83264908Y-139045079D01*
X83102703Y-139034617D01*
X83102703Y-140136757D01*
G36*
X84543325Y-139027121D02*
G01*
X84435658Y-139099234D01*
X84364640Y-139224766D01*
X84326397Y-139408088D01*
X84325452Y-139417092D01*
X84317447Y-139612116D01*
X84331284Y-139795102D01*
X84364321Y-139948668D01*
X84413916Y-140055433D01*
X84424424Y-140068367D01*
X84503117Y-140113672D01*
X84621326Y-140137767D01*
X84753851Y-140140445D01*
X84875492Y-140121499D01*
X84961049Y-140080723D01*
X84969098Y-140072838D01*
X85040115Y-139949098D01*
X85082139Y-139771229D01*
X85093322Y-139587794D01*
X85093306Y-139587568D01*
X84836081Y-139587568D01*
X84834137Y-139741188D01*
X84826526Y-139841110D01*
X84810583Y-139902221D01*
X84783641Y-139939405D01*
X84771272Y-139949410D01*
X84690615Y-139980290D01*
X84625875Y-139946188D01*
X84579668Y-139849471D01*
X84561563Y-139759746D01*
X84547918Y-139574122D01*
X84559065Y-139417047D01*
X84591780Y-139296733D01*
X84642841Y-139221389D01*
X84709023Y-139199225D01*
X84771272Y-139225725D01*
X84802640Y-139258097D01*
X84822088Y-139309244D01*
X84832280Y-139394054D01*
X84835883Y-139527410D01*
X84836081Y-139587568D01*
X85093306Y-139587568D01*
X85076441Y-139361378D01*
X85025072Y-139192656D01*
X84937353Y-139078921D01*
X84811420Y-139017466D01*
X84691515Y-139004054D01*
X84543325Y-139027121D01*
G37*
X84543325Y-139027121D02*
X84435658Y-139099234D01*
X84364640Y-139224766D01*
X84326397Y-139408088D01*
X84325452Y-139417092D01*
X84317447Y-139612116D01*
X84331284Y-139795102D01*
X84364321Y-139948668D01*
X84413916Y-140055433D01*
X84424424Y-140068367D01*
X84503117Y-140113672D01*
X84621326Y-140137767D01*
X84753851Y-140140445D01*
X84875492Y-140121499D01*
X84961049Y-140080723D01*
X84969098Y-140072838D01*
X85040115Y-139949098D01*
X85082139Y-139771229D01*
X85093322Y-139587794D01*
X85093306Y-139587568D01*
X84836081Y-139587568D01*
X84834137Y-139741188D01*
X84826526Y-139841110D01*
X84810583Y-139902221D01*
X84783641Y-139939405D01*
X84771272Y-139949410D01*
X84690615Y-139980290D01*
X84625875Y-139946188D01*
X84579668Y-139849471D01*
X84561563Y-139759746D01*
X84547918Y-139574122D01*
X84559065Y-139417047D01*
X84591780Y-139296733D01*
X84642841Y-139221389D01*
X84709023Y-139199225D01*
X84771272Y-139225725D01*
X84802640Y-139258097D01*
X84822088Y-139309244D01*
X84832280Y-139394054D01*
X84835883Y-139527410D01*
X84836081Y-139587568D01*
X85093306Y-139587568D01*
X85076441Y-139361378D01*
X85025072Y-139192656D01*
X84937353Y-139078921D01*
X84811420Y-139017466D01*
X84691515Y-139004054D01*
X84543325Y-139027121D01*
G36*
X85510165Y-139027509D02*
G01*
X85403696Y-139100220D01*
X85338509Y-139225709D01*
X85335309Y-139236755D01*
X85308805Y-139339743D01*
X85308538Y-139393005D01*
X85342300Y-139412939D01*
X85417883Y-139415946D01*
X85420453Y-139415946D01*
X85504198Y-139408412D01*
X85544337Y-139374187D01*
X85561602Y-139315167D01*
X85598804Y-139223291D01*
X85659234Y-139194890D01*
X85733759Y-139226753D01*
X85764536Y-139259255D01*
X85783611Y-139311760D01*
X85793573Y-139399013D01*
X85797014Y-139535759D01*
X85797162Y-139587568D01*
X85795388Y-139740085D01*
X85788159Y-139839200D01*
X85772614Y-139900111D01*
X85745893Y-139938015D01*
X85728514Y-139952312D01*
X85673624Y-139982595D01*
X85631491Y-139964453D01*
X85599797Y-139928581D01*
X85553823Y-139842548D01*
X85539730Y-139772549D01*
X85530034Y-139716946D01*
X85487651Y-139694213D01*
X85419595Y-139690540D01*
X85338056Y-139697238D01*
X85304738Y-139726216D01*
X85299460Y-139771229D01*
X85315968Y-139890380D01*
X85358110Y-140004092D01*
X85414811Y-140085852D01*
X85438111Y-140103157D01*
X85532680Y-140131085D01*
X85655747Y-140139124D01*
X85781605Y-140128859D01*
X85884550Y-140101873D01*
X85930179Y-140072838D01*
X86001196Y-139949098D01*
X86043220Y-139771229D01*
X86054403Y-139587794D01*
X86036854Y-139359823D01*
X85983920Y-139189580D01*
X85894384Y-139075255D01*
X85767034Y-139015038D01*
X85662874Y-139004054D01*
X85510165Y-139027509D01*
G37*
X85510165Y-139027509D02*
X85403696Y-139100220D01*
X85338509Y-139225709D01*
X85335309Y-139236755D01*
X85308805Y-139339743D01*
X85308538Y-139393005D01*
X85342300Y-139412939D01*
X85417883Y-139415946D01*
X85420453Y-139415946D01*
X85504198Y-139408412D01*
X85544337Y-139374187D01*
X85561602Y-139315167D01*
X85598804Y-139223291D01*
X85659234Y-139194890D01*
X85733759Y-139226753D01*
X85764536Y-139259255D01*
X85783611Y-139311760D01*
X85793573Y-139399013D01*
X85797014Y-139535759D01*
X85797162Y-139587568D01*
X85795388Y-139740085D01*
X85788159Y-139839200D01*
X85772614Y-139900111D01*
X85745893Y-139938015D01*
X85728514Y-139952312D01*
X85673624Y-139982595D01*
X85631491Y-139964453D01*
X85599797Y-139928581D01*
X85553823Y-139842548D01*
X85539730Y-139772549D01*
X85530034Y-139716946D01*
X85487651Y-139694213D01*
X85419595Y-139690540D01*
X85338056Y-139697238D01*
X85304738Y-139726216D01*
X85299460Y-139771229D01*
X85315968Y-139890380D01*
X85358110Y-140004092D01*
X85414811Y-140085852D01*
X85438111Y-140103157D01*
X85532680Y-140131085D01*
X85655747Y-140139124D01*
X85781605Y-140128859D01*
X85884550Y-140101873D01*
X85930179Y-140072838D01*
X86001196Y-139949098D01*
X86043220Y-139771229D01*
X86054403Y-139587794D01*
X86036854Y-139359823D01*
X85983920Y-139189580D01*
X85894384Y-139075255D01*
X85767034Y-139015038D01*
X85662874Y-139004054D01*
X85510165Y-139027509D01*
G36*
X86334482Y-139901800D02*
G01*
X86301461Y-139931778D01*
X86294880Y-140007477D01*
X86294865Y-140016622D01*
X86300179Y-140097140D01*
X86330157Y-140130161D01*
X86405856Y-140136742D01*
X86415000Y-140136757D01*
X86495519Y-140131443D01*
X86528540Y-140101465D01*
X86535120Y-140025766D01*
X86535135Y-140016622D01*
X86529822Y-139936103D01*
X86499844Y-139903082D01*
X86424144Y-139896501D01*
X86415000Y-139896486D01*
X86334482Y-139901800D01*
G37*
X86334482Y-139901800D02*
X86301461Y-139931778D01*
X86294880Y-140007477D01*
X86294865Y-140016622D01*
X86300179Y-140097140D01*
X86330157Y-140130161D01*
X86405856Y-140136742D01*
X86415000Y-140136757D01*
X86495519Y-140131443D01*
X86528540Y-140101465D01*
X86535120Y-140025766D01*
X86535135Y-140016622D01*
X86529822Y-139936103D01*
X86499844Y-139903082D01*
X86424144Y-139896501D01*
X86415000Y-139896486D01*
X86334482Y-139901800D01*
G36*
X87154948Y-139045481D02*
G01*
X87064963Y-139054293D01*
X87014669Y-139077322D01*
X86984687Y-139132476D01*
X86958338Y-139227162D01*
X86930519Y-139333574D01*
X86890784Y-139483303D01*
X86845236Y-139653423D01*
X86814405Y-139767770D01*
X86714597Y-140136757D01*
X86844154Y-140136757D01*
X86930376Y-140131094D01*
X86972267Y-140101396D01*
X86993962Y-140028599D01*
X86996249Y-140016622D01*
X87016848Y-139938215D01*
X87054441Y-139904368D01*
X87132869Y-139896558D01*
X87150856Y-139896486D01*
X87255420Y-139911194D01*
X87309078Y-139963854D01*
X87324586Y-140067275D01*
X87324595Y-140070915D01*
X87336798Y-140113753D01*
X87385051Y-140132943D01*
X87465564Y-140136757D01*
X87559734Y-140129263D01*
X87592356Y-140105503D01*
X87590598Y-140093851D01*
X87576659Y-140047024D01*
X87548825Y-139946462D01*
X87510541Y-139804854D01*
X87483971Y-139705133D01*
X87241291Y-139705133D01*
X87197820Y-139723987D01*
X87170789Y-139724865D01*
X87104459Y-139710264D01*
X87084629Y-139655800D01*
X87084516Y-139647635D01*
X87094153Y-139564675D01*
X87117752Y-139457116D01*
X87124378Y-139433108D01*
X87164048Y-139295811D01*
X87192688Y-139433108D01*
X87215911Y-139542246D01*
X87236389Y-139635008D01*
X87239291Y-139647635D01*
X87241291Y-139705133D01*
X87483971Y-139705133D01*
X87465254Y-139634887D01*
X87441048Y-139543184D01*
X87307433Y-139035422D01*
X87154948Y-139045481D01*
G37*
X87154948Y-139045481D02*
X87064963Y-139054293D01*
X87014669Y-139077322D01*
X86984687Y-139132476D01*
X86958338Y-139227162D01*
X86930519Y-139333574D01*
X86890784Y-139483303D01*
X86845236Y-139653423D01*
X86814405Y-139767770D01*
X86714597Y-140136757D01*
X86844154Y-140136757D01*
X86930376Y-140131094D01*
X86972267Y-140101396D01*
X86993962Y-140028599D01*
X86996249Y-140016622D01*
X87016848Y-139938215D01*
X87054441Y-139904368D01*
X87132869Y-139896558D01*
X87150856Y-139896486D01*
X87255420Y-139911194D01*
X87309078Y-139963854D01*
X87324586Y-140067275D01*
X87324595Y-140070915D01*
X87336798Y-140113753D01*
X87385051Y-140132943D01*
X87465564Y-140136757D01*
X87559734Y-140129263D01*
X87592356Y-140105503D01*
X87590598Y-140093851D01*
X87576659Y-140047024D01*
X87548825Y-139946462D01*
X87510541Y-139804854D01*
X87483971Y-139705133D01*
X87241291Y-139705133D01*
X87197820Y-139723987D01*
X87170789Y-139724865D01*
X87104459Y-139710264D01*
X87084629Y-139655800D01*
X87084516Y-139647635D01*
X87094153Y-139564675D01*
X87117752Y-139457116D01*
X87124378Y-139433108D01*
X87164048Y-139295811D01*
X87192688Y-139433108D01*
X87215911Y-139542246D01*
X87236389Y-139635008D01*
X87239291Y-139647635D01*
X87241291Y-139705133D01*
X87483971Y-139705133D01*
X87465254Y-139634887D01*
X87441048Y-139543184D01*
X87307433Y-139035422D01*
X87154948Y-139045481D01*
G36*
X88234189Y-139433108D02*
G01*
X88105900Y-139235743D01*
X88033606Y-139129880D01*
X87979186Y-139070403D01*
X87926176Y-139044255D01*
X87858111Y-139038379D01*
X87857048Y-139038378D01*
X87777427Y-139042891D01*
X87737552Y-139053992D01*
X87736487Y-139056382D01*
X87753530Y-139092064D01*
X87798535Y-139169714D01*
X87862314Y-139273568D01*
X87872578Y-139289871D01*
X88008670Y-139505357D01*
X87856418Y-139795314D01*
X87790548Y-139923113D01*
X87738800Y-140027986D01*
X87708303Y-140095245D01*
X87703165Y-140111013D01*
X87732853Y-140127440D01*
X87807875Y-140136272D01*
X87833148Y-140136757D01*
X87905015Y-140133187D01*
X87953834Y-140113102D01*
X87995301Y-140062443D01*
X88045113Y-139967146D01*
X88062214Y-139931552D01*
X88129263Y-139812118D01*
X88183102Y-139759835D01*
X88222293Y-139774417D01*
X88245404Y-139855578D01*
X88251352Y-139969338D01*
X88251352Y-140136757D01*
X88491622Y-140136757D01*
X88491622Y-139038378D01*
X88254777Y-139038378D01*
X88234189Y-139433108D01*
G37*
X88234189Y-139433108D02*
X88105900Y-139235743D01*
X88033606Y-139129880D01*
X87979186Y-139070403D01*
X87926176Y-139044255D01*
X87858111Y-139038379D01*
X87857048Y-139038378D01*
X87777427Y-139042891D01*
X87737552Y-139053992D01*
X87736487Y-139056382D01*
X87753530Y-139092064D01*
X87798535Y-139169714D01*
X87862314Y-139273568D01*
X87872578Y-139289871D01*
X88008670Y-139505357D01*
X87856418Y-139795314D01*
X87790548Y-139923113D01*
X87738800Y-140027986D01*
X87708303Y-140095245D01*
X87703165Y-140111013D01*
X87732853Y-140127440D01*
X87807875Y-140136272D01*
X87833148Y-140136757D01*
X87905015Y-140133187D01*
X87953834Y-140113102D01*
X87995301Y-140062443D01*
X88045113Y-139967146D01*
X88062214Y-139931552D01*
X88129263Y-139812118D01*
X88183102Y-139759835D01*
X88222293Y-139774417D01*
X88245404Y-139855578D01*
X88251352Y-139969338D01*
X88251352Y-140136757D01*
X88491622Y-140136757D01*
X88491622Y-139038378D01*
X88254777Y-139038378D01*
X88234189Y-139433108D01*
G36*
X89006765Y-139017564D02*
G01*
X88886249Y-139068248D01*
X88796320Y-139158857D01*
X88769938Y-139214079D01*
X88749515Y-139312466D01*
X88737086Y-139452297D01*
X88732862Y-139610108D01*
X88737057Y-139762435D01*
X88749885Y-139885815D01*
X88763342Y-139940412D01*
X88819318Y-140045926D01*
X88898816Y-140107143D01*
X89018422Y-140133585D01*
X89105351Y-140136757D01*
X89223771Y-140129547D01*
X89319729Y-140110989D01*
X89358786Y-140093851D01*
X89412328Y-140030413D01*
X89451157Y-139954319D01*
X89472059Y-139855229D01*
X89483485Y-139712350D01*
X89485092Y-139583154D01*
X89246757Y-139583154D01*
X89241962Y-139755105D01*
X89225173Y-139868947D01*
X89192788Y-139934707D01*
X89141203Y-139962410D01*
X89109460Y-139965135D01*
X89037388Y-139942235D01*
X89013352Y-139923946D01*
X88988031Y-139862646D01*
X88973525Y-139754281D01*
X88969364Y-139619503D01*
X88975076Y-139478961D01*
X88990191Y-139353305D01*
X89014238Y-139263186D01*
X89028969Y-139238446D01*
X89091136Y-139184542D01*
X89143643Y-139188482D01*
X89192819Y-139229614D01*
X89221280Y-139277699D01*
X89238295Y-139361034D01*
X89245876Y-139492799D01*
X89246757Y-139583154D01*
X89485092Y-139583154D01*
X89485507Y-139549875D01*
X89478196Y-139391997D01*
X89461622Y-139262910D01*
X89448982Y-139214079D01*
X89378978Y-139105063D01*
X89270416Y-139035972D01*
X89140583Y-139006805D01*
X89006765Y-139017564D01*
G37*
X89006765Y-139017564D02*
X88886249Y-139068248D01*
X88796320Y-139158857D01*
X88769938Y-139214079D01*
X88749515Y-139312466D01*
X88737086Y-139452297D01*
X88732862Y-139610108D01*
X88737057Y-139762435D01*
X88749885Y-139885815D01*
X88763342Y-139940412D01*
X88819318Y-140045926D01*
X88898816Y-140107143D01*
X89018422Y-140133585D01*
X89105351Y-140136757D01*
X89223771Y-140129547D01*
X89319729Y-140110989D01*
X89358786Y-140093851D01*
X89412328Y-140030413D01*
X89451157Y-139954319D01*
X89472059Y-139855229D01*
X89483485Y-139712350D01*
X89485092Y-139583154D01*
X89246757Y-139583154D01*
X89241962Y-139755105D01*
X89225173Y-139868947D01*
X89192788Y-139934707D01*
X89141203Y-139962410D01*
X89109460Y-139965135D01*
X89037388Y-139942235D01*
X89013352Y-139923946D01*
X88988031Y-139862646D01*
X88973525Y-139754281D01*
X88969364Y-139619503D01*
X88975076Y-139478961D01*
X88990191Y-139353305D01*
X89014238Y-139263186D01*
X89028969Y-139238446D01*
X89091136Y-139184542D01*
X89143643Y-139188482D01*
X89192819Y-139229614D01*
X89221280Y-139277699D01*
X89238295Y-139361034D01*
X89245876Y-139492799D01*
X89246757Y-139583154D01*
X89485092Y-139583154D01*
X89485507Y-139549875D01*
X89478196Y-139391997D01*
X89461622Y-139262910D01*
X89448982Y-139214079D01*
X89378978Y-139105063D01*
X89270416Y-139035972D01*
X89140583Y-139006805D01*
X89006765Y-139017564D01*
G36*
X89998439Y-139019145D02*
G01*
X89870218Y-139075390D01*
X89779779Y-139169734D01*
X89768304Y-139191879D01*
X89746431Y-139279600D01*
X89733126Y-139413343D01*
X89728477Y-139571008D01*
X89732573Y-139730492D01*
X89745501Y-139869696D01*
X89765232Y-139960738D01*
X89809818Y-140046543D01*
X89864718Y-140102482D01*
X89865949Y-140103157D01*
X89955598Y-140129185D01*
X90076421Y-140137985D01*
X90202671Y-140130758D01*
X90308603Y-140108709D01*
X90362720Y-140079944D01*
X90420752Y-140003568D01*
X90457636Y-139904030D01*
X90476988Y-139766281D01*
X90482077Y-139593966D01*
X90242922Y-139593966D01*
X90239257Y-139734430D01*
X90223645Y-139848997D01*
X90206630Y-139898743D01*
X90150737Y-139948993D01*
X90075185Y-139963342D01*
X90009548Y-139940152D01*
X89988402Y-139910841D01*
X89978724Y-139852619D01*
X89971437Y-139745935D01*
X89967776Y-139610967D01*
X89967568Y-139570050D01*
X89971485Y-139410958D01*
X89984632Y-139306924D01*
X90009105Y-139244727D01*
X90021506Y-139229614D01*
X90086024Y-139182083D01*
X90139226Y-139194287D01*
X90188730Y-139251962D01*
X90217009Y-139329256D01*
X90235290Y-139451083D01*
X90242922Y-139593966D01*
X90482077Y-139593966D01*
X90482433Y-139581939D01*
X90469447Y-139361252D01*
X90429294Y-139199320D01*
X90360181Y-139091110D01*
X90290380Y-139043134D01*
X90144980Y-139006545D01*
X89998439Y-139019145D01*
G37*
X89998439Y-139019145D02*
X89870218Y-139075390D01*
X89779779Y-139169734D01*
X89768304Y-139191879D01*
X89746431Y-139279600D01*
X89733126Y-139413343D01*
X89728477Y-139571008D01*
X89732573Y-139730492D01*
X89745501Y-139869696D01*
X89765232Y-139960738D01*
X89809818Y-140046543D01*
X89864718Y-140102482D01*
X89865949Y-140103157D01*
X89955598Y-140129185D01*
X90076421Y-140137985D01*
X90202671Y-140130758D01*
X90308603Y-140108709D01*
X90362720Y-140079944D01*
X90420752Y-140003568D01*
X90457636Y-139904030D01*
X90476988Y-139766281D01*
X90482077Y-139593966D01*
X90242922Y-139593966D01*
X90239257Y-139734430D01*
X90223645Y-139848997D01*
X90206630Y-139898743D01*
X90150737Y-139948993D01*
X90075185Y-139963342D01*
X90009548Y-139940152D01*
X89988402Y-139910841D01*
X89978724Y-139852619D01*
X89971437Y-139745935D01*
X89967776Y-139610967D01*
X89967568Y-139570050D01*
X89971485Y-139410958D01*
X89984632Y-139306924D01*
X90009105Y-139244727D01*
X90021506Y-139229614D01*
X90086024Y-139182083D01*
X90139226Y-139194287D01*
X90188730Y-139251962D01*
X90217009Y-139329256D01*
X90235290Y-139451083D01*
X90242922Y-139593966D01*
X90482077Y-139593966D01*
X90482433Y-139581939D01*
X90469447Y-139361252D01*
X90429294Y-139199320D01*
X90360181Y-139091110D01*
X90290380Y-139043134D01*
X90144980Y-139006545D01*
X89998439Y-139019145D01*
G36*
X90863302Y-139039172D02*
G01*
X90767966Y-139043578D01*
X90715624Y-139054637D01*
X90693451Y-139075388D01*
X90688621Y-139108872D01*
X90688600Y-139115608D01*
X90704674Y-139174824D01*
X90748268Y-139278870D01*
X90812717Y-139413046D01*
X90890905Y-139561824D01*
X91092988Y-139930811D01*
X90890683Y-139930811D01*
X90777954Y-139932231D01*
X90717547Y-139942031D01*
X90693139Y-139968520D01*
X90688402Y-140020009D01*
X90688379Y-140033784D01*
X90688379Y-140136757D01*
X91374865Y-140136757D01*
X91374865Y-140049745D01*
X91359109Y-139985537D01*
X91316347Y-139877330D01*
X91253339Y-139740898D01*
X91186081Y-139609212D01*
X91111890Y-139468430D01*
X91051408Y-139350143D01*
X91011077Y-139267195D01*
X90997297Y-139232845D01*
X91028184Y-139219810D01*
X91107151Y-139211539D01*
X91168919Y-139210000D01*
X91270775Y-139207218D01*
X91321588Y-139193019D01*
X91338915Y-139158627D01*
X91340541Y-139124189D01*
X91338276Y-139084436D01*
X91322910Y-139059365D01*
X91281584Y-139045591D01*
X91201439Y-139039730D01*
X91069616Y-139038400D01*
X91014460Y-139038378D01*
X90863302Y-139039172D01*
G37*
X90863302Y-139039172D02*
X90767966Y-139043578D01*
X90715624Y-139054637D01*
X90693451Y-139075388D01*
X90688621Y-139108872D01*
X90688600Y-139115608D01*
X90704674Y-139174824D01*
X90748268Y-139278870D01*
X90812717Y-139413046D01*
X90890905Y-139561824D01*
X91092988Y-139930811D01*
X90890683Y-139930811D01*
X90777954Y-139932231D01*
X90717547Y-139942031D01*
X90693139Y-139968520D01*
X90688402Y-140020009D01*
X90688379Y-140033784D01*
X90688379Y-140136757D01*
X91374865Y-140136757D01*
X91374865Y-140049745D01*
X91359109Y-139985537D01*
X91316347Y-139877330D01*
X91253339Y-139740898D01*
X91186081Y-139609212D01*
X91111890Y-139468430D01*
X91051408Y-139350143D01*
X91011077Y-139267195D01*
X90997297Y-139232845D01*
X91028184Y-139219810D01*
X91107151Y-139211539D01*
X91168919Y-139210000D01*
X91270775Y-139207218D01*
X91321588Y-139193019D01*
X91338915Y-139158627D01*
X91340541Y-139124189D01*
X91338276Y-139084436D01*
X91322910Y-139059365D01*
X91281584Y-139045591D01*
X91201439Y-139039730D01*
X91069616Y-139038400D01*
X91014460Y-139038378D01*
X90863302Y-139039172D01*
G36*
X91878473Y-139043306D02*
G01*
X91828592Y-139068029D01*
X91798762Y-139127455D01*
X91791459Y-139149932D01*
X91762289Y-139248728D01*
X91724936Y-139383265D01*
X91683292Y-139538498D01*
X91641250Y-139699384D01*
X91602703Y-139850880D01*
X91571542Y-139977942D01*
X91551660Y-140065526D01*
X91546487Y-140096695D01*
X91576967Y-140124040D01*
X91653833Y-140136595D01*
X91665066Y-140136757D01*
X91745660Y-140129893D01*
X91784945Y-140095562D01*
X91806516Y-140014851D01*
X91825261Y-139937912D01*
X91857565Y-139904874D01*
X91926063Y-139900377D01*
X91970947Y-139903297D01*
X92062702Y-139915460D01*
X92107773Y-139944476D01*
X92128113Y-140005987D01*
X92129990Y-140016622D01*
X92150247Y-140085387D01*
X92194754Y-140117699D01*
X92279061Y-140130428D01*
X92363380Y-140133083D01*
X92395593Y-140117288D01*
X92392198Y-140078942D01*
X92377248Y-140024593D01*
X92348662Y-139917443D01*
X92310051Y-139771136D01*
X92292395Y-139703759D01*
X92053363Y-139703759D01*
X92013122Y-139723372D01*
X91975364Y-139724865D01*
X91919811Y-139721352D01*
X91895709Y-139698917D01*
X91895495Y-139639715D01*
X91906256Y-139561824D01*
X91931577Y-139425254D01*
X91956598Y-139354341D01*
X91980581Y-139349996D01*
X92002785Y-139413128D01*
X92007536Y-139437143D01*
X92028405Y-139545774D01*
X92047954Y-139637836D01*
X92050254Y-139647635D01*
X92053363Y-139703759D01*
X92292395Y-139703759D01*
X92265025Y-139599316D01*
X92246287Y-139527500D01*
X92118830Y-139038378D01*
X91972617Y-139038378D01*
X91878473Y-139043306D01*
G37*
X91878473Y-139043306D02*
X91828592Y-139068029D01*
X91798762Y-139127455D01*
X91791459Y-139149932D01*
X91762289Y-139248728D01*
X91724936Y-139383265D01*
X91683292Y-139538498D01*
X91641250Y-139699384D01*
X91602703Y-139850880D01*
X91571542Y-139977942D01*
X91551660Y-140065526D01*
X91546487Y-140096695D01*
X91576967Y-140124040D01*
X91653833Y-140136595D01*
X91665066Y-140136757D01*
X91745660Y-140129893D01*
X91784945Y-140095562D01*
X91806516Y-140014851D01*
X91825261Y-139937912D01*
X91857565Y-139904874D01*
X91926063Y-139900377D01*
X91970947Y-139903297D01*
X92062702Y-139915460D01*
X92107773Y-139944476D01*
X92128113Y-140005987D01*
X92129990Y-140016622D01*
X92150247Y-140085387D01*
X92194754Y-140117699D01*
X92279061Y-140130428D01*
X92363380Y-140133083D01*
X92395593Y-140117288D01*
X92392198Y-140078942D01*
X92377248Y-140024593D01*
X92348662Y-139917443D01*
X92310051Y-139771136D01*
X92292395Y-139703759D01*
X92053363Y-139703759D01*
X92013122Y-139723372D01*
X91975364Y-139724865D01*
X91919811Y-139721352D01*
X91895709Y-139698917D01*
X91895495Y-139639715D01*
X91906256Y-139561824D01*
X91931577Y-139425254D01*
X91956598Y-139354341D01*
X91980581Y-139349996D01*
X92002785Y-139413128D01*
X92007536Y-139437143D01*
X92028405Y-139545774D01*
X92047954Y-139637836D01*
X92050254Y-139647635D01*
X92053363Y-139703759D01*
X92292395Y-139703759D01*
X92265025Y-139599316D01*
X92246287Y-139527500D01*
X92118830Y-139038378D01*
X91972617Y-139038378D01*
X91878473Y-139043306D01*
G36*
X92899085Y-139039862D02*
G01*
X92807386Y-139047211D01*
X92749662Y-139064774D01*
X92708584Y-139096900D01*
X92681681Y-139128818D01*
X92620286Y-139254795D01*
X92621840Y-139386161D01*
X92664182Y-139477254D01*
X92698896Y-139537952D01*
X92689175Y-139579740D01*
X92664233Y-139607427D01*
X92596343Y-139719617D01*
X92582179Y-139851552D01*
X92620713Y-139981573D01*
X92686077Y-140067158D01*
X92735384Y-140102783D01*
X92800660Y-140123985D01*
X92899536Y-140134173D01*
X93046067Y-140136757D01*
X93331352Y-140136757D01*
X93331352Y-139810676D01*
X93091081Y-139810676D01*
X93087158Y-139906345D01*
X93069357Y-139951565D01*
X93028634Y-139964363D01*
X93013852Y-139964609D01*
X92930159Y-139951313D01*
X92889426Y-139934189D01*
X92854165Y-139880297D01*
X92842230Y-139810676D01*
X92866662Y-139715245D01*
X92941437Y-139665506D01*
X93013852Y-139656742D01*
X93061700Y-139664263D01*
X93084370Y-139699710D01*
X93090908Y-139781111D01*
X93091081Y-139810676D01*
X93331352Y-139810676D01*
X93331352Y-139345643D01*
X93091081Y-139345643D01*
X93091081Y-139347297D01*
X93078504Y-139446529D01*
X93036067Y-139485535D01*
X92956715Y-139468445D01*
X92917203Y-139449063D01*
X92859387Y-139389778D01*
X92854572Y-139317871D01*
X92895047Y-139252762D01*
X92973100Y-139213869D01*
X93012135Y-139210000D01*
X93063206Y-139218748D01*
X93085885Y-139257639D01*
X93091081Y-139345643D01*
X93331352Y-139345643D01*
X93331352Y-139038378D01*
X93042086Y-139038378D01*
X92899085Y-139039862D01*
G37*
X92899085Y-139039862D02*
X92807386Y-139047211D01*
X92749662Y-139064774D01*
X92708584Y-139096900D01*
X92681681Y-139128818D01*
X92620286Y-139254795D01*
X92621840Y-139386161D01*
X92664182Y-139477254D01*
X92698896Y-139537952D01*
X92689175Y-139579740D01*
X92664233Y-139607427D01*
X92596343Y-139719617D01*
X92582179Y-139851552D01*
X92620713Y-139981573D01*
X92686077Y-140067158D01*
X92735384Y-140102783D01*
X92800660Y-140123985D01*
X92899536Y-140134173D01*
X93046067Y-140136757D01*
X93331352Y-140136757D01*
X93331352Y-139810676D01*
X93091081Y-139810676D01*
X93087158Y-139906345D01*
X93069357Y-139951565D01*
X93028634Y-139964363D01*
X93013852Y-139964609D01*
X92930159Y-139951313D01*
X92889426Y-139934189D01*
X92854165Y-139880297D01*
X92842230Y-139810676D01*
X92866662Y-139715245D01*
X92941437Y-139665506D01*
X93013852Y-139656742D01*
X93061700Y-139664263D01*
X93084370Y-139699710D01*
X93090908Y-139781111D01*
X93091081Y-139810676D01*
X93331352Y-139810676D01*
X93331352Y-139345643D01*
X93091081Y-139345643D01*
X93091081Y-139347297D01*
X93078504Y-139446529D01*
X93036067Y-139485535D01*
X92956715Y-139468445D01*
X92917203Y-139449063D01*
X92859387Y-139389778D01*
X92854572Y-139317871D01*
X92895047Y-139252762D01*
X92973100Y-139213869D01*
X93012135Y-139210000D01*
X93063206Y-139218748D01*
X93085885Y-139257639D01*
X93091081Y-139345643D01*
X93331352Y-139345643D01*
X93331352Y-139038378D01*
X93042086Y-139038378D01*
X92899085Y-139039862D01*
G36*
X93734304Y-139039062D02*
G01*
X93643506Y-139043558D01*
X93594935Y-139055536D01*
X93575382Y-139078667D01*
X93571637Y-139116619D01*
X93571622Y-139124189D01*
X93576522Y-139173335D01*
X93602423Y-139198924D01*
X93666123Y-139208594D01*
X93760406Y-139210000D01*
X93949189Y-139210000D01*
X93949189Y-139484595D01*
X93760406Y-139484595D01*
X93652285Y-139486822D01*
X93595988Y-139498595D01*
X93574715Y-139527550D01*
X93571622Y-139570405D01*
X93576522Y-139619551D01*
X93602423Y-139645141D01*
X93666123Y-139654810D01*
X93760406Y-139656216D01*
X93949189Y-139656216D01*
X93949189Y-139930811D01*
X93537297Y-139930811D01*
X93537297Y-140136757D01*
X94189460Y-140136757D01*
X94189460Y-139038378D01*
X93880541Y-139038378D01*
X93734304Y-139039062D01*
G37*
X93734304Y-139039062D02*
X93643506Y-139043558D01*
X93594935Y-139055536D01*
X93575382Y-139078667D01*
X93571637Y-139116619D01*
X93571622Y-139124189D01*
X93576522Y-139173335D01*
X93602423Y-139198924D01*
X93666123Y-139208594D01*
X93760406Y-139210000D01*
X93949189Y-139210000D01*
X93949189Y-139484595D01*
X93760406Y-139484595D01*
X93652285Y-139486822D01*
X93595988Y-139498595D01*
X93574715Y-139527550D01*
X93571622Y-139570405D01*
X93576522Y-139619551D01*
X93602423Y-139645141D01*
X93666123Y-139654810D01*
X93760406Y-139656216D01*
X93949189Y-139656216D01*
X93949189Y-139930811D01*
X93537297Y-139930811D01*
X93537297Y-140136757D01*
X94189460Y-140136757D01*
X94189460Y-139038378D01*
X93880541Y-139038378D01*
X93734304Y-139039062D01*
G36*
X94807297Y-139927385D02*
G01*
X94609933Y-139937679D01*
X94498341Y-139945785D01*
X94437952Y-139961028D01*
X94411339Y-139992168D01*
X94401707Y-140042365D01*
X94390846Y-140136757D01*
X95047568Y-140136757D01*
X95047568Y-139038378D01*
X94807297Y-139038378D01*
X94807297Y-139927385D01*
G37*
X94807297Y-139927385D02*
X94609933Y-139937679D01*
X94498341Y-139945785D01*
X94437952Y-139961028D01*
X94411339Y-139992168D01*
X94401707Y-140042365D01*
X94390846Y-140136757D01*
X95047568Y-140136757D01*
X95047568Y-139038378D01*
X94807297Y-139038378D01*
X94807297Y-139927385D01*
G36*
X95610706Y-139039862D02*
G01*
X95519008Y-139047211D01*
X95461284Y-139064774D01*
X95420205Y-139096900D01*
X95393302Y-139128818D01*
X95331991Y-139254525D01*
X95333194Y-139385585D01*
X95375148Y-139476319D01*
X95406469Y-139532310D01*
X95400626Y-139581047D01*
X95353996Y-139652245D01*
X95353633Y-139652735D01*
X95301880Y-139747715D01*
X95297593Y-139848364D01*
X95302228Y-139876617D01*
X95336341Y-139991302D01*
X95395425Y-140067943D01*
X95491087Y-140113171D01*
X95634934Y-140133616D01*
X95757689Y-140136757D01*
X96042973Y-140136757D01*
X96042973Y-139810676D01*
X95802703Y-139810676D01*
X95791038Y-139917831D01*
X95749840Y-139966071D01*
X95669803Y-139962083D01*
X95616726Y-139944301D01*
X95576395Y-139897182D01*
X95561686Y-139817081D01*
X95572597Y-139734704D01*
X95609130Y-139680757D01*
X95616726Y-139677051D01*
X95718003Y-139651044D01*
X95776112Y-139674156D01*
X95800358Y-139753072D01*
X95802703Y-139810676D01*
X96042973Y-139810676D01*
X96042973Y-139347297D01*
X95802703Y-139347297D01*
X95796715Y-139437502D01*
X95773095Y-139477269D01*
X95736506Y-139484595D01*
X95658775Y-139461279D01*
X95616371Y-139430656D01*
X95569377Y-139348997D01*
X95582343Y-139274313D01*
X95647242Y-139223095D01*
X95723757Y-139210000D01*
X95774828Y-139218748D01*
X95797507Y-139257639D01*
X95802702Y-139345643D01*
X95802703Y-139347297D01*
X96042973Y-139347297D01*
X96042973Y-139038378D01*
X95753708Y-139038378D01*
X95610706Y-139039862D01*
G37*
X95610706Y-139039862D02*
X95519008Y-139047211D01*
X95461284Y-139064774D01*
X95420205Y-139096900D01*
X95393302Y-139128818D01*
X95331991Y-139254525D01*
X95333194Y-139385585D01*
X95375148Y-139476319D01*
X95406469Y-139532310D01*
X95400626Y-139581047D01*
X95353996Y-139652245D01*
X95353633Y-139652735D01*
X95301880Y-139747715D01*
X95297593Y-139848364D01*
X95302228Y-139876617D01*
X95336341Y-139991302D01*
X95395425Y-140067943D01*
X95491087Y-140113171D01*
X95634934Y-140133616D01*
X95757689Y-140136757D01*
X96042973Y-140136757D01*
X96042973Y-139810676D01*
X95802703Y-139810676D01*
X95791038Y-139917831D01*
X95749840Y-139966071D01*
X95669803Y-139962083D01*
X95616726Y-139944301D01*
X95576395Y-139897182D01*
X95561686Y-139817081D01*
X95572597Y-139734704D01*
X95609130Y-139680757D01*
X95616726Y-139677051D01*
X95718003Y-139651044D01*
X95776112Y-139674156D01*
X95800358Y-139753072D01*
X95802703Y-139810676D01*
X96042973Y-139810676D01*
X96042973Y-139347297D01*
X95802703Y-139347297D01*
X95796715Y-139437502D01*
X95773095Y-139477269D01*
X95736506Y-139484595D01*
X95658775Y-139461279D01*
X95616371Y-139430656D01*
X95569377Y-139348997D01*
X95582343Y-139274313D01*
X95647242Y-139223095D01*
X95723757Y-139210000D01*
X95774828Y-139218748D01*
X95797507Y-139257639D01*
X95802702Y-139345643D01*
X95802703Y-139347297D01*
X96042973Y-139347297D01*
X96042973Y-139038378D01*
X95753708Y-139038378D01*
X95610706Y-139039862D01*
G36*
X96883923Y-139381600D02*
G01*
X96856460Y-139522802D01*
X96832068Y-139632857D01*
X96813909Y-139698337D01*
X96806480Y-139710354D01*
X96795233Y-139686604D01*
X96779032Y-139628306D01*
X96755782Y-139526479D01*
X96723385Y-139372141D01*
X96695691Y-139235743D01*
X96655944Y-139038378D01*
X96317568Y-139038378D01*
X96317568Y-140136757D01*
X96521265Y-140136757D01*
X96530971Y-139750608D01*
X96540676Y-139364459D01*
X96623197Y-139750608D01*
X96659168Y-139916196D01*
X96686310Y-140026045D01*
X96709943Y-140091589D01*
X96735382Y-140124265D01*
X96767945Y-140135509D01*
X96802746Y-140136757D01*
X96843413Y-140136649D01*
X96873055Y-140129333D01*
X96896471Y-140104316D01*
X96918458Y-140051108D01*
X96943816Y-139959217D01*
X96977344Y-139818153D01*
X97006852Y-139690540D01*
X97066475Y-139433108D01*
X97069589Y-139784932D01*
X97072703Y-140136757D01*
X97312973Y-140136757D01*
X97312973Y-139038378D01*
X96946898Y-139038378D01*
X96883923Y-139381600D01*
G37*
X96883923Y-139381600D02*
X96856460Y-139522802D01*
X96832068Y-139632857D01*
X96813909Y-139698337D01*
X96806480Y-139710354D01*
X96795233Y-139686604D01*
X96779032Y-139628306D01*
X96755782Y-139526479D01*
X96723385Y-139372141D01*
X96695691Y-139235743D01*
X96655944Y-139038378D01*
X96317568Y-139038378D01*
X96317568Y-140136757D01*
X96521265Y-140136757D01*
X96530971Y-139750608D01*
X96540676Y-139364459D01*
X96623197Y-139750608D01*
X96659168Y-139916196D01*
X96686310Y-140026045D01*
X96709943Y-140091589D01*
X96735382Y-140124265D01*
X96767945Y-140135509D01*
X96802746Y-140136757D01*
X96843413Y-140136649D01*
X96873055Y-140129333D01*
X96896471Y-140104316D01*
X96918458Y-140051108D01*
X96943816Y-139959217D01*
X96977344Y-139818153D01*
X97006852Y-139690540D01*
X97066475Y-139433108D01*
X97069589Y-139784932D01*
X97072703Y-140136757D01*
X97312973Y-140136757D01*
X97312973Y-139038378D01*
X96946898Y-139038378D01*
X96883923Y-139381600D01*
G36*
X98033784Y-139483387D02*
G01*
X98032948Y-139667064D01*
X98029347Y-139793946D01*
X98021339Y-139875879D01*
X98007282Y-139924707D01*
X97985534Y-139952275D01*
X97967166Y-139964048D01*
X97908955Y-139979162D01*
X97860314Y-139941318D01*
X97847031Y-139923294D01*
X97822214Y-139870069D01*
X97805929Y-139786671D01*
X97796833Y-139661032D01*
X97793582Y-139481083D01*
X97793514Y-139442633D01*
X97793514Y-139038378D01*
X97553243Y-139038378D01*
X97553243Y-139445148D01*
X97558285Y-139683021D01*
X97574499Y-139860677D01*
X97603524Y-139985886D01*
X97646995Y-140066414D01*
X97691895Y-140103157D01*
X97760596Y-140122069D01*
X97868926Y-140134257D01*
X97945717Y-140136757D01*
X98075878Y-140129131D01*
X98160469Y-140102417D01*
X98205406Y-140068108D01*
X98232898Y-140034734D01*
X98251939Y-139990944D01*
X98264051Y-139924564D01*
X98270755Y-139823419D01*
X98273574Y-139675333D01*
X98274054Y-139518919D01*
X98274054Y-139038378D01*
X98033784Y-139038378D01*
X98033784Y-139483387D01*
G37*
X98033784Y-139483387D02*
X98032948Y-139667064D01*
X98029347Y-139793946D01*
X98021339Y-139875879D01*
X98007282Y-139924707D01*
X97985534Y-139952275D01*
X97967166Y-139964048D01*
X97908955Y-139979162D01*
X97860314Y-139941318D01*
X97847031Y-139923294D01*
X97822214Y-139870069D01*
X97805929Y-139786671D01*
X97796833Y-139661032D01*
X97793582Y-139481083D01*
X97793514Y-139442633D01*
X97793514Y-139038378D01*
X97553243Y-139038378D01*
X97553243Y-139445148D01*
X97558285Y-139683021D01*
X97574499Y-139860677D01*
X97603524Y-139985886D01*
X97646995Y-140066414D01*
X97691895Y-140103157D01*
X97760596Y-140122069D01*
X97868926Y-140134257D01*
X97945717Y-140136757D01*
X98075878Y-140129131D01*
X98160469Y-140102417D01*
X98205406Y-140068108D01*
X98232898Y-140034734D01*
X98251939Y-139990944D01*
X98264051Y-139924564D01*
X98270755Y-139823419D01*
X98273574Y-139675333D01*
X98274054Y-139518919D01*
X98274054Y-139038378D01*
X98033784Y-139038378D01*
X98033784Y-139483387D01*
G36*
X99029189Y-139450270D02*
G01*
X98788919Y-139450270D01*
X98788919Y-139038378D01*
X98548649Y-139038378D01*
X98548649Y-140136757D01*
X98788919Y-140136757D01*
X98788919Y-139656216D01*
X99029189Y-139656216D01*
X99029189Y-140136757D01*
X99269460Y-140136757D01*
X99269460Y-139038378D01*
X99029189Y-139038378D01*
X99029189Y-139450270D01*
G37*
X99029189Y-139450270D02*
X98788919Y-139450270D01*
X98788919Y-139038378D01*
X98548649Y-139038378D01*
X98548649Y-140136757D01*
X98788919Y-140136757D01*
X98788919Y-139656216D01*
X99029189Y-139656216D01*
X99029189Y-140136757D01*
X99269460Y-140136757D01*
X99269460Y-139038378D01*
X99029189Y-139038378D01*
X99029189Y-139450270D01*
G36*
X99577844Y-139903183D02*
G01*
X99549467Y-139937152D01*
X99544054Y-140016622D01*
X99549795Y-140097336D01*
X99578911Y-140130441D01*
X99647027Y-140136757D01*
X99716211Y-140130060D01*
X99744587Y-140096091D01*
X99750000Y-140016622D01*
X99744260Y-139935907D01*
X99715144Y-139902802D01*
X99647027Y-139896486D01*
X99577844Y-139903183D01*
G37*
X99577844Y-139903183D02*
X99549467Y-139937152D01*
X99544054Y-140016622D01*
X99549795Y-140097336D01*
X99578911Y-140130441D01*
X99647027Y-140136757D01*
X99716211Y-140130060D01*
X99744587Y-140096091D01*
X99750000Y-140016622D01*
X99744260Y-139935907D01*
X99715144Y-139902802D01*
X99647027Y-139896486D01*
X99577844Y-139903183D01*
G36*
X100441598Y-139045161D02*
G01*
X100318578Y-139055540D01*
X100264195Y-139398784D01*
X100238815Y-139550239D01*
X100219736Y-139639988D01*
X100204880Y-139674464D01*
X100192168Y-139660095D01*
X100186512Y-139639054D01*
X100170628Y-139559086D01*
X100150287Y-139443964D01*
X100128958Y-139315126D01*
X100110108Y-139194013D01*
X100097208Y-139102065D01*
X100093503Y-139064122D01*
X100063108Y-139047134D01*
X99988668Y-139038611D01*
X99972454Y-139038378D01*
X99892743Y-139043528D01*
X99864396Y-139067428D01*
X99868774Y-139115608D01*
X99881457Y-139179412D01*
X99902878Y-139293901D01*
X99929911Y-139442147D01*
X99955946Y-139587568D01*
X99991964Y-139791812D01*
X100018870Y-139938243D01*
X100040792Y-140036405D01*
X100061855Y-140095846D01*
X100086186Y-140126110D01*
X100117909Y-140136745D01*
X100161152Y-140137296D01*
X100193315Y-140136757D01*
X100326403Y-140136757D01*
X100369366Y-139836419D01*
X100391266Y-139698688D01*
X100413077Y-139587255D01*
X100431241Y-139519430D01*
X100436866Y-139508176D01*
X100451374Y-139527444D01*
X100470667Y-139601828D01*
X100491780Y-139718235D01*
X100504849Y-139808514D01*
X100548294Y-140136757D01*
X100682251Y-140136757D01*
X100774454Y-140126561D01*
X100826937Y-140100533D01*
X100830646Y-140093851D01*
X100841028Y-140048130D01*
X100860430Y-139950383D01*
X100886129Y-139815496D01*
X100915401Y-139658351D01*
X100945520Y-139493832D01*
X100973764Y-139336824D01*
X100997407Y-139202208D01*
X101013726Y-139104870D01*
X101019996Y-139059692D01*
X101020000Y-139059343D01*
X100989868Y-139045275D01*
X100916132Y-139038490D01*
X100904200Y-139038378D01*
X100788401Y-139038378D01*
X100743631Y-139364459D01*
X100722314Y-139504113D01*
X100701481Y-139613880D01*
X100684155Y-139679015D01*
X100676757Y-139690540D01*
X100662972Y-139658921D01*
X100643863Y-139573864D01*
X100622440Y-139450074D01*
X100609636Y-139362661D01*
X100564619Y-139034781D01*
X100441598Y-139045161D01*
G37*
X100441598Y-139045161D02*
X100318578Y-139055540D01*
X100264195Y-139398784D01*
X100238815Y-139550239D01*
X100219736Y-139639988D01*
X100204880Y-139674464D01*
X100192168Y-139660095D01*
X100186512Y-139639054D01*
X100170628Y-139559086D01*
X100150287Y-139443964D01*
X100128958Y-139315126D01*
X100110108Y-139194013D01*
X100097208Y-139102065D01*
X100093503Y-139064122D01*
X100063108Y-139047134D01*
X99988668Y-139038611D01*
X99972454Y-139038378D01*
X99892743Y-139043528D01*
X99864396Y-139067428D01*
X99868774Y-139115608D01*
X99881457Y-139179412D01*
X99902878Y-139293901D01*
X99929911Y-139442147D01*
X99955946Y-139587568D01*
X99991964Y-139791812D01*
X100018870Y-139938243D01*
X100040792Y-140036405D01*
X100061855Y-140095846D01*
X100086186Y-140126110D01*
X100117909Y-140136745D01*
X100161152Y-140137296D01*
X100193315Y-140136757D01*
X100326403Y-140136757D01*
X100369366Y-139836419D01*
X100391266Y-139698688D01*
X100413077Y-139587255D01*
X100431241Y-139519430D01*
X100436866Y-139508176D01*
X100451374Y-139527444D01*
X100470667Y-139601828D01*
X100491780Y-139718235D01*
X100504849Y-139808514D01*
X100548294Y-140136757D01*
X100682251Y-140136757D01*
X100774454Y-140126561D01*
X100826937Y-140100533D01*
X100830646Y-140093851D01*
X100841028Y-140048130D01*
X100860430Y-139950383D01*
X100886129Y-139815496D01*
X100915401Y-139658351D01*
X100945520Y-139493832D01*
X100973764Y-139336824D01*
X100997407Y-139202208D01*
X101013726Y-139104870D01*
X101019996Y-139059692D01*
X101020000Y-139059343D01*
X100989868Y-139045275D01*
X100916132Y-139038490D01*
X100904200Y-139038378D01*
X100788401Y-139038378D01*
X100743631Y-139364459D01*
X100722314Y-139504113D01*
X100701481Y-139613880D01*
X100684155Y-139679015D01*
X100676757Y-139690540D01*
X100662972Y-139658921D01*
X100643863Y-139573864D01*
X100622440Y-139450074D01*
X100609636Y-139362661D01*
X100564619Y-139034781D01*
X100441598Y-139045161D01*
G36*
X102047738Y-139384047D02*
G01*
X102027416Y-139522372D01*
X102007015Y-139625319D01*
X101989257Y-139680941D01*
X101979294Y-139684384D01*
X101963533Y-139631414D01*
X101942415Y-139528964D01*
X101919612Y-139395611D01*
X101910978Y-139338716D01*
X101867055Y-139038378D01*
X101753100Y-139038378D01*
X101701765Y-139039348D01*
X101665132Y-139049436D01*
X101638479Y-139079412D01*
X101617086Y-139140048D01*
X101596230Y-139242113D01*
X101571188Y-139396377D01*
X101557467Y-139484595D01*
X101512084Y-139776351D01*
X101486671Y-139621892D01*
X101466544Y-139499642D01*
X101441877Y-139349908D01*
X101425889Y-139252905D01*
X101390521Y-139038378D01*
X101271596Y-139038378D01*
X101192380Y-139044665D01*
X101166145Y-139069435D01*
X101170049Y-139098446D01*
X101183585Y-139157945D01*
X101205008Y-139265975D01*
X101230586Y-139403406D01*
X101242048Y-139467432D01*
X101271625Y-139632178D01*
X101301738Y-139795776D01*
X101326993Y-139929014D01*
X101332390Y-139956554D01*
X101368110Y-140136757D01*
X101502974Y-140136757D01*
X101588108Y-140130946D01*
X101634882Y-140116461D01*
X101637969Y-140111013D01*
X101643567Y-140057299D01*
X101657969Y-139959985D01*
X101677977Y-139837486D01*
X101700394Y-139708216D01*
X101722021Y-139590589D01*
X101739660Y-139503020D01*
X101750115Y-139463924D01*
X101750399Y-139463565D01*
X101760219Y-139489312D01*
X101775946Y-139569580D01*
X101795143Y-139690750D01*
X101809440Y-139793365D01*
X101854890Y-140136757D01*
X101987711Y-140136757D01*
X102079194Y-140126500D01*
X102131357Y-140100407D01*
X102134971Y-140093851D01*
X102145352Y-140048130D01*
X102164754Y-139950383D01*
X102190453Y-139815496D01*
X102219725Y-139658351D01*
X102249845Y-139493832D01*
X102278088Y-139336824D01*
X102301732Y-139202208D01*
X102318050Y-139104870D01*
X102324320Y-139059692D01*
X102324325Y-139059343D01*
X102294184Y-139045297D01*
X102220389Y-139038496D01*
X102208057Y-139038378D01*
X102091790Y-139038378D01*
X102047738Y-139384047D01*
G37*
X102047738Y-139384047D02*
X102027416Y-139522372D01*
X102007015Y-139625319D01*
X101989257Y-139680941D01*
X101979294Y-139684384D01*
X101963533Y-139631414D01*
X101942415Y-139528964D01*
X101919612Y-139395611D01*
X101910978Y-139338716D01*
X101867055Y-139038378D01*
X101753100Y-139038378D01*
X101701765Y-139039348D01*
X101665132Y-139049436D01*
X101638479Y-139079412D01*
X101617086Y-139140048D01*
X101596230Y-139242113D01*
X101571188Y-139396377D01*
X101557467Y-139484595D01*
X101512084Y-139776351D01*
X101486671Y-139621892D01*
X101466544Y-139499642D01*
X101441877Y-139349908D01*
X101425889Y-139252905D01*
X101390521Y-139038378D01*
X101271596Y-139038378D01*
X101192380Y-139044665D01*
X101166145Y-139069435D01*
X101170049Y-139098446D01*
X101183585Y-139157945D01*
X101205008Y-139265975D01*
X101230586Y-139403406D01*
X101242048Y-139467432D01*
X101271625Y-139632178D01*
X101301738Y-139795776D01*
X101326993Y-139929014D01*
X101332390Y-139956554D01*
X101368110Y-140136757D01*
X101502974Y-140136757D01*
X101588108Y-140130946D01*
X101634882Y-140116461D01*
X101637969Y-140111013D01*
X101643567Y-140057299D01*
X101657969Y-139959985D01*
X101677977Y-139837486D01*
X101700394Y-139708216D01*
X101722021Y-139590589D01*
X101739660Y-139503020D01*
X101750115Y-139463924D01*
X101750399Y-139463565D01*
X101760219Y-139489312D01*
X101775946Y-139569580D01*
X101795143Y-139690750D01*
X101809440Y-139793365D01*
X101854890Y-140136757D01*
X101987711Y-140136757D01*
X102079194Y-140126500D01*
X102131357Y-140100407D01*
X102134971Y-140093851D01*
X102145352Y-140048130D01*
X102164754Y-139950383D01*
X102190453Y-139815496D01*
X102219725Y-139658351D01*
X102249845Y-139493832D01*
X102278088Y-139336824D01*
X102301732Y-139202208D01*
X102318050Y-139104870D01*
X102324320Y-139059692D01*
X102324325Y-139059343D01*
X102294184Y-139045297D01*
X102220389Y-139038496D01*
X102208057Y-139038378D01*
X102091790Y-139038378D01*
X102047738Y-139384047D01*
G36*
X102579548Y-139038378D02*
G01*
X102500665Y-139043573D01*
X102473281Y-139067760D01*
X102478522Y-139115608D01*
X102490355Y-139172370D01*
X102510897Y-139277216D01*
X102537397Y-139415466D01*
X102567104Y-139572445D01*
X102597268Y-139733474D01*
X102625136Y-139883875D01*
X102647957Y-140008971D01*
X102662981Y-140094084D01*
X102667568Y-140124181D01*
X102698012Y-140132134D01*
X102773858Y-140136481D01*
X102801764Y-140136757D01*
X102935960Y-140136757D01*
X102975264Y-139887905D01*
X103005583Y-139699669D01*
X103028339Y-139577022D01*
X103046316Y-139517690D01*
X103062303Y-139519399D01*
X103079085Y-139579873D01*
X103099450Y-139696839D01*
X103111933Y-139776351D01*
X103165270Y-140119595D01*
X103303006Y-140129751D01*
X103440741Y-140139908D01*
X103520909Y-139683535D01*
X103552180Y-139506137D01*
X103580645Y-139345788D01*
X103603458Y-139218442D01*
X103617773Y-139140058D01*
X103619153Y-139132770D01*
X103625309Y-139069437D01*
X103598550Y-139043459D01*
X103521304Y-139038380D01*
X103518357Y-139038378D01*
X103399484Y-139038378D01*
X103353736Y-139384026D01*
X103332821Y-139522312D01*
X103312136Y-139625246D01*
X103294424Y-139680892D01*
X103284716Y-139684364D01*
X103269550Y-139631392D01*
X103249066Y-139528929D01*
X103226827Y-139395555D01*
X103218383Y-139338716D01*
X103175322Y-139038378D01*
X103062415Y-139038378D01*
X102980374Y-139050336D01*
X102933975Y-139079385D01*
X102932762Y-139082015D01*
X102920960Y-139133702D01*
X102903345Y-139235691D01*
X102882878Y-139370200D01*
X102872627Y-139443165D01*
X102852867Y-139579290D01*
X102835462Y-139683913D01*
X102822908Y-139742747D01*
X102818922Y-139750364D01*
X102809089Y-139713861D01*
X102792931Y-139627541D01*
X102773823Y-139509546D01*
X102772493Y-139500768D01*
X102744677Y-139315643D01*
X102723879Y-139187711D01*
X102705717Y-139106469D01*
X102685809Y-139061413D01*
X102659770Y-139042040D01*
X102623220Y-139037849D01*
X102579548Y-139038378D01*
G37*
X102579548Y-139038378D02*
X102500665Y-139043573D01*
X102473281Y-139067760D01*
X102478522Y-139115608D01*
X102490355Y-139172370D01*
X102510897Y-139277216D01*
X102537397Y-139415466D01*
X102567104Y-139572445D01*
X102597268Y-139733474D01*
X102625136Y-139883875D01*
X102647957Y-140008971D01*
X102662981Y-140094084D01*
X102667568Y-140124181D01*
X102698012Y-140132134D01*
X102773858Y-140136481D01*
X102801764Y-140136757D01*
X102935960Y-140136757D01*
X102975264Y-139887905D01*
X103005583Y-139699669D01*
X103028339Y-139577022D01*
X103046316Y-139517690D01*
X103062303Y-139519399D01*
X103079085Y-139579873D01*
X103099450Y-139696839D01*
X103111933Y-139776351D01*
X103165270Y-140119595D01*
X103303006Y-140129751D01*
X103440741Y-140139908D01*
X103520909Y-139683535D01*
X103552180Y-139506137D01*
X103580645Y-139345788D01*
X103603458Y-139218442D01*
X103617773Y-139140058D01*
X103619153Y-139132770D01*
X103625309Y-139069437D01*
X103598550Y-139043459D01*
X103521304Y-139038380D01*
X103518357Y-139038378D01*
X103399484Y-139038378D01*
X103353736Y-139384026D01*
X103332821Y-139522312D01*
X103312136Y-139625246D01*
X103294424Y-139680892D01*
X103284716Y-139684364D01*
X103269550Y-139631392D01*
X103249066Y-139528929D01*
X103226827Y-139395555D01*
X103218383Y-139338716D01*
X103175322Y-139038378D01*
X103062415Y-139038378D01*
X102980374Y-139050336D01*
X102933975Y-139079385D01*
X102932762Y-139082015D01*
X102920960Y-139133702D01*
X102903345Y-139235691D01*
X102882878Y-139370200D01*
X102872627Y-139443165D01*
X102852867Y-139579290D01*
X102835462Y-139683913D01*
X102822908Y-139742747D01*
X102818922Y-139750364D01*
X102809089Y-139713861D01*
X102792931Y-139627541D01*
X102773823Y-139509546D01*
X102772493Y-139500768D01*
X102744677Y-139315643D01*
X102723879Y-139187711D01*
X102705717Y-139106469D01*
X102685809Y-139061413D01*
X102659770Y-139042040D01*
X102623220Y-139037849D01*
X102579548Y-139038378D01*
D11*
X117115364Y-129199938D02*
G75*
G03*
X117115364Y-129199938I-2015564J0D01*
G01*
D10*
X112291666Y-149237271D02*
X112767857Y-149237271D01*
X112767857Y-148237271D01*
X112005952Y-148332510D02*
X111958333Y-148284891D01*
X111863095Y-148237271D01*
X111625000Y-148237271D01*
X111529761Y-148284891D01*
X111482142Y-148332510D01*
X111434523Y-148427748D01*
X111434523Y-148522986D01*
X111482142Y-148665843D01*
X112053571Y-149237271D01*
X111434523Y-149237271D01*
X74541831Y-149237271D02*
X74875165Y-148761081D01*
X75113260Y-149237271D02*
X75113260Y-148237271D01*
X74732307Y-148237271D01*
X74637069Y-148284891D01*
X74589450Y-148332510D01*
X74541831Y-148427748D01*
X74541831Y-148570605D01*
X74589450Y-148665843D01*
X74637069Y-148713462D01*
X74732307Y-148761081D01*
X75113260Y-148761081D01*
X74160879Y-148332510D02*
X74113260Y-148284891D01*
X74018022Y-148237271D01*
X73779926Y-148237271D01*
X73684688Y-148284891D01*
X73637069Y-148332510D01*
X73589450Y-148427748D01*
X73589450Y-148522986D01*
X73637069Y-148665843D01*
X74208498Y-149237271D01*
X73589450Y-149237271D01*
X71581666Y-129652380D02*
X71915000Y-129176190D01*
X72153095Y-129652380D02*
X72153095Y-128652380D01*
X71772142Y-128652380D01*
X71676904Y-128700000D01*
X71629285Y-128747619D01*
X71581666Y-128842857D01*
X71581666Y-128985714D01*
X71629285Y-129080952D01*
X71676904Y-129128571D01*
X71772142Y-129176190D01*
X72153095Y-129176190D01*
X70629285Y-129652380D02*
X71200714Y-129652380D01*
X70915000Y-129652380D02*
X70915000Y-128652380D01*
X71010238Y-128795238D01*
X71105476Y-128890476D01*
X71200714Y-128938095D01*
X86057142Y-126564761D02*
X85914285Y-126612380D01*
X85676190Y-126612380D01*
X85580952Y-126564761D01*
X85533333Y-126517142D01*
X85485714Y-126421904D01*
X85485714Y-126326666D01*
X85533333Y-126231428D01*
X85580952Y-126183809D01*
X85676190Y-126136190D01*
X85866666Y-126088571D01*
X85961904Y-126040952D01*
X86009523Y-125993333D01*
X86057142Y-125898095D01*
X86057142Y-125802857D01*
X86009523Y-125707619D01*
X85961904Y-125660000D01*
X85866666Y-125612380D01*
X85628571Y-125612380D01*
X85485714Y-125660000D01*
X85152380Y-125612380D02*
X84914285Y-126612380D01*
X84723809Y-125898095D01*
X84533333Y-126612380D01*
X84295238Y-125612380D01*
X102040714Y-126504761D02*
X101897857Y-126552380D01*
X101659761Y-126552380D01*
X101564523Y-126504761D01*
X101516904Y-126457142D01*
X101469285Y-126361904D01*
X101469285Y-126266666D01*
X101516904Y-126171428D01*
X101564523Y-126123809D01*
X101659761Y-126076190D01*
X101850238Y-126028571D01*
X101945476Y-125980952D01*
X101993095Y-125933333D01*
X102040714Y-125838095D01*
X102040714Y-125742857D01*
X101993095Y-125647619D01*
X101945476Y-125600000D01*
X101850238Y-125552380D01*
X101612142Y-125552380D01*
X101469285Y-125600000D01*
X101040714Y-126552380D02*
X101040714Y-125552380D01*
X100802619Y-125552380D01*
X100659761Y-125600000D01*
X100564523Y-125695238D01*
X100516904Y-125790476D01*
X100469285Y-125980952D01*
X100469285Y-126123809D01*
X100516904Y-126314285D01*
X100564523Y-126409523D01*
X100659761Y-126504761D01*
X100802619Y-126552380D01*
X101040714Y-126552380D01*
X98185714Y-126652380D02*
X98185714Y-125652380D01*
X97804761Y-125652380D01*
X97709523Y-125700000D01*
X97661904Y-125747619D01*
X97614285Y-125842857D01*
X97614285Y-125985714D01*
X97661904Y-126080952D01*
X97709523Y-126128571D01*
X97804761Y-126176190D01*
X98185714Y-126176190D01*
X96995238Y-125652380D02*
X96804761Y-125652380D01*
X96709523Y-125700000D01*
X96614285Y-125795238D01*
X96566666Y-125985714D01*
X96566666Y-126319047D01*
X96614285Y-126509523D01*
X96709523Y-126604761D01*
X96804761Y-126652380D01*
X96995238Y-126652380D01*
X97090476Y-126604761D01*
X97185714Y-126509523D01*
X97233333Y-126319047D01*
X97233333Y-125985714D01*
X97185714Y-125795238D01*
X97090476Y-125700000D01*
X96995238Y-125652380D01*
X94011904Y-125600000D02*
X94107142Y-125552380D01*
X94250000Y-125552380D01*
X94392857Y-125600000D01*
X94488095Y-125695238D01*
X94535714Y-125790476D01*
X94583333Y-125980952D01*
X94583333Y-126123809D01*
X94535714Y-126314285D01*
X94488095Y-126409523D01*
X94392857Y-126504761D01*
X94250000Y-126552380D01*
X94154761Y-126552380D01*
X94011904Y-126504761D01*
X93964285Y-126457142D01*
X93964285Y-126123809D01*
X94154761Y-126123809D01*
X93535714Y-126552380D02*
X93535714Y-125552380D01*
X92964285Y-126552380D01*
X92964285Y-125552380D01*
X92488095Y-126552380D02*
X92488095Y-125552380D01*
X92250000Y-125552380D01*
X92107142Y-125600000D01*
X92011904Y-125695238D01*
X91964285Y-125790476D01*
X91916666Y-125980952D01*
X91916666Y-126123809D01*
X91964285Y-126314285D01*
X92011904Y-126409523D01*
X92107142Y-126504761D01*
X92250000Y-126552380D01*
X92488095Y-126552380D01*
X89913095Y-126028571D02*
X89579761Y-126028571D01*
X89436904Y-126552380D02*
X89913095Y-126552380D01*
X89913095Y-125552380D01*
X89436904Y-125552380D01*
X89008333Y-126552380D02*
X89008333Y-125552380D01*
X88436904Y-126552380D01*
X88436904Y-125552380D01*
X115266466Y-129652318D02*
X115742657Y-129652318D01*
X115742657Y-128652318D01*
X114409323Y-129652318D02*
X114980752Y-129652318D01*
X114695038Y-129652318D02*
X114695038Y-128652318D01*
X114790276Y-128795176D01*
X114885514Y-128890414D01*
X114980752Y-128938033D01*
M02*
