G04 #@! TF.GenerationSoftware,KiCad,Pcbnew,(5.1.9)-1*
G04 #@! TF.CreationDate,2021-10-01T15:11:33-04:00*
G04 #@! TF.ProjectId,GBZ2,47425a32-2e6b-4696-9361-645f70636258,rev?*
G04 #@! TF.SameCoordinates,Original*
G04 #@! TF.FileFunction,Legend,Top*
G04 #@! TF.FilePolarity,Positive*
%FSLAX46Y46*%
G04 Gerber Fmt 4.6, Leading zero omitted, Abs format (unit mm)*
G04 Created by KiCad (PCBNEW (5.1.9)-1) date 2021-10-01 15:11:33*
%MOMM*%
%LPD*%
G01*
G04 APERTURE LIST*
%ADD10C,0.150000*%
%ADD11C,0.200000*%
%ADD12C,0.120000*%
G04 APERTURE END LIST*
D10*
X84352857Y-126684761D02*
X84495714Y-126732380D01*
X84733809Y-126732380D01*
X84829047Y-126684761D01*
X84876666Y-126637142D01*
X84924285Y-126541904D01*
X84924285Y-126446666D01*
X84876666Y-126351428D01*
X84829047Y-126303809D01*
X84733809Y-126256190D01*
X84543333Y-126208571D01*
X84448095Y-126160952D01*
X84400476Y-126113333D01*
X84352857Y-126018095D01*
X84352857Y-125922857D01*
X84400476Y-125827619D01*
X84448095Y-125780000D01*
X84543333Y-125732380D01*
X84781428Y-125732380D01*
X84924285Y-125780000D01*
X85257619Y-125732380D02*
X85495714Y-126732380D01*
X85686190Y-126018095D01*
X85876666Y-126732380D01*
X86114761Y-125732380D01*
D11*
X89774761Y-146211904D02*
X89774761Y-146783333D01*
X89736666Y-146897619D01*
X89660476Y-146973809D01*
X89546190Y-147011904D01*
X89470000Y-147011904D01*
X90536666Y-147011904D02*
X90155714Y-147011904D01*
X90155714Y-146211904D01*
X91260476Y-146935714D02*
X91222380Y-146973809D01*
X91108095Y-147011904D01*
X91031904Y-147011904D01*
X90917619Y-146973809D01*
X90841428Y-146897619D01*
X90803333Y-146821428D01*
X90765238Y-146669047D01*
X90765238Y-146554761D01*
X90803333Y-146402380D01*
X90841428Y-146326190D01*
X90917619Y-146250000D01*
X91031904Y-146211904D01*
X91108095Y-146211904D01*
X91222380Y-146250000D01*
X91260476Y-146288095D01*
X91831904Y-146211904D02*
X91831904Y-146783333D01*
X91793809Y-146897619D01*
X91717619Y-146973809D01*
X91603333Y-147011904D01*
X91527142Y-147011904D01*
X92593809Y-147011904D02*
X92212857Y-147011904D01*
X92212857Y-146211904D01*
X93317619Y-146935714D02*
X93279523Y-146973809D01*
X93165238Y-147011904D01*
X93089047Y-147011904D01*
X92974761Y-146973809D01*
X92898571Y-146897619D01*
X92860476Y-146821428D01*
X92822380Y-146669047D01*
X92822380Y-146554761D01*
X92860476Y-146402380D01*
X92898571Y-146326190D01*
X92974761Y-146250000D01*
X93089047Y-146211904D01*
X93165238Y-146211904D01*
X93279523Y-146250000D01*
X93317619Y-146288095D01*
X93889047Y-146211904D02*
X93889047Y-146783333D01*
X93850952Y-146897619D01*
X93774761Y-146973809D01*
X93660476Y-147011904D01*
X93584285Y-147011904D01*
X94650952Y-147011904D02*
X94270000Y-147011904D01*
X94270000Y-146211904D01*
X95374761Y-146935714D02*
X95336666Y-146973809D01*
X95222380Y-147011904D01*
X95146190Y-147011904D01*
X95031904Y-146973809D01*
X94955714Y-146897619D01*
X94917619Y-146821428D01*
X94879523Y-146669047D01*
X94879523Y-146554761D01*
X94917619Y-146402380D01*
X94955714Y-146326190D01*
X95031904Y-146250000D01*
X95146190Y-146211904D01*
X95222380Y-146211904D01*
X95336666Y-146250000D01*
X95374761Y-146288095D01*
X95946190Y-146211904D02*
X95946190Y-146783333D01*
X95908095Y-146897619D01*
X95831904Y-146973809D01*
X95717619Y-147011904D01*
X95641428Y-147011904D01*
X96708095Y-147011904D02*
X96327142Y-147011904D01*
X96327142Y-146211904D01*
X97431904Y-146935714D02*
X97393809Y-146973809D01*
X97279523Y-147011904D01*
X97203333Y-147011904D01*
X97089047Y-146973809D01*
X97012857Y-146897619D01*
X96974761Y-146821428D01*
X96936666Y-146669047D01*
X96936666Y-146554761D01*
X96974761Y-146402380D01*
X97012857Y-146326190D01*
X97089047Y-146250000D01*
X97203333Y-146211904D01*
X97279523Y-146211904D01*
X97393809Y-146250000D01*
X97431904Y-146288095D01*
D10*
X109035595Y-137702380D02*
X109035595Y-136702380D01*
X109416547Y-136702380D01*
X109511785Y-136750000D01*
X109559404Y-136797619D01*
X109607023Y-136892857D01*
X109607023Y-137035714D01*
X109559404Y-137130952D01*
X109511785Y-137178571D01*
X109416547Y-137226190D01*
X109035595Y-137226190D01*
X110178452Y-137702380D02*
X110083214Y-137654761D01*
X110035595Y-137607142D01*
X109987976Y-137511904D01*
X109987976Y-137226190D01*
X110035595Y-137130952D01*
X110083214Y-137083333D01*
X110178452Y-137035714D01*
X110321309Y-137035714D01*
X110416547Y-137083333D01*
X110464166Y-137130952D01*
X110511785Y-137226190D01*
X110511785Y-137511904D01*
X110464166Y-137607142D01*
X110416547Y-137654761D01*
X110321309Y-137702380D01*
X110178452Y-137702380D01*
X110845119Y-137035714D02*
X111035595Y-137702380D01*
X111226071Y-137226190D01*
X111416547Y-137702380D01*
X111607023Y-137035714D01*
X112368928Y-137654761D02*
X112273690Y-137702380D01*
X112083214Y-137702380D01*
X111987976Y-137654761D01*
X111940357Y-137559523D01*
X111940357Y-137178571D01*
X111987976Y-137083333D01*
X112083214Y-137035714D01*
X112273690Y-137035714D01*
X112368928Y-137083333D01*
X112416547Y-137178571D01*
X112416547Y-137273809D01*
X111940357Y-137369047D01*
X112845119Y-137702380D02*
X112845119Y-137035714D01*
X112845119Y-137226190D02*
X112892738Y-137130952D01*
X112940357Y-137083333D01*
X113035595Y-137035714D01*
X113130833Y-137035714D01*
X113797500Y-137178571D02*
X113940357Y-137226190D01*
X113987976Y-137273809D01*
X114035595Y-137369047D01*
X114035595Y-137511904D01*
X113987976Y-137607142D01*
X113940357Y-137654761D01*
X113845119Y-137702380D01*
X113464166Y-137702380D01*
X113464166Y-136702380D01*
X113797500Y-136702380D01*
X113892738Y-136750000D01*
X113940357Y-136797619D01*
X113987976Y-136892857D01*
X113987976Y-136988095D01*
X113940357Y-137083333D01*
X113892738Y-137130952D01*
X113797500Y-137178571D01*
X113464166Y-137178571D01*
X114607023Y-137702380D02*
X114511785Y-137654761D01*
X114464166Y-137607142D01*
X114416547Y-137511904D01*
X114416547Y-137226190D01*
X114464166Y-137130952D01*
X114511785Y-137083333D01*
X114607023Y-137035714D01*
X114749880Y-137035714D01*
X114845119Y-137083333D01*
X114892738Y-137130952D01*
X114940357Y-137226190D01*
X114940357Y-137511904D01*
X114892738Y-137607142D01*
X114845119Y-137654761D01*
X114749880Y-137702380D01*
X114607023Y-137702380D01*
X115511785Y-137702380D02*
X115416547Y-137654761D01*
X115368928Y-137607142D01*
X115321309Y-137511904D01*
X115321309Y-137226190D01*
X115368928Y-137130952D01*
X115416547Y-137083333D01*
X115511785Y-137035714D01*
X115654642Y-137035714D01*
X115749880Y-137083333D01*
X115797500Y-137130952D01*
X115845119Y-137226190D01*
X115845119Y-137511904D01*
X115797500Y-137607142D01*
X115749880Y-137654761D01*
X115654642Y-137702380D01*
X115511785Y-137702380D01*
X116226071Y-137654761D02*
X116321309Y-137702380D01*
X116511785Y-137702380D01*
X116607023Y-137654761D01*
X116654642Y-137559523D01*
X116654642Y-137511904D01*
X116607023Y-137416666D01*
X116511785Y-137369047D01*
X116368928Y-137369047D01*
X116273690Y-137321428D01*
X116226071Y-137226190D01*
X116226071Y-137178571D01*
X116273690Y-137083333D01*
X116368928Y-137035714D01*
X116511785Y-137035714D01*
X116607023Y-137083333D01*
X116940357Y-137035714D02*
X117321309Y-137035714D01*
X117083214Y-136702380D02*
X117083214Y-137559523D01*
X117130833Y-137654761D01*
X117226071Y-137702380D01*
X117321309Y-137702380D01*
X117654642Y-137607142D02*
X117702261Y-137654761D01*
X117654642Y-137702380D01*
X117607023Y-137654761D01*
X117654642Y-137607142D01*
X117654642Y-137702380D01*
X117654642Y-137083333D02*
X117702261Y-137130952D01*
X117654642Y-137178571D01*
X117607023Y-137130952D01*
X117654642Y-137083333D01*
X117654642Y-137178571D01*
X109607023Y-139352380D02*
X109273690Y-138876190D01*
X109035595Y-139352380D02*
X109035595Y-138352380D01*
X109416547Y-138352380D01*
X109511785Y-138400000D01*
X109559404Y-138447619D01*
X109607023Y-138542857D01*
X109607023Y-138685714D01*
X109559404Y-138780952D01*
X109511785Y-138828571D01*
X109416547Y-138876190D01*
X109035595Y-138876190D01*
X110559404Y-139352380D02*
X109987976Y-139352380D01*
X110273690Y-139352380D02*
X110273690Y-138352380D01*
X110178452Y-138495238D01*
X110083214Y-138590476D01*
X109987976Y-138638095D01*
X112273690Y-139352380D02*
X111702261Y-139352380D01*
X111987976Y-139352380D02*
X111987976Y-138352380D01*
X111892738Y-138495238D01*
X111797500Y-138590476D01*
X111702261Y-138638095D01*
X112892738Y-138352380D02*
X112987976Y-138352380D01*
X113083214Y-138400000D01*
X113130833Y-138447619D01*
X113178452Y-138542857D01*
X113226071Y-138733333D01*
X113226071Y-138971428D01*
X113178452Y-139161904D01*
X113130833Y-139257142D01*
X113083214Y-139304761D01*
X112987976Y-139352380D01*
X112892738Y-139352380D01*
X112797500Y-139304761D01*
X112749880Y-139257142D01*
X112702261Y-139161904D01*
X112654642Y-138971428D01*
X112654642Y-138733333D01*
X112702261Y-138542857D01*
X112749880Y-138447619D01*
X112797500Y-138400000D01*
X112892738Y-138352380D01*
X113845119Y-138352380D02*
X113940357Y-138352380D01*
X114035595Y-138400000D01*
X114083214Y-138447619D01*
X114130833Y-138542857D01*
X114178452Y-138733333D01*
X114178452Y-138971428D01*
X114130833Y-139161904D01*
X114083214Y-139257142D01*
X114035595Y-139304761D01*
X113940357Y-139352380D01*
X113845119Y-139352380D01*
X113749880Y-139304761D01*
X113702261Y-139257142D01*
X113654642Y-139161904D01*
X113607023Y-138971428D01*
X113607023Y-138733333D01*
X113654642Y-138542857D01*
X113702261Y-138447619D01*
X113749880Y-138400000D01*
X113845119Y-138352380D01*
X114607023Y-139352380D02*
X114607023Y-138352380D01*
X115178452Y-139352380D02*
X114749880Y-138780952D01*
X115178452Y-138352380D02*
X114607023Y-138923809D01*
X109607023Y-141002380D02*
X109273690Y-140526190D01*
X109035595Y-141002380D02*
X109035595Y-140002380D01*
X109416547Y-140002380D01*
X109511785Y-140050000D01*
X109559404Y-140097619D01*
X109607023Y-140192857D01*
X109607023Y-140335714D01*
X109559404Y-140430952D01*
X109511785Y-140478571D01*
X109416547Y-140526190D01*
X109035595Y-140526190D01*
X109987976Y-140097619D02*
X110035595Y-140050000D01*
X110130833Y-140002380D01*
X110368928Y-140002380D01*
X110464166Y-140050000D01*
X110511785Y-140097619D01*
X110559404Y-140192857D01*
X110559404Y-140288095D01*
X110511785Y-140430952D01*
X109940357Y-141002380D01*
X110559404Y-141002380D01*
X112273690Y-141002380D02*
X111702261Y-141002380D01*
X111987976Y-141002380D02*
X111987976Y-140002380D01*
X111892738Y-140145238D01*
X111797500Y-140240476D01*
X111702261Y-140288095D01*
X112892738Y-140002380D02*
X112987976Y-140002380D01*
X113083214Y-140050000D01*
X113130833Y-140097619D01*
X113178452Y-140192857D01*
X113226071Y-140383333D01*
X113226071Y-140621428D01*
X113178452Y-140811904D01*
X113130833Y-140907142D01*
X113083214Y-140954761D01*
X112987976Y-141002380D01*
X112892738Y-141002380D01*
X112797500Y-140954761D01*
X112749880Y-140907142D01*
X112702261Y-140811904D01*
X112654642Y-140621428D01*
X112654642Y-140383333D01*
X112702261Y-140192857D01*
X112749880Y-140097619D01*
X112797500Y-140050000D01*
X112892738Y-140002380D01*
X113654642Y-141002380D02*
X113654642Y-140002380D01*
X114226071Y-141002380D02*
X113797500Y-140430952D01*
X114226071Y-140002380D02*
X113654642Y-140573809D01*
X68907023Y-137702380D02*
X68573690Y-137226190D01*
X68335595Y-137702380D02*
X68335595Y-136702380D01*
X68716547Y-136702380D01*
X68811785Y-136750000D01*
X68859404Y-136797619D01*
X68907023Y-136892857D01*
X68907023Y-137035714D01*
X68859404Y-137130952D01*
X68811785Y-137178571D01*
X68716547Y-137226190D01*
X68335595Y-137226190D01*
X69716547Y-137654761D02*
X69621309Y-137702380D01*
X69430833Y-137702380D01*
X69335595Y-137654761D01*
X69287976Y-137559523D01*
X69287976Y-137178571D01*
X69335595Y-137083333D01*
X69430833Y-137035714D01*
X69621309Y-137035714D01*
X69716547Y-137083333D01*
X69764166Y-137178571D01*
X69764166Y-137273809D01*
X69287976Y-137369047D01*
X70049880Y-137035714D02*
X70430833Y-137035714D01*
X70192738Y-136702380D02*
X70192738Y-137559523D01*
X70240357Y-137654761D01*
X70335595Y-137702380D01*
X70430833Y-137702380D01*
X70764166Y-137702380D02*
X70764166Y-137035714D01*
X70764166Y-137226190D02*
X70811785Y-137130952D01*
X70859404Y-137083333D01*
X70954642Y-137035714D01*
X71049880Y-137035714D01*
X71526071Y-137702380D02*
X71430833Y-137654761D01*
X71383214Y-137607142D01*
X71335595Y-137511904D01*
X71335595Y-137226190D01*
X71383214Y-137130952D01*
X71430833Y-137083333D01*
X71526071Y-137035714D01*
X71668928Y-137035714D01*
X71764166Y-137083333D01*
X71811785Y-137130952D01*
X71859404Y-137226190D01*
X71859404Y-137511904D01*
X71811785Y-137607142D01*
X71764166Y-137654761D01*
X71668928Y-137702380D01*
X71526071Y-137702380D01*
X72287976Y-137702380D02*
X72287976Y-136702380D01*
X72668928Y-136702380D01*
X72764166Y-136750000D01*
X72811785Y-136797619D01*
X72859404Y-136892857D01*
X72859404Y-137035714D01*
X72811785Y-137130952D01*
X72764166Y-137178571D01*
X72668928Y-137226190D01*
X72287976Y-137226190D01*
X73240357Y-137654761D02*
X73383214Y-137702380D01*
X73621309Y-137702380D01*
X73716547Y-137654761D01*
X73764166Y-137607142D01*
X73811785Y-137511904D01*
X73811785Y-137416666D01*
X73764166Y-137321428D01*
X73716547Y-137273809D01*
X73621309Y-137226190D01*
X73430833Y-137178571D01*
X73335595Y-137130952D01*
X73287976Y-137083333D01*
X73240357Y-136988095D01*
X73240357Y-136892857D01*
X73287976Y-136797619D01*
X73335595Y-136750000D01*
X73430833Y-136702380D01*
X73668928Y-136702380D01*
X73811785Y-136750000D01*
X74240357Y-136702380D02*
X74240357Y-137511904D01*
X74287976Y-137607142D01*
X74335595Y-137654761D01*
X74430833Y-137702380D01*
X74621309Y-137702380D01*
X74716547Y-137654761D01*
X74764166Y-137607142D01*
X74811785Y-137511904D01*
X74811785Y-136702380D01*
X75287976Y-137607142D02*
X75335595Y-137654761D01*
X75287976Y-137702380D01*
X75240357Y-137654761D01*
X75287976Y-137607142D01*
X75287976Y-137702380D01*
X75287976Y-137083333D02*
X75335595Y-137130952D01*
X75287976Y-137178571D01*
X75240357Y-137130952D01*
X75287976Y-137083333D01*
X75287976Y-137178571D01*
X68907023Y-139352380D02*
X68573690Y-138876190D01*
X68335595Y-139352380D02*
X68335595Y-138352380D01*
X68716547Y-138352380D01*
X68811785Y-138400000D01*
X68859404Y-138447619D01*
X68907023Y-138542857D01*
X68907023Y-138685714D01*
X68859404Y-138780952D01*
X68811785Y-138828571D01*
X68716547Y-138876190D01*
X68335595Y-138876190D01*
X69859404Y-139352380D02*
X69287976Y-139352380D01*
X69573690Y-139352380D02*
X69573690Y-138352380D01*
X69478452Y-138495238D01*
X69383214Y-138590476D01*
X69287976Y-138638095D01*
X71478452Y-138685714D02*
X71478452Y-139352380D01*
X71240357Y-138304761D02*
X71002261Y-139019047D01*
X71621309Y-139019047D01*
X71907023Y-138352380D02*
X72573690Y-138352380D01*
X72145119Y-139352380D01*
X73145119Y-138352380D02*
X73240357Y-138352380D01*
X73335595Y-138400000D01*
X73383214Y-138447619D01*
X73430833Y-138542857D01*
X73478452Y-138733333D01*
X73478452Y-138971428D01*
X73430833Y-139161904D01*
X73383214Y-139257142D01*
X73335595Y-139304761D01*
X73240357Y-139352380D01*
X73145119Y-139352380D01*
X73049880Y-139304761D01*
X73002261Y-139257142D01*
X72954642Y-139161904D01*
X72907023Y-138971428D01*
X72907023Y-138733333D01*
X72954642Y-138542857D01*
X73002261Y-138447619D01*
X73049880Y-138400000D01*
X73145119Y-138352380D01*
X68907023Y-141002380D02*
X68573690Y-140526190D01*
X68335595Y-141002380D02*
X68335595Y-140002380D01*
X68716547Y-140002380D01*
X68811785Y-140050000D01*
X68859404Y-140097619D01*
X68907023Y-140192857D01*
X68907023Y-140335714D01*
X68859404Y-140430952D01*
X68811785Y-140478571D01*
X68716547Y-140526190D01*
X68335595Y-140526190D01*
X69287976Y-140097619D02*
X69335595Y-140050000D01*
X69430833Y-140002380D01*
X69668928Y-140002380D01*
X69764166Y-140050000D01*
X69811785Y-140097619D01*
X69859404Y-140192857D01*
X69859404Y-140288095D01*
X69811785Y-140430952D01*
X69240357Y-141002380D01*
X69859404Y-141002380D01*
X71573690Y-141002380D02*
X71002261Y-141002380D01*
X71287976Y-141002380D02*
X71287976Y-140002380D01*
X71192738Y-140145238D01*
X71097500Y-140240476D01*
X71002261Y-140288095D01*
X72002261Y-141002380D02*
X72002261Y-140002380D01*
X72573690Y-141002380D02*
X72145119Y-140430952D01*
X72573690Y-140002380D02*
X72002261Y-140573809D01*
D12*
X116325000Y-149490891D02*
X116325000Y-147990891D01*
X116325000Y-144569891D02*
X107898000Y-144569891D01*
X107898000Y-147990891D02*
X107898000Y-149490891D01*
X107898000Y-152969891D02*
X116325000Y-152969891D01*
X107898000Y-152969891D02*
X107898000Y-152411891D01*
X116325000Y-152969891D02*
X116325000Y-152411891D01*
X107898000Y-144569891D02*
X107898000Y-145172891D01*
X116325000Y-144569891D02*
X116325000Y-145172891D01*
X78575165Y-149490891D02*
X78575165Y-147990891D01*
X78575165Y-144569891D02*
X70148165Y-144569891D01*
X70148165Y-147990891D02*
X70148165Y-149490891D01*
X70148165Y-152969891D02*
X78575165Y-152969891D01*
X70148165Y-152969891D02*
X70148165Y-152411891D01*
X78575165Y-152969891D02*
X78575165Y-152411891D01*
X70148165Y-144569891D02*
X70148165Y-145172891D01*
X78575165Y-144569891D02*
X78575165Y-145172891D01*
X72121000Y-125000000D02*
X70621000Y-125000000D01*
X67200000Y-125000000D02*
X67200000Y-133427000D01*
X70621000Y-133427000D02*
X72121000Y-133427000D01*
X75600000Y-133427000D02*
X75600000Y-125000000D01*
X75600000Y-133427000D02*
X75042000Y-133427000D01*
X75600000Y-125000000D02*
X75042000Y-125000000D01*
X67200000Y-133427000D02*
X67803000Y-133427000D01*
X67200000Y-125000000D02*
X67803000Y-125000000D01*
X105610000Y-135161252D02*
X105610000Y-134638748D01*
X104190000Y-135161252D02*
X104190000Y-134638748D01*
X92910000Y-135261252D02*
X92910000Y-134738748D01*
X91490000Y-135261252D02*
X91490000Y-134738748D01*
X96600000Y-142450000D02*
X91200000Y-142450000D01*
X96600000Y-139150000D02*
X91200000Y-139150000D01*
X96600000Y-142450000D02*
X96600000Y-139150000D01*
X88200000Y-138250000D02*
X82800000Y-138250000D01*
X88200000Y-134950000D02*
X82800000Y-134950000D01*
X88200000Y-138250000D02*
X88200000Y-134950000D01*
X94800000Y-134950000D02*
X100200000Y-134950000D01*
X94800000Y-138250000D02*
X100200000Y-138250000D01*
X94800000Y-134950000D02*
X94800000Y-138250000D01*
X115805800Y-124999938D02*
X114305800Y-124999938D01*
X110884800Y-124999938D02*
X110884800Y-133426938D01*
X114305800Y-133426938D02*
X115805800Y-133426938D01*
X119284800Y-133426938D02*
X119284800Y-124999938D01*
X119284800Y-133426938D02*
X118726800Y-133426938D01*
X119284800Y-124999938D02*
X118726800Y-124999938D01*
X110884800Y-133426938D02*
X111487800Y-133426938D01*
X110884800Y-124999938D02*
X111487800Y-124999938D01*
D10*
X111958333Y-143952380D02*
X111482142Y-143952380D01*
X111482142Y-142952380D01*
X112244047Y-143047619D02*
X112291666Y-143000000D01*
X112386904Y-142952380D01*
X112625000Y-142952380D01*
X112720238Y-143000000D01*
X112767857Y-143047619D01*
X112815476Y-143142857D01*
X112815476Y-143238095D01*
X112767857Y-143380952D01*
X112196428Y-143952380D01*
X112815476Y-143952380D01*
X74233333Y-143952380D02*
X73900000Y-143476190D01*
X73661904Y-143952380D02*
X73661904Y-142952380D01*
X74042857Y-142952380D01*
X74138095Y-143000000D01*
X74185714Y-143047619D01*
X74233333Y-143142857D01*
X74233333Y-143285714D01*
X74185714Y-143380952D01*
X74138095Y-143428571D01*
X74042857Y-143476190D01*
X73661904Y-143476190D01*
X74614285Y-143047619D02*
X74661904Y-143000000D01*
X74757142Y-142952380D01*
X74995238Y-142952380D01*
X75090476Y-143000000D01*
X75138095Y-143047619D01*
X75185714Y-143142857D01*
X75185714Y-143238095D01*
X75138095Y-143380952D01*
X74566666Y-143952380D01*
X75185714Y-143952380D01*
X77333333Y-129752380D02*
X77000000Y-129276190D01*
X76761904Y-129752380D02*
X76761904Y-128752380D01*
X77142857Y-128752380D01*
X77238095Y-128800000D01*
X77285714Y-128847619D01*
X77333333Y-128942857D01*
X77333333Y-129085714D01*
X77285714Y-129180952D01*
X77238095Y-129228571D01*
X77142857Y-129276190D01*
X76761904Y-129276190D01*
X78285714Y-129752380D02*
X77714285Y-129752380D01*
X78000000Y-129752380D02*
X78000000Y-128752380D01*
X77904761Y-128895238D01*
X77809523Y-128990476D01*
X77714285Y-129038095D01*
X100514285Y-126664761D02*
X100657142Y-126712380D01*
X100895238Y-126712380D01*
X100990476Y-126664761D01*
X101038095Y-126617142D01*
X101085714Y-126521904D01*
X101085714Y-126426666D01*
X101038095Y-126331428D01*
X100990476Y-126283809D01*
X100895238Y-126236190D01*
X100704761Y-126188571D01*
X100609523Y-126140952D01*
X100561904Y-126093333D01*
X100514285Y-125998095D01*
X100514285Y-125902857D01*
X100561904Y-125807619D01*
X100609523Y-125760000D01*
X100704761Y-125712380D01*
X100942857Y-125712380D01*
X101085714Y-125760000D01*
X101514285Y-126712380D02*
X101514285Y-125712380D01*
X101752380Y-125712380D01*
X101895238Y-125760000D01*
X101990476Y-125855238D01*
X102038095Y-125950476D01*
X102085714Y-126140952D01*
X102085714Y-126283809D01*
X102038095Y-126474285D01*
X101990476Y-126569523D01*
X101895238Y-126664761D01*
X101752380Y-126712380D01*
X101514285Y-126712380D01*
X102933333Y-135352380D02*
X102600000Y-134876190D01*
X102361904Y-135352380D02*
X102361904Y-134352380D01*
X102742857Y-134352380D01*
X102838095Y-134400000D01*
X102885714Y-134447619D01*
X102933333Y-134542857D01*
X102933333Y-134685714D01*
X102885714Y-134780952D01*
X102838095Y-134828571D01*
X102742857Y-134876190D01*
X102361904Y-134876190D01*
X103314285Y-134447619D02*
X103361904Y-134400000D01*
X103457142Y-134352380D01*
X103695238Y-134352380D01*
X103790476Y-134400000D01*
X103838095Y-134447619D01*
X103885714Y-134542857D01*
X103885714Y-134638095D01*
X103838095Y-134780952D01*
X103266666Y-135352380D01*
X103885714Y-135352380D01*
X90233333Y-135452380D02*
X89900000Y-134976190D01*
X89661904Y-135452380D02*
X89661904Y-134452380D01*
X90042857Y-134452380D01*
X90138095Y-134500000D01*
X90185714Y-134547619D01*
X90233333Y-134642857D01*
X90233333Y-134785714D01*
X90185714Y-134880952D01*
X90138095Y-134928571D01*
X90042857Y-134976190D01*
X89661904Y-134976190D01*
X91185714Y-135452380D02*
X90614285Y-135452380D01*
X90900000Y-135452380D02*
X90900000Y-134452380D01*
X90804761Y-134595238D01*
X90709523Y-134690476D01*
X90614285Y-134738095D01*
X96614285Y-126712380D02*
X96614285Y-125712380D01*
X96995238Y-125712380D01*
X97090476Y-125760000D01*
X97138095Y-125807619D01*
X97185714Y-125902857D01*
X97185714Y-126045714D01*
X97138095Y-126140952D01*
X97090476Y-126188571D01*
X96995238Y-126236190D01*
X96614285Y-126236190D01*
X97804761Y-125712380D02*
X97995238Y-125712380D01*
X98090476Y-125760000D01*
X98185714Y-125855238D01*
X98233333Y-126045714D01*
X98233333Y-126379047D01*
X98185714Y-126569523D01*
X98090476Y-126664761D01*
X97995238Y-126712380D01*
X97804761Y-126712380D01*
X97709523Y-126664761D01*
X97614285Y-126569523D01*
X97566666Y-126379047D01*
X97566666Y-126045714D01*
X97614285Y-125855238D01*
X97709523Y-125760000D01*
X97804761Y-125712380D01*
X85033333Y-121252380D02*
X84700000Y-120776190D01*
X84461904Y-121252380D02*
X84461904Y-120252380D01*
X84842857Y-120252380D01*
X84938095Y-120300000D01*
X84985714Y-120347619D01*
X85033333Y-120442857D01*
X85033333Y-120585714D01*
X84985714Y-120680952D01*
X84938095Y-120728571D01*
X84842857Y-120776190D01*
X84461904Y-120776190D01*
X85985714Y-121252380D02*
X85414285Y-121252380D01*
X85700000Y-121252380D02*
X85700000Y-120252380D01*
X85604761Y-120395238D01*
X85509523Y-120490476D01*
X85414285Y-120538095D01*
X88333333Y-121252380D02*
X88000000Y-120776190D01*
X87761904Y-121252380D02*
X87761904Y-120252380D01*
X88142857Y-120252380D01*
X88238095Y-120300000D01*
X88285714Y-120347619D01*
X88333333Y-120442857D01*
X88333333Y-120585714D01*
X88285714Y-120680952D01*
X88238095Y-120728571D01*
X88142857Y-120776190D01*
X87761904Y-120776190D01*
X88714285Y-120347619D02*
X88761904Y-120300000D01*
X88857142Y-120252380D01*
X89095238Y-120252380D01*
X89190476Y-120300000D01*
X89238095Y-120347619D01*
X89285714Y-120442857D01*
X89285714Y-120538095D01*
X89238095Y-120680952D01*
X88666666Y-121252380D01*
X89285714Y-121252380D01*
X97933333Y-121252380D02*
X97457142Y-121252380D01*
X97457142Y-120252380D01*
X98219047Y-120347619D02*
X98266666Y-120300000D01*
X98361904Y-120252380D01*
X98600000Y-120252380D01*
X98695238Y-120300000D01*
X98742857Y-120347619D01*
X98790476Y-120442857D01*
X98790476Y-120538095D01*
X98742857Y-120680952D01*
X98171428Y-121252380D01*
X98790476Y-121252380D01*
X101133333Y-121252380D02*
X100657142Y-121252380D01*
X100657142Y-120252380D01*
X101990476Y-121252380D02*
X101419047Y-121252380D01*
X101704761Y-121252380D02*
X101704761Y-120252380D01*
X101609523Y-120395238D01*
X101514285Y-120490476D01*
X101419047Y-120538095D01*
X94138095Y-120300000D02*
X94042857Y-120252380D01*
X93900000Y-120252380D01*
X93757142Y-120300000D01*
X93661904Y-120395238D01*
X93614285Y-120490476D01*
X93566666Y-120680952D01*
X93566666Y-120823809D01*
X93614285Y-121014285D01*
X93661904Y-121109523D01*
X93757142Y-121204761D01*
X93900000Y-121252380D01*
X93995238Y-121252380D01*
X94138095Y-121204761D01*
X94185714Y-121157142D01*
X94185714Y-120823809D01*
X93995238Y-120823809D01*
X94614285Y-121252380D02*
X94614285Y-120252380D01*
X95185714Y-121252380D01*
X95185714Y-120252380D01*
X95661904Y-121252380D02*
X95661904Y-120252380D01*
X95900000Y-120252380D01*
X96042857Y-120300000D01*
X96138095Y-120395238D01*
X96185714Y-120490476D01*
X96233333Y-120680952D01*
X96233333Y-120823809D01*
X96185714Y-121014285D01*
X96138095Y-121109523D01*
X96042857Y-121204761D01*
X95900000Y-121252380D01*
X95661904Y-121252380D01*
X90878095Y-120300000D02*
X90782857Y-120252380D01*
X90640000Y-120252380D01*
X90497142Y-120300000D01*
X90401904Y-120395238D01*
X90354285Y-120490476D01*
X90306666Y-120680952D01*
X90306666Y-120823809D01*
X90354285Y-121014285D01*
X90401904Y-121109523D01*
X90497142Y-121204761D01*
X90640000Y-121252380D01*
X90735238Y-121252380D01*
X90878095Y-121204761D01*
X90925714Y-121157142D01*
X90925714Y-120823809D01*
X90735238Y-120823809D01*
X91354285Y-121252380D02*
X91354285Y-120252380D01*
X91925714Y-121252380D01*
X91925714Y-120252380D01*
X92401904Y-121252380D02*
X92401904Y-120252380D01*
X92640000Y-120252380D01*
X92782857Y-120300000D01*
X92878095Y-120395238D01*
X92925714Y-120490476D01*
X92973333Y-120680952D01*
X92973333Y-120823809D01*
X92925714Y-121014285D01*
X92878095Y-121109523D01*
X92782857Y-121204761D01*
X92640000Y-121252380D01*
X92401904Y-121252380D01*
X92478095Y-125760000D02*
X92382857Y-125712380D01*
X92240000Y-125712380D01*
X92097142Y-125760000D01*
X92001904Y-125855238D01*
X91954285Y-125950476D01*
X91906666Y-126140952D01*
X91906666Y-126283809D01*
X91954285Y-126474285D01*
X92001904Y-126569523D01*
X92097142Y-126664761D01*
X92240000Y-126712380D01*
X92335238Y-126712380D01*
X92478095Y-126664761D01*
X92525714Y-126617142D01*
X92525714Y-126283809D01*
X92335238Y-126283809D01*
X92954285Y-126712380D02*
X92954285Y-125712380D01*
X93525714Y-126712380D01*
X93525714Y-125712380D01*
X94001904Y-126712380D02*
X94001904Y-125712380D01*
X94240000Y-125712380D01*
X94382857Y-125760000D01*
X94478095Y-125855238D01*
X94525714Y-125950476D01*
X94573333Y-126140952D01*
X94573333Y-126283809D01*
X94525714Y-126474285D01*
X94478095Y-126569523D01*
X94382857Y-126664761D01*
X94240000Y-126712380D01*
X94001904Y-126712380D01*
X88471904Y-126188571D02*
X88805238Y-126188571D01*
X88948095Y-126712380D02*
X88471904Y-126712380D01*
X88471904Y-125712380D01*
X88948095Y-125712380D01*
X89376666Y-126712380D02*
X89376666Y-125712380D01*
X89948095Y-126712380D01*
X89948095Y-125712380D01*
X92461904Y-138752380D02*
X92461904Y-137752380D01*
X92700000Y-137752380D01*
X92842857Y-137800000D01*
X92938095Y-137895238D01*
X92985714Y-137990476D01*
X93033333Y-138180952D01*
X93033333Y-138323809D01*
X92985714Y-138514285D01*
X92938095Y-138609523D01*
X92842857Y-138704761D01*
X92700000Y-138752380D01*
X92461904Y-138752380D01*
X93366666Y-137752380D02*
X93985714Y-137752380D01*
X93652380Y-138133333D01*
X93795238Y-138133333D01*
X93890476Y-138180952D01*
X93938095Y-138228571D01*
X93985714Y-138323809D01*
X93985714Y-138561904D01*
X93938095Y-138657142D01*
X93890476Y-138704761D01*
X93795238Y-138752380D01*
X93509523Y-138752380D01*
X93414285Y-138704761D01*
X93366666Y-138657142D01*
X84061904Y-134452380D02*
X84061904Y-133452380D01*
X84300000Y-133452380D01*
X84442857Y-133500000D01*
X84538095Y-133595238D01*
X84585714Y-133690476D01*
X84633333Y-133880952D01*
X84633333Y-134023809D01*
X84585714Y-134214285D01*
X84538095Y-134309523D01*
X84442857Y-134404761D01*
X84300000Y-134452380D01*
X84061904Y-134452380D01*
X85014285Y-133547619D02*
X85061904Y-133500000D01*
X85157142Y-133452380D01*
X85395238Y-133452380D01*
X85490476Y-133500000D01*
X85538095Y-133547619D01*
X85585714Y-133642857D01*
X85585714Y-133738095D01*
X85538095Y-133880952D01*
X84966666Y-134452380D01*
X85585714Y-134452380D01*
X97461904Y-134452380D02*
X97461904Y-133452380D01*
X97700000Y-133452380D01*
X97842857Y-133500000D01*
X97938095Y-133595238D01*
X97985714Y-133690476D01*
X98033333Y-133880952D01*
X98033333Y-134023809D01*
X97985714Y-134214285D01*
X97938095Y-134309523D01*
X97842857Y-134404761D01*
X97700000Y-134452380D01*
X97461904Y-134452380D01*
X98985714Y-134452380D02*
X98414285Y-134452380D01*
X98700000Y-134452380D02*
X98700000Y-133452380D01*
X98604761Y-133595238D01*
X98509523Y-133690476D01*
X98414285Y-133738095D01*
X108933333Y-129752380D02*
X108457142Y-129752380D01*
X108457142Y-128752380D01*
X109790476Y-129752380D02*
X109219047Y-129752380D01*
X109504761Y-129752380D02*
X109504761Y-128752380D01*
X109409523Y-128895238D01*
X109314285Y-128990476D01*
X109219047Y-129038095D01*
M02*
