G04 #@! TF.GenerationSoftware,KiCad,Pcbnew,(5.1.9)-1*
G04 #@! TF.CreationDate,2021-10-01T15:11:33-04:00*
G04 #@! TF.ProjectId,GBZ2,47425a32-2e6b-4696-9361-645f70636258,rev?*
G04 #@! TF.SameCoordinates,Original*
G04 #@! TF.FileFunction,Copper,L2,Bot*
G04 #@! TF.FilePolarity,Positive*
%FSLAX46Y46*%
G04 Gerber Fmt 4.6, Leading zero omitted, Abs format (unit mm)*
G04 Created by KiCad (PCBNEW (5.1.9)-1) date 2021-10-01 15:11:33*
%MOMM*%
%LPD*%
G01*
G04 APERTURE LIST*
G04 #@! TA.AperFunction,ComponentPad*
%ADD10C,2.000000*%
G04 #@! TD*
G04 #@! TA.AperFunction,Conductor*
%ADD11C,0.250000*%
G04 #@! TD*
G04 #@! TA.AperFunction,Conductor*
%ADD12C,0.254000*%
G04 #@! TD*
G04 #@! TA.AperFunction,Conductor*
%ADD13C,0.100000*%
G04 #@! TD*
G04 APERTURE END LIST*
D10*
X108025000Y-150999891D03*
X108025000Y-146569891D03*
X116225000Y-150999891D03*
X116225000Y-146569891D03*
X70275165Y-150999891D03*
X70275165Y-146569891D03*
X78475165Y-150999891D03*
X78475165Y-146569891D03*
X73630000Y-133300000D03*
X69200000Y-133300000D03*
X73630000Y-125100000D03*
X69200000Y-125100000D03*
G04 #@! TA.AperFunction,ComponentPad*
G36*
G01*
X85950000Y-128050000D02*
X85950000Y-129350000D01*
G75*
G02*
X85200000Y-130100000I-750000J0D01*
G01*
X85200000Y-130100000D01*
G75*
G02*
X84450000Y-129350000I0J750000D01*
G01*
X84450000Y-128050000D01*
G75*
G02*
X85200000Y-127300000I750000J0D01*
G01*
X85200000Y-127300000D01*
G75*
G02*
X85950000Y-128050000I0J-750000D01*
G01*
G37*
G04 #@! TD.AperFunction*
G04 #@! TA.AperFunction,ComponentPad*
G36*
G01*
X100550000Y-129350000D02*
X100550000Y-128050000D01*
G75*
G02*
X101300000Y-127300000I750000J0D01*
G01*
X101300000Y-127300000D01*
G75*
G02*
X102050000Y-128050000I0J-750000D01*
G01*
X102050000Y-129350000D01*
G75*
G02*
X101300000Y-130100000I-750000J0D01*
G01*
X101300000Y-130100000D01*
G75*
G02*
X100550000Y-129350000I0J750000D01*
G01*
G37*
G04 #@! TD.AperFunction*
G04 #@! TA.AperFunction,ComponentPad*
G36*
G01*
X96520000Y-129350000D02*
X96520000Y-128050000D01*
G75*
G02*
X97270000Y-127300000I750000J0D01*
G01*
X97270000Y-127300000D01*
G75*
G02*
X98020000Y-128050000I0J-750000D01*
G01*
X98020000Y-129350000D01*
G75*
G02*
X97270000Y-130100000I-750000J0D01*
G01*
X97270000Y-130100000D01*
G75*
G02*
X96520000Y-129350000I0J750000D01*
G01*
G37*
G04 #@! TD.AperFunction*
G04 #@! TA.AperFunction,ComponentPad*
G36*
G01*
X84450000Y-123950000D02*
X84450000Y-122650000D01*
G75*
G02*
X85200000Y-121900000I750000J0D01*
G01*
X85200000Y-121900000D01*
G75*
G02*
X85950000Y-122650000I0J-750000D01*
G01*
X85950000Y-123950000D01*
G75*
G02*
X85200000Y-124700000I-750000J0D01*
G01*
X85200000Y-124700000D01*
G75*
G02*
X84450000Y-123950000I0J750000D01*
G01*
G37*
G04 #@! TD.AperFunction*
G04 #@! TA.AperFunction,ComponentPad*
G36*
G01*
X87750000Y-123950000D02*
X87750000Y-122650000D01*
G75*
G02*
X88500000Y-121900000I750000J0D01*
G01*
X88500000Y-121900000D01*
G75*
G02*
X89250000Y-122650000I0J-750000D01*
G01*
X89250000Y-123950000D01*
G75*
G02*
X88500000Y-124700000I-750000J0D01*
G01*
X88500000Y-124700000D01*
G75*
G02*
X87750000Y-123950000I0J750000D01*
G01*
G37*
G04 #@! TD.AperFunction*
G04 #@! TA.AperFunction,ComponentPad*
G36*
G01*
X97330000Y-123950000D02*
X97330000Y-122650000D01*
G75*
G02*
X98080000Y-121900000I750000J0D01*
G01*
X98080000Y-121900000D01*
G75*
G02*
X98830000Y-122650000I0J-750000D01*
G01*
X98830000Y-123950000D01*
G75*
G02*
X98080000Y-124700000I-750000J0D01*
G01*
X98080000Y-124700000D01*
G75*
G02*
X97330000Y-123950000I0J750000D01*
G01*
G37*
G04 #@! TD.AperFunction*
G04 #@! TA.AperFunction,ComponentPad*
G36*
G01*
X100550000Y-123950000D02*
X100550000Y-122650000D01*
G75*
G02*
X101300000Y-121900000I750000J0D01*
G01*
X101300000Y-121900000D01*
G75*
G02*
X102050000Y-122650000I0J-750000D01*
G01*
X102050000Y-123950000D01*
G75*
G02*
X101300000Y-124700000I-750000J0D01*
G01*
X101300000Y-124700000D01*
G75*
G02*
X100550000Y-123950000I0J750000D01*
G01*
G37*
G04 #@! TD.AperFunction*
G04 #@! TA.AperFunction,ComponentPad*
G36*
G01*
X94110000Y-123950000D02*
X94110000Y-122650000D01*
G75*
G02*
X94860000Y-121900000I750000J0D01*
G01*
X94860000Y-121900000D01*
G75*
G02*
X95610000Y-122650000I0J-750000D01*
G01*
X95610000Y-123950000D01*
G75*
G02*
X94860000Y-124700000I-750000J0D01*
G01*
X94860000Y-124700000D01*
G75*
G02*
X94110000Y-123950000I0J750000D01*
G01*
G37*
G04 #@! TD.AperFunction*
G04 #@! TA.AperFunction,ComponentPad*
G36*
G01*
X90890000Y-123950000D02*
X90890000Y-122650000D01*
G75*
G02*
X91640000Y-121900000I750000J0D01*
G01*
X91640000Y-121900000D01*
G75*
G02*
X92390000Y-122650000I0J-750000D01*
G01*
X92390000Y-123950000D01*
G75*
G02*
X91640000Y-124700000I-750000J0D01*
G01*
X91640000Y-124700000D01*
G75*
G02*
X90890000Y-123950000I0J750000D01*
G01*
G37*
G04 #@! TD.AperFunction*
G04 #@! TA.AperFunction,ComponentPad*
G36*
G01*
X92490000Y-129350000D02*
X92490000Y-128050000D01*
G75*
G02*
X93240000Y-127300000I750000J0D01*
G01*
X93240000Y-127300000D01*
G75*
G02*
X93990000Y-128050000I0J-750000D01*
G01*
X93990000Y-129350000D01*
G75*
G02*
X93240000Y-130100000I-750000J0D01*
G01*
X93240000Y-130100000D01*
G75*
G02*
X92490000Y-129350000I0J750000D01*
G01*
G37*
G04 #@! TD.AperFunction*
G04 #@! TA.AperFunction,ComponentPad*
G36*
G01*
X88460000Y-129350000D02*
X88460000Y-128050000D01*
G75*
G02*
X89210000Y-127300000I750000J0D01*
G01*
X89210000Y-127300000D01*
G75*
G02*
X89960000Y-128050000I0J-750000D01*
G01*
X89960000Y-129350000D01*
G75*
G02*
X89210000Y-130100000I-750000J0D01*
G01*
X89210000Y-130100000D01*
G75*
G02*
X88460000Y-129350000I0J750000D01*
G01*
G37*
G04 #@! TD.AperFunction*
X117314800Y-133299938D03*
X112884800Y-133299938D03*
X117314800Y-125099938D03*
X112884800Y-125099938D03*
D11*
X112072539Y-125500000D02*
X112089702Y-125482837D01*
X78381327Y-146487898D02*
X78374346Y-146496652D01*
X78475165Y-146569891D02*
X78393172Y-146487898D01*
X78393172Y-146487898D02*
X78381327Y-146487898D01*
X78413879Y-145679608D02*
X78427964Y-145687600D01*
X78400000Y-145683439D02*
X78413879Y-145679608D01*
D12*
X68394038Y-120152319D02*
X68152373Y-120393984D01*
X67962499Y-120678151D01*
X67831711Y-120993901D01*
X67765036Y-121329099D01*
X67765036Y-121670865D01*
X67831711Y-122006063D01*
X67962499Y-122321813D01*
X68152373Y-122605980D01*
X68394038Y-122847645D01*
X68678205Y-123037519D01*
X68993955Y-123168307D01*
X69329153Y-123234982D01*
X69670919Y-123234982D01*
X70006117Y-123168307D01*
X70321867Y-123037519D01*
X70606034Y-122847645D01*
X70803679Y-122650000D01*
X83811927Y-122650000D01*
X83811927Y-123950000D01*
X83838598Y-124220799D01*
X83917588Y-124481192D01*
X84045859Y-124721171D01*
X84218484Y-124931515D01*
X84428828Y-125104140D01*
X84668807Y-125232411D01*
X84929200Y-125311401D01*
X85199999Y-125338072D01*
X85200001Y-125338072D01*
X85470800Y-125311401D01*
X85731193Y-125232411D01*
X85971172Y-125104140D01*
X86181516Y-124931515D01*
X86354141Y-124721171D01*
X86482412Y-124481192D01*
X86561402Y-124220799D01*
X86588073Y-123950000D01*
X86588073Y-122650000D01*
X87111927Y-122650000D01*
X87111927Y-123950000D01*
X87138598Y-124220799D01*
X87217588Y-124481192D01*
X87345859Y-124721171D01*
X87518484Y-124931515D01*
X87728828Y-125104140D01*
X87968807Y-125232411D01*
X88229200Y-125311401D01*
X88499999Y-125338072D01*
X88500001Y-125338072D01*
X88770800Y-125311401D01*
X89031193Y-125232411D01*
X89271172Y-125104140D01*
X89481516Y-124931515D01*
X89654141Y-124721171D01*
X89665457Y-124700000D01*
X90251928Y-124700000D01*
X90264188Y-124824482D01*
X90300498Y-124944180D01*
X90359463Y-125054494D01*
X90438815Y-125151185D01*
X90535506Y-125230537D01*
X90645820Y-125289502D01*
X90765518Y-125325812D01*
X90890000Y-125338072D01*
X91354250Y-125335000D01*
X91513000Y-125176250D01*
X91513000Y-123427000D01*
X91767000Y-123427000D01*
X91767000Y-125176250D01*
X91925750Y-125335000D01*
X92390000Y-125338072D01*
X92514482Y-125325812D01*
X92634180Y-125289502D01*
X92744494Y-125230537D01*
X92841185Y-125151185D01*
X92920537Y-125054494D01*
X92979502Y-124944180D01*
X93015812Y-124824482D01*
X93028072Y-124700000D01*
X93471928Y-124700000D01*
X93484188Y-124824482D01*
X93520498Y-124944180D01*
X93579463Y-125054494D01*
X93658815Y-125151185D01*
X93755506Y-125230537D01*
X93865820Y-125289502D01*
X93985518Y-125325812D01*
X94110000Y-125338072D01*
X94574250Y-125335000D01*
X94733000Y-125176250D01*
X94733000Y-123427000D01*
X94987000Y-123427000D01*
X94987000Y-125176250D01*
X95145750Y-125335000D01*
X95610000Y-125338072D01*
X95734482Y-125325812D01*
X95854180Y-125289502D01*
X95964494Y-125230537D01*
X96061185Y-125151185D01*
X96140537Y-125054494D01*
X96199502Y-124944180D01*
X96235812Y-124824482D01*
X96248072Y-124700000D01*
X96245000Y-123585750D01*
X96086250Y-123427000D01*
X94987000Y-123427000D01*
X94733000Y-123427000D01*
X93633750Y-123427000D01*
X93475000Y-123585750D01*
X93471928Y-124700000D01*
X93028072Y-124700000D01*
X93025000Y-123585750D01*
X92866250Y-123427000D01*
X91767000Y-123427000D01*
X91513000Y-123427000D01*
X90413750Y-123427000D01*
X90255000Y-123585750D01*
X90251928Y-124700000D01*
X89665457Y-124700000D01*
X89782412Y-124481192D01*
X89861402Y-124220799D01*
X89888073Y-123950000D01*
X89888073Y-122650000D01*
X89861402Y-122379201D01*
X89782412Y-122118808D01*
X89665458Y-121900000D01*
X90251928Y-121900000D01*
X90255000Y-123014250D01*
X90413750Y-123173000D01*
X91513000Y-123173000D01*
X91513000Y-121423750D01*
X91767000Y-121423750D01*
X91767000Y-123173000D01*
X92866250Y-123173000D01*
X93025000Y-123014250D01*
X93028072Y-121900000D01*
X93471928Y-121900000D01*
X93475000Y-123014250D01*
X93633750Y-123173000D01*
X94733000Y-123173000D01*
X94733000Y-121423750D01*
X94987000Y-121423750D01*
X94987000Y-123173000D01*
X96086250Y-123173000D01*
X96245000Y-123014250D01*
X96246004Y-122650000D01*
X96691927Y-122650000D01*
X96691927Y-123950000D01*
X96718598Y-124220799D01*
X96797588Y-124481192D01*
X96925859Y-124721171D01*
X97098484Y-124931515D01*
X97308828Y-125104140D01*
X97548807Y-125232411D01*
X97809200Y-125311401D01*
X98079999Y-125338072D01*
X98080001Y-125338072D01*
X98350800Y-125311401D01*
X98611193Y-125232411D01*
X98851172Y-125104140D01*
X99061516Y-124931515D01*
X99234141Y-124721171D01*
X99362412Y-124481192D01*
X99441402Y-124220799D01*
X99468073Y-123950000D01*
X99468073Y-122650000D01*
X99911927Y-122650000D01*
X99911927Y-123950000D01*
X99938598Y-124220799D01*
X100017588Y-124481192D01*
X100145859Y-124721171D01*
X100318484Y-124931515D01*
X100528828Y-125104140D01*
X100768807Y-125232411D01*
X101029200Y-125311401D01*
X101299999Y-125338072D01*
X101300001Y-125338072D01*
X101570800Y-125311401D01*
X101831193Y-125232411D01*
X102071172Y-125104140D01*
X102272511Y-124938905D01*
X111249800Y-124938905D01*
X111249800Y-125260971D01*
X111312632Y-125576850D01*
X111317618Y-125588887D01*
X111323537Y-125648985D01*
X111366993Y-125792246D01*
X111437565Y-125924276D01*
X111532538Y-126040001D01*
X111563524Y-126065430D01*
X111614813Y-126142190D01*
X111842548Y-126369925D01*
X112110337Y-126548856D01*
X112407888Y-126672106D01*
X112723767Y-126734938D01*
X113045833Y-126734938D01*
X113361712Y-126672106D01*
X113659263Y-126548856D01*
X113927052Y-126369925D01*
X114061626Y-126235351D01*
X116358992Y-126235351D01*
X116454756Y-126499752D01*
X116744371Y-126640642D01*
X117055908Y-126722322D01*
X117377395Y-126741656D01*
X117696475Y-126697899D01*
X118000888Y-126592733D01*
X118174844Y-126499752D01*
X118270608Y-126235351D01*
X117314800Y-125279543D01*
X116358992Y-126235351D01*
X114061626Y-126235351D01*
X114154787Y-126142190D01*
X114333718Y-125874401D01*
X114456968Y-125576850D01*
X114519800Y-125260971D01*
X114519800Y-125162533D01*
X115673082Y-125162533D01*
X115716839Y-125481613D01*
X115822005Y-125786026D01*
X115914986Y-125959982D01*
X116179387Y-126055746D01*
X117135195Y-125099938D01*
X117494405Y-125099938D01*
X118450213Y-126055746D01*
X118714614Y-125959982D01*
X118855504Y-125670367D01*
X118937184Y-125358830D01*
X118956518Y-125037343D01*
X118912761Y-124718263D01*
X118807595Y-124413850D01*
X118714614Y-124239894D01*
X118450213Y-124144130D01*
X117494405Y-125099938D01*
X117135195Y-125099938D01*
X116179387Y-124144130D01*
X115914986Y-124239894D01*
X115774096Y-124529509D01*
X115692416Y-124841046D01*
X115673082Y-125162533D01*
X114519800Y-125162533D01*
X114519800Y-124938905D01*
X114456968Y-124623026D01*
X114333718Y-124325475D01*
X114154787Y-124057686D01*
X114061626Y-123964525D01*
X116358992Y-123964525D01*
X117314800Y-124920333D01*
X118270608Y-123964525D01*
X118174844Y-123700124D01*
X117885229Y-123559234D01*
X117573692Y-123477554D01*
X117252205Y-123458220D01*
X116933125Y-123501977D01*
X116628712Y-123607143D01*
X116454756Y-123700124D01*
X116358992Y-123964525D01*
X114061626Y-123964525D01*
X113927052Y-123829951D01*
X113659263Y-123651020D01*
X113361712Y-123527770D01*
X113045833Y-123464938D01*
X112723767Y-123464938D01*
X112407888Y-123527770D01*
X112110337Y-123651020D01*
X111842548Y-123829951D01*
X111614813Y-124057686D01*
X111435882Y-124325475D01*
X111312632Y-124623026D01*
X111249800Y-124938905D01*
X102272511Y-124938905D01*
X102281516Y-124931515D01*
X102454141Y-124721171D01*
X102582412Y-124481192D01*
X102661402Y-124220799D01*
X102688073Y-123950000D01*
X102688073Y-122650000D01*
X102661402Y-122379201D01*
X102582412Y-122118808D01*
X102454141Y-121878829D01*
X102281516Y-121668485D01*
X102071172Y-121495860D01*
X101831193Y-121367589D01*
X101570800Y-121288599D01*
X101300001Y-121261928D01*
X101299999Y-121261928D01*
X101029200Y-121288599D01*
X100768807Y-121367589D01*
X100528828Y-121495860D01*
X100318484Y-121668485D01*
X100145859Y-121878829D01*
X100017588Y-122118808D01*
X99938598Y-122379201D01*
X99911927Y-122650000D01*
X99468073Y-122650000D01*
X99441402Y-122379201D01*
X99362412Y-122118808D01*
X99234141Y-121878829D01*
X99061516Y-121668485D01*
X98851172Y-121495860D01*
X98611193Y-121367589D01*
X98350800Y-121288599D01*
X98080001Y-121261928D01*
X98079999Y-121261928D01*
X97809200Y-121288599D01*
X97548807Y-121367589D01*
X97308828Y-121495860D01*
X97098484Y-121668485D01*
X96925859Y-121878829D01*
X96797588Y-122118808D01*
X96718598Y-122379201D01*
X96691927Y-122650000D01*
X96246004Y-122650000D01*
X96248072Y-121900000D01*
X96235812Y-121775518D01*
X96199502Y-121655820D01*
X96140537Y-121545506D01*
X96061185Y-121448815D01*
X95964494Y-121369463D01*
X95854180Y-121310498D01*
X95734482Y-121274188D01*
X95610000Y-121261928D01*
X95145750Y-121265000D01*
X94987000Y-121423750D01*
X94733000Y-121423750D01*
X94574250Y-121265000D01*
X94110000Y-121261928D01*
X93985518Y-121274188D01*
X93865820Y-121310498D01*
X93755506Y-121369463D01*
X93658815Y-121448815D01*
X93579463Y-121545506D01*
X93520498Y-121655820D01*
X93484188Y-121775518D01*
X93471928Y-121900000D01*
X93028072Y-121900000D01*
X93015812Y-121775518D01*
X92979502Y-121655820D01*
X92920537Y-121545506D01*
X92841185Y-121448815D01*
X92744494Y-121369463D01*
X92634180Y-121310498D01*
X92514482Y-121274188D01*
X92390000Y-121261928D01*
X91925750Y-121265000D01*
X91767000Y-121423750D01*
X91513000Y-121423750D01*
X91354250Y-121265000D01*
X90890000Y-121261928D01*
X90765518Y-121274188D01*
X90645820Y-121310498D01*
X90535506Y-121369463D01*
X90438815Y-121448815D01*
X90359463Y-121545506D01*
X90300498Y-121655820D01*
X90264188Y-121775518D01*
X90251928Y-121900000D01*
X89665458Y-121900000D01*
X89654141Y-121878829D01*
X89481516Y-121668485D01*
X89271172Y-121495860D01*
X89031193Y-121367589D01*
X88770800Y-121288599D01*
X88500001Y-121261928D01*
X88499999Y-121261928D01*
X88229200Y-121288599D01*
X87968807Y-121367589D01*
X87728828Y-121495860D01*
X87518484Y-121668485D01*
X87345859Y-121878829D01*
X87217588Y-122118808D01*
X87138598Y-122379201D01*
X87111927Y-122650000D01*
X86588073Y-122650000D01*
X86561402Y-122379201D01*
X86482412Y-122118808D01*
X86354141Y-121878829D01*
X86181516Y-121668485D01*
X85971172Y-121495860D01*
X85731193Y-121367589D01*
X85470800Y-121288599D01*
X85200001Y-121261928D01*
X85199999Y-121261928D01*
X84929200Y-121288599D01*
X84668807Y-121367589D01*
X84428828Y-121495860D01*
X84218484Y-121668485D01*
X84045859Y-121878829D01*
X83917588Y-122118808D01*
X83838598Y-122379201D01*
X83811927Y-122650000D01*
X70803679Y-122650000D01*
X70847699Y-122605980D01*
X71037573Y-122321813D01*
X71168361Y-122006063D01*
X71235036Y-121670865D01*
X71235036Y-121329099D01*
X71168361Y-120993901D01*
X71037573Y-120678151D01*
X70847699Y-120393984D01*
X70606034Y-120152319D01*
X70568141Y-120127000D01*
X115931895Y-120127000D01*
X115894002Y-120152319D01*
X115652337Y-120393984D01*
X115462463Y-120678151D01*
X115331675Y-120993901D01*
X115265000Y-121329099D01*
X115265000Y-121670865D01*
X115331675Y-122006063D01*
X115462463Y-122321813D01*
X115652337Y-122605980D01*
X115894002Y-122847645D01*
X116178169Y-123037519D01*
X116493919Y-123168307D01*
X116829117Y-123234982D01*
X117170883Y-123234982D01*
X117506081Y-123168307D01*
X117821831Y-123037519D01*
X118105998Y-122847645D01*
X118347663Y-122605980D01*
X118537537Y-122321813D01*
X118668325Y-122006063D01*
X118735000Y-121670865D01*
X118735000Y-121329099D01*
X118668325Y-120993901D01*
X118537537Y-120678151D01*
X118347663Y-120393984D01*
X118105998Y-120152319D01*
X118068105Y-120127000D01*
X119315000Y-120127000D01*
X119315001Y-154689989D01*
X104985000Y-154689989D01*
X104985000Y-152135304D01*
X107069192Y-152135304D01*
X107164956Y-152399705D01*
X107454571Y-152540595D01*
X107766108Y-152622275D01*
X108087595Y-152641609D01*
X108406675Y-152597852D01*
X108711088Y-152492686D01*
X108885044Y-152399705D01*
X108980808Y-152135304D01*
X115269192Y-152135304D01*
X115364956Y-152399705D01*
X115654571Y-152540595D01*
X115966108Y-152622275D01*
X116287595Y-152641609D01*
X116606675Y-152597852D01*
X116911088Y-152492686D01*
X117085044Y-152399705D01*
X117180808Y-152135304D01*
X116225000Y-151179496D01*
X115269192Y-152135304D01*
X108980808Y-152135304D01*
X108025000Y-151179496D01*
X107069192Y-152135304D01*
X104985000Y-152135304D01*
X104985000Y-151062486D01*
X106383282Y-151062486D01*
X106427039Y-151381566D01*
X106532205Y-151685979D01*
X106625186Y-151859935D01*
X106889587Y-151955699D01*
X107845395Y-150999891D01*
X108204605Y-150999891D01*
X109160413Y-151955699D01*
X109424814Y-151859935D01*
X109565704Y-151570320D01*
X109647384Y-151258783D01*
X109659189Y-151062486D01*
X114583282Y-151062486D01*
X114627039Y-151381566D01*
X114732205Y-151685979D01*
X114825186Y-151859935D01*
X115089587Y-151955699D01*
X116045395Y-150999891D01*
X116404605Y-150999891D01*
X117360413Y-151955699D01*
X117624814Y-151859935D01*
X117765704Y-151570320D01*
X117847384Y-151258783D01*
X117866718Y-150937296D01*
X117822961Y-150618216D01*
X117717795Y-150313803D01*
X117624814Y-150139847D01*
X117360413Y-150044083D01*
X116404605Y-150999891D01*
X116045395Y-150999891D01*
X115089587Y-150044083D01*
X114825186Y-150139847D01*
X114684296Y-150429462D01*
X114602616Y-150740999D01*
X114583282Y-151062486D01*
X109659189Y-151062486D01*
X109666718Y-150937296D01*
X109622961Y-150618216D01*
X109517795Y-150313803D01*
X109424814Y-150139847D01*
X109160413Y-150044083D01*
X108204605Y-150999891D01*
X107845395Y-150999891D01*
X106889587Y-150044083D01*
X106625186Y-150139847D01*
X106484296Y-150429462D01*
X106402616Y-150740999D01*
X106383282Y-151062486D01*
X104985000Y-151062486D01*
X104985000Y-149864478D01*
X107069192Y-149864478D01*
X108025000Y-150820286D01*
X108980808Y-149864478D01*
X115269192Y-149864478D01*
X116225000Y-150820286D01*
X117180808Y-149864478D01*
X117085044Y-149600077D01*
X116795429Y-149459187D01*
X116483892Y-149377507D01*
X116162405Y-149358173D01*
X115843325Y-149401930D01*
X115538912Y-149507096D01*
X115364956Y-149600077D01*
X115269192Y-149864478D01*
X108980808Y-149864478D01*
X108885044Y-149600077D01*
X108595429Y-149459187D01*
X108283892Y-149377507D01*
X107962405Y-149358173D01*
X107643325Y-149401930D01*
X107338912Y-149507096D01*
X107164956Y-149600077D01*
X107069192Y-149864478D01*
X104985000Y-149864478D01*
X104985000Y-148712612D01*
X104988314Y-148678965D01*
X104975088Y-148544682D01*
X104935919Y-148415559D01*
X104872312Y-148296558D01*
X104786711Y-148192254D01*
X104682407Y-148106653D01*
X104563406Y-148043046D01*
X104434283Y-148003877D01*
X104333647Y-147993965D01*
X104300000Y-147990651D01*
X104266353Y-147993965D01*
X82233647Y-147993965D01*
X82200000Y-147990651D01*
X82166353Y-147993965D01*
X82065717Y-148003877D01*
X81936594Y-148043046D01*
X81817593Y-148106653D01*
X81713289Y-148192254D01*
X81627688Y-148296558D01*
X81564081Y-148415559D01*
X81524912Y-148544682D01*
X81511686Y-148678965D01*
X81515000Y-148712612D01*
X81515001Y-154689989D01*
X67185036Y-154689989D01*
X67185036Y-152135304D01*
X69319357Y-152135304D01*
X69415121Y-152399705D01*
X69704736Y-152540595D01*
X70016273Y-152622275D01*
X70337760Y-152641609D01*
X70656840Y-152597852D01*
X70961253Y-152492686D01*
X71135209Y-152399705D01*
X71230973Y-152135304D01*
X77519357Y-152135304D01*
X77615121Y-152399705D01*
X77904736Y-152540595D01*
X78216273Y-152622275D01*
X78537760Y-152641609D01*
X78856840Y-152597852D01*
X79161253Y-152492686D01*
X79335209Y-152399705D01*
X79430973Y-152135304D01*
X78475165Y-151179496D01*
X77519357Y-152135304D01*
X71230973Y-152135304D01*
X70275165Y-151179496D01*
X69319357Y-152135304D01*
X67185036Y-152135304D01*
X67185036Y-151062486D01*
X68633447Y-151062486D01*
X68677204Y-151381566D01*
X68782370Y-151685979D01*
X68875351Y-151859935D01*
X69139752Y-151955699D01*
X70095560Y-150999891D01*
X70454770Y-150999891D01*
X71410578Y-151955699D01*
X71674979Y-151859935D01*
X71815869Y-151570320D01*
X71897549Y-151258783D01*
X71909354Y-151062486D01*
X76833447Y-151062486D01*
X76877204Y-151381566D01*
X76982370Y-151685979D01*
X77075351Y-151859935D01*
X77339752Y-151955699D01*
X78295560Y-150999891D01*
X78654770Y-150999891D01*
X79610578Y-151955699D01*
X79874979Y-151859935D01*
X80015869Y-151570320D01*
X80097549Y-151258783D01*
X80116883Y-150937296D01*
X80073126Y-150618216D01*
X79967960Y-150313803D01*
X79874979Y-150139847D01*
X79610578Y-150044083D01*
X78654770Y-150999891D01*
X78295560Y-150999891D01*
X77339752Y-150044083D01*
X77075351Y-150139847D01*
X76934461Y-150429462D01*
X76852781Y-150740999D01*
X76833447Y-151062486D01*
X71909354Y-151062486D01*
X71916883Y-150937296D01*
X71873126Y-150618216D01*
X71767960Y-150313803D01*
X71674979Y-150139847D01*
X71410578Y-150044083D01*
X70454770Y-150999891D01*
X70095560Y-150999891D01*
X69139752Y-150044083D01*
X68875351Y-150139847D01*
X68734461Y-150429462D01*
X68652781Y-150740999D01*
X68633447Y-151062486D01*
X67185036Y-151062486D01*
X67185036Y-149864478D01*
X69319357Y-149864478D01*
X70275165Y-150820286D01*
X71230973Y-149864478D01*
X77519357Y-149864478D01*
X78475165Y-150820286D01*
X79430973Y-149864478D01*
X79335209Y-149600077D01*
X79045594Y-149459187D01*
X78734057Y-149377507D01*
X78412570Y-149358173D01*
X78093490Y-149401930D01*
X77789077Y-149507096D01*
X77615121Y-149600077D01*
X77519357Y-149864478D01*
X71230973Y-149864478D01*
X71135209Y-149600077D01*
X70845594Y-149459187D01*
X70534057Y-149377507D01*
X70212570Y-149358173D01*
X69893490Y-149401930D01*
X69589077Y-149507096D01*
X69415121Y-149600077D01*
X69319357Y-149864478D01*
X67185036Y-149864478D01*
X67185036Y-146408858D01*
X68640165Y-146408858D01*
X68640165Y-146730924D01*
X68702997Y-147046803D01*
X68826247Y-147344354D01*
X69005178Y-147612143D01*
X69232913Y-147839878D01*
X69500702Y-148018809D01*
X69798253Y-148142059D01*
X70114132Y-148204891D01*
X70436198Y-148204891D01*
X70752077Y-148142059D01*
X71049628Y-148018809D01*
X71317417Y-147839878D01*
X71545152Y-147612143D01*
X71724083Y-147344354D01*
X71847333Y-147046803D01*
X71910165Y-146730924D01*
X71910165Y-146408858D01*
X76840165Y-146408858D01*
X76840165Y-146730924D01*
X76902997Y-147046803D01*
X77026247Y-147344354D01*
X77205178Y-147612143D01*
X77432913Y-147839878D01*
X77700702Y-148018809D01*
X77998253Y-148142059D01*
X78314132Y-148204891D01*
X78636198Y-148204891D01*
X78952077Y-148142059D01*
X79249628Y-148018809D01*
X79517417Y-147839878D01*
X79745152Y-147612143D01*
X79924083Y-147344354D01*
X80047333Y-147046803D01*
X80110165Y-146730924D01*
X80110165Y-146408858D01*
X106390000Y-146408858D01*
X106390000Y-146730924D01*
X106452832Y-147046803D01*
X106576082Y-147344354D01*
X106755013Y-147612143D01*
X106982748Y-147839878D01*
X107250537Y-148018809D01*
X107548088Y-148142059D01*
X107863967Y-148204891D01*
X108186033Y-148204891D01*
X108501912Y-148142059D01*
X108799463Y-148018809D01*
X109067252Y-147839878D01*
X109294987Y-147612143D01*
X109473918Y-147344354D01*
X109597168Y-147046803D01*
X109660000Y-146730924D01*
X109660000Y-146408858D01*
X114590000Y-146408858D01*
X114590000Y-146730924D01*
X114652832Y-147046803D01*
X114776082Y-147344354D01*
X114955013Y-147612143D01*
X115182748Y-147839878D01*
X115450537Y-148018809D01*
X115748088Y-148142059D01*
X116063967Y-148204891D01*
X116386033Y-148204891D01*
X116701912Y-148142059D01*
X116999463Y-148018809D01*
X117267252Y-147839878D01*
X117494987Y-147612143D01*
X117673918Y-147344354D01*
X117797168Y-147046803D01*
X117860000Y-146730924D01*
X117860000Y-146408858D01*
X117797168Y-146092979D01*
X117673918Y-145795428D01*
X117494987Y-145527639D01*
X117267252Y-145299904D01*
X116999463Y-145120973D01*
X116701912Y-144997723D01*
X116386033Y-144934891D01*
X116063967Y-144934891D01*
X115748088Y-144997723D01*
X115450537Y-145120973D01*
X115182748Y-145299904D01*
X114955013Y-145527639D01*
X114776082Y-145795428D01*
X114652832Y-146092979D01*
X114590000Y-146408858D01*
X109660000Y-146408858D01*
X109597168Y-146092979D01*
X109473918Y-145795428D01*
X109294987Y-145527639D01*
X109067252Y-145299904D01*
X108799463Y-145120973D01*
X108501912Y-144997723D01*
X108186033Y-144934891D01*
X107863967Y-144934891D01*
X107548088Y-144997723D01*
X107250537Y-145120973D01*
X106982748Y-145299904D01*
X106755013Y-145527639D01*
X106576082Y-145795428D01*
X106452832Y-146092979D01*
X106390000Y-146408858D01*
X80110165Y-146408858D01*
X80047333Y-146092979D01*
X79924083Y-145795428D01*
X79745152Y-145527639D01*
X79517417Y-145299904D01*
X79249628Y-145120973D01*
X78952077Y-144997723D01*
X78636198Y-144934891D01*
X78566264Y-144934891D01*
X78507888Y-144921739D01*
X78507871Y-144921739D01*
X78507860Y-144921736D01*
X78439561Y-144920015D01*
X78358230Y-144917962D01*
X78358216Y-144917964D01*
X78358201Y-144917964D01*
X78274778Y-144932383D01*
X78210709Y-144943454D01*
X78175689Y-144956935D01*
X78161794Y-144960770D01*
X78138025Y-144969921D01*
X77998253Y-144997723D01*
X77700702Y-145120973D01*
X77432913Y-145299904D01*
X77205178Y-145527639D01*
X77026247Y-145795428D01*
X76902997Y-146092979D01*
X76840165Y-146408858D01*
X71910165Y-146408858D01*
X71847333Y-146092979D01*
X71724083Y-145795428D01*
X71545152Y-145527639D01*
X71317417Y-145299904D01*
X71049628Y-145120973D01*
X70752077Y-144997723D01*
X70436198Y-144934891D01*
X70114132Y-144934891D01*
X69798253Y-144997723D01*
X69500702Y-145120973D01*
X69232913Y-145299904D01*
X69005178Y-145527639D01*
X68826247Y-145795428D01*
X68702997Y-146092979D01*
X68640165Y-146408858D01*
X67185036Y-146408858D01*
X67185036Y-142504362D01*
X83540151Y-142504362D01*
X83540151Y-142846128D01*
X83606826Y-143181326D01*
X83737614Y-143497076D01*
X83927488Y-143781243D01*
X84169153Y-144022908D01*
X84453320Y-144212782D01*
X84769070Y-144343570D01*
X85104268Y-144410245D01*
X85446034Y-144410245D01*
X85781232Y-144343570D01*
X86096982Y-144212782D01*
X86381149Y-144022908D01*
X86622814Y-143781243D01*
X86812688Y-143497076D01*
X86943476Y-143181326D01*
X87010151Y-142846128D01*
X87010151Y-142504362D01*
X99490151Y-142504362D01*
X99490151Y-142846128D01*
X99556826Y-143181326D01*
X99687614Y-143497076D01*
X99877488Y-143781243D01*
X100119153Y-144022908D01*
X100403320Y-144212782D01*
X100719070Y-144343570D01*
X101054268Y-144410245D01*
X101396034Y-144410245D01*
X101731232Y-144343570D01*
X102046982Y-144212782D01*
X102331149Y-144022908D01*
X102572814Y-143781243D01*
X102762688Y-143497076D01*
X102893476Y-143181326D01*
X102960151Y-142846128D01*
X102960151Y-142504362D01*
X102893476Y-142169164D01*
X102762688Y-141853414D01*
X102572814Y-141569247D01*
X102331149Y-141327582D01*
X102046982Y-141137708D01*
X101731232Y-141006920D01*
X101396034Y-140940245D01*
X101054268Y-140940245D01*
X100719070Y-141006920D01*
X100403320Y-141137708D01*
X100119153Y-141327582D01*
X99877488Y-141569247D01*
X99687614Y-141853414D01*
X99556826Y-142169164D01*
X99490151Y-142504362D01*
X87010151Y-142504362D01*
X86943476Y-142169164D01*
X86812688Y-141853414D01*
X86622814Y-141569247D01*
X86381149Y-141327582D01*
X86096982Y-141137708D01*
X85781232Y-141006920D01*
X85446034Y-140940245D01*
X85104268Y-140940245D01*
X84769070Y-141006920D01*
X84453320Y-141137708D01*
X84169153Y-141327582D01*
X83927488Y-141569247D01*
X83737614Y-141853414D01*
X83606826Y-142169164D01*
X83540151Y-142504362D01*
X67185036Y-142504362D01*
X67185036Y-134435413D01*
X68244192Y-134435413D01*
X68339956Y-134699814D01*
X68629571Y-134840704D01*
X68941108Y-134922384D01*
X69262595Y-134941718D01*
X69581675Y-134897961D01*
X69886088Y-134792795D01*
X70060044Y-134699814D01*
X70155808Y-134435413D01*
X69200000Y-133479605D01*
X68244192Y-134435413D01*
X67185036Y-134435413D01*
X67185036Y-133362595D01*
X67558282Y-133362595D01*
X67602039Y-133681675D01*
X67707205Y-133986088D01*
X67800186Y-134160044D01*
X68064587Y-134255808D01*
X69020395Y-133300000D01*
X69379605Y-133300000D01*
X70335413Y-134255808D01*
X70599814Y-134160044D01*
X70740704Y-133870429D01*
X70822384Y-133558892D01*
X70841718Y-133237405D01*
X70828219Y-133138967D01*
X71995000Y-133138967D01*
X71995000Y-133461033D01*
X72057832Y-133776912D01*
X72181082Y-134074463D01*
X72360013Y-134342252D01*
X72587748Y-134569987D01*
X72855537Y-134748918D01*
X73153088Y-134872168D01*
X73468967Y-134935000D01*
X73791033Y-134935000D01*
X74106912Y-134872168D01*
X74404463Y-134748918D01*
X74672252Y-134569987D01*
X74899987Y-134342252D01*
X75078918Y-134074463D01*
X75202168Y-133776912D01*
X75265000Y-133461033D01*
X75265000Y-133138967D01*
X75264988Y-133138905D01*
X111249800Y-133138905D01*
X111249800Y-133460971D01*
X111312632Y-133776850D01*
X111435882Y-134074401D01*
X111614813Y-134342190D01*
X111842548Y-134569925D01*
X112110337Y-134748856D01*
X112407888Y-134872106D01*
X112723767Y-134934938D01*
X113045833Y-134934938D01*
X113361712Y-134872106D01*
X113659263Y-134748856D01*
X113927052Y-134569925D01*
X114061626Y-134435351D01*
X116358992Y-134435351D01*
X116454756Y-134699752D01*
X116744371Y-134840642D01*
X117055908Y-134922322D01*
X117377395Y-134941656D01*
X117696475Y-134897899D01*
X118000888Y-134792733D01*
X118174844Y-134699752D01*
X118270608Y-134435351D01*
X117314800Y-133479543D01*
X116358992Y-134435351D01*
X114061626Y-134435351D01*
X114154787Y-134342190D01*
X114333718Y-134074401D01*
X114456968Y-133776850D01*
X114519800Y-133460971D01*
X114519800Y-133362533D01*
X115673082Y-133362533D01*
X115716839Y-133681613D01*
X115822005Y-133986026D01*
X115914986Y-134159982D01*
X116179387Y-134255746D01*
X117135195Y-133299938D01*
X117494405Y-133299938D01*
X118450213Y-134255746D01*
X118714614Y-134159982D01*
X118855504Y-133870367D01*
X118937184Y-133558830D01*
X118956518Y-133237343D01*
X118912761Y-132918263D01*
X118807595Y-132613850D01*
X118714614Y-132439894D01*
X118450213Y-132344130D01*
X117494405Y-133299938D01*
X117135195Y-133299938D01*
X116179387Y-132344130D01*
X115914986Y-132439894D01*
X115774096Y-132729509D01*
X115692416Y-133041046D01*
X115673082Y-133362533D01*
X114519800Y-133362533D01*
X114519800Y-133138905D01*
X114456968Y-132823026D01*
X114333718Y-132525475D01*
X114154787Y-132257686D01*
X114061626Y-132164525D01*
X116358992Y-132164525D01*
X117314800Y-133120333D01*
X118270608Y-132164525D01*
X118174844Y-131900124D01*
X117885229Y-131759234D01*
X117573692Y-131677554D01*
X117252205Y-131658220D01*
X116933125Y-131701977D01*
X116628712Y-131807143D01*
X116454756Y-131900124D01*
X116358992Y-132164525D01*
X114061626Y-132164525D01*
X113927052Y-132029951D01*
X113659263Y-131851020D01*
X113361712Y-131727770D01*
X113045833Y-131664938D01*
X112723767Y-131664938D01*
X112407888Y-131727770D01*
X112110337Y-131851020D01*
X111842548Y-132029951D01*
X111614813Y-132257686D01*
X111435882Y-132525475D01*
X111312632Y-132823026D01*
X111249800Y-133138905D01*
X75264988Y-133138905D01*
X75202168Y-132823088D01*
X75078918Y-132525537D01*
X74899987Y-132257748D01*
X74672252Y-132030013D01*
X74404463Y-131851082D01*
X74106912Y-131727832D01*
X73791033Y-131665000D01*
X73468967Y-131665000D01*
X73153088Y-131727832D01*
X72855537Y-131851082D01*
X72587748Y-132030013D01*
X72360013Y-132257748D01*
X72181082Y-132525537D01*
X72057832Y-132823088D01*
X71995000Y-133138967D01*
X70828219Y-133138967D01*
X70797961Y-132918325D01*
X70692795Y-132613912D01*
X70599814Y-132439956D01*
X70335413Y-132344192D01*
X69379605Y-133300000D01*
X69020395Y-133300000D01*
X68064587Y-132344192D01*
X67800186Y-132439956D01*
X67659296Y-132729571D01*
X67577616Y-133041108D01*
X67558282Y-133362595D01*
X67185036Y-133362595D01*
X67185036Y-132164587D01*
X68244192Y-132164587D01*
X69200000Y-133120395D01*
X70155808Y-132164587D01*
X70060044Y-131900186D01*
X69770429Y-131759296D01*
X69458892Y-131677616D01*
X69137405Y-131658282D01*
X68818325Y-131702039D01*
X68513912Y-131807205D01*
X68339956Y-131900186D01*
X68244192Y-132164587D01*
X67185036Y-132164587D01*
X67185036Y-128050000D01*
X83811927Y-128050000D01*
X83811927Y-129350000D01*
X83838598Y-129620799D01*
X83917588Y-129881192D01*
X84045859Y-130121171D01*
X84218484Y-130331515D01*
X84428828Y-130504140D01*
X84668807Y-130632411D01*
X84929200Y-130711401D01*
X85199999Y-130738072D01*
X85200001Y-130738072D01*
X85470800Y-130711401D01*
X85731193Y-130632411D01*
X85971172Y-130504140D01*
X86181516Y-130331515D01*
X86354141Y-130121171D01*
X86482412Y-129881192D01*
X86561402Y-129620799D01*
X86588073Y-129350000D01*
X86588073Y-128050000D01*
X87821927Y-128050000D01*
X87821927Y-129350000D01*
X87848598Y-129620799D01*
X87927588Y-129881192D01*
X88055859Y-130121171D01*
X88228484Y-130331515D01*
X88438828Y-130504140D01*
X88678807Y-130632411D01*
X88939200Y-130711401D01*
X89209999Y-130738072D01*
X89210001Y-130738072D01*
X89480800Y-130711401D01*
X89741193Y-130632411D01*
X89981172Y-130504140D01*
X90191516Y-130331515D01*
X90364141Y-130121171D01*
X90375457Y-130100000D01*
X91851928Y-130100000D01*
X91864188Y-130224482D01*
X91900498Y-130344180D01*
X91959463Y-130454494D01*
X92038815Y-130551185D01*
X92135506Y-130630537D01*
X92245820Y-130689502D01*
X92365518Y-130725812D01*
X92490000Y-130738072D01*
X92954250Y-130735000D01*
X93113000Y-130576250D01*
X93113000Y-128827000D01*
X93367000Y-128827000D01*
X93367000Y-130576250D01*
X93525750Y-130735000D01*
X93990000Y-130738072D01*
X94114482Y-130725812D01*
X94234180Y-130689502D01*
X94344494Y-130630537D01*
X94441185Y-130551185D01*
X94520537Y-130454494D01*
X94579502Y-130344180D01*
X94615812Y-130224482D01*
X94628072Y-130100000D01*
X94625000Y-128985750D01*
X94466250Y-128827000D01*
X93367000Y-128827000D01*
X93113000Y-128827000D01*
X92013750Y-128827000D01*
X91855000Y-128985750D01*
X91851928Y-130100000D01*
X90375457Y-130100000D01*
X90492412Y-129881192D01*
X90571402Y-129620799D01*
X90598073Y-129350000D01*
X90598073Y-128050000D01*
X90571402Y-127779201D01*
X90492412Y-127518808D01*
X90375458Y-127300000D01*
X91851928Y-127300000D01*
X91855000Y-128414250D01*
X92013750Y-128573000D01*
X93113000Y-128573000D01*
X93113000Y-126823750D01*
X93367000Y-126823750D01*
X93367000Y-128573000D01*
X94466250Y-128573000D01*
X94625000Y-128414250D01*
X94626004Y-128050000D01*
X95881927Y-128050000D01*
X95881927Y-129350000D01*
X95908598Y-129620799D01*
X95987588Y-129881192D01*
X96115859Y-130121171D01*
X96288484Y-130331515D01*
X96498828Y-130504140D01*
X96738807Y-130632411D01*
X96999200Y-130711401D01*
X97269999Y-130738072D01*
X97270001Y-130738072D01*
X97540800Y-130711401D01*
X97801193Y-130632411D01*
X98041172Y-130504140D01*
X98251516Y-130331515D01*
X98424141Y-130121171D01*
X98552412Y-129881192D01*
X98631402Y-129620799D01*
X98658073Y-129350000D01*
X98658073Y-128050000D01*
X99911927Y-128050000D01*
X99911927Y-129350000D01*
X99938598Y-129620799D01*
X100017588Y-129881192D01*
X100145859Y-130121171D01*
X100318484Y-130331515D01*
X100528828Y-130504140D01*
X100768807Y-130632411D01*
X101029200Y-130711401D01*
X101299999Y-130738072D01*
X101300001Y-130738072D01*
X101570800Y-130711401D01*
X101831193Y-130632411D01*
X102071172Y-130504140D01*
X102281516Y-130331515D01*
X102454141Y-130121171D01*
X102582412Y-129881192D01*
X102661402Y-129620799D01*
X102688073Y-129350000D01*
X102688073Y-128050000D01*
X102661402Y-127779201D01*
X102582412Y-127518808D01*
X102454141Y-127278829D01*
X102281516Y-127068485D01*
X102071172Y-126895860D01*
X101831193Y-126767589D01*
X101570800Y-126688599D01*
X101300001Y-126661928D01*
X101299999Y-126661928D01*
X101029200Y-126688599D01*
X100768807Y-126767589D01*
X100528828Y-126895860D01*
X100318484Y-127068485D01*
X100145859Y-127278829D01*
X100017588Y-127518808D01*
X99938598Y-127779201D01*
X99911927Y-128050000D01*
X98658073Y-128050000D01*
X98631402Y-127779201D01*
X98552412Y-127518808D01*
X98424141Y-127278829D01*
X98251516Y-127068485D01*
X98041172Y-126895860D01*
X97801193Y-126767589D01*
X97540800Y-126688599D01*
X97270001Y-126661928D01*
X97269999Y-126661928D01*
X96999200Y-126688599D01*
X96738807Y-126767589D01*
X96498828Y-126895860D01*
X96288484Y-127068485D01*
X96115859Y-127278829D01*
X95987588Y-127518808D01*
X95908598Y-127779201D01*
X95881927Y-128050000D01*
X94626004Y-128050000D01*
X94628072Y-127300000D01*
X94615812Y-127175518D01*
X94579502Y-127055820D01*
X94520537Y-126945506D01*
X94441185Y-126848815D01*
X94344494Y-126769463D01*
X94234180Y-126710498D01*
X94114482Y-126674188D01*
X93990000Y-126661928D01*
X93525750Y-126665000D01*
X93367000Y-126823750D01*
X93113000Y-126823750D01*
X92954250Y-126665000D01*
X92490000Y-126661928D01*
X92365518Y-126674188D01*
X92245820Y-126710498D01*
X92135506Y-126769463D01*
X92038815Y-126848815D01*
X91959463Y-126945506D01*
X91900498Y-127055820D01*
X91864188Y-127175518D01*
X91851928Y-127300000D01*
X90375458Y-127300000D01*
X90364141Y-127278829D01*
X90191516Y-127068485D01*
X89981172Y-126895860D01*
X89741193Y-126767589D01*
X89480800Y-126688599D01*
X89210001Y-126661928D01*
X89209999Y-126661928D01*
X88939200Y-126688599D01*
X88678807Y-126767589D01*
X88438828Y-126895860D01*
X88228484Y-127068485D01*
X88055859Y-127278829D01*
X87927588Y-127518808D01*
X87848598Y-127779201D01*
X87821927Y-128050000D01*
X86588073Y-128050000D01*
X86561402Y-127779201D01*
X86482412Y-127518808D01*
X86354141Y-127278829D01*
X86181516Y-127068485D01*
X85971172Y-126895860D01*
X85731193Y-126767589D01*
X85470800Y-126688599D01*
X85200001Y-126661928D01*
X85199999Y-126661928D01*
X84929200Y-126688599D01*
X84668807Y-126767589D01*
X84428828Y-126895860D01*
X84218484Y-127068485D01*
X84045859Y-127278829D01*
X83917588Y-127518808D01*
X83838598Y-127779201D01*
X83811927Y-128050000D01*
X67185036Y-128050000D01*
X67185036Y-126235413D01*
X68244192Y-126235413D01*
X68339956Y-126499814D01*
X68629571Y-126640704D01*
X68941108Y-126722384D01*
X69262595Y-126741718D01*
X69581675Y-126697961D01*
X69886088Y-126592795D01*
X70060044Y-126499814D01*
X70155808Y-126235413D01*
X69200000Y-125279605D01*
X68244192Y-126235413D01*
X67185036Y-126235413D01*
X67185036Y-125162595D01*
X67558282Y-125162595D01*
X67602039Y-125481675D01*
X67707205Y-125786088D01*
X67800186Y-125960044D01*
X68064587Y-126055808D01*
X69020395Y-125100000D01*
X69379605Y-125100000D01*
X70335413Y-126055808D01*
X70599814Y-125960044D01*
X70740704Y-125670429D01*
X70822384Y-125358892D01*
X70841718Y-125037405D01*
X70828219Y-124938967D01*
X71995000Y-124938967D01*
X71995000Y-125261033D01*
X72057832Y-125576912D01*
X72181082Y-125874463D01*
X72360013Y-126142252D01*
X72587748Y-126369987D01*
X72855537Y-126548918D01*
X73153088Y-126672168D01*
X73468967Y-126735000D01*
X73791033Y-126735000D01*
X74106912Y-126672168D01*
X74404463Y-126548918D01*
X74672252Y-126369987D01*
X74899987Y-126142252D01*
X75078918Y-125874463D01*
X75202168Y-125576912D01*
X75265000Y-125261033D01*
X75265000Y-124938967D01*
X75202168Y-124623088D01*
X75078918Y-124325537D01*
X74899987Y-124057748D01*
X74672252Y-123830013D01*
X74404463Y-123651082D01*
X74106912Y-123527832D01*
X73791033Y-123465000D01*
X73468967Y-123465000D01*
X73153088Y-123527832D01*
X72855537Y-123651082D01*
X72587748Y-123830013D01*
X72360013Y-124057748D01*
X72181082Y-124325537D01*
X72057832Y-124623088D01*
X71995000Y-124938967D01*
X70828219Y-124938967D01*
X70797961Y-124718325D01*
X70692795Y-124413912D01*
X70599814Y-124239956D01*
X70335413Y-124144192D01*
X69379605Y-125100000D01*
X69020395Y-125100000D01*
X68064587Y-124144192D01*
X67800186Y-124239956D01*
X67659296Y-124529571D01*
X67577616Y-124841108D01*
X67558282Y-125162595D01*
X67185036Y-125162595D01*
X67185036Y-123964587D01*
X68244192Y-123964587D01*
X69200000Y-124920395D01*
X70155808Y-123964587D01*
X70060044Y-123700186D01*
X69770429Y-123559296D01*
X69458892Y-123477616D01*
X69137405Y-123458282D01*
X68818325Y-123502039D01*
X68513912Y-123607205D01*
X68339956Y-123700186D01*
X68244192Y-123964587D01*
X67185036Y-123964587D01*
X67185036Y-120127000D01*
X68431931Y-120127000D01*
X68394038Y-120152319D01*
G04 #@! TA.AperFunction,Conductor*
D13*
G36*
X68394038Y-120152319D02*
G01*
X68152373Y-120393984D01*
X67962499Y-120678151D01*
X67831711Y-120993901D01*
X67765036Y-121329099D01*
X67765036Y-121670865D01*
X67831711Y-122006063D01*
X67962499Y-122321813D01*
X68152373Y-122605980D01*
X68394038Y-122847645D01*
X68678205Y-123037519D01*
X68993955Y-123168307D01*
X69329153Y-123234982D01*
X69670919Y-123234982D01*
X70006117Y-123168307D01*
X70321867Y-123037519D01*
X70606034Y-122847645D01*
X70803679Y-122650000D01*
X83811927Y-122650000D01*
X83811927Y-123950000D01*
X83838598Y-124220799D01*
X83917588Y-124481192D01*
X84045859Y-124721171D01*
X84218484Y-124931515D01*
X84428828Y-125104140D01*
X84668807Y-125232411D01*
X84929200Y-125311401D01*
X85199999Y-125338072D01*
X85200001Y-125338072D01*
X85470800Y-125311401D01*
X85731193Y-125232411D01*
X85971172Y-125104140D01*
X86181516Y-124931515D01*
X86354141Y-124721171D01*
X86482412Y-124481192D01*
X86561402Y-124220799D01*
X86588073Y-123950000D01*
X86588073Y-122650000D01*
X87111927Y-122650000D01*
X87111927Y-123950000D01*
X87138598Y-124220799D01*
X87217588Y-124481192D01*
X87345859Y-124721171D01*
X87518484Y-124931515D01*
X87728828Y-125104140D01*
X87968807Y-125232411D01*
X88229200Y-125311401D01*
X88499999Y-125338072D01*
X88500001Y-125338072D01*
X88770800Y-125311401D01*
X89031193Y-125232411D01*
X89271172Y-125104140D01*
X89481516Y-124931515D01*
X89654141Y-124721171D01*
X89665457Y-124700000D01*
X90251928Y-124700000D01*
X90264188Y-124824482D01*
X90300498Y-124944180D01*
X90359463Y-125054494D01*
X90438815Y-125151185D01*
X90535506Y-125230537D01*
X90645820Y-125289502D01*
X90765518Y-125325812D01*
X90890000Y-125338072D01*
X91354250Y-125335000D01*
X91513000Y-125176250D01*
X91513000Y-123427000D01*
X91767000Y-123427000D01*
X91767000Y-125176250D01*
X91925750Y-125335000D01*
X92390000Y-125338072D01*
X92514482Y-125325812D01*
X92634180Y-125289502D01*
X92744494Y-125230537D01*
X92841185Y-125151185D01*
X92920537Y-125054494D01*
X92979502Y-124944180D01*
X93015812Y-124824482D01*
X93028072Y-124700000D01*
X93471928Y-124700000D01*
X93484188Y-124824482D01*
X93520498Y-124944180D01*
X93579463Y-125054494D01*
X93658815Y-125151185D01*
X93755506Y-125230537D01*
X93865820Y-125289502D01*
X93985518Y-125325812D01*
X94110000Y-125338072D01*
X94574250Y-125335000D01*
X94733000Y-125176250D01*
X94733000Y-123427000D01*
X94987000Y-123427000D01*
X94987000Y-125176250D01*
X95145750Y-125335000D01*
X95610000Y-125338072D01*
X95734482Y-125325812D01*
X95854180Y-125289502D01*
X95964494Y-125230537D01*
X96061185Y-125151185D01*
X96140537Y-125054494D01*
X96199502Y-124944180D01*
X96235812Y-124824482D01*
X96248072Y-124700000D01*
X96245000Y-123585750D01*
X96086250Y-123427000D01*
X94987000Y-123427000D01*
X94733000Y-123427000D01*
X93633750Y-123427000D01*
X93475000Y-123585750D01*
X93471928Y-124700000D01*
X93028072Y-124700000D01*
X93025000Y-123585750D01*
X92866250Y-123427000D01*
X91767000Y-123427000D01*
X91513000Y-123427000D01*
X90413750Y-123427000D01*
X90255000Y-123585750D01*
X90251928Y-124700000D01*
X89665457Y-124700000D01*
X89782412Y-124481192D01*
X89861402Y-124220799D01*
X89888073Y-123950000D01*
X89888073Y-122650000D01*
X89861402Y-122379201D01*
X89782412Y-122118808D01*
X89665458Y-121900000D01*
X90251928Y-121900000D01*
X90255000Y-123014250D01*
X90413750Y-123173000D01*
X91513000Y-123173000D01*
X91513000Y-121423750D01*
X91767000Y-121423750D01*
X91767000Y-123173000D01*
X92866250Y-123173000D01*
X93025000Y-123014250D01*
X93028072Y-121900000D01*
X93471928Y-121900000D01*
X93475000Y-123014250D01*
X93633750Y-123173000D01*
X94733000Y-123173000D01*
X94733000Y-121423750D01*
X94987000Y-121423750D01*
X94987000Y-123173000D01*
X96086250Y-123173000D01*
X96245000Y-123014250D01*
X96246004Y-122650000D01*
X96691927Y-122650000D01*
X96691927Y-123950000D01*
X96718598Y-124220799D01*
X96797588Y-124481192D01*
X96925859Y-124721171D01*
X97098484Y-124931515D01*
X97308828Y-125104140D01*
X97548807Y-125232411D01*
X97809200Y-125311401D01*
X98079999Y-125338072D01*
X98080001Y-125338072D01*
X98350800Y-125311401D01*
X98611193Y-125232411D01*
X98851172Y-125104140D01*
X99061516Y-124931515D01*
X99234141Y-124721171D01*
X99362412Y-124481192D01*
X99441402Y-124220799D01*
X99468073Y-123950000D01*
X99468073Y-122650000D01*
X99911927Y-122650000D01*
X99911927Y-123950000D01*
X99938598Y-124220799D01*
X100017588Y-124481192D01*
X100145859Y-124721171D01*
X100318484Y-124931515D01*
X100528828Y-125104140D01*
X100768807Y-125232411D01*
X101029200Y-125311401D01*
X101299999Y-125338072D01*
X101300001Y-125338072D01*
X101570800Y-125311401D01*
X101831193Y-125232411D01*
X102071172Y-125104140D01*
X102272511Y-124938905D01*
X111249800Y-124938905D01*
X111249800Y-125260971D01*
X111312632Y-125576850D01*
X111317618Y-125588887D01*
X111323537Y-125648985D01*
X111366993Y-125792246D01*
X111437565Y-125924276D01*
X111532538Y-126040001D01*
X111563524Y-126065430D01*
X111614813Y-126142190D01*
X111842548Y-126369925D01*
X112110337Y-126548856D01*
X112407888Y-126672106D01*
X112723767Y-126734938D01*
X113045833Y-126734938D01*
X113361712Y-126672106D01*
X113659263Y-126548856D01*
X113927052Y-126369925D01*
X114061626Y-126235351D01*
X116358992Y-126235351D01*
X116454756Y-126499752D01*
X116744371Y-126640642D01*
X117055908Y-126722322D01*
X117377395Y-126741656D01*
X117696475Y-126697899D01*
X118000888Y-126592733D01*
X118174844Y-126499752D01*
X118270608Y-126235351D01*
X117314800Y-125279543D01*
X116358992Y-126235351D01*
X114061626Y-126235351D01*
X114154787Y-126142190D01*
X114333718Y-125874401D01*
X114456968Y-125576850D01*
X114519800Y-125260971D01*
X114519800Y-125162533D01*
X115673082Y-125162533D01*
X115716839Y-125481613D01*
X115822005Y-125786026D01*
X115914986Y-125959982D01*
X116179387Y-126055746D01*
X117135195Y-125099938D01*
X117494405Y-125099938D01*
X118450213Y-126055746D01*
X118714614Y-125959982D01*
X118855504Y-125670367D01*
X118937184Y-125358830D01*
X118956518Y-125037343D01*
X118912761Y-124718263D01*
X118807595Y-124413850D01*
X118714614Y-124239894D01*
X118450213Y-124144130D01*
X117494405Y-125099938D01*
X117135195Y-125099938D01*
X116179387Y-124144130D01*
X115914986Y-124239894D01*
X115774096Y-124529509D01*
X115692416Y-124841046D01*
X115673082Y-125162533D01*
X114519800Y-125162533D01*
X114519800Y-124938905D01*
X114456968Y-124623026D01*
X114333718Y-124325475D01*
X114154787Y-124057686D01*
X114061626Y-123964525D01*
X116358992Y-123964525D01*
X117314800Y-124920333D01*
X118270608Y-123964525D01*
X118174844Y-123700124D01*
X117885229Y-123559234D01*
X117573692Y-123477554D01*
X117252205Y-123458220D01*
X116933125Y-123501977D01*
X116628712Y-123607143D01*
X116454756Y-123700124D01*
X116358992Y-123964525D01*
X114061626Y-123964525D01*
X113927052Y-123829951D01*
X113659263Y-123651020D01*
X113361712Y-123527770D01*
X113045833Y-123464938D01*
X112723767Y-123464938D01*
X112407888Y-123527770D01*
X112110337Y-123651020D01*
X111842548Y-123829951D01*
X111614813Y-124057686D01*
X111435882Y-124325475D01*
X111312632Y-124623026D01*
X111249800Y-124938905D01*
X102272511Y-124938905D01*
X102281516Y-124931515D01*
X102454141Y-124721171D01*
X102582412Y-124481192D01*
X102661402Y-124220799D01*
X102688073Y-123950000D01*
X102688073Y-122650000D01*
X102661402Y-122379201D01*
X102582412Y-122118808D01*
X102454141Y-121878829D01*
X102281516Y-121668485D01*
X102071172Y-121495860D01*
X101831193Y-121367589D01*
X101570800Y-121288599D01*
X101300001Y-121261928D01*
X101299999Y-121261928D01*
X101029200Y-121288599D01*
X100768807Y-121367589D01*
X100528828Y-121495860D01*
X100318484Y-121668485D01*
X100145859Y-121878829D01*
X100017588Y-122118808D01*
X99938598Y-122379201D01*
X99911927Y-122650000D01*
X99468073Y-122650000D01*
X99441402Y-122379201D01*
X99362412Y-122118808D01*
X99234141Y-121878829D01*
X99061516Y-121668485D01*
X98851172Y-121495860D01*
X98611193Y-121367589D01*
X98350800Y-121288599D01*
X98080001Y-121261928D01*
X98079999Y-121261928D01*
X97809200Y-121288599D01*
X97548807Y-121367589D01*
X97308828Y-121495860D01*
X97098484Y-121668485D01*
X96925859Y-121878829D01*
X96797588Y-122118808D01*
X96718598Y-122379201D01*
X96691927Y-122650000D01*
X96246004Y-122650000D01*
X96248072Y-121900000D01*
X96235812Y-121775518D01*
X96199502Y-121655820D01*
X96140537Y-121545506D01*
X96061185Y-121448815D01*
X95964494Y-121369463D01*
X95854180Y-121310498D01*
X95734482Y-121274188D01*
X95610000Y-121261928D01*
X95145750Y-121265000D01*
X94987000Y-121423750D01*
X94733000Y-121423750D01*
X94574250Y-121265000D01*
X94110000Y-121261928D01*
X93985518Y-121274188D01*
X93865820Y-121310498D01*
X93755506Y-121369463D01*
X93658815Y-121448815D01*
X93579463Y-121545506D01*
X93520498Y-121655820D01*
X93484188Y-121775518D01*
X93471928Y-121900000D01*
X93028072Y-121900000D01*
X93015812Y-121775518D01*
X92979502Y-121655820D01*
X92920537Y-121545506D01*
X92841185Y-121448815D01*
X92744494Y-121369463D01*
X92634180Y-121310498D01*
X92514482Y-121274188D01*
X92390000Y-121261928D01*
X91925750Y-121265000D01*
X91767000Y-121423750D01*
X91513000Y-121423750D01*
X91354250Y-121265000D01*
X90890000Y-121261928D01*
X90765518Y-121274188D01*
X90645820Y-121310498D01*
X90535506Y-121369463D01*
X90438815Y-121448815D01*
X90359463Y-121545506D01*
X90300498Y-121655820D01*
X90264188Y-121775518D01*
X90251928Y-121900000D01*
X89665458Y-121900000D01*
X89654141Y-121878829D01*
X89481516Y-121668485D01*
X89271172Y-121495860D01*
X89031193Y-121367589D01*
X88770800Y-121288599D01*
X88500001Y-121261928D01*
X88499999Y-121261928D01*
X88229200Y-121288599D01*
X87968807Y-121367589D01*
X87728828Y-121495860D01*
X87518484Y-121668485D01*
X87345859Y-121878829D01*
X87217588Y-122118808D01*
X87138598Y-122379201D01*
X87111927Y-122650000D01*
X86588073Y-122650000D01*
X86561402Y-122379201D01*
X86482412Y-122118808D01*
X86354141Y-121878829D01*
X86181516Y-121668485D01*
X85971172Y-121495860D01*
X85731193Y-121367589D01*
X85470800Y-121288599D01*
X85200001Y-121261928D01*
X85199999Y-121261928D01*
X84929200Y-121288599D01*
X84668807Y-121367589D01*
X84428828Y-121495860D01*
X84218484Y-121668485D01*
X84045859Y-121878829D01*
X83917588Y-122118808D01*
X83838598Y-122379201D01*
X83811927Y-122650000D01*
X70803679Y-122650000D01*
X70847699Y-122605980D01*
X71037573Y-122321813D01*
X71168361Y-122006063D01*
X71235036Y-121670865D01*
X71235036Y-121329099D01*
X71168361Y-120993901D01*
X71037573Y-120678151D01*
X70847699Y-120393984D01*
X70606034Y-120152319D01*
X70568141Y-120127000D01*
X115931895Y-120127000D01*
X115894002Y-120152319D01*
X115652337Y-120393984D01*
X115462463Y-120678151D01*
X115331675Y-120993901D01*
X115265000Y-121329099D01*
X115265000Y-121670865D01*
X115331675Y-122006063D01*
X115462463Y-122321813D01*
X115652337Y-122605980D01*
X115894002Y-122847645D01*
X116178169Y-123037519D01*
X116493919Y-123168307D01*
X116829117Y-123234982D01*
X117170883Y-123234982D01*
X117506081Y-123168307D01*
X117821831Y-123037519D01*
X118105998Y-122847645D01*
X118347663Y-122605980D01*
X118537537Y-122321813D01*
X118668325Y-122006063D01*
X118735000Y-121670865D01*
X118735000Y-121329099D01*
X118668325Y-120993901D01*
X118537537Y-120678151D01*
X118347663Y-120393984D01*
X118105998Y-120152319D01*
X118068105Y-120127000D01*
X119315000Y-120127000D01*
X119315001Y-154689989D01*
X104985000Y-154689989D01*
X104985000Y-152135304D01*
X107069192Y-152135304D01*
X107164956Y-152399705D01*
X107454571Y-152540595D01*
X107766108Y-152622275D01*
X108087595Y-152641609D01*
X108406675Y-152597852D01*
X108711088Y-152492686D01*
X108885044Y-152399705D01*
X108980808Y-152135304D01*
X115269192Y-152135304D01*
X115364956Y-152399705D01*
X115654571Y-152540595D01*
X115966108Y-152622275D01*
X116287595Y-152641609D01*
X116606675Y-152597852D01*
X116911088Y-152492686D01*
X117085044Y-152399705D01*
X117180808Y-152135304D01*
X116225000Y-151179496D01*
X115269192Y-152135304D01*
X108980808Y-152135304D01*
X108025000Y-151179496D01*
X107069192Y-152135304D01*
X104985000Y-152135304D01*
X104985000Y-151062486D01*
X106383282Y-151062486D01*
X106427039Y-151381566D01*
X106532205Y-151685979D01*
X106625186Y-151859935D01*
X106889587Y-151955699D01*
X107845395Y-150999891D01*
X108204605Y-150999891D01*
X109160413Y-151955699D01*
X109424814Y-151859935D01*
X109565704Y-151570320D01*
X109647384Y-151258783D01*
X109659189Y-151062486D01*
X114583282Y-151062486D01*
X114627039Y-151381566D01*
X114732205Y-151685979D01*
X114825186Y-151859935D01*
X115089587Y-151955699D01*
X116045395Y-150999891D01*
X116404605Y-150999891D01*
X117360413Y-151955699D01*
X117624814Y-151859935D01*
X117765704Y-151570320D01*
X117847384Y-151258783D01*
X117866718Y-150937296D01*
X117822961Y-150618216D01*
X117717795Y-150313803D01*
X117624814Y-150139847D01*
X117360413Y-150044083D01*
X116404605Y-150999891D01*
X116045395Y-150999891D01*
X115089587Y-150044083D01*
X114825186Y-150139847D01*
X114684296Y-150429462D01*
X114602616Y-150740999D01*
X114583282Y-151062486D01*
X109659189Y-151062486D01*
X109666718Y-150937296D01*
X109622961Y-150618216D01*
X109517795Y-150313803D01*
X109424814Y-150139847D01*
X109160413Y-150044083D01*
X108204605Y-150999891D01*
X107845395Y-150999891D01*
X106889587Y-150044083D01*
X106625186Y-150139847D01*
X106484296Y-150429462D01*
X106402616Y-150740999D01*
X106383282Y-151062486D01*
X104985000Y-151062486D01*
X104985000Y-149864478D01*
X107069192Y-149864478D01*
X108025000Y-150820286D01*
X108980808Y-149864478D01*
X115269192Y-149864478D01*
X116225000Y-150820286D01*
X117180808Y-149864478D01*
X117085044Y-149600077D01*
X116795429Y-149459187D01*
X116483892Y-149377507D01*
X116162405Y-149358173D01*
X115843325Y-149401930D01*
X115538912Y-149507096D01*
X115364956Y-149600077D01*
X115269192Y-149864478D01*
X108980808Y-149864478D01*
X108885044Y-149600077D01*
X108595429Y-149459187D01*
X108283892Y-149377507D01*
X107962405Y-149358173D01*
X107643325Y-149401930D01*
X107338912Y-149507096D01*
X107164956Y-149600077D01*
X107069192Y-149864478D01*
X104985000Y-149864478D01*
X104985000Y-148712612D01*
X104988314Y-148678965D01*
X104975088Y-148544682D01*
X104935919Y-148415559D01*
X104872312Y-148296558D01*
X104786711Y-148192254D01*
X104682407Y-148106653D01*
X104563406Y-148043046D01*
X104434283Y-148003877D01*
X104333647Y-147993965D01*
X104300000Y-147990651D01*
X104266353Y-147993965D01*
X82233647Y-147993965D01*
X82200000Y-147990651D01*
X82166353Y-147993965D01*
X82065717Y-148003877D01*
X81936594Y-148043046D01*
X81817593Y-148106653D01*
X81713289Y-148192254D01*
X81627688Y-148296558D01*
X81564081Y-148415559D01*
X81524912Y-148544682D01*
X81511686Y-148678965D01*
X81515000Y-148712612D01*
X81515001Y-154689989D01*
X67185036Y-154689989D01*
X67185036Y-152135304D01*
X69319357Y-152135304D01*
X69415121Y-152399705D01*
X69704736Y-152540595D01*
X70016273Y-152622275D01*
X70337760Y-152641609D01*
X70656840Y-152597852D01*
X70961253Y-152492686D01*
X71135209Y-152399705D01*
X71230973Y-152135304D01*
X77519357Y-152135304D01*
X77615121Y-152399705D01*
X77904736Y-152540595D01*
X78216273Y-152622275D01*
X78537760Y-152641609D01*
X78856840Y-152597852D01*
X79161253Y-152492686D01*
X79335209Y-152399705D01*
X79430973Y-152135304D01*
X78475165Y-151179496D01*
X77519357Y-152135304D01*
X71230973Y-152135304D01*
X70275165Y-151179496D01*
X69319357Y-152135304D01*
X67185036Y-152135304D01*
X67185036Y-151062486D01*
X68633447Y-151062486D01*
X68677204Y-151381566D01*
X68782370Y-151685979D01*
X68875351Y-151859935D01*
X69139752Y-151955699D01*
X70095560Y-150999891D01*
X70454770Y-150999891D01*
X71410578Y-151955699D01*
X71674979Y-151859935D01*
X71815869Y-151570320D01*
X71897549Y-151258783D01*
X71909354Y-151062486D01*
X76833447Y-151062486D01*
X76877204Y-151381566D01*
X76982370Y-151685979D01*
X77075351Y-151859935D01*
X77339752Y-151955699D01*
X78295560Y-150999891D01*
X78654770Y-150999891D01*
X79610578Y-151955699D01*
X79874979Y-151859935D01*
X80015869Y-151570320D01*
X80097549Y-151258783D01*
X80116883Y-150937296D01*
X80073126Y-150618216D01*
X79967960Y-150313803D01*
X79874979Y-150139847D01*
X79610578Y-150044083D01*
X78654770Y-150999891D01*
X78295560Y-150999891D01*
X77339752Y-150044083D01*
X77075351Y-150139847D01*
X76934461Y-150429462D01*
X76852781Y-150740999D01*
X76833447Y-151062486D01*
X71909354Y-151062486D01*
X71916883Y-150937296D01*
X71873126Y-150618216D01*
X71767960Y-150313803D01*
X71674979Y-150139847D01*
X71410578Y-150044083D01*
X70454770Y-150999891D01*
X70095560Y-150999891D01*
X69139752Y-150044083D01*
X68875351Y-150139847D01*
X68734461Y-150429462D01*
X68652781Y-150740999D01*
X68633447Y-151062486D01*
X67185036Y-151062486D01*
X67185036Y-149864478D01*
X69319357Y-149864478D01*
X70275165Y-150820286D01*
X71230973Y-149864478D01*
X77519357Y-149864478D01*
X78475165Y-150820286D01*
X79430973Y-149864478D01*
X79335209Y-149600077D01*
X79045594Y-149459187D01*
X78734057Y-149377507D01*
X78412570Y-149358173D01*
X78093490Y-149401930D01*
X77789077Y-149507096D01*
X77615121Y-149600077D01*
X77519357Y-149864478D01*
X71230973Y-149864478D01*
X71135209Y-149600077D01*
X70845594Y-149459187D01*
X70534057Y-149377507D01*
X70212570Y-149358173D01*
X69893490Y-149401930D01*
X69589077Y-149507096D01*
X69415121Y-149600077D01*
X69319357Y-149864478D01*
X67185036Y-149864478D01*
X67185036Y-146408858D01*
X68640165Y-146408858D01*
X68640165Y-146730924D01*
X68702997Y-147046803D01*
X68826247Y-147344354D01*
X69005178Y-147612143D01*
X69232913Y-147839878D01*
X69500702Y-148018809D01*
X69798253Y-148142059D01*
X70114132Y-148204891D01*
X70436198Y-148204891D01*
X70752077Y-148142059D01*
X71049628Y-148018809D01*
X71317417Y-147839878D01*
X71545152Y-147612143D01*
X71724083Y-147344354D01*
X71847333Y-147046803D01*
X71910165Y-146730924D01*
X71910165Y-146408858D01*
X76840165Y-146408858D01*
X76840165Y-146730924D01*
X76902997Y-147046803D01*
X77026247Y-147344354D01*
X77205178Y-147612143D01*
X77432913Y-147839878D01*
X77700702Y-148018809D01*
X77998253Y-148142059D01*
X78314132Y-148204891D01*
X78636198Y-148204891D01*
X78952077Y-148142059D01*
X79249628Y-148018809D01*
X79517417Y-147839878D01*
X79745152Y-147612143D01*
X79924083Y-147344354D01*
X80047333Y-147046803D01*
X80110165Y-146730924D01*
X80110165Y-146408858D01*
X106390000Y-146408858D01*
X106390000Y-146730924D01*
X106452832Y-147046803D01*
X106576082Y-147344354D01*
X106755013Y-147612143D01*
X106982748Y-147839878D01*
X107250537Y-148018809D01*
X107548088Y-148142059D01*
X107863967Y-148204891D01*
X108186033Y-148204891D01*
X108501912Y-148142059D01*
X108799463Y-148018809D01*
X109067252Y-147839878D01*
X109294987Y-147612143D01*
X109473918Y-147344354D01*
X109597168Y-147046803D01*
X109660000Y-146730924D01*
X109660000Y-146408858D01*
X114590000Y-146408858D01*
X114590000Y-146730924D01*
X114652832Y-147046803D01*
X114776082Y-147344354D01*
X114955013Y-147612143D01*
X115182748Y-147839878D01*
X115450537Y-148018809D01*
X115748088Y-148142059D01*
X116063967Y-148204891D01*
X116386033Y-148204891D01*
X116701912Y-148142059D01*
X116999463Y-148018809D01*
X117267252Y-147839878D01*
X117494987Y-147612143D01*
X117673918Y-147344354D01*
X117797168Y-147046803D01*
X117860000Y-146730924D01*
X117860000Y-146408858D01*
X117797168Y-146092979D01*
X117673918Y-145795428D01*
X117494987Y-145527639D01*
X117267252Y-145299904D01*
X116999463Y-145120973D01*
X116701912Y-144997723D01*
X116386033Y-144934891D01*
X116063967Y-144934891D01*
X115748088Y-144997723D01*
X115450537Y-145120973D01*
X115182748Y-145299904D01*
X114955013Y-145527639D01*
X114776082Y-145795428D01*
X114652832Y-146092979D01*
X114590000Y-146408858D01*
X109660000Y-146408858D01*
X109597168Y-146092979D01*
X109473918Y-145795428D01*
X109294987Y-145527639D01*
X109067252Y-145299904D01*
X108799463Y-145120973D01*
X108501912Y-144997723D01*
X108186033Y-144934891D01*
X107863967Y-144934891D01*
X107548088Y-144997723D01*
X107250537Y-145120973D01*
X106982748Y-145299904D01*
X106755013Y-145527639D01*
X106576082Y-145795428D01*
X106452832Y-146092979D01*
X106390000Y-146408858D01*
X80110165Y-146408858D01*
X80047333Y-146092979D01*
X79924083Y-145795428D01*
X79745152Y-145527639D01*
X79517417Y-145299904D01*
X79249628Y-145120973D01*
X78952077Y-144997723D01*
X78636198Y-144934891D01*
X78566264Y-144934891D01*
X78507888Y-144921739D01*
X78507871Y-144921739D01*
X78507860Y-144921736D01*
X78439561Y-144920015D01*
X78358230Y-144917962D01*
X78358216Y-144917964D01*
X78358201Y-144917964D01*
X78274778Y-144932383D01*
X78210709Y-144943454D01*
X78175689Y-144956935D01*
X78161794Y-144960770D01*
X78138025Y-144969921D01*
X77998253Y-144997723D01*
X77700702Y-145120973D01*
X77432913Y-145299904D01*
X77205178Y-145527639D01*
X77026247Y-145795428D01*
X76902997Y-146092979D01*
X76840165Y-146408858D01*
X71910165Y-146408858D01*
X71847333Y-146092979D01*
X71724083Y-145795428D01*
X71545152Y-145527639D01*
X71317417Y-145299904D01*
X71049628Y-145120973D01*
X70752077Y-144997723D01*
X70436198Y-144934891D01*
X70114132Y-144934891D01*
X69798253Y-144997723D01*
X69500702Y-145120973D01*
X69232913Y-145299904D01*
X69005178Y-145527639D01*
X68826247Y-145795428D01*
X68702997Y-146092979D01*
X68640165Y-146408858D01*
X67185036Y-146408858D01*
X67185036Y-142504362D01*
X83540151Y-142504362D01*
X83540151Y-142846128D01*
X83606826Y-143181326D01*
X83737614Y-143497076D01*
X83927488Y-143781243D01*
X84169153Y-144022908D01*
X84453320Y-144212782D01*
X84769070Y-144343570D01*
X85104268Y-144410245D01*
X85446034Y-144410245D01*
X85781232Y-144343570D01*
X86096982Y-144212782D01*
X86381149Y-144022908D01*
X86622814Y-143781243D01*
X86812688Y-143497076D01*
X86943476Y-143181326D01*
X87010151Y-142846128D01*
X87010151Y-142504362D01*
X99490151Y-142504362D01*
X99490151Y-142846128D01*
X99556826Y-143181326D01*
X99687614Y-143497076D01*
X99877488Y-143781243D01*
X100119153Y-144022908D01*
X100403320Y-144212782D01*
X100719070Y-144343570D01*
X101054268Y-144410245D01*
X101396034Y-144410245D01*
X101731232Y-144343570D01*
X102046982Y-144212782D01*
X102331149Y-144022908D01*
X102572814Y-143781243D01*
X102762688Y-143497076D01*
X102893476Y-143181326D01*
X102960151Y-142846128D01*
X102960151Y-142504362D01*
X102893476Y-142169164D01*
X102762688Y-141853414D01*
X102572814Y-141569247D01*
X102331149Y-141327582D01*
X102046982Y-141137708D01*
X101731232Y-141006920D01*
X101396034Y-140940245D01*
X101054268Y-140940245D01*
X100719070Y-141006920D01*
X100403320Y-141137708D01*
X100119153Y-141327582D01*
X99877488Y-141569247D01*
X99687614Y-141853414D01*
X99556826Y-142169164D01*
X99490151Y-142504362D01*
X87010151Y-142504362D01*
X86943476Y-142169164D01*
X86812688Y-141853414D01*
X86622814Y-141569247D01*
X86381149Y-141327582D01*
X86096982Y-141137708D01*
X85781232Y-141006920D01*
X85446034Y-140940245D01*
X85104268Y-140940245D01*
X84769070Y-141006920D01*
X84453320Y-141137708D01*
X84169153Y-141327582D01*
X83927488Y-141569247D01*
X83737614Y-141853414D01*
X83606826Y-142169164D01*
X83540151Y-142504362D01*
X67185036Y-142504362D01*
X67185036Y-134435413D01*
X68244192Y-134435413D01*
X68339956Y-134699814D01*
X68629571Y-134840704D01*
X68941108Y-134922384D01*
X69262595Y-134941718D01*
X69581675Y-134897961D01*
X69886088Y-134792795D01*
X70060044Y-134699814D01*
X70155808Y-134435413D01*
X69200000Y-133479605D01*
X68244192Y-134435413D01*
X67185036Y-134435413D01*
X67185036Y-133362595D01*
X67558282Y-133362595D01*
X67602039Y-133681675D01*
X67707205Y-133986088D01*
X67800186Y-134160044D01*
X68064587Y-134255808D01*
X69020395Y-133300000D01*
X69379605Y-133300000D01*
X70335413Y-134255808D01*
X70599814Y-134160044D01*
X70740704Y-133870429D01*
X70822384Y-133558892D01*
X70841718Y-133237405D01*
X70828219Y-133138967D01*
X71995000Y-133138967D01*
X71995000Y-133461033D01*
X72057832Y-133776912D01*
X72181082Y-134074463D01*
X72360013Y-134342252D01*
X72587748Y-134569987D01*
X72855537Y-134748918D01*
X73153088Y-134872168D01*
X73468967Y-134935000D01*
X73791033Y-134935000D01*
X74106912Y-134872168D01*
X74404463Y-134748918D01*
X74672252Y-134569987D01*
X74899987Y-134342252D01*
X75078918Y-134074463D01*
X75202168Y-133776912D01*
X75265000Y-133461033D01*
X75265000Y-133138967D01*
X75264988Y-133138905D01*
X111249800Y-133138905D01*
X111249800Y-133460971D01*
X111312632Y-133776850D01*
X111435882Y-134074401D01*
X111614813Y-134342190D01*
X111842548Y-134569925D01*
X112110337Y-134748856D01*
X112407888Y-134872106D01*
X112723767Y-134934938D01*
X113045833Y-134934938D01*
X113361712Y-134872106D01*
X113659263Y-134748856D01*
X113927052Y-134569925D01*
X114061626Y-134435351D01*
X116358992Y-134435351D01*
X116454756Y-134699752D01*
X116744371Y-134840642D01*
X117055908Y-134922322D01*
X117377395Y-134941656D01*
X117696475Y-134897899D01*
X118000888Y-134792733D01*
X118174844Y-134699752D01*
X118270608Y-134435351D01*
X117314800Y-133479543D01*
X116358992Y-134435351D01*
X114061626Y-134435351D01*
X114154787Y-134342190D01*
X114333718Y-134074401D01*
X114456968Y-133776850D01*
X114519800Y-133460971D01*
X114519800Y-133362533D01*
X115673082Y-133362533D01*
X115716839Y-133681613D01*
X115822005Y-133986026D01*
X115914986Y-134159982D01*
X116179387Y-134255746D01*
X117135195Y-133299938D01*
X117494405Y-133299938D01*
X118450213Y-134255746D01*
X118714614Y-134159982D01*
X118855504Y-133870367D01*
X118937184Y-133558830D01*
X118956518Y-133237343D01*
X118912761Y-132918263D01*
X118807595Y-132613850D01*
X118714614Y-132439894D01*
X118450213Y-132344130D01*
X117494405Y-133299938D01*
X117135195Y-133299938D01*
X116179387Y-132344130D01*
X115914986Y-132439894D01*
X115774096Y-132729509D01*
X115692416Y-133041046D01*
X115673082Y-133362533D01*
X114519800Y-133362533D01*
X114519800Y-133138905D01*
X114456968Y-132823026D01*
X114333718Y-132525475D01*
X114154787Y-132257686D01*
X114061626Y-132164525D01*
X116358992Y-132164525D01*
X117314800Y-133120333D01*
X118270608Y-132164525D01*
X118174844Y-131900124D01*
X117885229Y-131759234D01*
X117573692Y-131677554D01*
X117252205Y-131658220D01*
X116933125Y-131701977D01*
X116628712Y-131807143D01*
X116454756Y-131900124D01*
X116358992Y-132164525D01*
X114061626Y-132164525D01*
X113927052Y-132029951D01*
X113659263Y-131851020D01*
X113361712Y-131727770D01*
X113045833Y-131664938D01*
X112723767Y-131664938D01*
X112407888Y-131727770D01*
X112110337Y-131851020D01*
X111842548Y-132029951D01*
X111614813Y-132257686D01*
X111435882Y-132525475D01*
X111312632Y-132823026D01*
X111249800Y-133138905D01*
X75264988Y-133138905D01*
X75202168Y-132823088D01*
X75078918Y-132525537D01*
X74899987Y-132257748D01*
X74672252Y-132030013D01*
X74404463Y-131851082D01*
X74106912Y-131727832D01*
X73791033Y-131665000D01*
X73468967Y-131665000D01*
X73153088Y-131727832D01*
X72855537Y-131851082D01*
X72587748Y-132030013D01*
X72360013Y-132257748D01*
X72181082Y-132525537D01*
X72057832Y-132823088D01*
X71995000Y-133138967D01*
X70828219Y-133138967D01*
X70797961Y-132918325D01*
X70692795Y-132613912D01*
X70599814Y-132439956D01*
X70335413Y-132344192D01*
X69379605Y-133300000D01*
X69020395Y-133300000D01*
X68064587Y-132344192D01*
X67800186Y-132439956D01*
X67659296Y-132729571D01*
X67577616Y-133041108D01*
X67558282Y-133362595D01*
X67185036Y-133362595D01*
X67185036Y-132164587D01*
X68244192Y-132164587D01*
X69200000Y-133120395D01*
X70155808Y-132164587D01*
X70060044Y-131900186D01*
X69770429Y-131759296D01*
X69458892Y-131677616D01*
X69137405Y-131658282D01*
X68818325Y-131702039D01*
X68513912Y-131807205D01*
X68339956Y-131900186D01*
X68244192Y-132164587D01*
X67185036Y-132164587D01*
X67185036Y-128050000D01*
X83811927Y-128050000D01*
X83811927Y-129350000D01*
X83838598Y-129620799D01*
X83917588Y-129881192D01*
X84045859Y-130121171D01*
X84218484Y-130331515D01*
X84428828Y-130504140D01*
X84668807Y-130632411D01*
X84929200Y-130711401D01*
X85199999Y-130738072D01*
X85200001Y-130738072D01*
X85470800Y-130711401D01*
X85731193Y-130632411D01*
X85971172Y-130504140D01*
X86181516Y-130331515D01*
X86354141Y-130121171D01*
X86482412Y-129881192D01*
X86561402Y-129620799D01*
X86588073Y-129350000D01*
X86588073Y-128050000D01*
X87821927Y-128050000D01*
X87821927Y-129350000D01*
X87848598Y-129620799D01*
X87927588Y-129881192D01*
X88055859Y-130121171D01*
X88228484Y-130331515D01*
X88438828Y-130504140D01*
X88678807Y-130632411D01*
X88939200Y-130711401D01*
X89209999Y-130738072D01*
X89210001Y-130738072D01*
X89480800Y-130711401D01*
X89741193Y-130632411D01*
X89981172Y-130504140D01*
X90191516Y-130331515D01*
X90364141Y-130121171D01*
X90375457Y-130100000D01*
X91851928Y-130100000D01*
X91864188Y-130224482D01*
X91900498Y-130344180D01*
X91959463Y-130454494D01*
X92038815Y-130551185D01*
X92135506Y-130630537D01*
X92245820Y-130689502D01*
X92365518Y-130725812D01*
X92490000Y-130738072D01*
X92954250Y-130735000D01*
X93113000Y-130576250D01*
X93113000Y-128827000D01*
X93367000Y-128827000D01*
X93367000Y-130576250D01*
X93525750Y-130735000D01*
X93990000Y-130738072D01*
X94114482Y-130725812D01*
X94234180Y-130689502D01*
X94344494Y-130630537D01*
X94441185Y-130551185D01*
X94520537Y-130454494D01*
X94579502Y-130344180D01*
X94615812Y-130224482D01*
X94628072Y-130100000D01*
X94625000Y-128985750D01*
X94466250Y-128827000D01*
X93367000Y-128827000D01*
X93113000Y-128827000D01*
X92013750Y-128827000D01*
X91855000Y-128985750D01*
X91851928Y-130100000D01*
X90375457Y-130100000D01*
X90492412Y-129881192D01*
X90571402Y-129620799D01*
X90598073Y-129350000D01*
X90598073Y-128050000D01*
X90571402Y-127779201D01*
X90492412Y-127518808D01*
X90375458Y-127300000D01*
X91851928Y-127300000D01*
X91855000Y-128414250D01*
X92013750Y-128573000D01*
X93113000Y-128573000D01*
X93113000Y-126823750D01*
X93367000Y-126823750D01*
X93367000Y-128573000D01*
X94466250Y-128573000D01*
X94625000Y-128414250D01*
X94626004Y-128050000D01*
X95881927Y-128050000D01*
X95881927Y-129350000D01*
X95908598Y-129620799D01*
X95987588Y-129881192D01*
X96115859Y-130121171D01*
X96288484Y-130331515D01*
X96498828Y-130504140D01*
X96738807Y-130632411D01*
X96999200Y-130711401D01*
X97269999Y-130738072D01*
X97270001Y-130738072D01*
X97540800Y-130711401D01*
X97801193Y-130632411D01*
X98041172Y-130504140D01*
X98251516Y-130331515D01*
X98424141Y-130121171D01*
X98552412Y-129881192D01*
X98631402Y-129620799D01*
X98658073Y-129350000D01*
X98658073Y-128050000D01*
X99911927Y-128050000D01*
X99911927Y-129350000D01*
X99938598Y-129620799D01*
X100017588Y-129881192D01*
X100145859Y-130121171D01*
X100318484Y-130331515D01*
X100528828Y-130504140D01*
X100768807Y-130632411D01*
X101029200Y-130711401D01*
X101299999Y-130738072D01*
X101300001Y-130738072D01*
X101570800Y-130711401D01*
X101831193Y-130632411D01*
X102071172Y-130504140D01*
X102281516Y-130331515D01*
X102454141Y-130121171D01*
X102582412Y-129881192D01*
X102661402Y-129620799D01*
X102688073Y-129350000D01*
X102688073Y-128050000D01*
X102661402Y-127779201D01*
X102582412Y-127518808D01*
X102454141Y-127278829D01*
X102281516Y-127068485D01*
X102071172Y-126895860D01*
X101831193Y-126767589D01*
X101570800Y-126688599D01*
X101300001Y-126661928D01*
X101299999Y-126661928D01*
X101029200Y-126688599D01*
X100768807Y-126767589D01*
X100528828Y-126895860D01*
X100318484Y-127068485D01*
X100145859Y-127278829D01*
X100017588Y-127518808D01*
X99938598Y-127779201D01*
X99911927Y-128050000D01*
X98658073Y-128050000D01*
X98631402Y-127779201D01*
X98552412Y-127518808D01*
X98424141Y-127278829D01*
X98251516Y-127068485D01*
X98041172Y-126895860D01*
X97801193Y-126767589D01*
X97540800Y-126688599D01*
X97270001Y-126661928D01*
X97269999Y-126661928D01*
X96999200Y-126688599D01*
X96738807Y-126767589D01*
X96498828Y-126895860D01*
X96288484Y-127068485D01*
X96115859Y-127278829D01*
X95987588Y-127518808D01*
X95908598Y-127779201D01*
X95881927Y-128050000D01*
X94626004Y-128050000D01*
X94628072Y-127300000D01*
X94615812Y-127175518D01*
X94579502Y-127055820D01*
X94520537Y-126945506D01*
X94441185Y-126848815D01*
X94344494Y-126769463D01*
X94234180Y-126710498D01*
X94114482Y-126674188D01*
X93990000Y-126661928D01*
X93525750Y-126665000D01*
X93367000Y-126823750D01*
X93113000Y-126823750D01*
X92954250Y-126665000D01*
X92490000Y-126661928D01*
X92365518Y-126674188D01*
X92245820Y-126710498D01*
X92135506Y-126769463D01*
X92038815Y-126848815D01*
X91959463Y-126945506D01*
X91900498Y-127055820D01*
X91864188Y-127175518D01*
X91851928Y-127300000D01*
X90375458Y-127300000D01*
X90364141Y-127278829D01*
X90191516Y-127068485D01*
X89981172Y-126895860D01*
X89741193Y-126767589D01*
X89480800Y-126688599D01*
X89210001Y-126661928D01*
X89209999Y-126661928D01*
X88939200Y-126688599D01*
X88678807Y-126767589D01*
X88438828Y-126895860D01*
X88228484Y-127068485D01*
X88055859Y-127278829D01*
X87927588Y-127518808D01*
X87848598Y-127779201D01*
X87821927Y-128050000D01*
X86588073Y-128050000D01*
X86561402Y-127779201D01*
X86482412Y-127518808D01*
X86354141Y-127278829D01*
X86181516Y-127068485D01*
X85971172Y-126895860D01*
X85731193Y-126767589D01*
X85470800Y-126688599D01*
X85200001Y-126661928D01*
X85199999Y-126661928D01*
X84929200Y-126688599D01*
X84668807Y-126767589D01*
X84428828Y-126895860D01*
X84218484Y-127068485D01*
X84045859Y-127278829D01*
X83917588Y-127518808D01*
X83838598Y-127779201D01*
X83811927Y-128050000D01*
X67185036Y-128050000D01*
X67185036Y-126235413D01*
X68244192Y-126235413D01*
X68339956Y-126499814D01*
X68629571Y-126640704D01*
X68941108Y-126722384D01*
X69262595Y-126741718D01*
X69581675Y-126697961D01*
X69886088Y-126592795D01*
X70060044Y-126499814D01*
X70155808Y-126235413D01*
X69200000Y-125279605D01*
X68244192Y-126235413D01*
X67185036Y-126235413D01*
X67185036Y-125162595D01*
X67558282Y-125162595D01*
X67602039Y-125481675D01*
X67707205Y-125786088D01*
X67800186Y-125960044D01*
X68064587Y-126055808D01*
X69020395Y-125100000D01*
X69379605Y-125100000D01*
X70335413Y-126055808D01*
X70599814Y-125960044D01*
X70740704Y-125670429D01*
X70822384Y-125358892D01*
X70841718Y-125037405D01*
X70828219Y-124938967D01*
X71995000Y-124938967D01*
X71995000Y-125261033D01*
X72057832Y-125576912D01*
X72181082Y-125874463D01*
X72360013Y-126142252D01*
X72587748Y-126369987D01*
X72855537Y-126548918D01*
X73153088Y-126672168D01*
X73468967Y-126735000D01*
X73791033Y-126735000D01*
X74106912Y-126672168D01*
X74404463Y-126548918D01*
X74672252Y-126369987D01*
X74899987Y-126142252D01*
X75078918Y-125874463D01*
X75202168Y-125576912D01*
X75265000Y-125261033D01*
X75265000Y-124938967D01*
X75202168Y-124623088D01*
X75078918Y-124325537D01*
X74899987Y-124057748D01*
X74672252Y-123830013D01*
X74404463Y-123651082D01*
X74106912Y-123527832D01*
X73791033Y-123465000D01*
X73468967Y-123465000D01*
X73153088Y-123527832D01*
X72855537Y-123651082D01*
X72587748Y-123830013D01*
X72360013Y-124057748D01*
X72181082Y-124325537D01*
X72057832Y-124623088D01*
X71995000Y-124938967D01*
X70828219Y-124938967D01*
X70797961Y-124718325D01*
X70692795Y-124413912D01*
X70599814Y-124239956D01*
X70335413Y-124144192D01*
X69379605Y-125100000D01*
X69020395Y-125100000D01*
X68064587Y-124144192D01*
X67800186Y-124239956D01*
X67659296Y-124529571D01*
X67577616Y-124841108D01*
X67558282Y-125162595D01*
X67185036Y-125162595D01*
X67185036Y-123964587D01*
X68244192Y-123964587D01*
X69200000Y-124920395D01*
X70155808Y-123964587D01*
X70060044Y-123700186D01*
X69770429Y-123559296D01*
X69458892Y-123477616D01*
X69137405Y-123458282D01*
X68818325Y-123502039D01*
X68513912Y-123607205D01*
X68339956Y-123700186D01*
X68244192Y-123964587D01*
X67185036Y-123964587D01*
X67185036Y-120127000D01*
X68431931Y-120127000D01*
X68394038Y-120152319D01*
G37*
G04 #@! TD.AperFunction*
D12*
X119315001Y-154689989D02*
X104985000Y-154689989D01*
X104985000Y-152135304D01*
X107069192Y-152135304D01*
X107164956Y-152399705D01*
X107454571Y-152540595D01*
X107766108Y-152622275D01*
X108087595Y-152641609D01*
X108406675Y-152597852D01*
X108711088Y-152492686D01*
X108885044Y-152399705D01*
X108980808Y-152135304D01*
X115269192Y-152135304D01*
X115364956Y-152399705D01*
X115654571Y-152540595D01*
X115966108Y-152622275D01*
X116287595Y-152641609D01*
X116606675Y-152597852D01*
X116911088Y-152492686D01*
X117085044Y-152399705D01*
X117180808Y-152135304D01*
X116225000Y-151179496D01*
X115269192Y-152135304D01*
X108980808Y-152135304D01*
X108025000Y-151179496D01*
X107069192Y-152135304D01*
X104985000Y-152135304D01*
X104985000Y-151062486D01*
X106383282Y-151062486D01*
X106427039Y-151381566D01*
X106532205Y-151685979D01*
X106625186Y-151859935D01*
X106889587Y-151955699D01*
X107845395Y-150999891D01*
X108204605Y-150999891D01*
X109160413Y-151955699D01*
X109424814Y-151859935D01*
X109565704Y-151570320D01*
X109647384Y-151258783D01*
X109659189Y-151062486D01*
X114583282Y-151062486D01*
X114627039Y-151381566D01*
X114732205Y-151685979D01*
X114825186Y-151859935D01*
X115089587Y-151955699D01*
X116045395Y-150999891D01*
X116404605Y-150999891D01*
X117360413Y-151955699D01*
X117624814Y-151859935D01*
X117765704Y-151570320D01*
X117847384Y-151258783D01*
X117866718Y-150937296D01*
X117822961Y-150618216D01*
X117717795Y-150313803D01*
X117624814Y-150139847D01*
X117360413Y-150044083D01*
X116404605Y-150999891D01*
X116045395Y-150999891D01*
X115089587Y-150044083D01*
X114825186Y-150139847D01*
X114684296Y-150429462D01*
X114602616Y-150740999D01*
X114583282Y-151062486D01*
X109659189Y-151062486D01*
X109666718Y-150937296D01*
X109622961Y-150618216D01*
X109517795Y-150313803D01*
X109424814Y-150139847D01*
X109160413Y-150044083D01*
X108204605Y-150999891D01*
X107845395Y-150999891D01*
X106889587Y-150044083D01*
X106625186Y-150139847D01*
X106484296Y-150429462D01*
X106402616Y-150740999D01*
X106383282Y-151062486D01*
X104985000Y-151062486D01*
X104985000Y-149864478D01*
X107069192Y-149864478D01*
X108025000Y-150820286D01*
X108980808Y-149864478D01*
X115269192Y-149864478D01*
X116225000Y-150820286D01*
X117180808Y-149864478D01*
X117085044Y-149600077D01*
X116795429Y-149459187D01*
X116483892Y-149377507D01*
X116162405Y-149358173D01*
X115843325Y-149401930D01*
X115538912Y-149507096D01*
X115364956Y-149600077D01*
X115269192Y-149864478D01*
X108980808Y-149864478D01*
X108885044Y-149600077D01*
X108595429Y-149459187D01*
X108283892Y-149377507D01*
X107962405Y-149358173D01*
X107643325Y-149401930D01*
X107338912Y-149507096D01*
X107164956Y-149600077D01*
X107069192Y-149864478D01*
X104985000Y-149864478D01*
X104985000Y-148712612D01*
X104988314Y-148678965D01*
X104975088Y-148544682D01*
X104935919Y-148415559D01*
X104872312Y-148296558D01*
X104786711Y-148192254D01*
X104682407Y-148106653D01*
X104563406Y-148043046D01*
X104434283Y-148003877D01*
X104333647Y-147993965D01*
X104300000Y-147990651D01*
X104266353Y-147993965D01*
X82233647Y-147993965D01*
X82200000Y-147990651D01*
X82166353Y-147993965D01*
X82065717Y-148003877D01*
X81936594Y-148043046D01*
X81817593Y-148106653D01*
X81713289Y-148192254D01*
X81627688Y-148296558D01*
X81564081Y-148415559D01*
X81524912Y-148544682D01*
X81511686Y-148678965D01*
X81515000Y-148712612D01*
X81515001Y-154689989D01*
X67185036Y-154689989D01*
X67185036Y-152135304D01*
X69319357Y-152135304D01*
X69415121Y-152399705D01*
X69704736Y-152540595D01*
X70016273Y-152622275D01*
X70337760Y-152641609D01*
X70656840Y-152597852D01*
X70961253Y-152492686D01*
X71135209Y-152399705D01*
X71230973Y-152135304D01*
X77519357Y-152135304D01*
X77615121Y-152399705D01*
X77904736Y-152540595D01*
X78216273Y-152622275D01*
X78537760Y-152641609D01*
X78856840Y-152597852D01*
X79161253Y-152492686D01*
X79335209Y-152399705D01*
X79430973Y-152135304D01*
X78475165Y-151179496D01*
X77519357Y-152135304D01*
X71230973Y-152135304D01*
X70275165Y-151179496D01*
X69319357Y-152135304D01*
X67185036Y-152135304D01*
X67185036Y-151062486D01*
X68633447Y-151062486D01*
X68677204Y-151381566D01*
X68782370Y-151685979D01*
X68875351Y-151859935D01*
X69139752Y-151955699D01*
X70095560Y-150999891D01*
X70454770Y-150999891D01*
X71410578Y-151955699D01*
X71674979Y-151859935D01*
X71815869Y-151570320D01*
X71897549Y-151258783D01*
X71909354Y-151062486D01*
X76833447Y-151062486D01*
X76877204Y-151381566D01*
X76982370Y-151685979D01*
X77075351Y-151859935D01*
X77339752Y-151955699D01*
X78295560Y-150999891D01*
X78654770Y-150999891D01*
X79610578Y-151955699D01*
X79874979Y-151859935D01*
X80015869Y-151570320D01*
X80097549Y-151258783D01*
X80116883Y-150937296D01*
X80073126Y-150618216D01*
X79967960Y-150313803D01*
X79874979Y-150139847D01*
X79610578Y-150044083D01*
X78654770Y-150999891D01*
X78295560Y-150999891D01*
X77339752Y-150044083D01*
X77075351Y-150139847D01*
X76934461Y-150429462D01*
X76852781Y-150740999D01*
X76833447Y-151062486D01*
X71909354Y-151062486D01*
X71916883Y-150937296D01*
X71873126Y-150618216D01*
X71767960Y-150313803D01*
X71674979Y-150139847D01*
X71410578Y-150044083D01*
X70454770Y-150999891D01*
X70095560Y-150999891D01*
X69139752Y-150044083D01*
X68875351Y-150139847D01*
X68734461Y-150429462D01*
X68652781Y-150740999D01*
X68633447Y-151062486D01*
X67185036Y-151062486D01*
X67185036Y-149864478D01*
X69319357Y-149864478D01*
X70275165Y-150820286D01*
X71230973Y-149864478D01*
X77519357Y-149864478D01*
X78475165Y-150820286D01*
X79430973Y-149864478D01*
X79335209Y-149600077D01*
X79045594Y-149459187D01*
X78734057Y-149377507D01*
X78412570Y-149358173D01*
X78093490Y-149401930D01*
X77789077Y-149507096D01*
X77615121Y-149600077D01*
X77519357Y-149864478D01*
X71230973Y-149864478D01*
X71135209Y-149600077D01*
X70845594Y-149459187D01*
X70534057Y-149377507D01*
X70212570Y-149358173D01*
X69893490Y-149401930D01*
X69589077Y-149507096D01*
X69415121Y-149600077D01*
X69319357Y-149864478D01*
X67185036Y-149864478D01*
X67185036Y-146408858D01*
X68640165Y-146408858D01*
X68640165Y-146730924D01*
X68702997Y-147046803D01*
X68826247Y-147344354D01*
X69005178Y-147612143D01*
X69232913Y-147839878D01*
X69500702Y-148018809D01*
X69798253Y-148142059D01*
X70114132Y-148204891D01*
X70436198Y-148204891D01*
X70752077Y-148142059D01*
X71049628Y-148018809D01*
X71317417Y-147839878D01*
X71545152Y-147612143D01*
X71724083Y-147344354D01*
X71847333Y-147046803D01*
X71910165Y-146730924D01*
X71910165Y-146408858D01*
X76840165Y-146408858D01*
X76840165Y-146730924D01*
X76902997Y-147046803D01*
X77026247Y-147344354D01*
X77205178Y-147612143D01*
X77432913Y-147839878D01*
X77700702Y-148018809D01*
X77998253Y-148142059D01*
X78314132Y-148204891D01*
X78636198Y-148204891D01*
X78952077Y-148142059D01*
X79249628Y-148018809D01*
X79517417Y-147839878D01*
X79745152Y-147612143D01*
X79924083Y-147344354D01*
X80047333Y-147046803D01*
X80110165Y-146730924D01*
X80110165Y-146408858D01*
X106390000Y-146408858D01*
X106390000Y-146730924D01*
X106452832Y-147046803D01*
X106576082Y-147344354D01*
X106755013Y-147612143D01*
X106982748Y-147839878D01*
X107250537Y-148018809D01*
X107548088Y-148142059D01*
X107863967Y-148204891D01*
X108186033Y-148204891D01*
X108501912Y-148142059D01*
X108799463Y-148018809D01*
X109067252Y-147839878D01*
X109294987Y-147612143D01*
X109473918Y-147344354D01*
X109597168Y-147046803D01*
X109660000Y-146730924D01*
X109660000Y-146408858D01*
X114590000Y-146408858D01*
X114590000Y-146730924D01*
X114652832Y-147046803D01*
X114776082Y-147344354D01*
X114955013Y-147612143D01*
X115182748Y-147839878D01*
X115450537Y-148018809D01*
X115748088Y-148142059D01*
X116063967Y-148204891D01*
X116386033Y-148204891D01*
X116701912Y-148142059D01*
X116999463Y-148018809D01*
X117267252Y-147839878D01*
X117494987Y-147612143D01*
X117673918Y-147344354D01*
X117797168Y-147046803D01*
X117860000Y-146730924D01*
X117860000Y-146408858D01*
X117797168Y-146092979D01*
X117673918Y-145795428D01*
X117494987Y-145527639D01*
X117267252Y-145299904D01*
X116999463Y-145120973D01*
X116701912Y-144997723D01*
X116386033Y-144934891D01*
X116063967Y-144934891D01*
X115748088Y-144997723D01*
X115450537Y-145120973D01*
X115182748Y-145299904D01*
X114955013Y-145527639D01*
X114776082Y-145795428D01*
X114652832Y-146092979D01*
X114590000Y-146408858D01*
X109660000Y-146408858D01*
X109597168Y-146092979D01*
X109473918Y-145795428D01*
X109294987Y-145527639D01*
X109067252Y-145299904D01*
X108799463Y-145120973D01*
X108501912Y-144997723D01*
X108186033Y-144934891D01*
X107863967Y-144934891D01*
X107548088Y-144997723D01*
X107250537Y-145120973D01*
X106982748Y-145299904D01*
X106755013Y-145527639D01*
X106576082Y-145795428D01*
X106452832Y-146092979D01*
X106390000Y-146408858D01*
X80110165Y-146408858D01*
X80047333Y-146092979D01*
X79924083Y-145795428D01*
X79745152Y-145527639D01*
X79517417Y-145299904D01*
X79249628Y-145120973D01*
X78952077Y-144997723D01*
X78636198Y-144934891D01*
X78566264Y-144934891D01*
X78507888Y-144921739D01*
X78507871Y-144921739D01*
X78507860Y-144921736D01*
X78439561Y-144920015D01*
X78358230Y-144917962D01*
X78358216Y-144917964D01*
X78358201Y-144917964D01*
X78274778Y-144932383D01*
X78210709Y-144943454D01*
X78175689Y-144956935D01*
X78161794Y-144960770D01*
X78138025Y-144969921D01*
X77998253Y-144997723D01*
X77700702Y-145120973D01*
X77432913Y-145299904D01*
X77205178Y-145527639D01*
X77026247Y-145795428D01*
X76902997Y-146092979D01*
X76840165Y-146408858D01*
X71910165Y-146408858D01*
X71847333Y-146092979D01*
X71724083Y-145795428D01*
X71545152Y-145527639D01*
X71317417Y-145299904D01*
X71049628Y-145120973D01*
X70752077Y-144997723D01*
X70436198Y-144934891D01*
X70114132Y-144934891D01*
X69798253Y-144997723D01*
X69500702Y-145120973D01*
X69232913Y-145299904D01*
X69005178Y-145527639D01*
X68826247Y-145795428D01*
X68702997Y-146092979D01*
X68640165Y-146408858D01*
X67185036Y-146408858D01*
X67185036Y-142504362D01*
X83540151Y-142504362D01*
X83540151Y-142846128D01*
X83606826Y-143181326D01*
X83737614Y-143497076D01*
X83927488Y-143781243D01*
X84169153Y-144022908D01*
X84453320Y-144212782D01*
X84769070Y-144343570D01*
X85104268Y-144410245D01*
X85446034Y-144410245D01*
X85781232Y-144343570D01*
X86096982Y-144212782D01*
X86381149Y-144022908D01*
X86622814Y-143781243D01*
X86812688Y-143497076D01*
X86943476Y-143181326D01*
X87010151Y-142846128D01*
X87010151Y-142504362D01*
X99490151Y-142504362D01*
X99490151Y-142846128D01*
X99556826Y-143181326D01*
X99687614Y-143497076D01*
X99877488Y-143781243D01*
X100119153Y-144022908D01*
X100403320Y-144212782D01*
X100719070Y-144343570D01*
X101054268Y-144410245D01*
X101396034Y-144410245D01*
X101731232Y-144343570D01*
X102046982Y-144212782D01*
X102331149Y-144022908D01*
X102572814Y-143781243D01*
X102762688Y-143497076D01*
X102893476Y-143181326D01*
X102960151Y-142846128D01*
X102960151Y-142504362D01*
X102893476Y-142169164D01*
X102762688Y-141853414D01*
X102572814Y-141569247D01*
X102331149Y-141327582D01*
X102046982Y-141137708D01*
X101731232Y-141006920D01*
X101396034Y-140940245D01*
X101054268Y-140940245D01*
X100719070Y-141006920D01*
X100403320Y-141137708D01*
X100119153Y-141327582D01*
X99877488Y-141569247D01*
X99687614Y-141853414D01*
X99556826Y-142169164D01*
X99490151Y-142504362D01*
X87010151Y-142504362D01*
X86943476Y-142169164D01*
X86812688Y-141853414D01*
X86622814Y-141569247D01*
X86381149Y-141327582D01*
X86096982Y-141137708D01*
X85781232Y-141006920D01*
X85446034Y-140940245D01*
X85104268Y-140940245D01*
X84769070Y-141006920D01*
X84453320Y-141137708D01*
X84169153Y-141327582D01*
X83927488Y-141569247D01*
X83737614Y-141853414D01*
X83606826Y-142169164D01*
X83540151Y-142504362D01*
X67185036Y-142504362D01*
X67185036Y-134435413D01*
X68244192Y-134435413D01*
X68339956Y-134699814D01*
X68629571Y-134840704D01*
X68941108Y-134922384D01*
X69262595Y-134941718D01*
X69581675Y-134897961D01*
X69886088Y-134792795D01*
X70060044Y-134699814D01*
X70155808Y-134435413D01*
X69200000Y-133479605D01*
X68244192Y-134435413D01*
X67185036Y-134435413D01*
X67185036Y-133362595D01*
X67558282Y-133362595D01*
X67602039Y-133681675D01*
X67707205Y-133986088D01*
X67800186Y-134160044D01*
X68064587Y-134255808D01*
X69020395Y-133300000D01*
X69379605Y-133300000D01*
X70335413Y-134255808D01*
X70599814Y-134160044D01*
X70740704Y-133870429D01*
X70822384Y-133558892D01*
X70841718Y-133237405D01*
X70828219Y-133138967D01*
X71995000Y-133138967D01*
X71995000Y-133461033D01*
X72057832Y-133776912D01*
X72181082Y-134074463D01*
X72360013Y-134342252D01*
X72587748Y-134569987D01*
X72855537Y-134748918D01*
X73153088Y-134872168D01*
X73468967Y-134935000D01*
X73791033Y-134935000D01*
X74106912Y-134872168D01*
X74404463Y-134748918D01*
X74672252Y-134569987D01*
X74899987Y-134342252D01*
X75078918Y-134074463D01*
X75202168Y-133776912D01*
X75265000Y-133461033D01*
X75265000Y-133138967D01*
X75264988Y-133138905D01*
X111249800Y-133138905D01*
X111249800Y-133460971D01*
X111312632Y-133776850D01*
X111435882Y-134074401D01*
X111614813Y-134342190D01*
X111842548Y-134569925D01*
X112110337Y-134748856D01*
X112407888Y-134872106D01*
X112723767Y-134934938D01*
X113045833Y-134934938D01*
X113361712Y-134872106D01*
X113659263Y-134748856D01*
X113927052Y-134569925D01*
X114061626Y-134435351D01*
X116358992Y-134435351D01*
X116454756Y-134699752D01*
X116744371Y-134840642D01*
X117055908Y-134922322D01*
X117377395Y-134941656D01*
X117696475Y-134897899D01*
X118000888Y-134792733D01*
X118174844Y-134699752D01*
X118270608Y-134435351D01*
X117314800Y-133479543D01*
X116358992Y-134435351D01*
X114061626Y-134435351D01*
X114154787Y-134342190D01*
X114333718Y-134074401D01*
X114456968Y-133776850D01*
X114519800Y-133460971D01*
X114519800Y-133362533D01*
X115673082Y-133362533D01*
X115716839Y-133681613D01*
X115822005Y-133986026D01*
X115914986Y-134159982D01*
X116179387Y-134255746D01*
X117135195Y-133299938D01*
X117494405Y-133299938D01*
X118450213Y-134255746D01*
X118714614Y-134159982D01*
X118855504Y-133870367D01*
X118937184Y-133558830D01*
X118956518Y-133237343D01*
X118912761Y-132918263D01*
X118807595Y-132613850D01*
X118714614Y-132439894D01*
X118450213Y-132344130D01*
X117494405Y-133299938D01*
X117135195Y-133299938D01*
X116179387Y-132344130D01*
X115914986Y-132439894D01*
X115774096Y-132729509D01*
X115692416Y-133041046D01*
X115673082Y-133362533D01*
X114519800Y-133362533D01*
X114519800Y-133138905D01*
X114456968Y-132823026D01*
X114333718Y-132525475D01*
X114154787Y-132257686D01*
X114061626Y-132164525D01*
X116358992Y-132164525D01*
X117314800Y-133120333D01*
X118270608Y-132164525D01*
X118174844Y-131900124D01*
X117885229Y-131759234D01*
X117573692Y-131677554D01*
X117252205Y-131658220D01*
X116933125Y-131701977D01*
X116628712Y-131807143D01*
X116454756Y-131900124D01*
X116358992Y-132164525D01*
X114061626Y-132164525D01*
X113927052Y-132029951D01*
X113659263Y-131851020D01*
X113361712Y-131727770D01*
X113045833Y-131664938D01*
X112723767Y-131664938D01*
X112407888Y-131727770D01*
X112110337Y-131851020D01*
X111842548Y-132029951D01*
X111614813Y-132257686D01*
X111435882Y-132525475D01*
X111312632Y-132823026D01*
X111249800Y-133138905D01*
X75264988Y-133138905D01*
X75202168Y-132823088D01*
X75078918Y-132525537D01*
X74899987Y-132257748D01*
X74672252Y-132030013D01*
X74404463Y-131851082D01*
X74106912Y-131727832D01*
X73791033Y-131665000D01*
X73468967Y-131665000D01*
X73153088Y-131727832D01*
X72855537Y-131851082D01*
X72587748Y-132030013D01*
X72360013Y-132257748D01*
X72181082Y-132525537D01*
X72057832Y-132823088D01*
X71995000Y-133138967D01*
X70828219Y-133138967D01*
X70797961Y-132918325D01*
X70692795Y-132613912D01*
X70599814Y-132439956D01*
X70335413Y-132344192D01*
X69379605Y-133300000D01*
X69020395Y-133300000D01*
X68064587Y-132344192D01*
X67800186Y-132439956D01*
X67659296Y-132729571D01*
X67577616Y-133041108D01*
X67558282Y-133362595D01*
X67185036Y-133362595D01*
X67185036Y-132164587D01*
X68244192Y-132164587D01*
X69200000Y-133120395D01*
X70155808Y-132164587D01*
X70060044Y-131900186D01*
X69770429Y-131759296D01*
X69458892Y-131677616D01*
X69137405Y-131658282D01*
X68818325Y-131702039D01*
X68513912Y-131807205D01*
X68339956Y-131900186D01*
X68244192Y-132164587D01*
X67185036Y-132164587D01*
X67185036Y-128050000D01*
X83811927Y-128050000D01*
X83811927Y-129350000D01*
X83838598Y-129620799D01*
X83917588Y-129881192D01*
X84045859Y-130121171D01*
X84218484Y-130331515D01*
X84428828Y-130504140D01*
X84668807Y-130632411D01*
X84929200Y-130711401D01*
X85199999Y-130738072D01*
X85200001Y-130738072D01*
X85470800Y-130711401D01*
X85731193Y-130632411D01*
X85971172Y-130504140D01*
X86181516Y-130331515D01*
X86354141Y-130121171D01*
X86482412Y-129881192D01*
X86561402Y-129620799D01*
X86588073Y-129350000D01*
X86588073Y-128050000D01*
X87821927Y-128050000D01*
X87821927Y-129350000D01*
X87848598Y-129620799D01*
X87927588Y-129881192D01*
X88055859Y-130121171D01*
X88228484Y-130331515D01*
X88438828Y-130504140D01*
X88678807Y-130632411D01*
X88939200Y-130711401D01*
X89209999Y-130738072D01*
X89210001Y-130738072D01*
X89480800Y-130711401D01*
X89741193Y-130632411D01*
X89981172Y-130504140D01*
X90191516Y-130331515D01*
X90364141Y-130121171D01*
X90375457Y-130100000D01*
X91851928Y-130100000D01*
X91864188Y-130224482D01*
X91900498Y-130344180D01*
X91959463Y-130454494D01*
X92038815Y-130551185D01*
X92135506Y-130630537D01*
X92245820Y-130689502D01*
X92365518Y-130725812D01*
X92490000Y-130738072D01*
X92954250Y-130735000D01*
X93113000Y-130576250D01*
X93113000Y-128827000D01*
X93367000Y-128827000D01*
X93367000Y-130576250D01*
X93525750Y-130735000D01*
X93990000Y-130738072D01*
X94114482Y-130725812D01*
X94234180Y-130689502D01*
X94344494Y-130630537D01*
X94441185Y-130551185D01*
X94520537Y-130454494D01*
X94579502Y-130344180D01*
X94615812Y-130224482D01*
X94628072Y-130100000D01*
X94625000Y-128985750D01*
X94466250Y-128827000D01*
X93367000Y-128827000D01*
X93113000Y-128827000D01*
X92013750Y-128827000D01*
X91855000Y-128985750D01*
X91851928Y-130100000D01*
X90375457Y-130100000D01*
X90492412Y-129881192D01*
X90571402Y-129620799D01*
X90598073Y-129350000D01*
X90598073Y-128050000D01*
X90571402Y-127779201D01*
X90492412Y-127518808D01*
X90375458Y-127300000D01*
X91851928Y-127300000D01*
X91855000Y-128414250D01*
X92013750Y-128573000D01*
X93113000Y-128573000D01*
X93113000Y-126823750D01*
X93367000Y-126823750D01*
X93367000Y-128573000D01*
X94466250Y-128573000D01*
X94625000Y-128414250D01*
X94626004Y-128050000D01*
X95881927Y-128050000D01*
X95881927Y-129350000D01*
X95908598Y-129620799D01*
X95987588Y-129881192D01*
X96115859Y-130121171D01*
X96288484Y-130331515D01*
X96498828Y-130504140D01*
X96738807Y-130632411D01*
X96999200Y-130711401D01*
X97269999Y-130738072D01*
X97270001Y-130738072D01*
X97540800Y-130711401D01*
X97801193Y-130632411D01*
X98041172Y-130504140D01*
X98251516Y-130331515D01*
X98424141Y-130121171D01*
X98552412Y-129881192D01*
X98631402Y-129620799D01*
X98658073Y-129350000D01*
X98658073Y-128050000D01*
X99911927Y-128050000D01*
X99911927Y-129350000D01*
X99938598Y-129620799D01*
X100017588Y-129881192D01*
X100145859Y-130121171D01*
X100318484Y-130331515D01*
X100528828Y-130504140D01*
X100768807Y-130632411D01*
X101029200Y-130711401D01*
X101299999Y-130738072D01*
X101300001Y-130738072D01*
X101570800Y-130711401D01*
X101831193Y-130632411D01*
X102071172Y-130504140D01*
X102281516Y-130331515D01*
X102454141Y-130121171D01*
X102582412Y-129881192D01*
X102661402Y-129620799D01*
X102688073Y-129350000D01*
X102688073Y-128050000D01*
X102661402Y-127779201D01*
X102582412Y-127518808D01*
X102454141Y-127278829D01*
X102281516Y-127068485D01*
X102071172Y-126895860D01*
X101831193Y-126767589D01*
X101570800Y-126688599D01*
X101300001Y-126661928D01*
X101299999Y-126661928D01*
X101029200Y-126688599D01*
X100768807Y-126767589D01*
X100528828Y-126895860D01*
X100318484Y-127068485D01*
X100145859Y-127278829D01*
X100017588Y-127518808D01*
X99938598Y-127779201D01*
X99911927Y-128050000D01*
X98658073Y-128050000D01*
X98631402Y-127779201D01*
X98552412Y-127518808D01*
X98424141Y-127278829D01*
X98251516Y-127068485D01*
X98041172Y-126895860D01*
X97801193Y-126767589D01*
X97540800Y-126688599D01*
X97270001Y-126661928D01*
X97269999Y-126661928D01*
X96999200Y-126688599D01*
X96738807Y-126767589D01*
X96498828Y-126895860D01*
X96288484Y-127068485D01*
X96115859Y-127278829D01*
X95987588Y-127518808D01*
X95908598Y-127779201D01*
X95881927Y-128050000D01*
X94626004Y-128050000D01*
X94628072Y-127300000D01*
X94615812Y-127175518D01*
X94579502Y-127055820D01*
X94520537Y-126945506D01*
X94441185Y-126848815D01*
X94344494Y-126769463D01*
X94234180Y-126710498D01*
X94114482Y-126674188D01*
X93990000Y-126661928D01*
X93525750Y-126665000D01*
X93367000Y-126823750D01*
X93113000Y-126823750D01*
X92954250Y-126665000D01*
X92490000Y-126661928D01*
X92365518Y-126674188D01*
X92245820Y-126710498D01*
X92135506Y-126769463D01*
X92038815Y-126848815D01*
X91959463Y-126945506D01*
X91900498Y-127055820D01*
X91864188Y-127175518D01*
X91851928Y-127300000D01*
X90375458Y-127300000D01*
X90364141Y-127278829D01*
X90191516Y-127068485D01*
X89981172Y-126895860D01*
X89741193Y-126767589D01*
X89480800Y-126688599D01*
X89210001Y-126661928D01*
X89209999Y-126661928D01*
X88939200Y-126688599D01*
X88678807Y-126767589D01*
X88438828Y-126895860D01*
X88228484Y-127068485D01*
X88055859Y-127278829D01*
X87927588Y-127518808D01*
X87848598Y-127779201D01*
X87821927Y-128050000D01*
X86588073Y-128050000D01*
X86561402Y-127779201D01*
X86482412Y-127518808D01*
X86354141Y-127278829D01*
X86181516Y-127068485D01*
X85971172Y-126895860D01*
X85731193Y-126767589D01*
X85470800Y-126688599D01*
X85200001Y-126661928D01*
X85199999Y-126661928D01*
X84929200Y-126688599D01*
X84668807Y-126767589D01*
X84428828Y-126895860D01*
X84218484Y-127068485D01*
X84045859Y-127278829D01*
X83917588Y-127518808D01*
X83838598Y-127779201D01*
X83811927Y-128050000D01*
X67185036Y-128050000D01*
X67185036Y-126235413D01*
X68244192Y-126235413D01*
X68339956Y-126499814D01*
X68629571Y-126640704D01*
X68941108Y-126722384D01*
X69262595Y-126741718D01*
X69581675Y-126697961D01*
X69886088Y-126592795D01*
X70060044Y-126499814D01*
X70155808Y-126235413D01*
X69200000Y-125279605D01*
X68244192Y-126235413D01*
X67185036Y-126235413D01*
X67185036Y-125162595D01*
X67558282Y-125162595D01*
X67602039Y-125481675D01*
X67707205Y-125786088D01*
X67800186Y-125960044D01*
X68064587Y-126055808D01*
X69020395Y-125100000D01*
X69379605Y-125100000D01*
X70335413Y-126055808D01*
X70599814Y-125960044D01*
X70740704Y-125670429D01*
X70822384Y-125358892D01*
X70841718Y-125037405D01*
X70828219Y-124938967D01*
X71995000Y-124938967D01*
X71995000Y-125261033D01*
X72057832Y-125576912D01*
X72181082Y-125874463D01*
X72360013Y-126142252D01*
X72587748Y-126369987D01*
X72855537Y-126548918D01*
X73153088Y-126672168D01*
X73468967Y-126735000D01*
X73791033Y-126735000D01*
X74106912Y-126672168D01*
X74404463Y-126548918D01*
X74672252Y-126369987D01*
X74899987Y-126142252D01*
X75078918Y-125874463D01*
X75202168Y-125576912D01*
X75265000Y-125261033D01*
X75265000Y-124938967D01*
X75202168Y-124623088D01*
X75078918Y-124325537D01*
X74899987Y-124057748D01*
X74672252Y-123830013D01*
X74404463Y-123651082D01*
X74106912Y-123527832D01*
X73791033Y-123465000D01*
X73468967Y-123465000D01*
X73153088Y-123527832D01*
X72855537Y-123651082D01*
X72587748Y-123830013D01*
X72360013Y-124057748D01*
X72181082Y-124325537D01*
X72057832Y-124623088D01*
X71995000Y-124938967D01*
X70828219Y-124938967D01*
X70797961Y-124718325D01*
X70692795Y-124413912D01*
X70599814Y-124239956D01*
X70335413Y-124144192D01*
X69379605Y-125100000D01*
X69020395Y-125100000D01*
X68064587Y-124144192D01*
X67800186Y-124239956D01*
X67659296Y-124529571D01*
X67577616Y-124841108D01*
X67558282Y-125162595D01*
X67185036Y-125162595D01*
X67185036Y-123964587D01*
X68244192Y-123964587D01*
X69200000Y-124920395D01*
X70155808Y-123964587D01*
X70060044Y-123700186D01*
X69770429Y-123559296D01*
X69458892Y-123477616D01*
X69137405Y-123458282D01*
X68818325Y-123502039D01*
X68513912Y-123607205D01*
X68339956Y-123700186D01*
X68244192Y-123964587D01*
X67185036Y-123964587D01*
X67185036Y-121329099D01*
X67765036Y-121329099D01*
X67765036Y-121670865D01*
X67831711Y-122006063D01*
X67962499Y-122321813D01*
X68152373Y-122605980D01*
X68394038Y-122847645D01*
X68678205Y-123037519D01*
X68993955Y-123168307D01*
X69329153Y-123234982D01*
X69670919Y-123234982D01*
X70006117Y-123168307D01*
X70321867Y-123037519D01*
X70606034Y-122847645D01*
X70803679Y-122650000D01*
X83811927Y-122650000D01*
X83811927Y-123950000D01*
X83838598Y-124220799D01*
X83917588Y-124481192D01*
X84045859Y-124721171D01*
X84218484Y-124931515D01*
X84428828Y-125104140D01*
X84668807Y-125232411D01*
X84929200Y-125311401D01*
X85199999Y-125338072D01*
X85200001Y-125338072D01*
X85470800Y-125311401D01*
X85731193Y-125232411D01*
X85971172Y-125104140D01*
X86181516Y-124931515D01*
X86354141Y-124721171D01*
X86482412Y-124481192D01*
X86561402Y-124220799D01*
X86588073Y-123950000D01*
X86588073Y-122650000D01*
X87111927Y-122650000D01*
X87111927Y-123950000D01*
X87138598Y-124220799D01*
X87217588Y-124481192D01*
X87345859Y-124721171D01*
X87518484Y-124931515D01*
X87728828Y-125104140D01*
X87968807Y-125232411D01*
X88229200Y-125311401D01*
X88499999Y-125338072D01*
X88500001Y-125338072D01*
X88770800Y-125311401D01*
X89031193Y-125232411D01*
X89271172Y-125104140D01*
X89481516Y-124931515D01*
X89654141Y-124721171D01*
X89665457Y-124700000D01*
X90251928Y-124700000D01*
X90264188Y-124824482D01*
X90300498Y-124944180D01*
X90359463Y-125054494D01*
X90438815Y-125151185D01*
X90535506Y-125230537D01*
X90645820Y-125289502D01*
X90765518Y-125325812D01*
X90890000Y-125338072D01*
X91354250Y-125335000D01*
X91513000Y-125176250D01*
X91513000Y-123427000D01*
X91767000Y-123427000D01*
X91767000Y-125176250D01*
X91925750Y-125335000D01*
X92390000Y-125338072D01*
X92514482Y-125325812D01*
X92634180Y-125289502D01*
X92744494Y-125230537D01*
X92841185Y-125151185D01*
X92920537Y-125054494D01*
X92979502Y-124944180D01*
X93015812Y-124824482D01*
X93028072Y-124700000D01*
X93471928Y-124700000D01*
X93484188Y-124824482D01*
X93520498Y-124944180D01*
X93579463Y-125054494D01*
X93658815Y-125151185D01*
X93755506Y-125230537D01*
X93865820Y-125289502D01*
X93985518Y-125325812D01*
X94110000Y-125338072D01*
X94574250Y-125335000D01*
X94733000Y-125176250D01*
X94733000Y-123427000D01*
X94987000Y-123427000D01*
X94987000Y-125176250D01*
X95145750Y-125335000D01*
X95610000Y-125338072D01*
X95734482Y-125325812D01*
X95854180Y-125289502D01*
X95964494Y-125230537D01*
X96061185Y-125151185D01*
X96140537Y-125054494D01*
X96199502Y-124944180D01*
X96235812Y-124824482D01*
X96248072Y-124700000D01*
X96245000Y-123585750D01*
X96086250Y-123427000D01*
X94987000Y-123427000D01*
X94733000Y-123427000D01*
X93633750Y-123427000D01*
X93475000Y-123585750D01*
X93471928Y-124700000D01*
X93028072Y-124700000D01*
X93025000Y-123585750D01*
X92866250Y-123427000D01*
X91767000Y-123427000D01*
X91513000Y-123427000D01*
X90413750Y-123427000D01*
X90255000Y-123585750D01*
X90251928Y-124700000D01*
X89665457Y-124700000D01*
X89782412Y-124481192D01*
X89861402Y-124220799D01*
X89888073Y-123950000D01*
X89888073Y-122650000D01*
X89861402Y-122379201D01*
X89782412Y-122118808D01*
X89665458Y-121900000D01*
X90251928Y-121900000D01*
X90255000Y-123014250D01*
X90413750Y-123173000D01*
X91513000Y-123173000D01*
X91513000Y-121423750D01*
X91767000Y-121423750D01*
X91767000Y-123173000D01*
X92866250Y-123173000D01*
X93025000Y-123014250D01*
X93028072Y-121900000D01*
X93471928Y-121900000D01*
X93475000Y-123014250D01*
X93633750Y-123173000D01*
X94733000Y-123173000D01*
X94733000Y-121423750D01*
X94987000Y-121423750D01*
X94987000Y-123173000D01*
X96086250Y-123173000D01*
X96245000Y-123014250D01*
X96246004Y-122650000D01*
X96691927Y-122650000D01*
X96691927Y-123950000D01*
X96718598Y-124220799D01*
X96797588Y-124481192D01*
X96925859Y-124721171D01*
X97098484Y-124931515D01*
X97308828Y-125104140D01*
X97548807Y-125232411D01*
X97809200Y-125311401D01*
X98079999Y-125338072D01*
X98080001Y-125338072D01*
X98350800Y-125311401D01*
X98611193Y-125232411D01*
X98851172Y-125104140D01*
X99061516Y-124931515D01*
X99234141Y-124721171D01*
X99362412Y-124481192D01*
X99441402Y-124220799D01*
X99468073Y-123950000D01*
X99468073Y-122650000D01*
X99911927Y-122650000D01*
X99911927Y-123950000D01*
X99938598Y-124220799D01*
X100017588Y-124481192D01*
X100145859Y-124721171D01*
X100318484Y-124931515D01*
X100528828Y-125104140D01*
X100768807Y-125232411D01*
X101029200Y-125311401D01*
X101299999Y-125338072D01*
X101300001Y-125338072D01*
X101570800Y-125311401D01*
X101831193Y-125232411D01*
X102071172Y-125104140D01*
X102272511Y-124938905D01*
X111249800Y-124938905D01*
X111249800Y-125260971D01*
X111312632Y-125576850D01*
X111317618Y-125588887D01*
X111323537Y-125648985D01*
X111366993Y-125792246D01*
X111437565Y-125924276D01*
X111532538Y-126040001D01*
X111563524Y-126065430D01*
X111614813Y-126142190D01*
X111842548Y-126369925D01*
X112110337Y-126548856D01*
X112407888Y-126672106D01*
X112723767Y-126734938D01*
X113045833Y-126734938D01*
X113361712Y-126672106D01*
X113659263Y-126548856D01*
X113927052Y-126369925D01*
X114061626Y-126235351D01*
X116358992Y-126235351D01*
X116454756Y-126499752D01*
X116744371Y-126640642D01*
X117055908Y-126722322D01*
X117377395Y-126741656D01*
X117696475Y-126697899D01*
X118000888Y-126592733D01*
X118174844Y-126499752D01*
X118270608Y-126235351D01*
X117314800Y-125279543D01*
X116358992Y-126235351D01*
X114061626Y-126235351D01*
X114154787Y-126142190D01*
X114333718Y-125874401D01*
X114456968Y-125576850D01*
X114519800Y-125260971D01*
X114519800Y-125162533D01*
X115673082Y-125162533D01*
X115716839Y-125481613D01*
X115822005Y-125786026D01*
X115914986Y-125959982D01*
X116179387Y-126055746D01*
X117135195Y-125099938D01*
X117494405Y-125099938D01*
X118450213Y-126055746D01*
X118714614Y-125959982D01*
X118855504Y-125670367D01*
X118937184Y-125358830D01*
X118956518Y-125037343D01*
X118912761Y-124718263D01*
X118807595Y-124413850D01*
X118714614Y-124239894D01*
X118450213Y-124144130D01*
X117494405Y-125099938D01*
X117135195Y-125099938D01*
X116179387Y-124144130D01*
X115914986Y-124239894D01*
X115774096Y-124529509D01*
X115692416Y-124841046D01*
X115673082Y-125162533D01*
X114519800Y-125162533D01*
X114519800Y-124938905D01*
X114456968Y-124623026D01*
X114333718Y-124325475D01*
X114154787Y-124057686D01*
X114061626Y-123964525D01*
X116358992Y-123964525D01*
X117314800Y-124920333D01*
X118270608Y-123964525D01*
X118174844Y-123700124D01*
X117885229Y-123559234D01*
X117573692Y-123477554D01*
X117252205Y-123458220D01*
X116933125Y-123501977D01*
X116628712Y-123607143D01*
X116454756Y-123700124D01*
X116358992Y-123964525D01*
X114061626Y-123964525D01*
X113927052Y-123829951D01*
X113659263Y-123651020D01*
X113361712Y-123527770D01*
X113045833Y-123464938D01*
X112723767Y-123464938D01*
X112407888Y-123527770D01*
X112110337Y-123651020D01*
X111842548Y-123829951D01*
X111614813Y-124057686D01*
X111435882Y-124325475D01*
X111312632Y-124623026D01*
X111249800Y-124938905D01*
X102272511Y-124938905D01*
X102281516Y-124931515D01*
X102454141Y-124721171D01*
X102582412Y-124481192D01*
X102661402Y-124220799D01*
X102688073Y-123950000D01*
X102688073Y-122650000D01*
X102661402Y-122379201D01*
X102582412Y-122118808D01*
X102454141Y-121878829D01*
X102281516Y-121668485D01*
X102071172Y-121495860D01*
X101831193Y-121367589D01*
X101704310Y-121329099D01*
X115265000Y-121329099D01*
X115265000Y-121670865D01*
X115331675Y-122006063D01*
X115462463Y-122321813D01*
X115652337Y-122605980D01*
X115894002Y-122847645D01*
X116178169Y-123037519D01*
X116493919Y-123168307D01*
X116829117Y-123234982D01*
X117170883Y-123234982D01*
X117506081Y-123168307D01*
X117821831Y-123037519D01*
X118105998Y-122847645D01*
X118347663Y-122605980D01*
X118537537Y-122321813D01*
X118668325Y-122006063D01*
X118735000Y-121670865D01*
X118735000Y-121329099D01*
X118668325Y-120993901D01*
X118537537Y-120678151D01*
X118347663Y-120393984D01*
X118105998Y-120152319D01*
X117821831Y-119962445D01*
X117506081Y-119831657D01*
X117170883Y-119764982D01*
X116829117Y-119764982D01*
X116493919Y-119831657D01*
X116178169Y-119962445D01*
X115894002Y-120152319D01*
X115652337Y-120393984D01*
X115462463Y-120678151D01*
X115331675Y-120993901D01*
X115265000Y-121329099D01*
X101704310Y-121329099D01*
X101570800Y-121288599D01*
X101300001Y-121261928D01*
X101299999Y-121261928D01*
X101029200Y-121288599D01*
X100768807Y-121367589D01*
X100528828Y-121495860D01*
X100318484Y-121668485D01*
X100145859Y-121878829D01*
X100017588Y-122118808D01*
X99938598Y-122379201D01*
X99911927Y-122650000D01*
X99468073Y-122650000D01*
X99441402Y-122379201D01*
X99362412Y-122118808D01*
X99234141Y-121878829D01*
X99061516Y-121668485D01*
X98851172Y-121495860D01*
X98611193Y-121367589D01*
X98350800Y-121288599D01*
X98080001Y-121261928D01*
X98079999Y-121261928D01*
X97809200Y-121288599D01*
X97548807Y-121367589D01*
X97308828Y-121495860D01*
X97098484Y-121668485D01*
X96925859Y-121878829D01*
X96797588Y-122118808D01*
X96718598Y-122379201D01*
X96691927Y-122650000D01*
X96246004Y-122650000D01*
X96248072Y-121900000D01*
X96235812Y-121775518D01*
X96199502Y-121655820D01*
X96140537Y-121545506D01*
X96061185Y-121448815D01*
X95964494Y-121369463D01*
X95854180Y-121310498D01*
X95734482Y-121274188D01*
X95610000Y-121261928D01*
X95145750Y-121265000D01*
X94987000Y-121423750D01*
X94733000Y-121423750D01*
X94574250Y-121265000D01*
X94110000Y-121261928D01*
X93985518Y-121274188D01*
X93865820Y-121310498D01*
X93755506Y-121369463D01*
X93658815Y-121448815D01*
X93579463Y-121545506D01*
X93520498Y-121655820D01*
X93484188Y-121775518D01*
X93471928Y-121900000D01*
X93028072Y-121900000D01*
X93015812Y-121775518D01*
X92979502Y-121655820D01*
X92920537Y-121545506D01*
X92841185Y-121448815D01*
X92744494Y-121369463D01*
X92634180Y-121310498D01*
X92514482Y-121274188D01*
X92390000Y-121261928D01*
X91925750Y-121265000D01*
X91767000Y-121423750D01*
X91513000Y-121423750D01*
X91354250Y-121265000D01*
X90890000Y-121261928D01*
X90765518Y-121274188D01*
X90645820Y-121310498D01*
X90535506Y-121369463D01*
X90438815Y-121448815D01*
X90359463Y-121545506D01*
X90300498Y-121655820D01*
X90264188Y-121775518D01*
X90251928Y-121900000D01*
X89665458Y-121900000D01*
X89654141Y-121878829D01*
X89481516Y-121668485D01*
X89271172Y-121495860D01*
X89031193Y-121367589D01*
X88770800Y-121288599D01*
X88500001Y-121261928D01*
X88499999Y-121261928D01*
X88229200Y-121288599D01*
X87968807Y-121367589D01*
X87728828Y-121495860D01*
X87518484Y-121668485D01*
X87345859Y-121878829D01*
X87217588Y-122118808D01*
X87138598Y-122379201D01*
X87111927Y-122650000D01*
X86588073Y-122650000D01*
X86561402Y-122379201D01*
X86482412Y-122118808D01*
X86354141Y-121878829D01*
X86181516Y-121668485D01*
X85971172Y-121495860D01*
X85731193Y-121367589D01*
X85470800Y-121288599D01*
X85200001Y-121261928D01*
X85199999Y-121261928D01*
X84929200Y-121288599D01*
X84668807Y-121367589D01*
X84428828Y-121495860D01*
X84218484Y-121668485D01*
X84045859Y-121878829D01*
X83917588Y-122118808D01*
X83838598Y-122379201D01*
X83811927Y-122650000D01*
X70803679Y-122650000D01*
X70847699Y-122605980D01*
X71037573Y-122321813D01*
X71168361Y-122006063D01*
X71235036Y-121670865D01*
X71235036Y-121329099D01*
X71168361Y-120993901D01*
X71037573Y-120678151D01*
X70847699Y-120393984D01*
X70606034Y-120152319D01*
X70321867Y-119962445D01*
X70006117Y-119831657D01*
X69670919Y-119764982D01*
X69329153Y-119764982D01*
X68993955Y-119831657D01*
X68678205Y-119962445D01*
X68394038Y-120152319D01*
X68152373Y-120393984D01*
X67962499Y-120678151D01*
X67831711Y-120993901D01*
X67765036Y-121329099D01*
X67185036Y-121329099D01*
X67185036Y-119685000D01*
X119315000Y-119685000D01*
X119315001Y-154689989D01*
G04 #@! TA.AperFunction,Conductor*
D13*
G36*
X119315001Y-154689989D02*
G01*
X104985000Y-154689989D01*
X104985000Y-152135304D01*
X107069192Y-152135304D01*
X107164956Y-152399705D01*
X107454571Y-152540595D01*
X107766108Y-152622275D01*
X108087595Y-152641609D01*
X108406675Y-152597852D01*
X108711088Y-152492686D01*
X108885044Y-152399705D01*
X108980808Y-152135304D01*
X115269192Y-152135304D01*
X115364956Y-152399705D01*
X115654571Y-152540595D01*
X115966108Y-152622275D01*
X116287595Y-152641609D01*
X116606675Y-152597852D01*
X116911088Y-152492686D01*
X117085044Y-152399705D01*
X117180808Y-152135304D01*
X116225000Y-151179496D01*
X115269192Y-152135304D01*
X108980808Y-152135304D01*
X108025000Y-151179496D01*
X107069192Y-152135304D01*
X104985000Y-152135304D01*
X104985000Y-151062486D01*
X106383282Y-151062486D01*
X106427039Y-151381566D01*
X106532205Y-151685979D01*
X106625186Y-151859935D01*
X106889587Y-151955699D01*
X107845395Y-150999891D01*
X108204605Y-150999891D01*
X109160413Y-151955699D01*
X109424814Y-151859935D01*
X109565704Y-151570320D01*
X109647384Y-151258783D01*
X109659189Y-151062486D01*
X114583282Y-151062486D01*
X114627039Y-151381566D01*
X114732205Y-151685979D01*
X114825186Y-151859935D01*
X115089587Y-151955699D01*
X116045395Y-150999891D01*
X116404605Y-150999891D01*
X117360413Y-151955699D01*
X117624814Y-151859935D01*
X117765704Y-151570320D01*
X117847384Y-151258783D01*
X117866718Y-150937296D01*
X117822961Y-150618216D01*
X117717795Y-150313803D01*
X117624814Y-150139847D01*
X117360413Y-150044083D01*
X116404605Y-150999891D01*
X116045395Y-150999891D01*
X115089587Y-150044083D01*
X114825186Y-150139847D01*
X114684296Y-150429462D01*
X114602616Y-150740999D01*
X114583282Y-151062486D01*
X109659189Y-151062486D01*
X109666718Y-150937296D01*
X109622961Y-150618216D01*
X109517795Y-150313803D01*
X109424814Y-150139847D01*
X109160413Y-150044083D01*
X108204605Y-150999891D01*
X107845395Y-150999891D01*
X106889587Y-150044083D01*
X106625186Y-150139847D01*
X106484296Y-150429462D01*
X106402616Y-150740999D01*
X106383282Y-151062486D01*
X104985000Y-151062486D01*
X104985000Y-149864478D01*
X107069192Y-149864478D01*
X108025000Y-150820286D01*
X108980808Y-149864478D01*
X115269192Y-149864478D01*
X116225000Y-150820286D01*
X117180808Y-149864478D01*
X117085044Y-149600077D01*
X116795429Y-149459187D01*
X116483892Y-149377507D01*
X116162405Y-149358173D01*
X115843325Y-149401930D01*
X115538912Y-149507096D01*
X115364956Y-149600077D01*
X115269192Y-149864478D01*
X108980808Y-149864478D01*
X108885044Y-149600077D01*
X108595429Y-149459187D01*
X108283892Y-149377507D01*
X107962405Y-149358173D01*
X107643325Y-149401930D01*
X107338912Y-149507096D01*
X107164956Y-149600077D01*
X107069192Y-149864478D01*
X104985000Y-149864478D01*
X104985000Y-148712612D01*
X104988314Y-148678965D01*
X104975088Y-148544682D01*
X104935919Y-148415559D01*
X104872312Y-148296558D01*
X104786711Y-148192254D01*
X104682407Y-148106653D01*
X104563406Y-148043046D01*
X104434283Y-148003877D01*
X104333647Y-147993965D01*
X104300000Y-147990651D01*
X104266353Y-147993965D01*
X82233647Y-147993965D01*
X82200000Y-147990651D01*
X82166353Y-147993965D01*
X82065717Y-148003877D01*
X81936594Y-148043046D01*
X81817593Y-148106653D01*
X81713289Y-148192254D01*
X81627688Y-148296558D01*
X81564081Y-148415559D01*
X81524912Y-148544682D01*
X81511686Y-148678965D01*
X81515000Y-148712612D01*
X81515001Y-154689989D01*
X67185036Y-154689989D01*
X67185036Y-152135304D01*
X69319357Y-152135304D01*
X69415121Y-152399705D01*
X69704736Y-152540595D01*
X70016273Y-152622275D01*
X70337760Y-152641609D01*
X70656840Y-152597852D01*
X70961253Y-152492686D01*
X71135209Y-152399705D01*
X71230973Y-152135304D01*
X77519357Y-152135304D01*
X77615121Y-152399705D01*
X77904736Y-152540595D01*
X78216273Y-152622275D01*
X78537760Y-152641609D01*
X78856840Y-152597852D01*
X79161253Y-152492686D01*
X79335209Y-152399705D01*
X79430973Y-152135304D01*
X78475165Y-151179496D01*
X77519357Y-152135304D01*
X71230973Y-152135304D01*
X70275165Y-151179496D01*
X69319357Y-152135304D01*
X67185036Y-152135304D01*
X67185036Y-151062486D01*
X68633447Y-151062486D01*
X68677204Y-151381566D01*
X68782370Y-151685979D01*
X68875351Y-151859935D01*
X69139752Y-151955699D01*
X70095560Y-150999891D01*
X70454770Y-150999891D01*
X71410578Y-151955699D01*
X71674979Y-151859935D01*
X71815869Y-151570320D01*
X71897549Y-151258783D01*
X71909354Y-151062486D01*
X76833447Y-151062486D01*
X76877204Y-151381566D01*
X76982370Y-151685979D01*
X77075351Y-151859935D01*
X77339752Y-151955699D01*
X78295560Y-150999891D01*
X78654770Y-150999891D01*
X79610578Y-151955699D01*
X79874979Y-151859935D01*
X80015869Y-151570320D01*
X80097549Y-151258783D01*
X80116883Y-150937296D01*
X80073126Y-150618216D01*
X79967960Y-150313803D01*
X79874979Y-150139847D01*
X79610578Y-150044083D01*
X78654770Y-150999891D01*
X78295560Y-150999891D01*
X77339752Y-150044083D01*
X77075351Y-150139847D01*
X76934461Y-150429462D01*
X76852781Y-150740999D01*
X76833447Y-151062486D01*
X71909354Y-151062486D01*
X71916883Y-150937296D01*
X71873126Y-150618216D01*
X71767960Y-150313803D01*
X71674979Y-150139847D01*
X71410578Y-150044083D01*
X70454770Y-150999891D01*
X70095560Y-150999891D01*
X69139752Y-150044083D01*
X68875351Y-150139847D01*
X68734461Y-150429462D01*
X68652781Y-150740999D01*
X68633447Y-151062486D01*
X67185036Y-151062486D01*
X67185036Y-149864478D01*
X69319357Y-149864478D01*
X70275165Y-150820286D01*
X71230973Y-149864478D01*
X77519357Y-149864478D01*
X78475165Y-150820286D01*
X79430973Y-149864478D01*
X79335209Y-149600077D01*
X79045594Y-149459187D01*
X78734057Y-149377507D01*
X78412570Y-149358173D01*
X78093490Y-149401930D01*
X77789077Y-149507096D01*
X77615121Y-149600077D01*
X77519357Y-149864478D01*
X71230973Y-149864478D01*
X71135209Y-149600077D01*
X70845594Y-149459187D01*
X70534057Y-149377507D01*
X70212570Y-149358173D01*
X69893490Y-149401930D01*
X69589077Y-149507096D01*
X69415121Y-149600077D01*
X69319357Y-149864478D01*
X67185036Y-149864478D01*
X67185036Y-146408858D01*
X68640165Y-146408858D01*
X68640165Y-146730924D01*
X68702997Y-147046803D01*
X68826247Y-147344354D01*
X69005178Y-147612143D01*
X69232913Y-147839878D01*
X69500702Y-148018809D01*
X69798253Y-148142059D01*
X70114132Y-148204891D01*
X70436198Y-148204891D01*
X70752077Y-148142059D01*
X71049628Y-148018809D01*
X71317417Y-147839878D01*
X71545152Y-147612143D01*
X71724083Y-147344354D01*
X71847333Y-147046803D01*
X71910165Y-146730924D01*
X71910165Y-146408858D01*
X76840165Y-146408858D01*
X76840165Y-146730924D01*
X76902997Y-147046803D01*
X77026247Y-147344354D01*
X77205178Y-147612143D01*
X77432913Y-147839878D01*
X77700702Y-148018809D01*
X77998253Y-148142059D01*
X78314132Y-148204891D01*
X78636198Y-148204891D01*
X78952077Y-148142059D01*
X79249628Y-148018809D01*
X79517417Y-147839878D01*
X79745152Y-147612143D01*
X79924083Y-147344354D01*
X80047333Y-147046803D01*
X80110165Y-146730924D01*
X80110165Y-146408858D01*
X106390000Y-146408858D01*
X106390000Y-146730924D01*
X106452832Y-147046803D01*
X106576082Y-147344354D01*
X106755013Y-147612143D01*
X106982748Y-147839878D01*
X107250537Y-148018809D01*
X107548088Y-148142059D01*
X107863967Y-148204891D01*
X108186033Y-148204891D01*
X108501912Y-148142059D01*
X108799463Y-148018809D01*
X109067252Y-147839878D01*
X109294987Y-147612143D01*
X109473918Y-147344354D01*
X109597168Y-147046803D01*
X109660000Y-146730924D01*
X109660000Y-146408858D01*
X114590000Y-146408858D01*
X114590000Y-146730924D01*
X114652832Y-147046803D01*
X114776082Y-147344354D01*
X114955013Y-147612143D01*
X115182748Y-147839878D01*
X115450537Y-148018809D01*
X115748088Y-148142059D01*
X116063967Y-148204891D01*
X116386033Y-148204891D01*
X116701912Y-148142059D01*
X116999463Y-148018809D01*
X117267252Y-147839878D01*
X117494987Y-147612143D01*
X117673918Y-147344354D01*
X117797168Y-147046803D01*
X117860000Y-146730924D01*
X117860000Y-146408858D01*
X117797168Y-146092979D01*
X117673918Y-145795428D01*
X117494987Y-145527639D01*
X117267252Y-145299904D01*
X116999463Y-145120973D01*
X116701912Y-144997723D01*
X116386033Y-144934891D01*
X116063967Y-144934891D01*
X115748088Y-144997723D01*
X115450537Y-145120973D01*
X115182748Y-145299904D01*
X114955013Y-145527639D01*
X114776082Y-145795428D01*
X114652832Y-146092979D01*
X114590000Y-146408858D01*
X109660000Y-146408858D01*
X109597168Y-146092979D01*
X109473918Y-145795428D01*
X109294987Y-145527639D01*
X109067252Y-145299904D01*
X108799463Y-145120973D01*
X108501912Y-144997723D01*
X108186033Y-144934891D01*
X107863967Y-144934891D01*
X107548088Y-144997723D01*
X107250537Y-145120973D01*
X106982748Y-145299904D01*
X106755013Y-145527639D01*
X106576082Y-145795428D01*
X106452832Y-146092979D01*
X106390000Y-146408858D01*
X80110165Y-146408858D01*
X80047333Y-146092979D01*
X79924083Y-145795428D01*
X79745152Y-145527639D01*
X79517417Y-145299904D01*
X79249628Y-145120973D01*
X78952077Y-144997723D01*
X78636198Y-144934891D01*
X78566264Y-144934891D01*
X78507888Y-144921739D01*
X78507871Y-144921739D01*
X78507860Y-144921736D01*
X78439561Y-144920015D01*
X78358230Y-144917962D01*
X78358216Y-144917964D01*
X78358201Y-144917964D01*
X78274778Y-144932383D01*
X78210709Y-144943454D01*
X78175689Y-144956935D01*
X78161794Y-144960770D01*
X78138025Y-144969921D01*
X77998253Y-144997723D01*
X77700702Y-145120973D01*
X77432913Y-145299904D01*
X77205178Y-145527639D01*
X77026247Y-145795428D01*
X76902997Y-146092979D01*
X76840165Y-146408858D01*
X71910165Y-146408858D01*
X71847333Y-146092979D01*
X71724083Y-145795428D01*
X71545152Y-145527639D01*
X71317417Y-145299904D01*
X71049628Y-145120973D01*
X70752077Y-144997723D01*
X70436198Y-144934891D01*
X70114132Y-144934891D01*
X69798253Y-144997723D01*
X69500702Y-145120973D01*
X69232913Y-145299904D01*
X69005178Y-145527639D01*
X68826247Y-145795428D01*
X68702997Y-146092979D01*
X68640165Y-146408858D01*
X67185036Y-146408858D01*
X67185036Y-142504362D01*
X83540151Y-142504362D01*
X83540151Y-142846128D01*
X83606826Y-143181326D01*
X83737614Y-143497076D01*
X83927488Y-143781243D01*
X84169153Y-144022908D01*
X84453320Y-144212782D01*
X84769070Y-144343570D01*
X85104268Y-144410245D01*
X85446034Y-144410245D01*
X85781232Y-144343570D01*
X86096982Y-144212782D01*
X86381149Y-144022908D01*
X86622814Y-143781243D01*
X86812688Y-143497076D01*
X86943476Y-143181326D01*
X87010151Y-142846128D01*
X87010151Y-142504362D01*
X99490151Y-142504362D01*
X99490151Y-142846128D01*
X99556826Y-143181326D01*
X99687614Y-143497076D01*
X99877488Y-143781243D01*
X100119153Y-144022908D01*
X100403320Y-144212782D01*
X100719070Y-144343570D01*
X101054268Y-144410245D01*
X101396034Y-144410245D01*
X101731232Y-144343570D01*
X102046982Y-144212782D01*
X102331149Y-144022908D01*
X102572814Y-143781243D01*
X102762688Y-143497076D01*
X102893476Y-143181326D01*
X102960151Y-142846128D01*
X102960151Y-142504362D01*
X102893476Y-142169164D01*
X102762688Y-141853414D01*
X102572814Y-141569247D01*
X102331149Y-141327582D01*
X102046982Y-141137708D01*
X101731232Y-141006920D01*
X101396034Y-140940245D01*
X101054268Y-140940245D01*
X100719070Y-141006920D01*
X100403320Y-141137708D01*
X100119153Y-141327582D01*
X99877488Y-141569247D01*
X99687614Y-141853414D01*
X99556826Y-142169164D01*
X99490151Y-142504362D01*
X87010151Y-142504362D01*
X86943476Y-142169164D01*
X86812688Y-141853414D01*
X86622814Y-141569247D01*
X86381149Y-141327582D01*
X86096982Y-141137708D01*
X85781232Y-141006920D01*
X85446034Y-140940245D01*
X85104268Y-140940245D01*
X84769070Y-141006920D01*
X84453320Y-141137708D01*
X84169153Y-141327582D01*
X83927488Y-141569247D01*
X83737614Y-141853414D01*
X83606826Y-142169164D01*
X83540151Y-142504362D01*
X67185036Y-142504362D01*
X67185036Y-134435413D01*
X68244192Y-134435413D01*
X68339956Y-134699814D01*
X68629571Y-134840704D01*
X68941108Y-134922384D01*
X69262595Y-134941718D01*
X69581675Y-134897961D01*
X69886088Y-134792795D01*
X70060044Y-134699814D01*
X70155808Y-134435413D01*
X69200000Y-133479605D01*
X68244192Y-134435413D01*
X67185036Y-134435413D01*
X67185036Y-133362595D01*
X67558282Y-133362595D01*
X67602039Y-133681675D01*
X67707205Y-133986088D01*
X67800186Y-134160044D01*
X68064587Y-134255808D01*
X69020395Y-133300000D01*
X69379605Y-133300000D01*
X70335413Y-134255808D01*
X70599814Y-134160044D01*
X70740704Y-133870429D01*
X70822384Y-133558892D01*
X70841718Y-133237405D01*
X70828219Y-133138967D01*
X71995000Y-133138967D01*
X71995000Y-133461033D01*
X72057832Y-133776912D01*
X72181082Y-134074463D01*
X72360013Y-134342252D01*
X72587748Y-134569987D01*
X72855537Y-134748918D01*
X73153088Y-134872168D01*
X73468967Y-134935000D01*
X73791033Y-134935000D01*
X74106912Y-134872168D01*
X74404463Y-134748918D01*
X74672252Y-134569987D01*
X74899987Y-134342252D01*
X75078918Y-134074463D01*
X75202168Y-133776912D01*
X75265000Y-133461033D01*
X75265000Y-133138967D01*
X75264988Y-133138905D01*
X111249800Y-133138905D01*
X111249800Y-133460971D01*
X111312632Y-133776850D01*
X111435882Y-134074401D01*
X111614813Y-134342190D01*
X111842548Y-134569925D01*
X112110337Y-134748856D01*
X112407888Y-134872106D01*
X112723767Y-134934938D01*
X113045833Y-134934938D01*
X113361712Y-134872106D01*
X113659263Y-134748856D01*
X113927052Y-134569925D01*
X114061626Y-134435351D01*
X116358992Y-134435351D01*
X116454756Y-134699752D01*
X116744371Y-134840642D01*
X117055908Y-134922322D01*
X117377395Y-134941656D01*
X117696475Y-134897899D01*
X118000888Y-134792733D01*
X118174844Y-134699752D01*
X118270608Y-134435351D01*
X117314800Y-133479543D01*
X116358992Y-134435351D01*
X114061626Y-134435351D01*
X114154787Y-134342190D01*
X114333718Y-134074401D01*
X114456968Y-133776850D01*
X114519800Y-133460971D01*
X114519800Y-133362533D01*
X115673082Y-133362533D01*
X115716839Y-133681613D01*
X115822005Y-133986026D01*
X115914986Y-134159982D01*
X116179387Y-134255746D01*
X117135195Y-133299938D01*
X117494405Y-133299938D01*
X118450213Y-134255746D01*
X118714614Y-134159982D01*
X118855504Y-133870367D01*
X118937184Y-133558830D01*
X118956518Y-133237343D01*
X118912761Y-132918263D01*
X118807595Y-132613850D01*
X118714614Y-132439894D01*
X118450213Y-132344130D01*
X117494405Y-133299938D01*
X117135195Y-133299938D01*
X116179387Y-132344130D01*
X115914986Y-132439894D01*
X115774096Y-132729509D01*
X115692416Y-133041046D01*
X115673082Y-133362533D01*
X114519800Y-133362533D01*
X114519800Y-133138905D01*
X114456968Y-132823026D01*
X114333718Y-132525475D01*
X114154787Y-132257686D01*
X114061626Y-132164525D01*
X116358992Y-132164525D01*
X117314800Y-133120333D01*
X118270608Y-132164525D01*
X118174844Y-131900124D01*
X117885229Y-131759234D01*
X117573692Y-131677554D01*
X117252205Y-131658220D01*
X116933125Y-131701977D01*
X116628712Y-131807143D01*
X116454756Y-131900124D01*
X116358992Y-132164525D01*
X114061626Y-132164525D01*
X113927052Y-132029951D01*
X113659263Y-131851020D01*
X113361712Y-131727770D01*
X113045833Y-131664938D01*
X112723767Y-131664938D01*
X112407888Y-131727770D01*
X112110337Y-131851020D01*
X111842548Y-132029951D01*
X111614813Y-132257686D01*
X111435882Y-132525475D01*
X111312632Y-132823026D01*
X111249800Y-133138905D01*
X75264988Y-133138905D01*
X75202168Y-132823088D01*
X75078918Y-132525537D01*
X74899987Y-132257748D01*
X74672252Y-132030013D01*
X74404463Y-131851082D01*
X74106912Y-131727832D01*
X73791033Y-131665000D01*
X73468967Y-131665000D01*
X73153088Y-131727832D01*
X72855537Y-131851082D01*
X72587748Y-132030013D01*
X72360013Y-132257748D01*
X72181082Y-132525537D01*
X72057832Y-132823088D01*
X71995000Y-133138967D01*
X70828219Y-133138967D01*
X70797961Y-132918325D01*
X70692795Y-132613912D01*
X70599814Y-132439956D01*
X70335413Y-132344192D01*
X69379605Y-133300000D01*
X69020395Y-133300000D01*
X68064587Y-132344192D01*
X67800186Y-132439956D01*
X67659296Y-132729571D01*
X67577616Y-133041108D01*
X67558282Y-133362595D01*
X67185036Y-133362595D01*
X67185036Y-132164587D01*
X68244192Y-132164587D01*
X69200000Y-133120395D01*
X70155808Y-132164587D01*
X70060044Y-131900186D01*
X69770429Y-131759296D01*
X69458892Y-131677616D01*
X69137405Y-131658282D01*
X68818325Y-131702039D01*
X68513912Y-131807205D01*
X68339956Y-131900186D01*
X68244192Y-132164587D01*
X67185036Y-132164587D01*
X67185036Y-128050000D01*
X83811927Y-128050000D01*
X83811927Y-129350000D01*
X83838598Y-129620799D01*
X83917588Y-129881192D01*
X84045859Y-130121171D01*
X84218484Y-130331515D01*
X84428828Y-130504140D01*
X84668807Y-130632411D01*
X84929200Y-130711401D01*
X85199999Y-130738072D01*
X85200001Y-130738072D01*
X85470800Y-130711401D01*
X85731193Y-130632411D01*
X85971172Y-130504140D01*
X86181516Y-130331515D01*
X86354141Y-130121171D01*
X86482412Y-129881192D01*
X86561402Y-129620799D01*
X86588073Y-129350000D01*
X86588073Y-128050000D01*
X87821927Y-128050000D01*
X87821927Y-129350000D01*
X87848598Y-129620799D01*
X87927588Y-129881192D01*
X88055859Y-130121171D01*
X88228484Y-130331515D01*
X88438828Y-130504140D01*
X88678807Y-130632411D01*
X88939200Y-130711401D01*
X89209999Y-130738072D01*
X89210001Y-130738072D01*
X89480800Y-130711401D01*
X89741193Y-130632411D01*
X89981172Y-130504140D01*
X90191516Y-130331515D01*
X90364141Y-130121171D01*
X90375457Y-130100000D01*
X91851928Y-130100000D01*
X91864188Y-130224482D01*
X91900498Y-130344180D01*
X91959463Y-130454494D01*
X92038815Y-130551185D01*
X92135506Y-130630537D01*
X92245820Y-130689502D01*
X92365518Y-130725812D01*
X92490000Y-130738072D01*
X92954250Y-130735000D01*
X93113000Y-130576250D01*
X93113000Y-128827000D01*
X93367000Y-128827000D01*
X93367000Y-130576250D01*
X93525750Y-130735000D01*
X93990000Y-130738072D01*
X94114482Y-130725812D01*
X94234180Y-130689502D01*
X94344494Y-130630537D01*
X94441185Y-130551185D01*
X94520537Y-130454494D01*
X94579502Y-130344180D01*
X94615812Y-130224482D01*
X94628072Y-130100000D01*
X94625000Y-128985750D01*
X94466250Y-128827000D01*
X93367000Y-128827000D01*
X93113000Y-128827000D01*
X92013750Y-128827000D01*
X91855000Y-128985750D01*
X91851928Y-130100000D01*
X90375457Y-130100000D01*
X90492412Y-129881192D01*
X90571402Y-129620799D01*
X90598073Y-129350000D01*
X90598073Y-128050000D01*
X90571402Y-127779201D01*
X90492412Y-127518808D01*
X90375458Y-127300000D01*
X91851928Y-127300000D01*
X91855000Y-128414250D01*
X92013750Y-128573000D01*
X93113000Y-128573000D01*
X93113000Y-126823750D01*
X93367000Y-126823750D01*
X93367000Y-128573000D01*
X94466250Y-128573000D01*
X94625000Y-128414250D01*
X94626004Y-128050000D01*
X95881927Y-128050000D01*
X95881927Y-129350000D01*
X95908598Y-129620799D01*
X95987588Y-129881192D01*
X96115859Y-130121171D01*
X96288484Y-130331515D01*
X96498828Y-130504140D01*
X96738807Y-130632411D01*
X96999200Y-130711401D01*
X97269999Y-130738072D01*
X97270001Y-130738072D01*
X97540800Y-130711401D01*
X97801193Y-130632411D01*
X98041172Y-130504140D01*
X98251516Y-130331515D01*
X98424141Y-130121171D01*
X98552412Y-129881192D01*
X98631402Y-129620799D01*
X98658073Y-129350000D01*
X98658073Y-128050000D01*
X99911927Y-128050000D01*
X99911927Y-129350000D01*
X99938598Y-129620799D01*
X100017588Y-129881192D01*
X100145859Y-130121171D01*
X100318484Y-130331515D01*
X100528828Y-130504140D01*
X100768807Y-130632411D01*
X101029200Y-130711401D01*
X101299999Y-130738072D01*
X101300001Y-130738072D01*
X101570800Y-130711401D01*
X101831193Y-130632411D01*
X102071172Y-130504140D01*
X102281516Y-130331515D01*
X102454141Y-130121171D01*
X102582412Y-129881192D01*
X102661402Y-129620799D01*
X102688073Y-129350000D01*
X102688073Y-128050000D01*
X102661402Y-127779201D01*
X102582412Y-127518808D01*
X102454141Y-127278829D01*
X102281516Y-127068485D01*
X102071172Y-126895860D01*
X101831193Y-126767589D01*
X101570800Y-126688599D01*
X101300001Y-126661928D01*
X101299999Y-126661928D01*
X101029200Y-126688599D01*
X100768807Y-126767589D01*
X100528828Y-126895860D01*
X100318484Y-127068485D01*
X100145859Y-127278829D01*
X100017588Y-127518808D01*
X99938598Y-127779201D01*
X99911927Y-128050000D01*
X98658073Y-128050000D01*
X98631402Y-127779201D01*
X98552412Y-127518808D01*
X98424141Y-127278829D01*
X98251516Y-127068485D01*
X98041172Y-126895860D01*
X97801193Y-126767589D01*
X97540800Y-126688599D01*
X97270001Y-126661928D01*
X97269999Y-126661928D01*
X96999200Y-126688599D01*
X96738807Y-126767589D01*
X96498828Y-126895860D01*
X96288484Y-127068485D01*
X96115859Y-127278829D01*
X95987588Y-127518808D01*
X95908598Y-127779201D01*
X95881927Y-128050000D01*
X94626004Y-128050000D01*
X94628072Y-127300000D01*
X94615812Y-127175518D01*
X94579502Y-127055820D01*
X94520537Y-126945506D01*
X94441185Y-126848815D01*
X94344494Y-126769463D01*
X94234180Y-126710498D01*
X94114482Y-126674188D01*
X93990000Y-126661928D01*
X93525750Y-126665000D01*
X93367000Y-126823750D01*
X93113000Y-126823750D01*
X92954250Y-126665000D01*
X92490000Y-126661928D01*
X92365518Y-126674188D01*
X92245820Y-126710498D01*
X92135506Y-126769463D01*
X92038815Y-126848815D01*
X91959463Y-126945506D01*
X91900498Y-127055820D01*
X91864188Y-127175518D01*
X91851928Y-127300000D01*
X90375458Y-127300000D01*
X90364141Y-127278829D01*
X90191516Y-127068485D01*
X89981172Y-126895860D01*
X89741193Y-126767589D01*
X89480800Y-126688599D01*
X89210001Y-126661928D01*
X89209999Y-126661928D01*
X88939200Y-126688599D01*
X88678807Y-126767589D01*
X88438828Y-126895860D01*
X88228484Y-127068485D01*
X88055859Y-127278829D01*
X87927588Y-127518808D01*
X87848598Y-127779201D01*
X87821927Y-128050000D01*
X86588073Y-128050000D01*
X86561402Y-127779201D01*
X86482412Y-127518808D01*
X86354141Y-127278829D01*
X86181516Y-127068485D01*
X85971172Y-126895860D01*
X85731193Y-126767589D01*
X85470800Y-126688599D01*
X85200001Y-126661928D01*
X85199999Y-126661928D01*
X84929200Y-126688599D01*
X84668807Y-126767589D01*
X84428828Y-126895860D01*
X84218484Y-127068485D01*
X84045859Y-127278829D01*
X83917588Y-127518808D01*
X83838598Y-127779201D01*
X83811927Y-128050000D01*
X67185036Y-128050000D01*
X67185036Y-126235413D01*
X68244192Y-126235413D01*
X68339956Y-126499814D01*
X68629571Y-126640704D01*
X68941108Y-126722384D01*
X69262595Y-126741718D01*
X69581675Y-126697961D01*
X69886088Y-126592795D01*
X70060044Y-126499814D01*
X70155808Y-126235413D01*
X69200000Y-125279605D01*
X68244192Y-126235413D01*
X67185036Y-126235413D01*
X67185036Y-125162595D01*
X67558282Y-125162595D01*
X67602039Y-125481675D01*
X67707205Y-125786088D01*
X67800186Y-125960044D01*
X68064587Y-126055808D01*
X69020395Y-125100000D01*
X69379605Y-125100000D01*
X70335413Y-126055808D01*
X70599814Y-125960044D01*
X70740704Y-125670429D01*
X70822384Y-125358892D01*
X70841718Y-125037405D01*
X70828219Y-124938967D01*
X71995000Y-124938967D01*
X71995000Y-125261033D01*
X72057832Y-125576912D01*
X72181082Y-125874463D01*
X72360013Y-126142252D01*
X72587748Y-126369987D01*
X72855537Y-126548918D01*
X73153088Y-126672168D01*
X73468967Y-126735000D01*
X73791033Y-126735000D01*
X74106912Y-126672168D01*
X74404463Y-126548918D01*
X74672252Y-126369987D01*
X74899987Y-126142252D01*
X75078918Y-125874463D01*
X75202168Y-125576912D01*
X75265000Y-125261033D01*
X75265000Y-124938967D01*
X75202168Y-124623088D01*
X75078918Y-124325537D01*
X74899987Y-124057748D01*
X74672252Y-123830013D01*
X74404463Y-123651082D01*
X74106912Y-123527832D01*
X73791033Y-123465000D01*
X73468967Y-123465000D01*
X73153088Y-123527832D01*
X72855537Y-123651082D01*
X72587748Y-123830013D01*
X72360013Y-124057748D01*
X72181082Y-124325537D01*
X72057832Y-124623088D01*
X71995000Y-124938967D01*
X70828219Y-124938967D01*
X70797961Y-124718325D01*
X70692795Y-124413912D01*
X70599814Y-124239956D01*
X70335413Y-124144192D01*
X69379605Y-125100000D01*
X69020395Y-125100000D01*
X68064587Y-124144192D01*
X67800186Y-124239956D01*
X67659296Y-124529571D01*
X67577616Y-124841108D01*
X67558282Y-125162595D01*
X67185036Y-125162595D01*
X67185036Y-123964587D01*
X68244192Y-123964587D01*
X69200000Y-124920395D01*
X70155808Y-123964587D01*
X70060044Y-123700186D01*
X69770429Y-123559296D01*
X69458892Y-123477616D01*
X69137405Y-123458282D01*
X68818325Y-123502039D01*
X68513912Y-123607205D01*
X68339956Y-123700186D01*
X68244192Y-123964587D01*
X67185036Y-123964587D01*
X67185036Y-121329099D01*
X67765036Y-121329099D01*
X67765036Y-121670865D01*
X67831711Y-122006063D01*
X67962499Y-122321813D01*
X68152373Y-122605980D01*
X68394038Y-122847645D01*
X68678205Y-123037519D01*
X68993955Y-123168307D01*
X69329153Y-123234982D01*
X69670919Y-123234982D01*
X70006117Y-123168307D01*
X70321867Y-123037519D01*
X70606034Y-122847645D01*
X70803679Y-122650000D01*
X83811927Y-122650000D01*
X83811927Y-123950000D01*
X83838598Y-124220799D01*
X83917588Y-124481192D01*
X84045859Y-124721171D01*
X84218484Y-124931515D01*
X84428828Y-125104140D01*
X84668807Y-125232411D01*
X84929200Y-125311401D01*
X85199999Y-125338072D01*
X85200001Y-125338072D01*
X85470800Y-125311401D01*
X85731193Y-125232411D01*
X85971172Y-125104140D01*
X86181516Y-124931515D01*
X86354141Y-124721171D01*
X86482412Y-124481192D01*
X86561402Y-124220799D01*
X86588073Y-123950000D01*
X86588073Y-122650000D01*
X87111927Y-122650000D01*
X87111927Y-123950000D01*
X87138598Y-124220799D01*
X87217588Y-124481192D01*
X87345859Y-124721171D01*
X87518484Y-124931515D01*
X87728828Y-125104140D01*
X87968807Y-125232411D01*
X88229200Y-125311401D01*
X88499999Y-125338072D01*
X88500001Y-125338072D01*
X88770800Y-125311401D01*
X89031193Y-125232411D01*
X89271172Y-125104140D01*
X89481516Y-124931515D01*
X89654141Y-124721171D01*
X89665457Y-124700000D01*
X90251928Y-124700000D01*
X90264188Y-124824482D01*
X90300498Y-124944180D01*
X90359463Y-125054494D01*
X90438815Y-125151185D01*
X90535506Y-125230537D01*
X90645820Y-125289502D01*
X90765518Y-125325812D01*
X90890000Y-125338072D01*
X91354250Y-125335000D01*
X91513000Y-125176250D01*
X91513000Y-123427000D01*
X91767000Y-123427000D01*
X91767000Y-125176250D01*
X91925750Y-125335000D01*
X92390000Y-125338072D01*
X92514482Y-125325812D01*
X92634180Y-125289502D01*
X92744494Y-125230537D01*
X92841185Y-125151185D01*
X92920537Y-125054494D01*
X92979502Y-124944180D01*
X93015812Y-124824482D01*
X93028072Y-124700000D01*
X93471928Y-124700000D01*
X93484188Y-124824482D01*
X93520498Y-124944180D01*
X93579463Y-125054494D01*
X93658815Y-125151185D01*
X93755506Y-125230537D01*
X93865820Y-125289502D01*
X93985518Y-125325812D01*
X94110000Y-125338072D01*
X94574250Y-125335000D01*
X94733000Y-125176250D01*
X94733000Y-123427000D01*
X94987000Y-123427000D01*
X94987000Y-125176250D01*
X95145750Y-125335000D01*
X95610000Y-125338072D01*
X95734482Y-125325812D01*
X95854180Y-125289502D01*
X95964494Y-125230537D01*
X96061185Y-125151185D01*
X96140537Y-125054494D01*
X96199502Y-124944180D01*
X96235812Y-124824482D01*
X96248072Y-124700000D01*
X96245000Y-123585750D01*
X96086250Y-123427000D01*
X94987000Y-123427000D01*
X94733000Y-123427000D01*
X93633750Y-123427000D01*
X93475000Y-123585750D01*
X93471928Y-124700000D01*
X93028072Y-124700000D01*
X93025000Y-123585750D01*
X92866250Y-123427000D01*
X91767000Y-123427000D01*
X91513000Y-123427000D01*
X90413750Y-123427000D01*
X90255000Y-123585750D01*
X90251928Y-124700000D01*
X89665457Y-124700000D01*
X89782412Y-124481192D01*
X89861402Y-124220799D01*
X89888073Y-123950000D01*
X89888073Y-122650000D01*
X89861402Y-122379201D01*
X89782412Y-122118808D01*
X89665458Y-121900000D01*
X90251928Y-121900000D01*
X90255000Y-123014250D01*
X90413750Y-123173000D01*
X91513000Y-123173000D01*
X91513000Y-121423750D01*
X91767000Y-121423750D01*
X91767000Y-123173000D01*
X92866250Y-123173000D01*
X93025000Y-123014250D01*
X93028072Y-121900000D01*
X93471928Y-121900000D01*
X93475000Y-123014250D01*
X93633750Y-123173000D01*
X94733000Y-123173000D01*
X94733000Y-121423750D01*
X94987000Y-121423750D01*
X94987000Y-123173000D01*
X96086250Y-123173000D01*
X96245000Y-123014250D01*
X96246004Y-122650000D01*
X96691927Y-122650000D01*
X96691927Y-123950000D01*
X96718598Y-124220799D01*
X96797588Y-124481192D01*
X96925859Y-124721171D01*
X97098484Y-124931515D01*
X97308828Y-125104140D01*
X97548807Y-125232411D01*
X97809200Y-125311401D01*
X98079999Y-125338072D01*
X98080001Y-125338072D01*
X98350800Y-125311401D01*
X98611193Y-125232411D01*
X98851172Y-125104140D01*
X99061516Y-124931515D01*
X99234141Y-124721171D01*
X99362412Y-124481192D01*
X99441402Y-124220799D01*
X99468073Y-123950000D01*
X99468073Y-122650000D01*
X99911927Y-122650000D01*
X99911927Y-123950000D01*
X99938598Y-124220799D01*
X100017588Y-124481192D01*
X100145859Y-124721171D01*
X100318484Y-124931515D01*
X100528828Y-125104140D01*
X100768807Y-125232411D01*
X101029200Y-125311401D01*
X101299999Y-125338072D01*
X101300001Y-125338072D01*
X101570800Y-125311401D01*
X101831193Y-125232411D01*
X102071172Y-125104140D01*
X102272511Y-124938905D01*
X111249800Y-124938905D01*
X111249800Y-125260971D01*
X111312632Y-125576850D01*
X111317618Y-125588887D01*
X111323537Y-125648985D01*
X111366993Y-125792246D01*
X111437565Y-125924276D01*
X111532538Y-126040001D01*
X111563524Y-126065430D01*
X111614813Y-126142190D01*
X111842548Y-126369925D01*
X112110337Y-126548856D01*
X112407888Y-126672106D01*
X112723767Y-126734938D01*
X113045833Y-126734938D01*
X113361712Y-126672106D01*
X113659263Y-126548856D01*
X113927052Y-126369925D01*
X114061626Y-126235351D01*
X116358992Y-126235351D01*
X116454756Y-126499752D01*
X116744371Y-126640642D01*
X117055908Y-126722322D01*
X117377395Y-126741656D01*
X117696475Y-126697899D01*
X118000888Y-126592733D01*
X118174844Y-126499752D01*
X118270608Y-126235351D01*
X117314800Y-125279543D01*
X116358992Y-126235351D01*
X114061626Y-126235351D01*
X114154787Y-126142190D01*
X114333718Y-125874401D01*
X114456968Y-125576850D01*
X114519800Y-125260971D01*
X114519800Y-125162533D01*
X115673082Y-125162533D01*
X115716839Y-125481613D01*
X115822005Y-125786026D01*
X115914986Y-125959982D01*
X116179387Y-126055746D01*
X117135195Y-125099938D01*
X117494405Y-125099938D01*
X118450213Y-126055746D01*
X118714614Y-125959982D01*
X118855504Y-125670367D01*
X118937184Y-125358830D01*
X118956518Y-125037343D01*
X118912761Y-124718263D01*
X118807595Y-124413850D01*
X118714614Y-124239894D01*
X118450213Y-124144130D01*
X117494405Y-125099938D01*
X117135195Y-125099938D01*
X116179387Y-124144130D01*
X115914986Y-124239894D01*
X115774096Y-124529509D01*
X115692416Y-124841046D01*
X115673082Y-125162533D01*
X114519800Y-125162533D01*
X114519800Y-124938905D01*
X114456968Y-124623026D01*
X114333718Y-124325475D01*
X114154787Y-124057686D01*
X114061626Y-123964525D01*
X116358992Y-123964525D01*
X117314800Y-124920333D01*
X118270608Y-123964525D01*
X118174844Y-123700124D01*
X117885229Y-123559234D01*
X117573692Y-123477554D01*
X117252205Y-123458220D01*
X116933125Y-123501977D01*
X116628712Y-123607143D01*
X116454756Y-123700124D01*
X116358992Y-123964525D01*
X114061626Y-123964525D01*
X113927052Y-123829951D01*
X113659263Y-123651020D01*
X113361712Y-123527770D01*
X113045833Y-123464938D01*
X112723767Y-123464938D01*
X112407888Y-123527770D01*
X112110337Y-123651020D01*
X111842548Y-123829951D01*
X111614813Y-124057686D01*
X111435882Y-124325475D01*
X111312632Y-124623026D01*
X111249800Y-124938905D01*
X102272511Y-124938905D01*
X102281516Y-124931515D01*
X102454141Y-124721171D01*
X102582412Y-124481192D01*
X102661402Y-124220799D01*
X102688073Y-123950000D01*
X102688073Y-122650000D01*
X102661402Y-122379201D01*
X102582412Y-122118808D01*
X102454141Y-121878829D01*
X102281516Y-121668485D01*
X102071172Y-121495860D01*
X101831193Y-121367589D01*
X101704310Y-121329099D01*
X115265000Y-121329099D01*
X115265000Y-121670865D01*
X115331675Y-122006063D01*
X115462463Y-122321813D01*
X115652337Y-122605980D01*
X115894002Y-122847645D01*
X116178169Y-123037519D01*
X116493919Y-123168307D01*
X116829117Y-123234982D01*
X117170883Y-123234982D01*
X117506081Y-123168307D01*
X117821831Y-123037519D01*
X118105998Y-122847645D01*
X118347663Y-122605980D01*
X118537537Y-122321813D01*
X118668325Y-122006063D01*
X118735000Y-121670865D01*
X118735000Y-121329099D01*
X118668325Y-120993901D01*
X118537537Y-120678151D01*
X118347663Y-120393984D01*
X118105998Y-120152319D01*
X117821831Y-119962445D01*
X117506081Y-119831657D01*
X117170883Y-119764982D01*
X116829117Y-119764982D01*
X116493919Y-119831657D01*
X116178169Y-119962445D01*
X115894002Y-120152319D01*
X115652337Y-120393984D01*
X115462463Y-120678151D01*
X115331675Y-120993901D01*
X115265000Y-121329099D01*
X101704310Y-121329099D01*
X101570800Y-121288599D01*
X101300001Y-121261928D01*
X101299999Y-121261928D01*
X101029200Y-121288599D01*
X100768807Y-121367589D01*
X100528828Y-121495860D01*
X100318484Y-121668485D01*
X100145859Y-121878829D01*
X100017588Y-122118808D01*
X99938598Y-122379201D01*
X99911927Y-122650000D01*
X99468073Y-122650000D01*
X99441402Y-122379201D01*
X99362412Y-122118808D01*
X99234141Y-121878829D01*
X99061516Y-121668485D01*
X98851172Y-121495860D01*
X98611193Y-121367589D01*
X98350800Y-121288599D01*
X98080001Y-121261928D01*
X98079999Y-121261928D01*
X97809200Y-121288599D01*
X97548807Y-121367589D01*
X97308828Y-121495860D01*
X97098484Y-121668485D01*
X96925859Y-121878829D01*
X96797588Y-122118808D01*
X96718598Y-122379201D01*
X96691927Y-122650000D01*
X96246004Y-122650000D01*
X96248072Y-121900000D01*
X96235812Y-121775518D01*
X96199502Y-121655820D01*
X96140537Y-121545506D01*
X96061185Y-121448815D01*
X95964494Y-121369463D01*
X95854180Y-121310498D01*
X95734482Y-121274188D01*
X95610000Y-121261928D01*
X95145750Y-121265000D01*
X94987000Y-121423750D01*
X94733000Y-121423750D01*
X94574250Y-121265000D01*
X94110000Y-121261928D01*
X93985518Y-121274188D01*
X93865820Y-121310498D01*
X93755506Y-121369463D01*
X93658815Y-121448815D01*
X93579463Y-121545506D01*
X93520498Y-121655820D01*
X93484188Y-121775518D01*
X93471928Y-121900000D01*
X93028072Y-121900000D01*
X93015812Y-121775518D01*
X92979502Y-121655820D01*
X92920537Y-121545506D01*
X92841185Y-121448815D01*
X92744494Y-121369463D01*
X92634180Y-121310498D01*
X92514482Y-121274188D01*
X92390000Y-121261928D01*
X91925750Y-121265000D01*
X91767000Y-121423750D01*
X91513000Y-121423750D01*
X91354250Y-121265000D01*
X90890000Y-121261928D01*
X90765518Y-121274188D01*
X90645820Y-121310498D01*
X90535506Y-121369463D01*
X90438815Y-121448815D01*
X90359463Y-121545506D01*
X90300498Y-121655820D01*
X90264188Y-121775518D01*
X90251928Y-121900000D01*
X89665458Y-121900000D01*
X89654141Y-121878829D01*
X89481516Y-121668485D01*
X89271172Y-121495860D01*
X89031193Y-121367589D01*
X88770800Y-121288599D01*
X88500001Y-121261928D01*
X88499999Y-121261928D01*
X88229200Y-121288599D01*
X87968807Y-121367589D01*
X87728828Y-121495860D01*
X87518484Y-121668485D01*
X87345859Y-121878829D01*
X87217588Y-122118808D01*
X87138598Y-122379201D01*
X87111927Y-122650000D01*
X86588073Y-122650000D01*
X86561402Y-122379201D01*
X86482412Y-122118808D01*
X86354141Y-121878829D01*
X86181516Y-121668485D01*
X85971172Y-121495860D01*
X85731193Y-121367589D01*
X85470800Y-121288599D01*
X85200001Y-121261928D01*
X85199999Y-121261928D01*
X84929200Y-121288599D01*
X84668807Y-121367589D01*
X84428828Y-121495860D01*
X84218484Y-121668485D01*
X84045859Y-121878829D01*
X83917588Y-122118808D01*
X83838598Y-122379201D01*
X83811927Y-122650000D01*
X70803679Y-122650000D01*
X70847699Y-122605980D01*
X71037573Y-122321813D01*
X71168361Y-122006063D01*
X71235036Y-121670865D01*
X71235036Y-121329099D01*
X71168361Y-120993901D01*
X71037573Y-120678151D01*
X70847699Y-120393984D01*
X70606034Y-120152319D01*
X70321867Y-119962445D01*
X70006117Y-119831657D01*
X69670919Y-119764982D01*
X69329153Y-119764982D01*
X68993955Y-119831657D01*
X68678205Y-119962445D01*
X68394038Y-120152319D01*
X68152373Y-120393984D01*
X67962499Y-120678151D01*
X67831711Y-120993901D01*
X67765036Y-121329099D01*
X67185036Y-121329099D01*
X67185036Y-119685000D01*
X119315000Y-119685000D01*
X119315001Y-154689989D01*
G37*
G04 #@! TD.AperFunction*
M02*
